<?xml version="1.0" encoding="utf-8"?>
<!-- Generator: Adobe Illustrator 22.0.0, SVG Export Plug-In . SVG Version: 6.00 Build 0)  -->
<svg version="1.1" id="Layer_1" xmlns="http://www.w3.org/2000/svg" xmlns:xlink="http://www.w3.org/1999/xlink" x="0px" y="0px"
	 viewBox="0 0 200 200" style="enable-background:new 0 0 200 200;" xml:space="preserve">
<style type="text/css">
	.st0{fill:#132C33;}
</style>
<title>paypal-seeklogo.com</title>
<g>
	<path class="st0" d="M75.6,56.5c-2.9-9.6-6.8-18.3-11.7-26.4c-1.4-2.4-3-4.7-4.5-7c-0.8-1.2-1.3-2.5-0.5-3.9s2.1-1.7,3.6-1.7
		c30.5,0.1,59.3,20.2,70.1,48.9c1.9,5,3.1,10.3,4.7,15.6c0.3-0.1,0.8-0.3,1.3-0.5c9.9-4.6,20.3-7,31.2-7c8,0,16,0,24,0
		c1.9,0,3.5,0.3,4.1,2.3s-0.7,3.1-2.3,4.1c-18.7,12.3-28.4,29.6-29.3,51.9c0,0.5,0,1,0,1.9c0.8,0,1.5,0,2.2,0c5.4,0,10.7,0,16.1,0
		c2.8,0,3.9,1.1,4,4c0,4.8,0,9.6,0,15c1.5-1.9,2.6-3.3,3.8-4.9c1.6,1.2,3.3,2.4,5.2,3.9c-2.7,3.3-5,6.8-8,9.6
		c-7,6.5-16.8,5.6-22.9-1.7c-4.9-5.8-11.8-8-18.2-5.9c-3.2,1.1-5.5,3.2-7.6,5.7c-3.7,4.4-8.5,6.4-14.2,6.1
		c-4.7-0.3-8.6-2.4-11.8-5.8c-3.3-3.5-7.1-5.8-11.9-6.5c-6.1-0.9-11.5,0.7-16.2,4.7c-1.2,1-2.3,2.2-3.4,3.3
		c-7.2,6.5-18.4,5.9-24.3-1.7c-7.8-10-20.4-7.2-25.9,0.1c-7.1,9.2-19.2,6.9-24.9-0.1c-2-2.5-3.9-5.1-6-7.8c1.8-1.3,3.4-2.5,5.1-3.8
		c1.2,1.6,2.3,3.1,3.8,5c0-3.1,0-5.5,0-8c0-2.4,0-4.9,0-7.3c0-2.5,1.2-3.6,3.7-3.6c5.3,0,10.6,0,15.9,0c0.7,0,1.4,0,2.7,0
		c-0.9-5.1-1.5-10-2.7-14.8C26.9,104,18.9,90.1,7.2,78.3c-1.5-1.5-3.2-2.9-4.4-4.5c-0.6-0.9-1-2.4-0.7-3.4c0.3-0.9,1.7-1.9,2.6-1.9
		c10.2-0.1,20.6-0.9,30.5,2.2c5.8,1.8,11.4,4.4,17.1,6.6c0.5,0.2,1,0.5,1.8,0.5c-0.3-0.6-0.7-1.2-1-1.7c-4.2-6.5-9.5-12-14.9-17.4
		c-0.8-0.8-1.5-2.2-1.5-3.4c-0.1-1.6,1.5-2.6,3.6-2.6C51.9,52.3,63.8,52,75.6,56.5z M104.2,134.7c18.6,0,37.1,0,55.7,0
		c0.3-21.5,8.5-39.3,24.9-53.8c-5.4,0-10.3-0.1-15.2,0c-23.3,0.5-41.8,10.3-55.2,29.4C109.2,117.7,105.9,125.8,104.2,134.7z
		 M12.4,74.7c16.2,17,25,37,26.9,60c14.8,0,29.4,0,44.1,0C80.9,102.8,52.5,72.5,12.4,74.7z M47.2,58.8c0.7,0.8,1.1,1.3,1.6,1.8
		c6.9,7.4,12.3,15.6,16.6,24.7c0.6,1.3,1.5,2.5,2.5,3.5c8.7,8.6,15.2,18.6,18.7,30.4c1.5,5.1,2.4,10.3,3.6,15.6c2.3,0,4.8,0,7.4,0
		c0.2-0.6,0.3-1.1,0.4-1.6c2.3-11.5,7.2-21.9,14.6-31c1-1.2,1.1-2.1,0.5-3.5C106.1,83.4,95,72.1,79.7,65
		C69.6,60.1,58.8,58.3,47.2,58.8z M17.3,141.3c0,5.8,0,11.5,0.1,17.1c0,0.5,0.7,1.2,1.2,1.4c3.3,1,6.3,0.2,8.7-2.3
		c0.7-0.8,1.3-1.6,2.1-2.4c9.4-10.1,25-10,33.4,0.2c5.3,6.4,11.8,6.7,17.7,0.9c11.5-11.5,27.3-11.5,38.7-0.1c6,6,12.4,5.6,17.8-0.9
		c4.2-5,9.6-7.6,16.1-7.6c7.6,0,13.8,3.2,18.6,9c2.6,3.2,6,4.3,9.5,3.2c0.5-0.2,1.1-0.8,1.1-1.2c0.1-5.7,0.1-11.5,0.1-17.3
		C127.1,141.3,72.3,141.3,17.3,141.3z M118.8,94.9c3.2-2.5,6.4-5.2,9.9-7.6c1.9-1.2,2.3-2.4,1.9-4.5c-5.8-28.9-22.7-47.8-50.8-56.5
		c-3.7-1.1-7.6-1.6-12-2.5c0.6,1.1,0.9,1.6,1.2,2.1c6,9.8,10.5,20.3,13.6,31.5c0.4,1.4,1.1,2.2,2.4,2.8
		c10.5,5.2,19.3,12.6,26.2,22.2C113.9,86.5,116.2,90.8,118.8,94.9z"/>
	<path class="st0" d="M192.3,164.7c1.7,1.3,3.3,2.5,5.4,4c-3.2,3.6-5.9,7.5-9.4,10.4c-6.8,5.5-15.9,4.3-21.5-2.5
		c-2.7-3.2-5.9-5.5-10-6.4c-6.4-1.4-11.7,0.7-15.8,5.8c-3.7,4.6-8.6,6.7-14.4,6.4c-4.8-0.2-8.7-2.5-11.9-5.9
		c-3.8-4-8.4-6.4-13.9-6.7c-6.2-0.3-11.4,2-15.6,6.4c-2.7,2.8-5.8,5.1-9.7,5.8c-6.7,1.3-12.5-0.6-16.8-5.9
		c-3.5-4.3-7.8-6.7-13.4-6.3c-4.7,0.3-8.9,2.2-11.7,5.9c-7.5,10.1-20.7,7.8-26.8-0.9c-1.5-2.1-3.1-4.1-4.7-6.3
		c1.7-1.3,3.3-2.5,5-3.8c1.7,2.3,3.3,4.6,5.1,6.7c1.3,1.4,2.8,2.9,4.5,3.7c4.2,2.1,8.2,1.1,11.1-2.6c3.9-4.8,8.7-7.8,14.8-8.8
		c8.2-1.3,15,1.4,20.2,7.7c4.8,5.8,11.6,6.2,17,0.9c0.3-0.3,0.6-0.6,0.8-0.8c10.9-10.9,26.9-10.8,37.9,0c0.3,0.3,0.7,0.7,1,1
		c5.2,5.1,12.1,4.8,16.7-0.9c4.9-6,11.2-8.8,18.8-8.1c6.5,0.6,12,3.4,15.9,8.6c4.4,6,12.1,4.5,15.8-0.2
		C188.6,169.6,190.4,167.2,192.3,164.7z"/>
</g>
</svg>
