<?xml version="1.0" encoding="utf-8"?>
<!-- Generator: Adobe Illustrator 22.0.0, SVG Export Plug-In . SVG Version: 6.00 Build 0)  -->
<svg version="1.1" id="Layer_1" xmlns="http://www.w3.org/2000/svg" xmlns:xlink="http://www.w3.org/1999/xlink" x="0px" y="0px"
	 viewBox="0 0 650 650" style="enable-background:new 0 0 650 650;" xml:space="preserve">
<style type="text/css">
	.st0{fill:#F0F0F0;}
	.st1{fill:#E0E0E0;}
	.st2{fill:#EBEBEB;}
	.st3{fill:#263238;}
	.st4{fill:#126E82;}
	.st5{fill:#455A64;}
	.st6{fill:#FAFAFA;}
	.st7{fill:#FFBE9D;}
	.st8{fill:#EB996E;}
	.st9{fill:#FF5744;}
</style>
<title>Artboard 9 copy 32</title>
<g>
	<g>
		<circle class="st0" cx="79" cy="99.6" r="33.3"/>
		<g>
			<path class="st1" d="M94.3,100.6c0,0.1-1.7,0.2-4.4,0.3C87.2,101,83.3,101,79,101h-0.4v-0.4c0-0.7,0-1.4,0-2.2
				c0-4.8,0-9.2,0.1-12.4c0.1-3.2,0.2-5.1,0.3-5.1c0.1,0,0.2,2,0.3,5.1c0.1,3.2,0.1,7.5,0.1,12.4c0,0.7,0,1.5,0,2.2l-0.4-0.4
				c4.3,0,8.2,0.1,10.9,0.1C92.7,100.4,94.3,100.5,94.3,100.6z"/>
		</g>
		<g>
			<path class="st1" d="M79.1,71.7c0.2,0,0.4,1.3,0.4,2.8s-0.2,2.8-0.4,2.8c-0.2,0-0.4-1.3-0.4-2.8C78.7,72.9,78.9,71.7,79.1,71.7z"
				/>
		</g>
		<g>
			<path class="st1" d="M94.3,76.2c0.1,0.1-0.6,1.1-1.7,2.2s-2.1,1.8-2.2,1.7C90.3,80,91,79,92.1,77.9C93.2,76.8,94.1,76,94.3,76.2z
				"/>
		</g>
		<g>
			<path class="st1" d="M103.2,85.9c0.1,0.2-0.9,0.9-2.2,1.7c-1.3,0.8-2.4,1.4-2.5,1.2c-0.1-0.2,0.8-1,2.1-1.8
				C101.9,86.1,103.1,85.7,103.2,85.9z"/>
		</g>
		<g>
			<path class="st1" d="M108.4,100.3c0,0.2-1.7,0.4-3.8,0.4c-2.1,0-3.8-0.2-3.8-0.4s1.7-0.4,3.8-0.4
				C106.7,99.9,108.4,100.1,108.4,100.3z"/>
		</g>
		<g>
			<path class="st1" d="M55.4,99.8c0,0.2-1.6,0.4-3.6,0.4s-3.6-0.2-3.6-0.4s1.6-0.4,3.6-0.4C53.8,99.4,55.4,99.6,55.4,99.8z"/>
		</g>
		<g>
			<path class="st1" d="M59.2,110.5c0.1,0.2-1,1.3-2.6,2.6c-1.6,1.3-3,2.2-3.1,2s1-1.3,2.6-2.6C57.6,111.2,59,110.3,59.2,110.5z"/>
		</g>
		<g>
			<path class="st1" d="M68.4,118.8c0.2,0.1-0.7,1.6-1.7,3.3c-1,1.7-1.9,3.2-2.1,3.1s0.4-1.7,1.5-3.5
				C67.1,119.9,68.2,118.7,68.4,118.8z"/>
		</g>
		<g>
			<path class="st1" d="M79.1,129.5c-0.2,0-0.4-1.7-0.4-3.8c0-2.1,0.2-3.8,0.4-3.8c0.2,0,0.4,1.7,0.4,3.8S79.3,129.5,79.1,129.5z"/>
		</g>
		<g>
			<path class="st1" d="M95.6,124.4c-0.1,0.2-1.7-0.6-3.3-2c-1.6-1.4-2.6-2.8-2.5-2.9c0.2-0.1,1.4,1,3,2.4
				C94.4,123.2,95.7,124.2,95.6,124.4z"/>
		</g>
		<g>
			<path class="st1" d="M103.3,116.1c-0.1,0.1-1.3-0.8-2.6-2.1c-1.3-1.3-2.3-2.5-2.1-2.6c0.1-0.1,1.3,0.8,2.6,2.1
				C102.5,114.7,103.4,115.9,103.3,116.1z"/>
		</g>
		<g>
			<path class="st1" d="M58.8,89.5c-0.1,0.1-1.2-0.7-2.3-1.8c-1.1-1.1-2-2.2-1.8-2.3c0.1-0.1,1.2,0.7,2.3,1.8
				C58.2,88.3,59,89.4,58.8,89.5z"/>
		</g>
		<g>
			<path class="st1" d="M68.4,79.5c-0.1,0.1-1.2-0.6-2.3-1.8c-1.1-1.1-1.9-2.2-1.8-2.3c0.1-0.1,1.2,0.6,2.3,1.8
				C67.7,78.3,68.5,79.3,68.4,79.5z"/>
		</g>
	</g>
	<g>
		<g>
			<g>
				<path class="st0" d="M148.4,610.8c20-11.7,26.3-35.9,27.4-58c0.2-3.7,0.9-7.6-0.6-10.9c-1.5-3.4-5.4-5.9-8.8-4.6
					c-2.8,1.1-4.3,4.2-6,6.7c-2.3,3.3-5.6,6-9.3,7.5c-2.4,1-5.4,1.5-7.6,0.1c-3-2-3.1-6.4-2.7-10.1c0.6-6.8,1.2-13.7,1.8-20.5
					c0.3-3.7,0.6-7.4-0.2-11c-0.9-3.6-3.1-7-6.5-8.3s-7.9,0.4-8.9,3.9c-0.4,1.5-0.3,3-0.5,4.6c-0.2,1.5-1.1,3.1-2.6,3.4
					c-1.5,0.3-2.9-0.9-3.9-2c-3.5-4-5.7-9-7.7-13.9s-3.9-10-7-14.3s-7.6-7.9-12.8-8.6c-5.2-0.7-11.1,2.1-12.8,7.1
					c-1.8,5.1,0.8,10.6,3.8,15c4.4,6.6,9.7,12.6,15.7,17.6c1.1,0.9,2.3,1.9,2.6,3.3c0.6,2.5-1.9,4.7-4.4,5.4
					c-2.8,0.7-5.8,0.2-8.6,0.3c-2.9,0.1-6.1,1.1-7.4,3.7c-1.8,3.6,1,7.8,3.9,10.6c5.8,5.7,12.5,10.3,19.8,13.7
					c2.6,1.2,5.4,2.3,7.4,4.4c2,2.1-1.9,8.5-3.4,11s0,0-2.8-0.8s-5.2-2.5-7.8-3.7c-4.9-2.3-11.4-2.5-15,1.6
					c-2.4,2.7-2.9,6.7-2.1,10.2s2.7,6.6,4.8,9.5c7.3,10.1,17,18.6,28.4,23.6C125.7,612.1,136.5,614.1,148.4,610.8"/>
			</g>
		</g>
		<g>
			<g>
				<g>
					<path class="st1" d="M147.4,627.2c-0.1-8.8-1.2-19.3-3.5-30.7s-5.9-23.7-10.1-36.4c-1.1-3.2-2.1-6.3-3.1-9.4
						c-1-3.1-2.1-6.2-3.3-9.1c-2.4-5.9-5.1-11.3-7.8-16.5c-2.7-5.1-5.5-9.9-8.2-14.3c-2.7-4.4-5.2-8.5-7.7-12.1
						c-4.9-7.3-9.6-12.6-13-16.2c-1.7-1.8-3-3.1-3.9-4c-0.4-0.4-0.8-0.8-1.1-1c-0.2-0.2-0.4-0.3-0.4-0.3s0.1,0.1,0.3,0.4
						c0.3,0.3,0.6,0.6,1,1.1c0.9,0.9,2.2,2.3,3.8,4.1c3.3,3.6,7.9,9,12.8,16.3c2.4,3.6,5,7.7,7.6,12.1s5.4,9.2,8.1,14.3
						c2.7,5.1,5.4,10.6,7.8,16.4c1.2,2.9,2.2,6,3.2,9.1s2.1,6.2,3.1,9.4c4.2,12.7,7.8,25,10.2,36.4s3.5,21.8,3.6,30.6"/>
				</g>
			</g>
		</g>
		<g>
			<g>
				<g>
					<path class="st1" d="M127.1,541.5c0,0,0.2-0.5,0.5-1.5s0.6-2.5,1-4.3c0.8-3.6,1.8-8.6,2.8-14.2c1-5.5,2.1-10.5,2.9-14.1
						c0.4-1.8,0.8-3.2,1.1-4.2s0.4-1.6,0.3-1.6c0,0-0.3,0.5-0.6,1.5s-0.8,2.4-1.3,4.2c-1,3.6-2.1,8.6-3.1,14.1s-1.9,10.4-2.6,14.2
						c-0.3,1.7-0.6,3.1-0.8,4.3C127.2,540.9,127.1,541.5,127.1,541.5z"/>
				</g>
			</g>
		</g>
		<g>
			<g>
				<g>
					<path class="st1" d="M80.7,528.8c0,0,0.7,0.2,1.9,0.4c1.2,0.2,2.9,0.5,5.1,0.9c4.3,0.8,10.2,2.2,16.6,3.9
						c6.4,1.8,12.1,3.6,16.3,5.1c2.1,0.7,3.7,1.3,4.9,1.8c1.1,0.4,1.8,0.6,1.8,0.6s-0.6-0.3-1.7-0.9c-1.1-0.5-2.7-1.2-4.8-2
						c-4.1-1.6-9.8-3.5-16.2-5.3s-12.3-3-16.7-3.7c-2.2-0.4-3.9-0.6-5.1-0.7C81.4,528.8,80.7,528.8,80.7,528.8z"/>
				</g>
			</g>
		</g>
		<g>
			<g>
				<g>
					<path class="st1" d="M143.3,595.6c0,0,0.1-0.2,0.4-0.5c0.3-0.4,0.6-1,0.9-1.6c0.8-1.4,1.9-3.5,3.3-6.1
						c2.7-5.2,6.2-12.5,10-20.7c3.8-8.1,7.2-15.5,9.8-20.7c1.3-2.6,2.3-4.7,3.1-6.2c0.3-0.7,0.6-1.2,0.8-1.7
						c0.2-0.4,0.3-0.6,0.3-0.6s-0.1,0.2-0.4,0.5c-0.3,0.4-0.6,1-0.9,1.6c-0.8,1.4-1.9,3.5-3.3,6.1c-2.7,5.2-6.2,12.5-10,20.7
						c-3.8,8.1-7.2,15.5-9.8,20.7c-1.3,2.6-2.3,4.7-3.1,6.2c-0.3,0.7-0.6,1.2-0.8,1.7C143.4,595.3,143.3,595.5,143.3,595.6z"/>
				</g>
			</g>
		</g>
		<g>
			<g>
				<g>
					<path class="st1" d="M82.4,570.2c0,0,0.2,0.1,0.6,0.3c0.5,0.2,1.1,0.5,1.8,0.8c1.6,0.7,3.8,1.6,6.5,2.7
						c5.5,2.3,13.1,5.6,21.5,9.2c8.4,3.6,16,6.8,21.5,9c2.8,1.1,5,2,6.6,2.5c0.7,0.3,1.3,0.5,1.8,0.6c0.4,0.1,0.6,0.2,0.6,0.2
						s-0.2-0.1-0.6-0.3c-0.5-0.2-1.1-0.5-1.8-0.8c-1.6-0.7-3.8-1.6-6.5-2.7c-5.5-2.3-13.1-5.6-21.5-9.2c-8.4-3.6-16-6.8-21.5-9
						c-2.8-1.1-5-2-6.6-2.5c-0.7-0.3-1.3-0.5-1.8-0.6C82.6,570.3,82.4,570.2,82.4,570.2z"/>
				</g>
			</g>
		</g>
	</g>
	<g>
		<g>
			<g>
				<rect x="568.9" y="563.2" class="st1" width="8.9" height="63.4"/>
			</g>
			<g>
				<rect x="537" y="563.2" class="st1" width="8.9" height="63.4"/>
			</g>
			<g>
				<rect x="456.7" y="563.2" class="st1" width="8.9" height="63.4"/>
			</g>
			<g>
				<rect x="429.2" y="563.2" class="st1" width="8.9" height="63.4"/>
			</g>
			<g>
				<g>
					<path class="st2" d="M458.3,454.2c0,0-24.4-7-31.7,3.1c-7.3,10.2-8.1,108.2-8.1,108.2s47.2,0.9,48.1,0
						C467.6,564.7,458.3,454.2,458.3,454.2z"/>
				</g>
				<g>
					<path class="st2" d="M596.8,553.5l-2.2-186.1c-1.5-22.5-17.8-25.7-20.2-27.1c-10-5.7-105.5-9.3-113.4,12.7s0,195.2,0,195.2
						L596.8,553.5z"/>
				</g>
				<g>
					<path class="st2" d="M596.7,548.3c0,0-24.1-35.5-52.3-36.6c-28.3-1.2-89.2,0-89.2,0s-27,1-28.9,34.5v19.7h170.4V548.3z"/>
				</g>
				<g>
					<g>
						<path class="st0" d="M596,454.4c0,0-40.5-10.5-47.8,3.3s-8.6,108.7-8.6,108.7s58.4,2.2,58.6-0.3
							C598.3,563.6,596,454.4,596,454.4z"/>
					</g>
					<g>
						<path class="st1" d="M598.2,453.9c0,0-26.7-6.9-34,3.3c-7.3,10.2-9.2,109.6-9.2,109.6s42.7,1.3,43.5,0.4
							C599.3,566.3,598.2,453.9,598.2,453.9z"/>
					</g>
				</g>
			</g>
		</g>
		<g>
			<g>
				<path class="st1" d="M577.4,451.5c0,0,0-0.2-0.1-0.5c0-0.4-0.1-0.8-0.1-1.4c-0.1-1.3-0.2-3.1-0.4-5.3
					c-0.3-4.7-0.8-11.4-1.3-19.6c-0.5-8.3-1.1-18.1-1.8-29.1c-0.3-5.5-0.7-11.2-1.1-17.2c-0.4-5.9-0.4-12.2-2.2-18.2
					c-0.9-3-2.3-5.8-4.3-8.1c-2-2.3-4.3-4.3-6.8-5.9c-5-3.2-10.4-5.2-15.8-6.2c-2.7-0.5-5.3-0.7-7.9-0.8c-2.6-0.1-5.1-0.2-7.5-0.3
					c-4.9-0.2-9.4-0.2-13.6-0.3c-8.3-0.1-15,0.1-19.6,0.4c-2.3,0.1-4.1,0.3-5.3,0.4c-0.6,0-1,0.1-1.4,0.1c-0.3,0-0.5,0-0.5,0
					s0.2,0,0.5-0.1c0.4,0,0.8-0.1,1.4-0.2c1.2-0.2,3-0.3,5.3-0.5c4.6-0.4,11.3-0.6,19.6-0.6c4.1,0,8.7,0.1,13.6,0.2
					c2.4,0.1,5,0.2,7.6,0.3c2.6,0.1,5.3,0.2,8,0.7c5.4,1,11,3,16,6.3c2.5,1.6,4.9,3.6,7,6c2.1,2.3,3.5,5.3,4.5,8.3
					c1.8,6.2,1.8,12.5,2.2,18.4c0.4,6,0.7,11.7,1,17.2c0.6,10.9,1.2,20.8,1.7,29.1c0.4,8.2,0.8,14.9,1.1,19.6
					c0.1,2.3,0.2,4.1,0.3,5.3c0,0.6,0,1,0,1.4C577.4,451.4,577.4,451.5,577.4,451.5z"/>
			</g>
		</g>
		<g>
			<g>
				<path class="st1" d="M578.7,371.1c0,0.2-1.5,0.4-3.3,0.8c-1.8,0.3-3.2,0.7-3.3,0.5s1.3-0.9,3.2-1.2
					C577.1,370.8,578.7,370.9,578.7,371.1z"/>
			</g>
		</g>
		<g>
			<g>
				<path class="st1" d="M582.3,375.5c0,0.2-2.2,0-4.8-0.2s-4.8-0.4-4.8-0.6s2.2-0.4,4.9-0.2C580.2,374.8,582.4,375.3,582.3,375.5z"
					/>
			</g>
		</g>
		<g>
			<g>
				<path class="st1" d="M580,408.8c0,0.2-1.3,0.3-2.8,0.2c-1.5-0.1-2.8-0.3-2.8-0.5s1.3-0.3,2.8-0.2
					C578.8,408.3,580,408.6,580,408.8z"/>
			</g>
		</g>
		<g>
			<g>
				<g>
					<path class="st1" d="M538.2,396c0.1,0.1-1.3,0.3-2.1,1.9c-0.4,0.8-0.6,1.9-0.2,2.9c0.4,1,1.6,1.7,2.9,1.7
						c1.3,0,2.5-0.8,2.9-1.8s0.1-2.2-0.3-2.9c-0.9-1.6-2.3-1.7-2.2-1.8c0,0,0.3-0.1,0.8,0.1s1.2,0.6,1.8,1.5
						c0.5,0.8,0.9,2.1,0.5,3.4c-0.4,1.4-2,2.3-3.5,2.3c-1.6,0-3.1-0.9-3.6-2.2c-0.5-1.3-0.1-2.6,0.4-3.5s1.2-1.3,1.8-1.5
						C537.8,396,538.2,396,538.2,396z"/>
				</g>
			</g>
			<g>
				<g>
					<path class="st1" d="M541.8,395.2c0,0.1-0.9,0.5-2.5,0.6c-1.6,0.2-3.9,0-6.2-0.8s-4.2-2.2-5.3-3.3c-1.1-1.1-1.6-2-1.5-2.1
						s0.7,0.7,1.9,1.7s3,2.2,5.2,3s4.4,1,5.9,1C540.8,395.2,541.7,395.1,541.8,395.2z"/>
				</g>
			</g>
			<g>
				<g>
					<path class="st1" d="M532.7,419.6c-0.1,0-0.5-1-0.8-2.8c-0.4-1.8-0.8-4.3-0.2-7.1c0.7-2.8,2.6-4.9,4.2-5.7
						c1.7-0.9,2.9-0.6,2.9-0.5s-1.2,0.1-2.6,1c-1.5,0.9-3.1,2.8-3.7,5.4c-0.6,2.6-0.3,5.1,0,6.8
						C532.6,418.4,532.8,419.5,532.7,419.6z"/>
				</g>
			</g>
			<g>
				<g>
					<path class="st1" d="M549.6,411.5c0,0.1-0.8,0-2.1-0.6c-1.2-0.6-2.7-1.7-3.9-3.4c-1.2-1.7-1.7-3.5-1.8-4.8s0.1-2.1,0.2-2.1
						c0.1,0,0.1,0.8,0.3,2s0.8,2.9,1.9,4.5c1.1,1.6,2.4,2.7,3.5,3.3C548.9,411.1,549.7,411.4,549.6,411.5z"/>
				</g>
			</g>
		</g>
		<g>
			<g>
				<g>
					<path class="st1" d="M493.1,396c0.1,0.1-1.3,0.3-2.1,1.9c-0.4,0.8-0.6,1.9-0.2,2.9s1.6,1.7,2.9,1.7s2.5-0.8,2.9-1.8
						s0.1-2.2-0.3-2.9c-0.9-1.6-2.3-1.7-2.2-1.8c0,0,0.3-0.1,0.8,0.1s1.2,0.6,1.8,1.5c0.5,0.8,0.9,2.1,0.5,3.4
						c-0.4,1.4-2,2.3-3.5,2.3c-1.6,0-3.1-0.9-3.6-2.2c-0.5-1.3-0.1-2.6,0.4-3.5s1.2-1.3,1.8-1.5C492.8,396,493.1,396,493.1,396z"/>
				</g>
			</g>
			<g>
				<g>
					<path class="st1" d="M496.7,395.2c0,0.1-0.9,0.5-2.5,0.6c-1.6,0.2-3.9,0-6.2-0.8c-2.3-0.8-4.2-2.2-5.3-3.3
						c-1.1-1.1-1.6-2-1.5-2.1s0.7,0.7,1.9,1.7c1.2,1,3,2.2,5.2,3s4.4,1,5.9,1C495.7,395.2,496.7,395.1,496.7,395.2z"/>
				</g>
			</g>
			<g>
				<g>
					<path class="st1" d="M487.6,419.6c-0.1,0-0.5-1-0.8-2.8c-0.4-1.8-0.8-4.3-0.2-7.1c0.7-2.8,2.6-4.9,4.2-5.7
						c1.7-0.9,2.9-0.6,2.9-0.5s-1.2,0.1-2.6,1c-1.5,0.9-3.1,2.8-3.7,5.4s-0.3,5.1,0,6.8C487.6,418.4,487.8,419.5,487.6,419.6z"/>
				</g>
			</g>
			<g>
				<g>
					<path class="st1" d="M504.6,411.5c0,0.1-0.8,0-2.1-0.6c-1.2-0.6-2.7-1.7-3.9-3.4c-1.2-1.7-1.7-3.5-1.8-4.8
						c-0.1-1.3,0.1-2.1,0.2-2.1s0.1,0.8,0.3,2c0.2,1.2,0.8,2.9,1.9,4.5s2.4,2.7,3.5,3.3C503.9,411.1,504.6,411.4,504.6,411.5z"/>
				</g>
			</g>
		</g>
		<g>
			<g>
				<path class="st1" d="M459.2,451.1c0.1,0,0.1,0.9,0,2.4c0,1.7-0.1,3.8-0.1,6.5c-0.1,5.5-0.3,13-0.4,21.4s-0.1,15.9-0.1,21.4
					c0,2.6,0,4.8,0,6.5c0,1.5-0.1,2.4-0.1,2.4c-0.1,0-0.1-0.8-0.2-2.4c-0.1-1.5-0.1-3.7-0.2-6.5c-0.1-5.5-0.2-13.1-0.1-21.4
					c0.1-8.4,0.4-15.9,0.6-21.4c0.1-2.7,0.3-5,0.4-6.5C459.1,452,459.2,451.1,459.2,451.1z"/>
			</g>
		</g>
		<g>
			<g>
				<path class="st1" d="M543.2,512c0,0-0.1,0-0.4,0c-0.3,0-0.7,0-1.2,0c-1.1,0-2.6,0-4.5,0c-4,0-9.7,0-16.7,0
					c-7.1,0-15.5-0.1-24.8-0.1c-4.7,0-9.6-0.1-14.6-0.1c-5.1,0-10.3,0-15.7,0.4c-5.3,0.4-10.5,1.4-15.3,3s-9.1,3.9-12.7,6.8
					c-1.8,1.5-3.4,3.1-4.8,4.8c-0.7,0.9-1.3,1.7-1.9,2.6c-0.6,0.9-1.1,1.8-1.6,2.7c-2,3.6-3.1,7.3-3.8,10.8
					c-1.4,6.9-1.1,12.7-0.8,16.6c0.2,2,0.3,3.5,0.5,4.5c0.1,0.5,0.1,0.9,0.1,1.2s0,0.4,0,0.4s0-0.1-0.1-0.4
					c-0.1-0.3-0.1-0.7-0.2-1.2c-0.2-1-0.4-2.5-0.6-4.5c-0.4-3.9-0.7-9.7,0.6-16.7c0.7-3.5,1.8-7.2,3.8-10.9c0.5-0.9,1-1.9,1.6-2.8
					c0.6-0.9,1.2-1.8,1.9-2.7c1.4-1.8,3-3.4,4.8-4.9c3.7-3,8.1-5.3,12.9-7s10.1-2.6,15.5-3s10.7-0.4,15.7-0.4c5.1,0,10,0.1,14.6,0.1
					c9.3,0.1,17.7,0.2,24.8,0.3c7,0.1,12.7,0.2,16.7,0.3c1.9,0,3.4,0.1,4.5,0.1c0.5,0,0.9,0,1.2,0C543.1,511.9,543.2,512,543.2,512z
					"/>
			</g>
		</g>
	</g>
	<g>
		<path class="st3" d="M589.8,626.6c0,0.2-120,0.4-267.9,0.4c-148,0-268-0.2-268-0.4s119.9-0.4,268-0.4
			C469.9,626.2,589.8,626.4,589.8,626.6z"/>
	</g>
	<g>
		<g>
			<g>
				<g>
					<path class="st3" d="M218.1,350c0,0.2-9.5,0.4-21.3,0.4s-21.3-0.2-21.3-0.4c0-0.2,9.5-0.4,21.3-0.4S218.1,349.8,218.1,350z"/>
				</g>
			</g>
			<g>
				<g>
					<path class="st3" d="M217.4,355.5c0,0.2-9.4,0.4-20.9,0.4s-20.9-0.2-20.9-0.4s9.4-0.4,20.9-0.4S217.4,355.3,217.4,355.5z"/>
				</g>
			</g>
			<g>
				<g>
					<path class="st3" d="M217.4,360.9c0,0.2-9.4,0.4-20.9,0.4s-20.9-0.2-20.9-0.4c0-0.2,9.4-0.4,20.9-0.4
						C208,360.6,217.4,360.7,217.4,360.9z"/>
				</g>
			</g>
			<g>
				<g>
					<path class="st3" d="M217.4,366.4c0,0.2-9.4,0.4-20.9,0.4s-20.9-0.2-20.9-0.4s9.4-0.4,20.9-0.4S217.4,366.2,217.4,366.4z"/>
				</g>
			</g>
			<g>
				<g>
					<path class="st3" d="M217.4,371.9c0,0.2-9.4,0.4-20.9,0.4s-20.9-0.2-20.9-0.4c0-0.2,9.4-0.4,20.9-0.4S217.4,371.7,217.4,371.9z
						"/>
				</g>
			</g>
			<g>
				<g>
					<path class="st3" d="M196,377.4c0,0.2-4.6,0.4-10.2,0.4c-5.6,0-10.2-0.2-10.2-0.4s4.6-0.4,10.2-0.4S196,377.2,196,377.4z"/>
				</g>
			</g>
			<g>
				<g>
					<path class="st4" d="M207.9,344c0,0.2-7.3,0.4-16.2,0.4c-9,0-16.2-0.2-16.2-0.4c0-0.2,7.3-0.4,16.2-0.4
						C200.6,343.6,207.9,343.8,207.9,344z"/>
				</g>
			</g>
		</g>
		<g>
			<g>
				<path class="st3" d="M229.4,391c0,0,0-0.4,0-1.2c0-0.8,0-1.9,0-3.3c0-2.9,0-7.1-0.1-12.5c0-10.8-0.1-26.1-0.2-44.5l0.3,0.3
					c-19.4,0-42.5,0-67.2,0.1c-0.1,0.1,0.7-0.7,0.4-0.4l0,0l0,0v0.1v0.1v0.3v0.5v1v2.1c0,1.4,0,2.8,0,4.2c0,2.8,0,5.5,0,8.2
					c0,5.4,0,10.7,0,15.9c0,10.3,0,20.1,0,29.1l-0.3-0.3c20,0.1,36.8,0.1,48.6,0.2c5.9,0,10.5,0.1,13.7,0.1c1.6,0,2.8,0,3.6,0
					c0.4,0,0.7,0,0.9,0C229.3,391,229.4,391,229.4,391s-0.1,0-0.3,0s-0.5,0-0.9,0c-0.8,0-2,0-3.6,0c-3.2,0-7.8,0.1-13.7,0.1
					c-11.8,0-28.7,0.1-48.8,0.2h-0.3V391c0-9,0-18.8,0-29.1c0-5.2,0-10.5,0-15.9c0-2.7,0-5.4,0-8.2c0-1.4,0-2.8,0-4.2v-2.1v-1V330
					v-0.3v-0.1v-0.1l0,0l0,0c-0.3,0.3,0.5-0.5,0.4-0.4c24.7,0,47.8,0,67.2,0.1h0.3v0.3c-0.1,18.5-0.1,33.9-0.2,44.7
					c0,5.3-0.1,9.5-0.1,12.4c0,1.4,0,2.5,0,3.3C229.4,390.7,229.4,391,229.4,391z"/>
			</g>
		</g>
	</g>
	<g>
		<g>
			<g>
				<g>
					<path class="st4" d="M187.8,163.1l32.3-0.2c-0.1-9.5-3.8-19.2-10.4-26.7c-7.7-8.8-19.4-14.4-33.5-12.9
						c-1.5,0.2-3.1,0.4-4.7,0.8h-0.1l0,0l8.8,39H187.8z"/>
				</g>
			</g>
			<g>
				<g>
					<path class="st5" d="M197.7,203.3c11.4-5.4,20.5-16.2,22-31.4c0-0.4,0.1-0.8,0.1-1.2c0-0.3,0-0.5,0.1-0.8
						c0-0.8,0.1-1.6,0.1-2.3v-0.1l0,0v-0.1l0,0l0,0l-32.3,0.2h-7.6l-8.5,39l0,0l0,0c2.7,0.6,5.5,0.9,8.4,0.9
						C186,207.4,192.1,206,197.7,203.3z"/>
				</g>
			</g>
		</g>
		<g>
			<g>
				<path class="st3" d="M176.2,165.2l-8.8-39c-17.8,4-31.2,19.9-31.2,39s13.5,35.1,31.4,39L176.2,165.2"/>
			</g>
		</g>
	</g>
	<g>
		<g>
			<g>
				<g>
					<g>
						<rect x="79.8" y="337.1" class="st4" width="8.7" height="66"/>
					</g>
				</g>
				<g>
					<g>
						<rect x="66.3" y="364.9" class="st5" width="8.7" height="38.2"/>
					</g>
				</g>
				<g>
					<g>
						<rect x="52.8" y="359" class="st4" width="8.7" height="44.2"/>
					</g>
				</g>
				<g>
					<g>
						<rect x="39.3" y="385.3" class="st5" width="8.7" height="17.8"/>
					</g>
				</g>
				<g>
					<g>
						<rect x="106.7" y="322.7" class="st4" width="8.7" height="80.5"/>
					</g>
				</g>
				<g>
					<g>
						<rect x="93.3" y="330.1" class="st5" width="8.7" height="73.1"/>
					</g>
				</g>
				<g>
					<g>
						<rect x="133.7" y="314.8" class="st4" width="8.7" height="88.4"/>
					</g>
				</g>
				<g>
					<g>
						<rect x="120.2" y="297.3" class="st5" width="8.7" height="105.9"/>
					</g>
				</g>
			</g>
		</g>
		<g>
			<g>
				<path class="st3" d="M47.9,411.5c0,0.2-1.7,0.4-3.9,0.4c-2.1,0-3.9-0.2-3.9-0.4s1.7-0.4,3.9-0.4
					C46.1,411.1,47.9,411.3,47.9,411.5z"/>
			</g>
		</g>
		<g>
			<g>
				<path class="st3" d="M61.1,411.5c0,0.2-1.7,0.4-3.9,0.4c-2.1,0-3.9-0.2-3.9-0.4s1.7-0.4,3.9-0.4
					C59.4,411.1,61.1,411.3,61.1,411.5z"/>
			</g>
		</g>
		<g>
			<g>
				<path class="st3" d="M74.4,411.5c0,0.2-1.7,0.4-3.9,0.4c-2.1,0-3.9-0.2-3.9-0.4s1.7-0.4,3.9-0.4
					C72.7,411.1,74.4,411.3,74.4,411.5z"/>
			</g>
		</g>
		<g>
			<g>
				<path class="st3" d="M87.7,411.5c0,0.2-1.7,0.4-3.9,0.4c-2.1,0-3.9-0.2-3.9-0.4s1.7-0.4,3.9-0.4S87.7,411.3,87.7,411.5z"/>
			</g>
		</g>
		<g>
			<g>
				<path class="st3" d="M101,411.5c0,0.2-1.7,0.4-3.9,0.4c-2.1,0-3.9-0.2-3.9-0.4s1.7-0.4,3.9-0.4S101,411.3,101,411.5z"/>
			</g>
		</g>
		<g>
			<g>
				<path class="st3" d="M114.3,411.5c0,0.2-1.7,0.4-3.9,0.4c-2.1,0-3.9-0.2-3.9-0.4s1.7-0.4,3.9-0.4
					C112.6,411.1,114.3,411.3,114.3,411.5z"/>
			</g>
		</g>
		<g>
			<g>
				<path class="st3" d="M127.6,411.5c0,0.2-1.7,0.4-3.9,0.4c-2.1,0-3.9-0.2-3.9-0.4s1.7-0.4,3.9-0.4S127.6,411.3,127.6,411.5z"/>
			</g>
		</g>
		<g>
			<g>
				<path class="st3" d="M140.9,411.5c0,0.2-1.7,0.4-3.9,0.4c-2.1,0-3.9-0.2-3.9-0.4s1.7-0.4,3.9-0.4
					C139.1,411.1,140.9,411.3,140.9,411.5z"/>
			</g>
		</g>
		<g>
			<g>
				<path class="st3" d="M145.5,419.2c0,0.2-9.5,0.4-21.2,0.4s-21.2-0.2-21.2-0.4c0-0.2,9.5-0.4,21.2-0.4
					C136,418.9,145.5,419,145.5,419.2z"/>
			</g>
		</g>
		<g>
			<g>
				<path class="st3" d="M120.2,423.7c0,0.2-3.3,0.4-7.4,0.4s-7.4-0.2-7.4-0.4s3.3-0.4,7.4-0.4C116.9,423.3,120.2,423.5,120.2,423.7
					z"/>
			</g>
		</g>
	</g>
	<g>
		<path class="st3" d="M121.2,293.5c0,0,0.5-0.1,1.2,0.2c0.7,0.3,1.7,1.1,2.3,2.4c0.3,0.7,0.5,1.5,0.4,2.4s-0.5,1.8-1.2,2.5
			c-1.4,1.4-3.8,2.1-5.9,1s-2.9-3.5-2.6-5.5c0.1-1,0.6-1.9,1.2-2.5s1.3-1.1,2-1.4c1.4-0.6,2.6-0.5,3.4-0.3s1.1,0.5,1.1,0.5
			c0,0.1-0.4-0.1-1.2-0.2c-0.7-0.1-1.9-0.1-3.1,0.5c-1.2,0.5-2.4,1.7-2.6,3.5c-0.2,1.7,0.5,3.8,2.3,4.7c1.7,0.9,3.9,0.3,5.1-0.9
			c1.3-1.2,1.3-3,0.8-4.2s-1.3-2-2-2.4C121.7,293.6,121.2,293.5,121.2,293.5z"/>
		<path class="st3" d="M128.1,173.1c0,0-0.2,0-0.5,0c-0.4,0-0.9,0-1.5,0c-1.4,0-3.3,0-5.8,0.1l0.2-0.2c0.1,10.3,0.2,31,0.2,54.7
			c0,17.2-0.1,32.8-0.1,44.2c-0.1,5.6-0.1,10.2-0.1,13.4c0,1.5-0.1,2.7-0.1,3.6c0,0.8-0.1,1.3-0.1,1.3s-0.1-0.4-0.1-1.3
			s0-2.1-0.1-3.6c0-3.2-0.1-7.8-0.1-13.4c0-11.4-0.1-27-0.1-44.2c0-23.7,0.1-44.3,0.2-54.7v-0.2h0.2c2.5,0,4.4,0.1,5.8,0.1
			c0.6,0,1.1,0,1.5,0C128,173.1,128.1,173.1,128.1,173.1z"/>
	</g>
	<g>
		<g>
			<g>
				<g>
					<path class="st3" d="M64.3,243.1c0,0.2-9.5,0.4-21.3,0.4s-21.3-0.2-21.3-0.4s9.5-0.4,21.3-0.4
						C54.8,242.8,64.3,242.9,64.3,243.1z"/>
				</g>
			</g>
			<g>
				<g>
					<path class="st3" d="M63.5,248.6c0,0.2-9.4,0.4-20.9,0.4s-20.9-0.2-20.9-0.4s9.4-0.4,20.9-0.4
						C54.2,248.2,63.5,248.4,63.5,248.6z"/>
				</g>
			</g>
			<g>
				<g>
					<path class="st3" d="M63.5,254.1c0,0.2-9.4,0.4-20.9,0.4s-20.9-0.2-20.9-0.4s9.4-0.4,20.9-0.4
						C54.2,253.7,63.5,253.9,63.5,254.1z"/>
				</g>
			</g>
			<g>
				<g>
					<path class="st3" d="M63.5,259.6c0,0.2-9.4,0.4-20.9,0.4s-20.9-0.2-20.9-0.4c0-0.2,9.4-0.4,20.9-0.4
						C54.2,259.2,63.5,259.4,63.5,259.6z"/>
				</g>
			</g>
			<g>
				<g>
					<path class="st3" d="M63.5,265c0,0.2-9.4,0.4-20.9,0.4s-20.9-0.2-20.9-0.4c0-0.2,9.4-0.4,20.9-0.4
						C54.2,264.7,63.5,264.8,63.5,265z"/>
				</g>
			</g>
			<g>
				<g>
					<path class="st3" d="M42.1,270.5c0,0.2-4.6,0.4-10.2,0.4s-10.2-0.2-10.2-0.4s4.6-0.4,10.2-0.4
						C37.6,270.1,42.1,270.3,42.1,270.5z"/>
				</g>
			</g>
			<g>
				<g>
					<path class="st4" d="M54.1,237.1c0,0.2-7.3,0.4-16.2,0.4c-9,0-16.2-0.2-16.2-0.4s7.3-0.4,16.2-0.4
						C46.8,236.8,54.1,236.9,54.1,237.1z"/>
				</g>
			</g>
		</g>
		<g>
			<g>
				<path class="st3" d="M74.2,283.5c0,0,0-0.4,0-1.2c0-0.8,0-1.9,0-3.3c0-2.9,0-7.1-0.1-12.5c0-10.8-0.1-26.1-0.2-44.5l0.3,0.3
					c-19.4,0-42.5,0-67.2,0.1c-0.1,0.1,0.7-0.7,0.4-0.4l0,0l0,0v0.1v0.1v0.3v0.5v1v2.1c0,1.4,0,2.8,0,4.2c0,2.8,0,5.5,0,8.2
					c0,5.4,0,10.7,0,15.9c0,10.3,0,20.1,0,29.1L7,283.1c20,0.1,36.8,0.1,48.6,0.2c5.9,0,10.5,0.1,13.7,0.1c1.6,0,2.8,0,3.6,0
					c0.4,0,0.7,0,0.9,0C74.1,283.5,74.2,283.5,74.2,283.5s-0.1,0-0.3,0c-0.2,0-0.5,0-0.9,0c-0.8,0-2,0-3.6,0
					c-3.2,0-7.8,0.1-13.7,0.1c-11.8,0-28.7,0.1-48.8,0.2H6.6v-0.3c0-9,0-18.8,0-29.1c0-5.2,0-10.5,0-15.9c0-2.7,0-5.4,0-8.2
					c0-1.4,0-2.8,0-4.2V224v-1v-0.5v-0.3v-0.1V222l0,0l0,0c-0.3,0.3,0.5-0.5,0.4-0.4c24.7,0,47.8,0,67.2,0.1h0.3v0.3
					c-0.1,18.5-0.1,33.9-0.2,44.7c0,5.3-0.1,9.5-0.1,12.4c0,1.4,0,2.5,0,3.3C74.2,283.1,74.2,283.5,74.2,283.5z"/>
			</g>
		</g>
		<g>
			<g>
				<path class="st3" d="M54.1,309.2c-0.2,0-0.4-5.5-0.4-12.2c0-6.8,0.2-12.2,0.4-12.2s0.4,5.5,0.4,12.2S54.3,309.2,54.1,309.2z"/>
			</g>
		</g>
		<g>
			<g>
				<path class="st3" d="M56.9,303.6c0.2,0.1-1.4,2.6-1.5,6c0,0.1,0,0.1,0,0.2l-0.1,1.1l-0.6-0.9c-2-2.9-2.6-5.8-2.4-5.8
					c0.2-0.1,1.1,2.6,3,5.3l-0.7,0.2c0-0.1,0-0.1,0-0.2C54.8,305.9,56.7,303.5,56.9,303.6z"/>
			</g>
		</g>
	</g>
	<g>
		<g>
			<g>
				<path class="st3" d="M472.2,136.6c-0.2,0-0.4-1-0.4-2.2s0.2-2.2,0.4-2.2c0.2,0,0.4,1,0.4,2.2S472.4,136.6,472.2,136.6z"/>
			</g>
		</g>
		<g>
			<g>
				<path class="st3" d="M472.2,145.4c-0.2,0-0.4-1-0.4-2.2s0.2-2.2,0.4-2.2c0.2,0,0.4,1,0.4,2.2S472.4,145.4,472.2,145.4z"/>
			</g>
		</g>
		<g>
			<g>
				<path class="st3" d="M472.2,154.1c-0.2,0-0.4-1-0.4-2.2s0.2-2.2,0.4-2.2c0.2,0,0.4,1,0.4,2.2S472.4,154.1,472.2,154.1z"/>
			</g>
		</g>
		<g>
			<g>
				<path class="st3" d="M472.2,162.9c-0.2,0-0.4-1-0.4-2.2s0.2-2.2,0.4-2.2c0.2,0,0.4,1,0.4,2.2S472.4,162.9,472.2,162.9z"/>
			</g>
		</g>
		<g>
			<g>
				<path class="st3" d="M472.2,171.6c-0.2,0-0.4-1-0.4-2.2s0.2-2.2,0.4-2.2c0.2,0,0.4,1,0.4,2.2S472.4,171.6,472.2,171.6z"/>
			</g>
		</g>
		<g>
			<g>
				<path class="st3" d="M472.2,180.4c-0.2,0-0.4-1-0.4-2.2s0.2-2.2,0.4-2.2c0.2,0,0.4,1,0.4,2.2S472.4,180.4,472.2,180.4z"/>
			</g>
		</g>
		<g>
			<g>
				<path class="st3" d="M472.2,189.1c-0.2,0-0.4-1-0.4-2.2s0.2-2.2,0.4-2.2c0.2,0,0.4,1,0.4,2.2S472.4,189.1,472.2,189.1z"/>
			</g>
		</g>
		<g>
			<g>
				<path class="st3" d="M472.2,197.9c-0.2,0-0.4-1-0.4-2.2s0.2-2.2,0.4-2.2c0.2,0,0.4,1,0.4,2.2S472.4,197.9,472.2,197.9z"/>
			</g>
		</g>
	</g>
	<g>
		<g>
			<g>
				<g>
					<g>
						<path class="st5" d="M521.5,121.5H298.7c-3.2,0-5.8-2.6-5.8-5.8v-88c0-3.2,2.6-5.8,5.8-5.8h222.8c3.2,0,5.8,2.6,5.8,5.8v88.1
							C527.3,119,524.7,121.5,521.5,121.5z"/>
					</g>
				</g>
			</g>
			<g>
				<g>
					<g>
						<path class="st6" d="M361.8,58.9c-3.5-7.6-10.5-13.7-20.6-14.8c-0.3,0-0.5-0.1-0.8-0.1c-0.2,0-0.3,0-0.5,0
							c-0.5,0-1-0.1-1.6-0.1c0,0,0,0-0.1,0l0,0c0,0,0,0-0.1,0l0,0l0,0L338,65.3v5l25.7,5.9l0,0l0,0c0.4-1.8,0.6-3.7,0.6-5.5
							C364.4,66.7,363.5,62.7,361.8,58.9z"/>
					</g>
				</g>
				<g>
					<path class="st1" d="M334.1,73.1l0.1-4.7l0.1-21.4c-6.3,0-12.8,2.4-17.7,6.7c-5.9,5.1-9.7,12.7-8.8,22.1
						c0.1,0.9,0.2,1.8,0.4,2.8H308c3.4,12.3,14.6,21.6,25.5,20.9c12.6-0.8,23.4-8.6,26.1-20.5L334.1,73.1z"/>
				</g>
			</g>
		</g>
		<g>
			<g>
				<g>
					<path class="st3" d="M426.4,55.2c0,0.2-10.3,0.4-23.1,0.4c-12.7,0-23.1-0.2-23.1-0.4s10.3-0.4,23.1-0.4S426.4,55,426.4,55.2z"
						/>
				</g>
			</g>
			<g>
				<g>
					<path class="st3" d="M426.4,64.1c0,0.2-10.3,0.4-23.1,0.4c-12.7,0-23.1-0.2-23.1-0.4s10.3-0.4,23.1-0.4
						C416.1,63.7,426.4,63.8,426.4,64.1z"/>
				</g>
			</g>
			<g>
				<g>
					<path class="st3" d="M426.4,72.9c0,0.2-10.3,0.4-23.1,0.4c-12.7,0-23.1-0.2-23.1-0.4s10.3-0.4,23.1-0.4S426.4,72.7,426.4,72.9z
						"/>
				</g>
			</g>
			<g>
				<g>
					<path class="st3" d="M426.4,81.8c0,0.2-10.3,0.4-23.1,0.4c-12.7,0-23.1-0.2-23.1-0.4c0-0.2,10.3-0.4,23.1-0.4
						S426.4,81.6,426.4,81.8z"/>
				</g>
			</g>
			<g>
				<g>
					<path class="st3" d="M407.3,91.4c0,0.1-1.5,0.2-4,0.3c-2.4,0.1-5.8,0.1-9.6,0.1c-3.7,0-7.1,0-9.6-0.1c-2.4-0.1-4-0.2-4-0.3
						c0-0.1,1.5-0.2,4-0.3s5.8-0.1,9.6-0.1c3.7,0,7.1,0,9.6,0.1S407.3,91.3,407.3,91.4z"/>
				</g>
			</g>
		</g>
		<g>
			<g>
				<g>
					<g>
						<path class="st1" d="M459.3,47.1c0,0,0.3-0.3,1-0.5c0.7-0.3,1.7-0.6,3.1-0.6c0.3,0,0.7,0,1,0.1c0.2,0,0.4,0.1,0.6,0.1h0.1l0,0
							c-0.2-0.3,0.3,0.4,0.2,0.4l0,0l0,0l0,0v0.1l-0.1,0.3c-0.2,0.8-0.3,1.6-0.5,2.4c-0.4,1.7-0.8,3.6-1.2,5.6l-0.1,0.3h-0.3
							c-0.6,0-1.3,0-1.9,0c-2.4,0-4.6,0-6.7-0.1h-0.4v-0.3c0-1.5,0.4-2.8,0.9-3.9c0.6-1.1,1.3-1.9,1.9-2.5c0.7-0.6,1.3-0.9,1.7-1.1
							C459,47.1,459.3,47,459.3,47.1c0.1,0.1-0.9,0.5-2.1,1.6s-2.5,3.3-2.5,6.1l-0.3-0.4c2.1,0,4.3,0,6.7,0c0.7,0,1.3,0,1.9,0
							l-0.4,0.3c0.5-2,0.9-3.8,1.3-5.5c0.2-0.8,0.4-1.6,0.6-2.4l0.1-0.3v-0.1l0,0l0,0l0,0c0-0.1,0.4,0.7,0.2,0.3l0,0h-0.1
							c-0.2,0-0.3-0.1-0.5-0.1c-0.3-0.1-0.7-0.1-1-0.1C460.8,46.4,459.3,47.2,459.3,47.1z"/>
					</g>
				</g>
			</g>
			<g>
				<path class="st6" d="M463.9,56.1h-1.5h-7c0,2.1,0.8,4.2,2.2,5.8c1.7,1.9,4.2,3.2,7.2,2.9c0.3,0,0.6-0.1,0.9-0.1v0.1
					c4-1.1,7.1-4.8,6.8-8.3c-0.3-4.1-2.8-7.6-6.7-8.5L463.9,56.1z"/>
			</g>
		</g>
		<g>
			<g>
				<g>
					<path class="st6" d="M459.3,78.5c-2.5,1.1-4.5,3.4-4.8,6.7c0,0.1,0,0.2,0,0.3c0,0.1,0,0.1,0,0.2c0,0.2,0,0.3,0,0.5l0,0l0,0l0,0
						l0,0l0,0h7h1.6l1.9-8.4l0,0l0,0c-0.6-0.1-1.2-0.2-1.8-0.2C461.9,77.6,460.5,77.9,459.3,78.5z"/>
				</g>
			</g>
			<g>
				<g>
					<path class="st1" d="M463.9,87.5c0,0,0.1-0.9,0.4-2.3c0.3-1.6,0.7-3.6,1.3-6.1l0.1-0.3l0.3,0.1c2.5,0.5,5.3,2.6,6.4,5.8
						c0.5,1.6,0.9,3.4,0.4,5.2c-0.5,1.8-1.7,3.4-3.2,4.6c-1.1,0.9-2.3,1.5-3.6,1.8l-0.4,0.1l-0.1-0.4v-0.1l0.4,0.3
						c-1.5,0.3-3.1,0.2-4.4-0.2c-1.4-0.4-2.6-1.2-3.5-2.2c-1.9-1.9-2.7-4.4-2.7-6.5V87h0.3c2.5,0.1,4.6,0.1,6.2,0.2
						C463.1,87.4,463.9,87.5,463.9,87.5c0.1,0-0.8,0.1-2.3,0.1c-1.6,0-3.7,0.1-6.2,0.1l0.3-0.3c0,2,0.8,4.3,2.6,6
						c1.7,1.8,4.6,2.7,7.4,2.1l0.4-0.1l0.1,0.4v0.1l-0.5-0.3c1.2-0.3,2.3-0.9,3.4-1.7c1.4-1.1,2.5-2.6,3-4.2s0.2-3.3-0.3-4.8
						c-1-3-3.5-5-5.8-5.5l0.3-0.2c-0.6,2.6-1.2,4.7-1.6,6.1C464.2,86.8,464,87.6,463.9,87.5z"/>
				</g>
			</g>
		</g>
		<g>
			<g>
				<g>
					<path class="st3" d="M510.5,83c0,0.2-6.5,0.4-14.6,0.4s-14.6-0.2-14.6-0.4s6.5-0.4,14.6-0.4C503.9,82.6,510.5,82.8,510.5,83z"
						/>
				</g>
			</g>
			<g>
				<g>
					<path class="st3" d="M495.9,86.9c0,0.2-3.3,0.4-7.3,0.4s-7.3-0.2-7.3-0.4c0-0.2,3.3-0.4,7.3-0.4S495.9,86.7,495.9,86.9z"/>
				</g>
			</g>
		</g>
		<g>
			<g>
				<g>
					<path class="st3" d="M510.5,51.6c0,0.2-6.5,0.4-14.6,0.4s-14.6-0.2-14.6-0.4s6.5-0.4,14.6-0.4
						C503.9,51.2,510.5,51.4,510.5,51.6z"/>
				</g>
			</g>
			<g>
				<g>
					<path class="st3" d="M495.9,55.5c0,0.2-3.3,0.4-7.3,0.4s-7.3-0.2-7.3-0.4s3.3-0.4,7.3-0.4S495.9,55.3,495.9,55.5z"/>
				</g>
			</g>
		</g>
		<g>
			<g>
				<path class="st3" d="M440.9,107.9c-0.2,0-0.4-17.6-0.4-39.3s0.2-39.3,0.4-39.3c0.2,0,0.4,17.6,0.4,39.3S441.1,107.9,440.9,107.9
					z"/>
			</g>
		</g>
	</g>
	<g>
		<g>
			<rect x="428.5" y="205.5" class="st4" width="9" height="81.7"/>
		</g>
		<g>
			<rect x="446" y="233.2" class="st4" width="9" height="53.9"/>
		</g>
		<g>
			<rect x="463.4" y="215.6" class="st4" width="9" height="71.9"/>
		</g>
		<g>
			<rect x="480.9" y="208.6" class="st4" width="9" height="78.5"/>
		</g>
		<g>
			<rect x="498.3" y="234.9" class="st4" width="9" height="52.3"/>
		</g>
		<g>
			<rect x="515.8" y="245.1" class="st4" width="9" height="42"/>
		</g>
		<g>
			<rect x="533.3" y="213.9" class="st4" width="9" height="73.3"/>
		</g>
		<g>
			<rect x="550.7" y="227.1" class="st4" width="9" height="60.1"/>
		</g>
		<g>
			<rect x="568.2" y="216.5" class="st4" width="9" height="70.6"/>
		</g>
		<g>
			<rect x="585.7" y="239" class="st4" width="9" height="48.1"/>
		</g>
		<g>
			<rect x="603.1" y="229.9" class="st4" width="9" height="57.3"/>
		</g>
		<g>
			<g>
				<path class="st3" d="M606.6,224c0,0-0.2,0-0.5-0.1c-0.4-0.1-0.9-0.1-1.6-0.3c-0.7-0.1-1.6-0.2-2.6-0.3c-0.5-0.1-1.1-0.1-1.6-0.2
					c-0.6,0-1.2-0.1-1.9-0.1c-2.7-0.1-5.9,0-9.7,0.5c-3.7,0.6-8,1.6-12.4,3.4c-4.4,1.8-9,4.3-13.3,7.9c-4.4,3.5-8.2,8.2-11.9,13.2
					c-3.8,5-7.7,10.6-13,15c-2.7,2.2-5.7,4.2-9.1,5.5c-3.4,1.3-7.1,1.9-10.8,1.3c-3.7-0.5-7.1-2-10.2-3.9c-3-2-5.7-4.3-8.1-6.8
					c-4.8-5.1-8.3-10.8-11.9-15.9c-3.6-5.2-7.4-9.9-11.9-13.2c-2.2-1.7-4.6-3-7-4s-4.8-1.6-7.2-1.9c-4.7-0.7-9.1-0.3-12.7,0.6
					c-3.7,0.9-6.7,2.2-9,3.5c-2.3,1.4-3.9,2.6-5,3.6c-0.5,0.5-0.9,0.8-1.2,1.1c-0.3,0.2-0.4,0.4-0.4,0.3c0,0,0.1-0.1,0.4-0.4
					c0.3-0.3,0.7-0.7,1.1-1.1c1-1,2.7-2.3,4.9-3.7c2.3-1.3,5.3-2.7,9.1-3.6c3.7-0.9,8.1-1.3,12.9-0.7c2.4,0.4,4.9,0.9,7.3,1.9
					s4.9,2.3,7.1,4c4.6,3.4,8.4,8.2,12.1,13.3s7.2,10.9,11.9,15.8c2.3,2.5,5,4.8,7.9,6.7c3,1.8,6.3,3.3,9.9,3.8s7.2,0,10.4-1.3
					c3.3-1.3,6.2-3.2,8.8-5.3c5.3-4.4,9.1-9.8,13-14.9c1.9-2.5,3.8-5,5.8-7.2c1-1.1,2-2.2,3.1-3.2c0.5-0.5,1.1-1,1.6-1.5
					s1.1-0.9,1.6-1.4c4.4-3.6,9.1-6.1,13.5-7.9c4.5-1.8,8.7-2.8,12.5-3.3s7.1-0.6,9.8-0.4c0.7,0,1.3,0.1,1.9,0.1
					c0.6,0.1,1.1,0.1,1.7,0.2c1,0.1,1.9,0.2,2.6,0.4c0.7,0.1,1.2,0.2,1.6,0.3C606.4,223.9,606.6,224,606.6,224z"/>
			</g>
		</g>
		<g>
			<g>
				<path class="st3" d="M418.5,292.8c-0.2,0-0.4-23.3-0.4-52s0.2-52,0.4-52c0.2,0,0.4,23.3,0.4,52
					C418.9,269.6,418.7,292.8,418.5,292.8z"/>
			</g>
		</g>
		<g>
			<g>
				<path class="st3" d="M615.9,292.8c0,0.2-42.9,0.4-95.8,0.4s-95.8-0.2-95.8-0.4c0-0.2,42.9-0.4,95.8-0.4
					C572.9,292.5,615.9,292.6,615.9,292.8z"/>
			</g>
		</g>
		<g>
			<g>
				<path class="st3" d="M441.4,299.3c0,0.2-3,0.4-6.7,0.4s-6.7-0.2-6.7-0.4c0-0.2,3-0.4,6.7-0.4S441.4,299.1,441.4,299.3z"/>
			</g>
		</g>
		<g>
			<g>
				<path class="st3" d="M463.7,299.6c0,0.2-3.6,0.4-8,0.4s-8-0.2-8-0.4c0-0.2,3.6-0.4,8-0.4S463.7,299.4,463.7,299.6z"/>
			</g>
		</g>
		<g>
			<g>
				<path class="st3" d="M482.7,299.6c0,0.2-3.6,0.4-8,0.4s-8-0.2-8-0.4c0-0.2,3.6-0.4,8-0.4S482.7,299.4,482.7,299.6z"/>
			</g>
		</g>
		<g>
			<g>
				<path class="st3" d="M501.6,299.6c0,0.2-3.6,0.4-8,0.4s-8-0.2-8-0.4c0-0.2,3.6-0.4,8-0.4S501.6,299.4,501.6,299.6z"/>
			</g>
		</g>
		<g>
			<g>
				<path class="st3" d="M520.6,299.6c0,0.2-3.6,0.4-8,0.4c-4.4,0-8-0.2-8-0.4c0-0.2,3.6-0.4,8-0.4
					C517,299.2,520.6,299.4,520.6,299.6z"/>
			</g>
		</g>
		<g>
			<g>
				<path class="st3" d="M539.6,299.6c0,0.2-3.6,0.4-8,0.4s-8-0.2-8-0.4c0-0.2,3.6-0.4,8-0.4S539.6,299.4,539.6,299.6z"/>
			</g>
		</g>
		<g>
			<g>
				<path class="st3" d="M558.6,299.6c0,0.2-3.6,0.4-8,0.4s-8-0.2-8-0.4c0-0.2,3.6-0.4,8-0.4S558.6,299.4,558.6,299.6z"/>
			</g>
		</g>
		<g>
			<g>
				<path class="st3" d="M577.6,299.6c0,0.2-3.6,0.4-8,0.4s-8-0.2-8-0.4c0-0.2,3.6-0.4,8-0.4S577.6,299.4,577.6,299.6z"/>
			</g>
		</g>
		<g>
			<g>
				<path class="st3" d="M596.6,299.6c0,0.2-3.6,0.4-8,0.4s-8-0.2-8-0.4c0-0.2,3.6-0.4,8-0.4S596.6,299.4,596.6,299.6z"/>
			</g>
		</g>
		<g>
			<g>
				<path class="st3" d="M615.6,299.6c0,0.2-3.6,0.4-8,0.4s-8-0.2-8-0.4c0-0.2,3.6-0.4,8-0.4S615.6,299.4,615.6,299.6z"/>
			</g>
		</g>
		<g>
			<g>
				<path class="st3" d="M490.3,244.3c0-0.1,0.8,0,1.1,1.1c0.1,0.5,0.1,1.2-0.4,1.7c-0.5,0.6-1.5,0.7-2.2,0.4s-1.3-1.1-1.2-1.9
					c0.1-0.7,0.6-1.2,1.1-1.4C489.8,243.7,490.4,244.2,490.3,244.3s-0.6-0.1-1.3,0.3c-0.3,0.2-0.6,0.6-0.6,1s0.3,0.9,0.8,1.1
					c0.5,0.2,1.1,0.2,1.3-0.2c0.3-0.3,0.4-0.8,0.3-1.2C490.8,244.7,490.2,244.4,490.3,244.3z"/>
			</g>
		</g>
		<g>
			<g>
				<path class="st3" d="M577.7,224.6c0,0,0.2-0.1,0.5-0.1c0.3,0.1,0.8,0.3,1.2,0.8s0.7,1.3,0.3,2.1c-0.3,0.8-1.2,1.4-2.2,1.4
					c-1.1,0-1.8-0.8-2.1-1.6s0-1.7,0.4-2.1c0.9-0.9,1.7-0.8,1.7-0.7s-0.7,0.2-1.3,1c-0.3,0.4-0.4,1-0.2,1.5c0.2,0.6,0.7,1.1,1.4,1.1
					s1.3-0.4,1.6-1c0.3-0.5,0.1-1.1-0.1-1.5C578.5,224.7,577.7,224.7,577.7,224.6z"/>
			</g>
		</g>
		<g>
			<g>
				<g>
					<ellipse class="st3" cx="579.1" cy="185.3" rx="0.4" ry="1.1"/>
				</g>
			</g>
			<g>
				<g>
					<path class="st3" d="M579.1,195.9c-0.2,0-0.4-1.1-0.4-2.4c0-1.3,0.2-2.4,0.4-2.4s0.4,1.1,0.4,2.4
						C579.5,194.9,579.4,195.9,579.1,195.9z"/>
				</g>
			</g>
			<g>
				<g>
					<path class="st3" d="M579.1,205.4c-0.2,0-0.4-1.1-0.4-2.4c0-1.3,0.2-2.4,0.4-2.4s0.4,1.1,0.4,2.4
						C579.5,204.4,579.4,205.4,579.1,205.4z"/>
				</g>
			</g>
			<g>
				<g>
					<path class="st3" d="M579.1,214.9c-0.2,0-0.4-1.1-0.4-2.4c0-1.3,0.2-2.4,0.4-2.4s0.4,1.1,0.4,2.4
						C579.5,213.9,579.4,214.9,579.1,214.9z"/>
				</g>
			</g>
			<g>
				<g>
					<path class="st3" d="M579.1,221.9c-0.2,0-0.4-0.5-0.4-1.1s0.2-1.1,0.4-1.1s0.4,0.5,0.4,1.1S579.4,221.9,579.1,221.9z"/>
				</g>
			</g>
		</g>
		<g>
			<g>
				<path class="st3" d="M643.5,171.4c0,0.2-14.8,0.4-33.1,0.4s-33.1-0.2-33.1-0.4s14.8-0.4,33.1-0.4S643.5,171.2,643.5,171.4z"/>
			</g>
		</g>
		<g>
			<g>
				<path class="st3" d="M620.9,163.9c0,0.2-9.5,0.4-21.3,0.4s-21.3-0.2-21.3-0.4s9.5-0.4,21.3-0.4
					C611.3,163.5,620.9,163.7,620.9,163.9z"/>
			</g>
		</g>
	</g>
	<g>
		<path class="st3" d="M186.5,119.4c0.2,0,0.4,0.5,0.4,1.1s-0.2,1.1-0.4,1.1s-0.4-0.5-0.4-1.1C186.1,119.8,186.3,119.4,186.5,119.4z
			"/>
		<path class="st3" d="M186.5,110.9c0.2,0,0.4,0.9,0.4,2.1s-0.2,2.1-0.4,2.1s-0.4-0.9-0.4-2.1S186.3,110.9,186.5,110.9z"/>
		<path class="st3" d="M186.5,102.4c0.2,0,0.4,0.9,0.4,2.1s-0.2,2.1-0.4,2.1s-0.4-0.9-0.4-2.1C186.1,103.4,186.3,102.4,186.5,102.4z
			"/>
		<path class="st3" d="M186.5,94c0.2,0,0.4,0.9,0.4,2.1s-0.2,2.1-0.4,2.1s-0.4-0.9-0.4-2.1S186.3,94,186.5,94z"/>
		<ellipse class="st3" cx="186.5" cy="87.7" rx="0.4" ry="2.1"/>
		<path class="st3" d="M186.5,77.1c0.2,0,0.4,0.9,0.4,2.1s-0.2,2.1-0.4,2.1s-0.4-0.9-0.4-2.1C186.1,78.1,186.3,77.1,186.5,77.1z"/>
		<path class="st3" d="M186.5,70.7c0.2,0,0.4,0.5,0.4,1.1s-0.2,1.1-0.4,1.1s-0.4-0.5-0.4-1.1S186.3,70.7,186.5,70.7z"/>
		<path class="st3" d="M188.7,68.6c0,0.2-0.5,0.4-1.1,0.4s-1.1-0.2-1.1-0.4c0-0.2,0.5-0.4,1.1-0.4S188.7,68.4,188.7,68.6z"/>
		<path class="st3" d="M197.6,68.6c0,0.2-1,0.4-2.2,0.4s-2.2-0.2-2.2-0.4c0-0.2,1-0.4,2.2-0.4S197.6,68.4,197.6,68.6z"/>
		<path class="st3" d="M206.6,68.6c0,0.2-1,0.4-2.2,0.4s-2.2-0.2-2.2-0.4c0-0.2,1-0.4,2.2-0.4S206.6,68.4,206.6,68.6z"/>
		<path class="st3" d="M215.6,68.6c0,0.2-1,0.4-2.2,0.4s-2.2-0.2-2.2-0.4c0-0.2,1-0.4,2.2-0.4S215.6,68.4,215.6,68.6z"/>
		<path class="st3" d="M224.6,68.6c0,0.2-1,0.4-2.2,0.4s-2.2-0.2-2.2-0.4c0-0.2,1-0.4,2.2-0.4S224.6,68.4,224.6,68.6z"/>
		<path class="st3" d="M233.6,68.6c0,0.2-1,0.4-2.2,0.4s-2.2-0.2-2.2-0.4c0-0.2,1-0.4,2.2-0.4S233.6,68.4,233.6,68.6z"/>
		<path class="st3" d="M242.6,68.6c0,0.2-1,0.4-2.2,0.4s-2.2-0.2-2.2-0.4c0-0.2,1-0.4,2.2-0.4S242.6,68.4,242.6,68.6z"/>
		<path class="st3" d="M251.6,68.6c0,0.2-1,0.4-2.2,0.4s-2.2-0.2-2.2-0.4c0-0.2,1-0.4,2.2-0.4S251.6,68.4,251.6,68.6z"/>
		<path class="st3" d="M260.5,68.6c0,0.2-1,0.4-2.2,0.4s-2.2-0.2-2.2-0.4c0-0.2,1-0.4,2.2-0.4S260.5,68.4,260.5,68.6z"/>
		<path class="st3" d="M269.5,68.6c0,0.2-1,0.4-2.2,0.4s-2.2-0.2-2.2-0.4c0-0.2,1-0.4,2.2-0.4S269.5,68.4,269.5,68.6z"/>
		<path class="st3" d="M278.5,68.6c0,0.2-1,0.4-2.2,0.4s-2.2-0.2-2.2-0.4c0-0.2,1-0.4,2.2-0.4S278.5,68.4,278.5,68.6z"/>
		<path class="st3" d="M285.2,68.6c0,0.2-0.5,0.4-1.1,0.4s-1.1-0.2-1.1-0.4c0-0.2,0.5-0.4,1.1-0.4C284.8,68.2,285.2,68.4,285.2,68.6
			z"/>
	</g>
	<g>
		<g>
			<path class="st3" d="M393.2,150.3H337c-3.1,0-5.7,2.5-5.7,5.7v33c0,3.1,2.5,5.7,5.7,5.7h9v13.5l12.1-13.5h35.1
				c3.1,0,5.7-2.5,5.7-5.7v-33C398.8,152.8,396.3,150.3,393.2,150.3z"/>
		</g>
		<g>
			<path class="st6" d="M358.3,173.1c0,1.3-1,2.3-2.3,2.3s-2.3-1-2.3-2.3s1-2.3,2.3-2.3S358.3,171.9,358.3,173.1z"/>
		</g>
		<g>
			<path class="st6" d="M367.5,173.1c0,1.3-1,2.3-2.3,2.3s-2.3-1-2.3-2.3s1-2.3,2.3-2.3S367.5,171.9,367.5,173.1z"/>
		</g>
		<g>
			<path class="st6" d="M376.5,173.1c0,1.3-1,2.3-2.3,2.3s-2.3-1-2.3-2.3s1-2.3,2.3-2.3C375.4,170.8,376.5,171.9,376.5,173.1z"/>
		</g>
	</g>
	<g>
		<g>
			<g>
				<path class="st3" d="M268.9,191.3c-2.8-0.7-2.3-8.3-2.6-10.6c-0.2-1.4-0.3-2.9,0.3-4.2c0.8-1.7,2.7-2.5,4.5-2.8s3.7-0.1,5.5-0.4
					c3.7-0.5,7-2.8,10.7-3.1c3-0.3,6.1,0.9,8.3,3c1.3,1.3,2.2,2.9,3.8,3.8c1.4,0.8,3.1,0.9,4.6,1.4c3.8,1.1,6.8,4.7,7.3,8.6
					c0.3,2.3-0.2,4.7-0.5,7s-0.3,4.9,1,6.9c1.3,2.1,3.7,3.3,4.9,5.4c1,1.9,0.9,4.4-0.3,6.2c-1.2,1.8-3.5,2.8-5.7,2.5
					c-0.7-0.1-1.5-0.3-2,0.1c-0.5,0.4-0.5,1.1-0.6,1.6c-0.5,2.2-2.9,3.8-5.1,3.4c-2.2-0.4-3.9-2.8-3.6-5"/>
			</g>
			<g>
				<g>
					<g>
						<g>
							<g>
								<path class="st7" d="M300.9,239.9l-24.2-1.9c-0.2-2.8,0.1-13.7,0.1-13.7s-10.1-1.6-10.2-11.6c-0.1-10.1,1.6-33.1,1.6-33.1
									l0,0c11.6-5,25.1-3.3,35.1,4.4l1.5,1.1L300.9,239.9z"/>
							</g>
						</g>
						<g>
							<g>
								<g>
									<path class="st3" d="M270.5,195.8c0.6-0.5,0.6-1.5,0.1-2.1s-1.5-0.6-2.1-0.1s-0.6,1.5-0.1,2.1
										C269,196.3,269.9,196.4,270.5,195.8z"/>
								</g>
							</g>
							<g>
								<g>
									<g>
										<path class="st3" d="M268.1,194.5c0.2,0.2,1.1-0.6,2.5-0.6s2.4,0.7,2.5,0.5c0.1-0.1-0.1-0.4-0.5-0.7s-1.2-0.7-2-0.6
											c-0.9,0-1.6,0.3-2,0.7C268.2,194.1,268,194.4,268.1,194.5z"/>
									</g>
								</g>
							</g>
						</g>
						<g>
							<g>
								<g>
									<path class="st3" d="M283.8,195c-0.7,0.4-0.9,1.3-0.5,2s1.3,0.9,2,0.5s0.9-1.3,0.5-2S284.5,194.5,283.8,195z"/>
								</g>
							</g>
							<g>
								<g>
									<g>
										<path class="st3" d="M283.1,195.7c0.2,0.2,1.1-0.6,2.5-0.6s2.4,0.7,2.5,0.5c0.1-0.1-0.1-0.4-0.5-0.7s-1.2-0.7-2-0.6
											c-0.9,0-1.6,0.3-2,0.7C283.2,195.3,283.1,195.6,283.1,195.7z"/>
									</g>
								</g>
							</g>
						</g>
						<g>
							<g>
								<g>
									<path class="st3" d="M277.6,207.1c0-0.1-0.8-0.3-2.2-0.5c-0.4,0-0.6-0.1-0.7-0.3s0.1-0.6,0.3-1c0.4-0.9,0.7-1.8,1.1-2.8
										c1.5-4,2.6-7.3,2.4-7.4c-0.2-0.1-1.6,3.1-3.1,7.1c-0.4,1-0.7,1.9-1,2.8c-0.1,0.4-0.4,0.9-0.2,1.5c0.1,0.3,0.4,0.5,0.6,0.6
										s0.4,0.1,0.6,0.1C276.7,207.3,277.6,207.2,277.6,207.1z"/>
								</g>
							</g>
						</g>
						<g>
							<g>
								<path class="st6" d="M282.1,208.7c1.4-0.9-4,2.1-6.8,2c0,0,1.6,2.6,4.5,1.5C282.8,211,282.1,208.7,282.1,208.7z"/>
							</g>
						</g>
						<g>
							<g>
								<path class="st8" d="M276.8,224.1c0,0,6.4,0.5,13.1-3.7c0,0-3.1,7.2-13.1,6.3V224.1z"/>
							</g>
						</g>
					</g>
				</g>
				<g>
					<g>
						<g>
							<path class="st7" d="M303.3,195.4c0.2-0.1,7.1-2.4,8,6.1s-8,6.6-8,6.4C303.2,207.7,303.3,195.4,303.3,195.4z"/>
						</g>
					</g>
					<g>
						<g>
							<g>
								<path class="st8" d="M305.6,204.6c0,0,0.2,0.1,0.4,0.2c0.3,0.1,0.7,0.1,1.1-0.1c0.9-0.4,1.5-1.9,1.4-3.5
									c-0.1-0.8-0.3-1.5-0.6-2.1c-0.3-0.6-0.8-1-1.2-1c-0.5-0.1-0.8,0.2-0.8,0.5c-0.1,0.3,0,0.4-0.1,0.4c0,0-0.2-0.1-0.2-0.5
									c0-0.2,0.1-0.4,0.3-0.6c0.2-0.2,0.5-0.3,0.8-0.3c0.7,0,1.3,0.5,1.7,1.2c0.4,0.6,0.7,1.4,0.8,2.3c0.1,1.7-0.6,3.4-1.8,3.9
									c-0.6,0.2-1.1,0.1-1.4-0.1C305.6,204.8,305.5,204.7,305.6,204.6z"/>
							</g>
						</g>
					</g>
				</g>
			</g>
			<g>
				<path class="st3" d="M268.3,179c1.9,3.6,6.2,5.4,10.2,5.5c4,0.2,8-1,11.9-2.1c2.1-0.6,4.7-1,6.2,0.5c0.9,0.9,1.2,2.3,1.3,3.5
					c0.4,2.8,0.4,5.7,0.1,8.5c-0.1,1.1-0.3,2.3,0,3.4c0.3,1.1,1.1,2.1,2.3,2.2c1.8,0.1,2.9-1.9,3.5-3.5c0.8-2.3,1.7-4.7,2-7.1
					c0.3-2.4,0-5-1.3-7.1c-1.5-2.4-4-3.8-6.5-5c-5-2.4-10.5-4.2-16.1-4.2s-11.3,1.8-15.3,5.8"/>
			</g>
		</g>
		<g>
			<g>
				<g>
					<g>
						<g>
							<g>
								<g>
									<path class="st9" d="M265.3,620.9l-0.1-13.4l25.1-0.3l0.3,19.6l-1.6,0.1c-6.9,0.5-35.3,1.9-39.9,0.5
										C244,626,265.3,620.9,265.3,620.9z"/>
								</g>
							</g>
						</g>
						<g>
							<g>
								<g>
									<path class="st9" d="M281.6,626.7c0.3-2.1,1.5-4.1,3.1-5.4c1.7-1.3,3.7-2,5.9-1.9l0.1,7L281.6,626.7z"/>
								</g>
							</g>
						</g>
					</g>
					<g>
						<g>
							<g>
								<path class="st9" d="M254.9,623.8c0,0-7.5,2.3-6.5,3.5c0.9,1.2,29.7,0.9,42.3-0.4v-0.6l-33.5,0.7
									C257.2,627,256.4,623.8,254.9,623.8z"/>
							</g>
						</g>
					</g>
					<g>
						<g>
							<g>
								<g>
									<path class="st3" d="M291.1,626.3c0,0-0.1,0-0.4,0.1c-0.4,0-0.8,0.1-1.2,0.1c-1.2,0.1-2.8,0.2-4.6,0.3
										c-3.9,0.2-9.2,0.4-15.1,0.5s-11.2,0-15.1-0.1c-1.8-0.1-3.3-0.1-4.6-0.1c-0.5,0-0.9,0-1.2-0.1c-0.3,0-0.4,0-0.4,0
										s0.1,0,0.4,0c0.4,0,0.8,0,1.2,0c1.2,0,2.8,0,4.6,0c3.9,0,9.2,0,15.1,0c5.9-0.1,11.2-0.2,15.1-0.4c1.8-0.1,3.3-0.1,4.6-0.2
										c0.5,0,0.9,0,1.2,0C290.9,626.2,291.1,626.2,291.1,626.3z"/>
								</g>
							</g>
						</g>
					</g>
					<g>
						<g>
							<g>
								<g>
									<path class="st3" d="M257.2,627.4c-0.1,0-0.2-1.1-0.9-2.2c-0.7-1.1-1.6-1.7-1.6-1.7c0-0.1,1.1,0.4,1.8,1.6
										C257.3,626.2,257.3,627.4,257.2,627.4z"/>
								</g>
							</g>
						</g>
					</g>
					<g>
						<g>
							<g>
								<g>
									<path class="st3" d="M264.6,623.5c-0.1,0-0.4-0.4-0.8-1s-0.6-1.1-0.5-1.1s0.4,0.4,0.8,1C264.4,623,264.6,623.5,264.6,623.5
										z"/>
								</g>
							</g>
						</g>
					</g>
					<g>
						<g>
							<g>
								<g>
									<path class="st3" d="M266.6,622.4c-0.1,0.1-0.5-0.2-0.9-0.6c-0.4-0.4-0.7-0.7-0.7-0.8c0.1-0.1,0.5,0.2,0.9,0.6
										S266.6,622.4,266.6,622.4z"/>
								</g>
							</g>
						</g>
					</g>
					<g>
						<g>
							<g>
								<g>
									<path class="st3" d="M267.8,620c0,0.1-0.6,0.2-1.3,0.2c-0.7,0-1.3,0-1.3-0.1s0.6-0.2,1.3-0.2
										C267.3,619.9,267.8,619.9,267.8,620z"/>
								</g>
							</g>
						</g>
					</g>
					<g>
						<g>
							<g>
								<g>
									<path class="st3" d="M268.3,618.3c0,0.1-0.6,0.4-1.5,0.4c-0.9,0.1-1.5-0.1-1.5-0.2c0-0.1,0.7,0,1.5-0.1
										C267.6,618.4,268.2,618.3,268.3,618.3z"/>
								</g>
							</g>
						</g>
					</g>
					<g>
						<g>
							<g>
								<g>
									<path class="st3" d="M263.7,621.3c0,0-0.6,0.1-1.6,0c-0.5-0.1-1.1-0.2-1.7-0.4c-0.3-0.1-0.6-0.2-1-0.4
										c-0.2-0.1-0.3-0.3-0.4-0.5s0.1-0.5,0.2-0.6c1.5-0.8,3.1,0,3.7,0.8c0.3,0.4,0.5,0.8,0.5,1.1c0.1,0.3,0.1,0.4,0,0.4
										s-0.1-0.6-0.8-1.4c-0.3-0.4-0.8-0.7-1.4-0.9s-1.4-0.2-1.9,0.2c-0.3,0.2-0.2,0.5,0.1,0.7c0.3,0.2,0.6,0.3,0.9,0.4
										c0.6,0.2,1.2,0.3,1.7,0.4C263.1,621.3,263.7,621.3,263.7,621.3z"/>
								</g>
							</g>
						</g>
					</g>
					<g>
						<g>
							<g>
								<g>
									<path class="st3" d="M263.3,621.4c0,0-0.3-0.4-0.2-1.1c0-0.4,0.2-0.8,0.4-1.2c0.3-0.4,0.6-0.9,1.3-0.8
										c0.4,0,0.6,0.5,0.5,0.7c0,0.3-0.1,0.5-0.3,0.7c-0.2,0.4-0.5,0.7-0.8,1C263.7,621.2,263.3,621.4,263.3,621.4
										c0,0,0.3-0.3,0.8-0.8c0.2-0.3,0.5-0.6,0.7-1c0.2-0.3,0.4-1,0-1s-0.8,0.4-1.1,0.7c-0.2,0.4-0.4,0.7-0.4,1.1
										C263.2,621,263.3,621.4,263.3,621.4z"/>
								</g>
							</g>
						</g>
					</g>
					<g>
						<g>
							<g>
								<g>
									<path class="st3" d="M290.5,619.4c0,0.1-0.7-0.1-1.9,0.1c-1.1,0.1-2.7,0.6-4,1.7c-1.3,1.1-2.1,2.5-2.5,3.6
										s-0.4,1.8-0.5,1.8c0,0,0-0.2,0-0.5s0.1-0.8,0.3-1.4c0.3-1.1,1.1-2.6,2.5-3.8c1.4-1.1,3-1.6,4.2-1.7c0.6,0,1.1,0,1.4,0
										C290.3,619.3,290.5,619.4,290.5,619.4z"/>
								</g>
							</g>
						</g>
					</g>
					<g>
						<g>
							<g>
								<g>
									<path class="st3" d="M287.7,609c0.1,0,0.2,2.3,0.3,5.2c0.1,2.9,0.1,5.2,0,5.2s-0.2-2.3-0.3-5.2
										C287.6,611.3,287.6,609,287.7,609z"/>
								</g>
							</g>
						</g>
					</g>
					<g>
						<g>
							<g>
								<g>
									<path class="st3" d="M278.4,624.3c0,0.1-1.6,0.4-3.7,0.4c-2,0-3.7-0.2-3.7-0.2c0-0.1,1.7,0,3.7-0.1
										C276.7,624.4,278.4,624.3,278.4,624.3z"/>
								</g>
							</g>
						</g>
					</g>
					<g>
						<g>
							<g>
								<g>
									<path class="st3" d="M283.3,624.3c0.1,0.1-0.1,0.3-0.3,0.7c-0.2,0.4-0.3,0.7-0.3,0.7c-0.1,0-0.1-0.4,0.1-0.8
										C282.9,624.4,283.3,624.2,283.3,624.3z"/>
								</g>
							</g>
						</g>
					</g>
					<g>
						<g>
							<g>
								<g>
									<path class="st3" d="M285.2,621.9c0.1,0.1-0.1,0.3-0.4,0.6s-0.5,0.4-0.6,0.4c-0.1-0.1,0.1-0.3,0.4-0.6
										C284.8,622,285.1,621.9,285.2,621.9z"/>
								</g>
							</g>
						</g>
					</g>
					<g>
						<g>
							<g>
								<g>
									<path class="st3" d="M287.8,620.8c0,0.1-0.4,0.1-0.7,0.2c-0.4,0.1-0.6,0.3-0.7,0.3s0.1-0.4,0.6-0.6
										C287.4,620.6,287.8,620.8,287.8,620.8z"/>
								</g>
							</g>
						</g>
					</g>
					<g>
						<g>
							<g>
								<g>
									<path class="st3" d="M289.7,620.3c0,0.1-0.1,0.2-0.3,0.3c-0.2,0.1-0.4,0.1-0.4,0s0.1-0.2,0.3-0.3S289.7,620.2,289.7,620.3z
										"/>
								</g>
							</g>
						</g>
					</g>
				</g>
			</g>
			<g>
				<g>
					<g>
						<g>
							<g>
								<g>
									<path class="st9" d="M393.8,614l-4.1-12.8l-24,7.5l5.8,18.8l1.5-0.4c6.7-1.7,34.1-9.1,38.1-11.9
										C415.6,612.2,393.8,614,393.8,614z"/>
								</g>
							</g>
						</g>
						<g>
							<g>
								<g>
									<path class="st9" d="M380.2,624.6c-1-1.9-2.7-3.4-4.7-4.2c-2-0.7-4.2-0.8-6.2,0l2.1,6.7L380.2,624.6z"/>
								</g>
							</g>
						</g>
					</g>
					<g>
						<g>
							<g>
								<path class="st9" d="M404.6,613.5c0,0,7.8-0.2,7.3,1.3s-27.9,10-40.3,12.7l-0.1-0.5l32-9.7
									C403.4,617.2,403.2,614,404.6,613.5z"/>
							</g>
						</g>
					</g>
					<g>
						<g>
							<g>
								<g>
									<path class="st3" d="M371,627c0,0,0.1,0,0.4-0.1c0.4-0.1,0.8-0.2,1.2-0.3c1.2-0.3,2.7-0.7,4.4-1.2c3.7-1,8.9-2.5,14.5-4.2
										c5.6-1.8,10.7-3.5,14.3-4.7c1.7-0.6,3.1-1.1,4.3-1.5c0.4-0.2,0.8-0.3,1.2-0.4c0.3-0.1,0.4-0.2,0.4-0.2s-0.1,0-0.4,0.1
										c-0.4,0.1-0.7,0.2-1.2,0.4c-1.2,0.4-2.6,0.9-4.3,1.5c-3.7,1.2-8.7,2.9-14.4,4.6c-5.6,1.8-10.7,3.3-14.4,4.3
										c-1.7,0.5-3.2,0.9-4.4,1.3c-0.4,0.1-0.8,0.2-1.2,0.4C371.1,627,371,627,371,627z"/>
								</g>
							</g>
						</g>
					</g>
					<g>
						<g>
							<g>
								<g>
									<path class="st3" d="M403.5,617.6c0.1,0-0.2-1.1,0.2-2.3c0.3-1.3,1-2.1,1-2.1c0-0.1-0.9,0.7-1.3,2.1
										C403.1,616.5,403.5,617.6,403.5,617.6z"/>
								</g>
							</g>
						</g>
					</g>
					<g>
						<g>
							<g>
								<g>
									<path class="st3" d="M395.3,616.2c0.1,0,0.3-0.5,0.5-1.2s0.3-1.2,0.2-1.2c-0.1,0-0.3,0.5-0.5,1.2
										C395.3,615.6,395.3,616.2,395.3,616.2z"/>
								</g>
							</g>
						</g>
					</g>
					<g>
						<g>
							<g>
								<g>
									<path class="st3" d="M393.1,615.8c0.1,0,0.4-0.3,0.7-0.8c0.3-0.5,0.5-0.9,0.4-1c-0.1,0-0.4,0.3-0.7,0.8
										C393.2,615.3,393,615.8,393.1,615.8z"/>
								</g>
							</g>
						</g>
					</g>
					<g>
						<g>
							<g>
								<g>
									<path class="st3" d="M391.1,613.9c0,0.1,0.6,0,1.3-0.2c0.7-0.2,1.2-0.4,1.2-0.5s-0.6,0-1.3,0.2
										C391.7,613.6,391.1,613.8,391.1,613.9z"/>
								</g>
							</g>
						</g>
					</g>
					<g>
						<g>
							<g>
								<g>
									<path class="st3" d="M390.2,612.5c0,0.1,0.7,0.2,1.5,0s1.4-0.6,1.4-0.6c0-0.1-0.7,0.2-1.5,0.3
										C390.9,612.3,390.2,612.4,390.2,612.5z"/>
								</g>
							</g>
						</g>
					</g>
					<g>
						<g>
							<g>
								<g>
									<path class="st3" d="M395.5,613.9c0,0,0.6-0.1,1.5-0.5c0.5-0.2,1-0.5,1.5-0.9c0.3-0.2,0.6-0.4,0.8-0.7
										c0.1-0.1,0.2-0.3,0.2-0.6s-0.2-0.5-0.4-0.5c-1.7-0.3-2.9,1-3.2,1.9c-0.2,0.5-0.2,0.9-0.2,1.2s0.1,0.4,0.1,0.4
										c0.1,0-0.1-0.6,0.3-1.5c0.2-0.4,0.5-0.9,1-1.3c0.5-0.3,1.3-0.6,1.9-0.4c0.3,0.1,0.3,0.4,0.1,0.7c-0.2,0.2-0.5,0.4-0.8,0.6
										c-0.5,0.4-1,0.7-1.5,0.9C396.1,613.6,395.5,613.8,395.5,613.9z"/>
								</g>
							</g>
						</g>
					</g>
					<g>
						<g>
							<g>
								<g>
									<path class="st3" d="M395.9,613.8c0,0,0.1-0.5-0.2-1.1c-0.1-0.3-0.4-0.7-0.8-1s-0.9-0.6-1.5-0.4c-0.3,0.2-0.4,0.6-0.3,0.9
										c0.1,0.3,0.3,0.5,0.5,0.6c0.3,0.3,0.7,0.5,1,0.7c0.6,0.3,1.1,0.4,1.1,0.3c0,0-0.4-0.2-1-0.5c-0.3-0.2-0.6-0.4-0.9-0.7
										s-0.6-0.8-0.3-1c0.4-0.2,0.9,0.1,1.2,0.3c0.3,0.3,0.6,0.6,0.7,0.9C395.9,613.4,395.9,613.8,395.9,613.8z"/>
								</g>
							</g>
						</g>
					</g>
					<g>
						<g>
							<g>
								<g>
									<path class="st3" d="M369.4,620.3c0,0.1,0.7-0.3,1.8-0.5c1.1-0.2,2.7-0.2,4.4,0.4c1.6,0.6,2.8,1.8,3.5,2.7s0.9,1.6,1,1.6
										c0,0,0-0.2-0.2-0.5c-0.1-0.3-0.3-0.7-0.7-1.2c-0.6-1-1.9-2.2-3.5-2.8c-1.7-0.7-3.4-0.6-4.5-0.3c-0.6,0.1-1,0.3-1.3,0.4
										C369.6,620.2,369.4,620.3,369.4,620.3z"/>
								</g>
							</g>
						</g>
					</g>
					<g>
						<g>
							<g>
								<g>
									<path class="st3" d="M368.8,609.6c-0.1,0,0.5,2.3,1.3,5s1.5,4.9,1.6,4.9s-0.5-2.3-1.3-5
										C369.6,611.7,368.9,609.5,368.8,609.6z"/>
								</g>
							</g>
						</g>
					</g>
					<g>
						<g>
							<g>
								<g>
									<path class="st3" d="M382.4,621.3c0,0.1,1.7-0.2,3.6-0.7c2-0.6,3.5-1.3,3.4-1.4c0-0.1-1.6,0.5-3.5,1.1
										C384,620.8,382.4,621.2,382.4,621.3z"/>
								</g>
							</g>
						</g>
					</g>
					<g>
						<g>
							<g>
								<g>
									<path class="st3" d="M377.7,622.8c0,0.1,0.2,0.3,0.5,0.6s0.5,0.6,0.5,0.6c0.1,0,0-0.4-0.3-0.8
										C378.2,622.8,377.8,622.7,377.7,622.8z"/>
								</g>
							</g>
						</g>
					</g>
					<g>
						<g>
							<g>
								<g>
									<path class="st3" d="M375.3,621.1c0,0.1,0.2,0.3,0.5,0.4c0.3,0.2,0.6,0.3,0.7,0.2c0-0.1-0.2-0.3-0.5-0.4
										C375.6,621.1,375.3,621,375.3,621.1z"/>
								</g>
							</g>
						</g>
					</g>
					<g>
						<g>
							<g>
								<g>
									<path class="st3" d="M372.4,620.9c0,0.1,0.4,0,0.8,0s0.7,0.1,0.7,0c0.1-0.1-0.3-0.3-0.7-0.4
										C372.7,620.6,372.4,620.8,372.4,620.9z"/>
								</g>
							</g>
						</g>
					</g>
					<g>
						<g>
							<g>
								<g>
									<path class="st3" d="M370.5,621c0,0.1,0.2,0.2,0.4,0.2c0.2,0,0.4,0,0.4-0.1s-0.2-0.2-0.4-0.2
										C370.7,620.8,370.5,620.9,370.5,621z"/>
								</g>
							</g>
						</g>
					</g>
				</g>
			</g>
			<g>
				<g>
					<polyline class="st3" points="248.2,354.3 260,615.1 299.1,616 292.6,397.6 363.6,618.6 395.6,609.8 324.2,354.3 					"/>
				</g>
				<g>
					<polygon class="st5" points="361.9,617.1 363.7,620.6 397.6,610.7 395.6,605 					"/>
				</g>
				<g>
					<g>
						<g>
							<path class="st5" d="M391.6,603.7c0.2-0.1,0.5,0.4,0.7,0.9c0.2,0.6,0.2,1.1,0,1.2c-0.2,0.1-0.5-0.4-0.7-0.9
								C391.4,604.3,391.4,603.8,391.6,603.7z"/>
						</g>
					</g>
					<g>
						<g>
							<path class="st5" d="M389.1,595.2c0.2-0.1,0.6,0.8,1,2s0.5,2.2,0.3,2.2c-0.2,0.1-0.6-0.8-1-2
								C389,596.3,388.9,595.3,389.1,595.2z"/>
						</g>
					</g>
					<g>
						<g>
							<path class="st5" d="M386.6,586.8c0.2-0.1,0.6,0.8,1,2s0.5,2.2,0.3,2.2c-0.2,0.1-0.6-0.8-1-2S386.4,586.8,386.6,586.8z"/>
						</g>
					</g>
					<g>
						<g>
							<path class="st5" d="M384,578.3c0.2-0.1,0.6,0.8,1,2s0.5,2.2,0.3,2.2c-0.2,0.1-0.6-0.8-1-2
								C383.9,579.4,383.8,578.4,384,578.3z"/>
						</g>
					</g>
					<g>
						<g>
							<path class="st5" d="M381.5,569.8c0.2-0.1,0.6,0.8,1,2s0.5,2.2,0.3,2.2c-0.2,0.1-0.6-0.8-1-2
								C381.4,570.9,381.3,569.9,381.5,569.8z"/>
						</g>
					</g>
					<g>
						<g>
							<path class="st5" d="M378.9,561.4c0.2-0.1,0.6,0.8,1,2s0.5,2.2,0.3,2.2c-0.2,0.1-0.6-0.8-1-2
								C378.9,562.4,378.7,561.4,378.9,561.4z"/>
						</g>
					</g>
					<g>
						<g>
							<path class="st5" d="M376.4,552.9c0.2-0.1,0.6,0.8,1,2s0.5,2.2,0.3,2.2c-0.2,0.1-0.6-0.8-1-2
								C376.3,554,376.2,553,376.4,552.9z"/>
						</g>
					</g>
					<g>
						<g>
							<path class="st5" d="M373.9,544.4c0.2-0.1,0.6,0.8,1,2s0.5,2.2,0.3,2.2c-0.2,0.1-0.6-0.8-1-2
								C373.8,545.5,373.7,544.5,373.9,544.4z"/>
						</g>
					</g>
					<g>
						<g>
							<path class="st5" d="M371.3,536c0.2-0.1,0.6,0.8,1,2s0.5,2.2,0.3,2.2c-0.2,0.1-0.6-0.8-1-2C371.2,537,371.1,536,371.3,536z"
								/>
						</g>
					</g>
					<g>
						<g>
							<path class="st5" d="M368.8,527.5c0.2-0.1,0.6,0.8,1,2s0.5,2.2,0.3,2.2c-0.2,0.1-0.6-0.8-1-2
								C368.7,528.6,368.6,527.6,368.8,527.5z"/>
						</g>
					</g>
					<g>
						<g>
							<path class="st5" d="M366.2,519c0.2-0.1,0.6,0.8,1,2s0.5,2.2,0.3,2.2c-0.2,0.1-0.6-0.8-1-2C366.2,520.1,366,519.1,366.2,519z
								"/>
						</g>
					</g>
					<g>
						<g>
							<path class="st5" d="M363.7,510.6c0.2-0.1,0.6,0.8,1,2c0.4,1.2,0.5,2.2,0.3,2.2c-0.2,0.1-0.6-0.8-1-2
								C363.6,511.6,363.5,510.6,363.7,510.6z"/>
						</g>
					</g>
					<g>
						<g>
							<path class="st5" d="M361.2,502.1c0.2-0.1,0.6,0.8,1,2s0.5,2.2,0.3,2.2c-0.2,0.1-0.6-0.8-1-2
								C361.1,503.2,361,502.2,361.2,502.1z"/>
						</g>
					</g>
					<g>
						<g>
							<path class="st5" d="M358.6,493.6c0.2-0.1,0.6,0.8,1,2s0.5,2.2,0.3,2.2c-0.2,0.1-0.6-0.8-1-2
								C358.6,494.7,358.4,493.7,358.6,493.6z"/>
						</g>
					</g>
					<g>
						<g>
							<path class="st5" d="M356.1,485.2c0.2-0.1,0.6,0.8,1,2s0.5,2.2,0.3,2.2s-0.6-0.8-1-2S355.9,485.2,356.1,485.2z"/>
						</g>
					</g>
					<g>
						<g>
							<path class="st5" d="M353.6,476.7c0.2-0.1,0.6,0.8,1,2s0.5,2.2,0.3,2.2c-0.2,0.1-0.6-0.8-1-2
								C353.5,477.8,353.4,476.8,353.6,476.7z"/>
						</g>
					</g>
					<g>
						<g>
							<path class="st5" d="M351,468.2c0.2-0.1,0.6,0.8,1,2s0.5,2.2,0.3,2.2c-0.2,0.1-0.6-0.8-1-2
								C350.9,469.3,350.8,468.3,351,468.2z"/>
						</g>
					</g>
					<g>
						<g>
							<path class="st5" d="M348.5,459.8c0.2-0.1,0.6,0.8,1,2s0.5,2.2,0.3,2.2c-0.2,0.1-0.6-0.8-1-2S348.3,459.8,348.5,459.8z"/>
						</g>
					</g>
					<g>
						<g>
							<path class="st5" d="M345.9,451.3c0.2-0.1,0.6,0.8,1,2s0.5,2.2,0.3,2.2c-0.2,0.1-0.6-0.8-1-2
								C345.9,452.3,345.7,451.3,345.9,451.3z"/>
						</g>
					</g>
					<g>
						<g>
							<path class="st5" d="M343.4,442.8c0.2-0.1,0.6,0.8,1,2s0.5,2.2,0.3,2.2c-0.2,0.1-0.6-0.8-1-2
								C343.3,443.9,343.2,442.9,343.4,442.8z"/>
						</g>
					</g>
					<g>
						<g>
							<path class="st5" d="M340.9,434.4c0.2-0.1,0.6,0.8,1,2s0.5,2.2,0.3,2.2c-0.2,0.1-0.6-0.8-1-2S340.7,434.4,340.9,434.4z"/>
						</g>
					</g>
					<g>
						<g>
							<path class="st5" d="M338.3,425.9c0.2-0.1,0.6,0.8,1,2s0.5,2.2,0.3,2.2c-0.2,0.1-0.6-0.8-1-2
								C338.2,426.9,338.1,425.9,338.3,425.9z"/>
						</g>
					</g>
					<g>
						<g>
							<path class="st5" d="M335.8,417.4c0.2-0.1,0.6,0.8,1,2s0.5,2.2,0.3,2.2c-0.2,0.1-0.6-0.8-1-2
								C335.7,418.5,335.6,417.5,335.8,417.4z"/>
						</g>
					</g>
					<g>
						<g>
							<path class="st5" d="M333.2,408.9c0.2-0.1,0.6,0.8,1,2s0.5,2.2,0.3,2.2c-0.2,0.1-0.6-0.8-1-2C333.2,410,333,409,333.2,408.9z
								"/>
						</g>
					</g>
					<g>
						<g>
							<path class="st5" d="M330.7,400.5c0.2-0.1,0.6,0.8,1,2s0.5,2.2,0.3,2.2c-0.2,0.1-0.6-0.8-1-2S330.5,400.5,330.7,400.5z"/>
						</g>
					</g>
					<g>
						<g>
							<path class="st5" d="M328.2,392c0.2-0.1,0.6,0.8,1,2s0.5,2.2,0.3,2.2c-0.2,0.1-0.6-0.8-1-2C328.1,393.1,328,392.1,328.2,392z
								"/>
						</g>
					</g>
					<g>
						<g>
							<path class="st5" d="M325.6,383.5c0.2-0.1,0.6,0.8,1,2s0.5,2.2,0.3,2.2c-0.2,0.1-0.6-0.8-1-2
								C325.5,384.6,325.4,383.6,325.6,383.5z"/>
						</g>
					</g>
					<g>
						<g>
							<path class="st5" d="M323.1,375.1c0.2-0.1,0.6,0.8,1,2s0.5,2.2,0.3,2.2c-0.2,0.1-0.6-0.8-1-2S322.9,375.1,323.1,375.1z"/>
						</g>
					</g>
					<g>
						<g>
							<path class="st5" d="M320.5,366.6c0.2-0.1,0.6,0.8,1,2s0.5,2.2,0.3,2.2c-0.2,0.1-0.6-0.8-1-2
								C320.5,367.7,320.3,366.7,320.5,366.6z"/>
						</g>
					</g>
					<g>
						<g>
							<path class="st5" d="M318.6,360.3c0.2-0.1,0.5,0.4,0.7,0.9c0.2,0.6,0.2,1.1,0,1.2s-0.5-0.4-0.7-0.9
								C318.4,360.9,318.4,360.3,318.6,360.3z"/>
						</g>
					</g>
				</g>
				<g>
					<g>
						<g>
							<path class="st5" d="M292.4,613.8c0.2,0,0.4,0.5,0.4,1.1s-0.1,1.1-0.3,1.1c-0.2,0-0.4-0.5-0.4-1.1
								C292,614.3,292.1,613.8,292.4,613.8z"/>
						</g>
					</g>
					<g>
						<g>
							<path class="st5" d="M292,605.1c0.2,0,0.4,1,0.5,2.2c0,1.2-0.1,2.2-0.3,2.2c-0.2,0-0.4-1-0.5-2.2
								C291.7,606.1,291.8,605.2,292,605.1z"/>
						</g>
					</g>
					<g>
						<g>
							<path class="st5" d="M291.7,596.5c0.2,0,0.4,1,0.4,2.2s-0.1,2.2-0.3,2.2c-0.2,0-0.4-1-0.4-2.2
								C291.4,597.4,291.5,596.5,291.7,596.5z"/>
						</g>
					</g>
					<g>
						<g>
							<path class="st5" d="M291.5,587.8c0.2,0,0.4,1,0.4,2.2s-0.1,2.2-0.3,2.2c-0.2,0-0.4-1-0.4-2.2
								C291.2,588.7,291.3,587.8,291.5,587.8z"/>
						</g>
					</g>
					<g>
						<g>
							<path class="st5" d="M291.3,579.1c0.2,0,0.4,1,0.4,2.2s-0.1,2.2-0.3,2.2c-0.2,0-0.4-1-0.4-2.2
								C290.9,580,291.1,579.1,291.3,579.1z"/>
						</g>
					</g>
					<g>
						<g>
							<path class="st5" d="M291.1,570.4c0.2,0,0.4,1,0.4,2.2s-0.1,2.2-0.3,2.2c-0.2,0-0.4-1-0.4-2.2
								C290.7,571.4,290.9,570.4,291.1,570.4z"/>
						</g>
					</g>
					<g>
						<g>
							<path class="st5" d="M290.8,561.7c0.2,0,0.4,1,0.5,2.2c0,1.2-0.1,2.2-0.3,2.2c-0.2,0-0.4-1-0.5-2.2S290.6,561.7,290.8,561.7z
								"/>
						</g>
					</g>
					<g>
						<g>
							<path class="st5" d="M290.4,553c0.2,0,0.4,1,0.5,2.2s-0.1,2.2-0.3,2.2c-0.2,0-0.4-1-0.5-2.2C290.1,554,290.2,553,290.4,553z"
								/>
						</g>
					</g>
					<g>
						<g>
							<path class="st5" d="M290.1,544.3c0.2,0,0.4,1,0.5,2.2c0,1.2-0.1,2.2-0.3,2.2c-0.2,0-0.4-1-0.5-2.2S289.9,544.3,290.1,544.3z
								"/>
						</g>
					</g>
					<g>
						<g>
							<path class="st5" d="M289.8,535.6c0.2,0,0.4,1,0.5,2.2c0,1.2-0.1,2.2-0.3,2.2c-0.2,0-0.4-1-0.5-2.2S289.6,535.6,289.8,535.6z
								"/>
						</g>
					</g>
					<g>
						<g>
							<path class="st5" d="M289.5,526.9c0.2,0,0.4,1,0.4,2.2s-0.1,2.2-0.3,2.2c-0.2,0-0.4-1-0.4-2.2S289.3,526.9,289.5,526.9z"/>
						</g>
					</g>
					<g>
						<g>
							<path class="st5" d="M289.3,518.2c0.2,0,0.4,1,0.4,2.2s-0.1,2.2-0.3,2.2c-0.2,0-0.4-1-0.4-2.2
								C288.9,519.2,289.1,518.2,289.3,518.2z"/>
						</g>
					</g>
					<g>
						<g>
							<path class="st5" d="M289.1,509.5c0.2,0,0.4,1,0.4,2.2s-0.1,2.2-0.3,2.2c-0.2,0-0.4-1-0.4-2.2
								C288.7,510.5,288.9,509.5,289.1,509.5z"/>
						</g>
					</g>
					<g>
						<g>
							<path class="st5" d="M289,500.8c0.2,0,0.4,1,0.4,2.2s-0.1,2.2-0.3,2.2c-0.2,0-0.4-1-0.4-2.2
								C288.6,501.8,288.7,500.8,289,500.8z"/>
						</g>
					</g>
					<g>
						<g>
							<path class="st5" d="M288.8,492.1c0.2,0,0.4,1,0.4,2.2s-0.1,2.2-0.4,2.2c-0.2,0-0.4-1-0.4-2.2
								C288.5,493.1,288.6,492.1,288.8,492.1z"/>
						</g>
					</g>
					<g>
						<g>
							<path class="st5" d="M288.8,483.4c0.2,0,0.4,1,0.4,2.2s-0.2,2.2-0.4,2.2s-0.4-1-0.4-2.2S288.6,483.4,288.8,483.4z"/>
						</g>
					</g>
					<g>
						<g>
							<path class="st5" d="M288.8,474.7c0.2,0,0.4,1,0.4,2.2s-0.2,2.2-0.4,2.2c-0.2,0-0.4-1-0.4-2.2S288.6,474.7,288.8,474.7z"/>
						</g>
					</g>
					<g>
						<g>
							<path class="st5" d="M288.8,466c0.2,0,0.4,1,0.4,2.2s-0.2,2.2-0.4,2.2c-0.2,0-0.4-1-0.4-2.2S288.6,466,288.8,466z"/>
						</g>
					</g>
					<g>
						<g>
							<path class="st5" d="M288.9,457.3c0.2,0,0.4,1,0.4,2.2s-0.2,2.2-0.4,2.2c-0.2,0-0.4-1-0.4-2.2S288.7,457.3,288.9,457.3z"/>
						</g>
					</g>
					<g>
						<g>
							<path class="st5" d="M289,448.7c0.2,0,0.4,1,0.3,2.2c0,1.2-0.2,2.2-0.4,2.2c-0.2,0-0.4-1-0.3-2.2
								C288.6,449.6,288.8,448.6,289,448.7z"/>
						</g>
					</g>
					<g>
						<g>
							<path class="st5" d="M289.1,440c0.2,0,0.4,1,0.3,2.2c0,1.2-0.2,2.2-0.4,2.2c-0.2,0-0.4-1-0.3-2.2
								C288.7,440.9,288.9,440,289.1,440z"/>
						</g>
					</g>
					<g>
						<g>
							<path class="st5" d="M289.3,431.3c0.2,0,0.4,1,0.3,2.2c0,1.2-0.2,2.2-0.4,2.2c-0.2,0-0.4-1-0.3-2.2
								C288.9,432.2,289.1,431.3,289.3,431.3z"/>
						</g>
					</g>
					<g>
						<g>
							<path class="st5" d="M289.6,422.6c0.2,0,0.3,1,0.3,2.2s-0.3,2.2-0.5,2.2s-0.3-1-0.3-2.2C289.2,423.5,289.4,422.6,289.6,422.6
								z"/>
						</g>
					</g>
					<g>
						<g>
							<path class="st5" d="M290.1,413.9c0.2,0,0.3,1,0.2,2.2c-0.1,1.2-0.3,2.2-0.5,2.1c-0.2,0-0.3-1-0.2-2.2
								C289.7,414.8,289.9,413.9,290.1,413.9z"/>
						</g>
					</g>
					<g>
						<g>
							<path class="st5" d="M290.9,405.2c0.2,0,0.3,1,0.2,2.2c-0.1,1.2-0.4,2.1-0.6,2.1s-0.3-1-0.2-2.2
								C290.5,406.1,290.7,405.2,290.9,405.2z"/>
						</g>
					</g>
					<g>
						<g>
							<path class="st5" d="M291.8,398.8c0.2,0,0.3,0.5,0.2,1.1c-0.1,0.6-0.3,1.1-0.5,1c-0.2,0-0.3-0.5-0.2-1.1
								C291.3,399.2,291.6,398.7,291.8,398.8z"/>
						</g>
					</g>
				</g>
				<g>
					<polygon class="st5" points="258.9,616.4 300.3,617.1 300,610.2 258.9,610.4 					"/>
				</g>
				<g>
					<g>
						<path class="st5" d="M286.1,357.7c0.1,0,0.1,0.6,0.2,1.6s0.2,2.5,0.4,4.4c0.3,3.7,0.7,8.8,1,14.4c0.2,2.8,0.3,5.5,0.5,7.9
							c0.1,2.4,0.1,4.7,0.8,6.3c0.6,1.7,1.8,2.7,2.6,3.1c0.9,0.4,1.5,0.4,1.5,0.4s-0.1,0.1-0.4,0.1s-0.7,0-1.2-0.2
							c-1-0.4-2.3-1.4-3-3.2c-0.7-1.8-0.8-4.1-1-6.5c-0.2-2.5-0.3-5.1-0.5-7.9c-0.3-5.6-0.6-10.7-0.8-14.4c-0.1-1.8-0.1-3.3-0.2-4.4
							C286,358.2,286,357.7,286.1,357.7z"/>
					</g>
				</g>
				<g>
					<g>
						<path class="st5" d="M290.1,361.1c0.1,0.1-0.3,0.4-0.4,1c0,0.3,0.1,0.7,0.3,0.9c0.2,0.2,0.6,0.3,1,0.1
							c0.4-0.2,0.6-0.5,0.6-0.8s-0.2-0.7-0.4-0.8c-0.5-0.4-0.9-0.3-0.9-0.4c-0.1-0.1,0.5-0.4,1.3,0c0.3,0.2,0.7,0.6,0.8,1.3
							c0.1,0.6-0.4,1.3-1.1,1.5c-0.6,0.3-1.4,0.1-1.8-0.4s-0.4-1.1-0.3-1.5C289.4,361.1,290.1,361,290.1,361.1z"/>
					</g>
				</g>
				<g>
					<g>
						<path class="st5" d="M326.9,367.3c0,0.1-1.1,0.8-3.3,1.2c-2.1,0.4-5.3,0.4-8.3-0.9c-3.1-1.4-5.2-3.7-6.3-5.6
							c-1.1-1.9-1.3-3.2-1.2-3.3c0.1,0,0.5,1.2,1.7,3c1.1,1.7,3.2,3.9,6.1,5.2c2.9,1.3,5.9,1.4,7.9,1.1
							C325.7,367.7,326.9,367.2,326.9,367.3z"/>
					</g>
				</g>
				<g>
					<g>
						<path class="st5" d="M261.8,357.7c0.1,0,0.3,1.1-0.1,2.8c-0.4,1.7-1.4,4.1-3.5,5.9s-4.5,2.6-6.3,2.7c-1.8,0.2-2.8-0.2-2.8-0.2
							c0-0.1,1.1,0,2.7-0.3c1.7-0.3,3.9-1.1,5.8-2.7c1.9-1.7,3-3.8,3.5-5.4C261.7,358.7,261.7,357.6,261.8,357.7z"/>
					</g>
				</g>
			</g>
			<g>
				<path class="st7" d="M372.7,329.8c8-9.2,8-23-0.1-32.2l-39-44.3l-10.4,29.2c0.7,0.5,30.4,32.3,30.4,32.3L328,346.6
					c-3.9,4.9-5.1,11.5-3,17.4l6.8,16.7l18.7-8.4l-1.4-2.2h-14l-0.8-3.4l0,0L372.7,329.8z"/>
			</g>
			<g>
				<g>
					<path class="st5" d="M211.5,177.7c0,0,6.1,7.2,12.4-1.4c5-6.7,6-15.1,2-18.6l1.3-0.9c0,0,6.7,4.3,3.6,13.7
						c-3,9.4-9.5,14.3-14.1,13.5c-4.6-0.7-5.8-5.6-5.8-5.6l0.4-1.4"/>
				</g>
				<g>
					<path class="st7" d="M251.6,247.6c0,0-39.2,16.2-38.3,15.1l-1-48.1H197c0,0-10.9,63.4,0.8,70.8c16,10.2,54.7-11,54.7-11
						L251.6,247.6z"/>
				</g>
				<g>
					<g>
						<polyline class="st7" points="209.2,195.2 209.1,195.7 206.2,216.6 197,214.7 198.2,202.6 						"/>
					</g>
					<g>
						<path class="st7" d="M212.1,193.1l-6.4,22.7l5.7,1.1c0,0,0.8-1.7,2.7-6.6c2.1-5.7-0.2-10.4-0.3-10.9c0,0,5.1-11.6,3.2-12.2
							C214.9,186.7,212.1,193.1,212.1,193.1z"/>
					</g>
					<g>
						<path class="st3" d="M217,183.7c-0.3,1-14,34.8-14,34.8l-3.4-1.9l13.7-35.9L217,183.7z"/>
					</g>
					<g>
						<path class="st7" d="M197.4,212.9c0,0-1.7-9.9,0.2-13c0.7-1.1,10.1-14.1,10.7-13.6c0.7,0.4,4.7,11.9,2.6,12.3
							c-2.2,0.4-3-1.9-3-1.9s2.8,7.1,0.8,7.2c-2,0.1-3.7-4.3-3.7-4.3s4.2,8.3,1.6,8.8c-2.6,0.4-6.2-6.4-6.2-6.4L197.4,212.9z"/>
					</g>
					<g>
						<g>
							<path class="st8" d="M206.1,190.9c0.2-0.1,1.1,2,2.1,4.6c0.2,0.7,0.4,1.3,0.7,1.8s0.6,0.8,1,1c0.7,0.4,1.3,0.4,1.3,0.5
								s-0.6,0.4-1.6,0c-0.5-0.2-1-0.6-1.3-1.1c-0.4-0.6-0.6-1.2-0.8-1.9C206.5,193.1,205.9,190.9,206.1,190.9z"/>
						</g>
					</g>
					<g>
						<g>
							<path class="st8" d="M203.2,194.1c0.2-0.1,1.6,3.8,3.8,8.3c0.3,0.6,0.5,1.1,0.9,1.2c0.4,0.2,0.7,0,0.8-0.5
								c0.1-0.4,0.1-1,0.1-1.4c0-0.5-0.1-0.9-0.1-1.3c-0.2-1.6-0.6-2.6-0.4-2.6c0.1,0,0.6,0.9,1,2.5c0.1,0.4,0.2,0.9,0.2,1.4
								s0.1,1,0,1.7c-0.1,0.3-0.2,0.7-0.6,0.9c-0.4,0.2-0.8,0.2-1.2,0.1c-0.8-0.3-1.1-1-1.3-1.6C204,198.2,203,194.1,203.2,194.1z"
								/>
						</g>
					</g>
					<g>
						<g>
							<path class="st8" d="M200.6,198.9c0.1,0,0.7,0.9,1.6,2.5c0.5,0.9,1,1.8,1.5,2.8c0.3,0.5,0.6,1.1,0.9,1.7
								c0.3,0.6,0.6,1.2,1,1.7c0.4,0.4,0.9,0.6,1.3,0.3c0.4-0.3,0.6-0.8,0.5-1.3c-0.2-1-0.7-2.1-0.9-3c-0.6-1.7-0.9-2.8-0.8-2.8
								c0.1,0,0.6,1,1.3,2.6c0.2,0.4,0.4,0.9,0.6,1.4c0.2,0.5,0.5,1,0.6,1.7s-0.1,1.5-0.7,2c-0.3,0.3-0.8,0.4-1.3,0.3
								c-0.4-0.1-0.8-0.3-1.1-0.6c-0.5-0.6-0.8-1.3-1.1-1.8c-0.3-0.6-0.6-1.1-0.8-1.7c-0.5-1-0.9-2-1.4-2.9
								C201,200,200.5,198.9,200.6,198.9z"/>
						</g>
					</g>
				</g>
				<g>
					<path class="st3" d="M217.8,185.2c-1.1,0-2.3-0.2-3.3-0.7c-2.8-1.3-4.8-4-5.4-7.8c-0.6-3.5,0-7.6,1.7-11.4
						c1.7-3.8,4.3-7,7.3-8.9c3.2-2,6.5-2.5,9.4-1.2c2.8,1.3,4.8,4,5.4,7.8c0.6,3.5,0,7.6-1.7,11.4
						C228.3,181,222.8,185.2,217.8,185.2z M224.1,157.5c-1.4,0-2.9,0.5-4.4,1.5c-2.5,1.6-4.7,4.3-6.2,7.6s-2,6.7-1.4,9.7
						c0.5,2.8,1.8,4.7,3.7,5.6c4.1,1.8,10-2.1,12.8-8.6c1.5-3.3,2-6.7,1.4-9.7c-0.5-2.8-1.8-4.7-3.7-5.6
						C225.6,157.7,224.8,157.5,224.1,157.5z"/>
				</g>
			</g>
			<g>
				<g>
					<path class="st9" d="M354.2,272l-24.7-24.9l0,0c-4.8-4.9-10.3-8.6-17-11c-3.2-1.2-6.7-1.9-10.7-2l0,0c-8.6,2.7-17.2,2.7-25.8,0
						c-3.5,0.4-11.4,1.4-20.3,5.8l0,0l-36.8,14.9l11.8,32.5l19.7-6.6l1.2,30.6l-3.9,45.8l76.4,0.8l-1-41.5l-0.1-30.1l11,10.7
						L354.2,272z"/>
				</g>
				<g>
					<g>
						<path class="st3" d="M333.5,253.7c0,0-0.3,0.6-1.1,1.7c-0.8,1.1-2,2.5-3.9,4.1s-4.5,3.3-7.9,4.4c-3.3,1.1-7.5,1.6-11.9,0.8
							c-4.4-0.8-9-2.9-12.8-6.7c-0.9-1-1.7-2.1-2.3-3.3c-0.6-1.3-0.9-2.7-0.7-4.2c0.3-1.5,1.3-2.8,2.7-3.4c1.4-0.6,3.1-0.5,4.5,0.1
							c1.4,0.5,2.7,1.5,3.5,3c0.7,1.4,1,3,1,4.6c-0.2,3.2-1.6,6.2-3.6,8.7c-3.9,5.2-10.4,8.5-17.2,9c-3.4,0.2-6.9-0.3-9.9-1.6
							c-3.1-1.3-5.9-3.4-7.5-6.2c-1.6-2.8-1.9-6.5-0.4-9.3c1.5-2.9,5-4.4,8-3.7c1.5,0.4,2.8,1.4,3.6,2.7c0.8,1.3,1.1,2.8,1,4.2
							c-0.1,3-2.1,5.4-4.3,6.8c-2.3,1.4-4.9,2-7.3,2c-2.5,0-4.8-0.4-6.9-0.9c-4.3-1-8.2-2.3-11.2-4.3c-3-1.9-4.9-4.6-5.8-6.9
							c-0.9-2.3-0.9-4.4-0.7-5.6c0.2-1.3,0.6-1.9,0.6-1.9s-0.2,0.7-0.4,1.9c-0.2,1.3-0.1,3.2,0.8,5.5c0.9,2.3,2.8,4.8,5.7,6.6
							c2.9,1.9,6.8,3.2,11.1,4.1c2.1,0.5,4.4,0.9,6.8,0.8c2.4,0,4.9-0.6,7-1.9s3.9-3.6,4-6.3c0.1-1.3-0.2-2.7-0.9-3.9
							c-0.7-1.2-1.8-2.1-3.1-2.4c-2.7-0.7-5.9,0.7-7.2,3.3c-1.4,2.6-1.1,6,0.4,8.6c1.5,2.7,4.2,4.7,7.2,5.9c3,1.3,6.3,1.8,9.6,1.6
							c6.6-0.5,12.9-3.7,16.7-8.7c1.9-2.5,3.3-5.3,3.4-8.3c0.1-1.5-0.2-2.9-0.9-4.2c-0.7-1.2-1.8-2.2-3.1-2.6
							c-1.3-0.5-2.8-0.6-4-0.1s-2.1,1.7-2.3,2.9c-0.2,1.3,0.1,2.6,0.6,3.8s1.3,2.3,2.1,3.2c3.6,3.7,8.1,5.8,12.4,6.6
							c4.3,0.9,8.4,0.4,11.7-0.6c3.3-1.1,5.9-2.7,7.8-4.2s3.2-3,4-4C333.1,254.2,333.4,253.6,333.5,253.7z"/>
					</g>
				</g>
				<g>
					<g>
						<path class="st3" d="M321,318.5c0,0-0.5,0.3-1.5,0.7c-1,0.4-2.7,0.8-4.8,0.6c-2.1-0.1-4.7-0.8-7.2-2.4
							c-2.6-1.5-5.1-3.8-7.8-6.5c-1.3-1.4-2.6-3-3.1-5.1c-0.2-1-0.2-2.2,0.2-3.2c0.3-1.1,1-2.1,2.1-2.6c1.1-0.6,2.4-0.6,3.5-0.2
							s2.1,1.1,2.9,2.1c1.6,1.9,2.3,4.4,2.3,6.9c-0.1,2.5-1,5.1-2.6,7.2s-4,3.7-6.6,4.6s-5.5,1.2-8.3,0.8c-2.8-0.4-5.5-1.4-8.1-2.8
							c-2.5-1.4-4.8-3.1-6.8-5.1s-3.5-4.6-3.5-7.5c0-1.4,0.3-2.8,1-4s1.9-2.1,3.2-2.6c2.6-0.9,5.5-0.5,7.5,1.2s3,4.2,3.1,6.6
							s-0.7,4.8-2.1,6.6c-2.7,3.7-6.9,5.4-10.6,5.9c-7.5,0.8-13.7-0.9-17.2-3.3c-1.8-1.2-2.7-2.6-3.3-3.5c-0.3-0.5-0.4-0.9-0.5-1.1
							c-0.1-0.3-0.1-0.4-0.1-0.4c0.1,0,0.2,0.5,0.8,1.5c0.6,0.9,1.6,2.2,3.3,3.4c3.4,2.3,9.6,3.9,16.9,3c3.6-0.5,7.6-2.2,10.2-5.7
							c1.3-1.7,2-3.9,1.9-6.2c-0.1-2.2-1-4.6-2.8-6.1s-4.5-1.9-6.8-1c-1.1,0.4-2.2,1.2-2.8,2.3c-0.6,1.1-0.9,2.3-0.9,3.6
							c0,2.6,1.4,5,3.3,7c1.9,1.9,4.2,3.6,6.6,5c2.5,1.4,5.1,2.3,7.8,2.7c2.7,0.4,5.4,0.1,7.9-0.7c2.5-0.8,4.7-2.3,6.3-4.3
							c1.5-2,2.4-4.4,2.5-6.8s-0.6-4.8-2.1-6.5c-0.7-0.8-1.6-1.5-2.6-1.9s-2.1-0.4-3,0.1c-1.8,1-2.4,3.3-2,5.2
							c0.4,1.9,1.7,3.5,2.9,4.8c2.6,2.7,5.1,4.9,7.6,6.5s5,2.3,7,2.5c2.1,0.2,3.7-0.1,4.7-0.5C320.5,318.8,321,318.5,321,318.5z"/>
					</g>
				</g>
			</g>
		</g>
	</g>
</g>
</svg>
