<?xml version="1.0" encoding="utf-8"?>
<!-- Generator: Adobe Illustrator 22.0.0, SVG Export Plug-In . SVG Version: 6.00 Build 0)  -->
<svg version="1.1" id="Layer_1" xmlns="http://www.w3.org/2000/svg" xmlns:xlink="http://www.w3.org/1999/xlink" x="0px" y="0px"
	 viewBox="0 0 650 650" style="enable-background:new 0 0 650 650;" xml:space="preserve">
<style type="text/css">
	.st0{fill:#EBEBEB;}
	.st1{fill:#F0F0F0;}
	.st2{font-family:'Raleway-Bold';}
	.st3{font-size:10.295px;glyph-orientation-vertical:0;writing-mode:tb;}
	.st4{fill:#F5F5F5;}
	.st5{fill:#E0E0E0;}
	.st6{fill:#FAFAFA;}
	.st7{fill:#E6E6E6;}
	.st8{fill:#126E82;}
	.st9{opacity:0.2;fill:#126E82;enable-background:new    ;}
	.st10{opacity:0.3;}
	.st11{fill:#FFFFFF;}
	.st12{opacity:0.2;fill:#FFFFFF;enable-background:new    ;}
	.st13{opacity:0.5;fill:#FFFFFF;enable-background:new    ;}
	.st14{opacity:0.6;fill:#FFFFFF;enable-background:new    ;}
	.st15{opacity:0.7;fill:#FFFFFF;enable-background:new    ;}
	.st16{fill:#263238;}
	.st17{opacity:0.2;enable-background:new    ;}
	.st18{opacity:0.3;fill:#F5F5F5;enable-background:new    ;}
	.st19{fill:#E4897B;}
	.st20{fill:#EEC1BB;}
	.st21{opacity:0.1;fill:#FFFFFF;enable-background:new    ;}
	.st22{fill:#D4827D;}
	.st23{fill:none;stroke:#263238;stroke-width:1.0093;stroke-linecap:round;stroke-linejoin:round;stroke-miterlimit:10;}
	.st24{fill:none;stroke:#263238;stroke-width:0.7354;stroke-linecap:round;stroke-linejoin:round;stroke-miterlimit:10;}
	.st25{opacity:0.6;enable-background:new    ;}
	.st26{fill:none;stroke:#126E82;stroke-width:4.4121;stroke-miterlimit:10;}
	.st27{opacity:0.3;fill:#FFFFFF;enable-background:new    ;}
	.st28{font-size:8.6597px;}
	.st29{opacity:0.75;fill:#FFFFFF;enable-background:new    ;}
	.st30{opacity:0.9;fill:#FFFFFF;enable-background:new    ;}
	.st31{opacity:0.4;fill:#FFFFFF;enable-background:new    ;}
	.st32{fill:#FF5744;}
</style>
<title>Artboard 9 copy 32</title>
<g>
	<g>
		<rect x="-42.7" y="532.6" class="st0" width="735.4" height="0.4"/>
		<rect x="570.3" y="556.3" class="st0" width="48.7" height="0.4"/>
		<rect x="431.7" y="560.2" class="st0" width="12.8" height="0.4"/>
		<rect x="540.6" y="542.6" class="st0" width="28.2" height="0.4"/>
		<rect x="34.5" y="545.1" class="st0" width="63.5" height="0.4"/>
		<rect x="111.1" y="545.1" class="st0" width="9.3" height="0.4"/>
		<rect x="150.7" y="551.3" class="st0" width="137.8" height="0.4"/>
		<path class="st0" d="M305.9,467h-284c-4.6,0-8.4-3.8-8.4-8.4V59.4c0-4.6,3.8-8.4,8.4-8.4h284c4.6,0,8.4,3.8,8.4,8.4v399.2
			C314.3,463.2,310.5,467,305.9,467z M21.9,51.4c-4.4,0-8,3.6-8,8v399.2c0,4.4,3.6,8,8,8h284c4.4,0,8-3.6,8-8V59.4c0-4.4-3.6-8-8-8
			H21.9z"/>
		<path class="st0" d="M624,467H340c-4.6,0-8.4-3.8-8.4-8.4V59.4c0-4.6,3.8-8.4,8.4-8.4h284c4.6,0,8.4,3.8,8.4,8.4v399.2
			C632.4,463.2,628.6,467,624,467z M340,51.4c-4.4,0-8,3.6-8,8v399.2c0,4.4,3.6,8,8,8h284c4.4,0,8-3.6,8-8V59.4c0-4.4-3.6-8-8-8H340
			z"/>
	</g>
	<g>
		<path class="st1" d="M261.8,157.9c0-9.2-7.5-16.7-16.7-16.7c-1.7,0-3.3,0.3-4.8,0.7c0.2-1.7,0.4-3.4,0.4-5.1
			c0-19.5-15.8-35.3-35.3-35.3c-2.2,0-4.4,0.2-6.5,0.6c-5.4-8.9-15.2-14.8-26.3-14.8c-16.9,0-30.6,13.6-30.9,30.4
			c-0.2,0-0.3,0-0.5,0c-15.7,0-28.4,12.7-28.4,28.4s12.7,28.4,28.4,28.4h104.4l0,0C254.5,174.3,261.8,167,261.8,157.9z"/>
		<path class="st1" d="M376.5,232.5c0-4.6-3.7-8.3-8.3-8.3c-0.8,0-1.6,0.1-2.4,0.4c0.1-0.8,0.2-1.7,0.2-2.5
			c0-9.7-7.8-17.5-17.5-17.5c-1.1,0-2.2,0.1-3.2,0.3c-2.7-4.4-7.5-7.4-13.1-7.4c-8.4,0-15.2,6.7-15.3,15.1c-0.1,0-0.2,0-0.3,0
			c-7.8,0-14.1,6.3-14.1,14.1s6.3,14.1,14.1,14.1h51.9l0,0C372.9,240.7,376.5,237,376.5,232.5z"/>
		<path class="st1" d="M559.6,151.9c0-2.8-2.3-5.1-5.1-5.1c-0.5,0-1,0.1-1.5,0.2c0.1-0.5,0.1-1,0.1-1.6c0-5.9-4.8-10.7-10.7-10.7
			c-0.7,0-1.3,0.1-2,0.2c-1.7-2.7-4.6-4.5-8-4.5c-5.1,0-9.3,4.1-9.4,9.3c-0.1,0-0.1,0-0.2,0c-4.8,0-8.7,3.9-8.7,8.7s3.9,8.7,8.7,8.7
			h31.8l0,0C557.4,156.9,559.6,154.6,559.6,151.9z"/>
		<g>
			<text transform="matrix(1 0 0 1 155.8667 136.3457)" class="st0 st2 st3">101010000111110101010101</text>
			<text transform="matrix(1 0 0 1 166.8975 136.3457)" class="st0 st2 st3">001101100110001101011111</text>
			<text transform="matrix(1 0 0 1 177.9272 136.3457)" class="st0 st2 st3">111110101010101011110000</text>
			<text transform="matrix(1 0 0 1 188.957 136.3457)" class="st0 st2 st3">101010000111110101010101</text>
			<text transform="matrix(1 0 0 1 199.9878 136.3457)" class="st0 st2 st3">000101011111000000110101</text>
			<text transform="matrix(1 0 0 1 211.0176 136.3457)" class="st0 st2 st3">110011001101010101001100</text>
		</g>
		<g>
			<rect x="24.2" y="321.2" class="st4" width="333.1" height="211.9"/>
			<rect x="24.2" y="321.2" class="st5" width="333.1" height="14.4"/>
			<path class="st6" d="M352.4,328.3c0,2.4-1.9,4.3-4.3,4.3s-4.3-1.9-4.3-4.3s1.9-4.3,4.3-4.3S352.4,326,352.4,328.3z"/>
			<path class="st6" d="M338,328.3c0,2.4-1.9,4.3-4.3,4.3s-4.3-1.9-4.3-4.3s1.9-4.3,4.3-4.3S338,326,338,328.3z"/>
			<path class="st6" d="M323.7,328.3c0,2.4-1.9,4.3-4.3,4.3s-4.3-1.9-4.3-4.3s1.9-4.3,4.3-4.3C321.7,324,323.7,326,323.7,328.3z"/>
		</g>
		<g>
			<path class="st5" d="M84.5,360.4l-2.1-2.9c-0.8-1-1.9-1.7-3.2-1.7H64.8c-1.2,0-2.4,0.6-3,1.7l-1.7,2.9c-0.6,1-1.8,1.7-3,1.7h-8.6
				c-2.1,0-3.6,1.7-3.5,3.8l2.8,48.3c0.1,2.1,1.9,3.8,3.9,3.8H120c2.1,0,3.6-1.7,3.5-3.8l-2.8-48.3c-0.1-2.1-1.9-3.8-3.9-3.8H87.7
				C86.4,362.1,85.2,361.5,84.5,360.4z"/>
			<path class="st7" d="M123.6,366.7H61c-2.6,0-4.9,2.1-5.1,4.7l-3.8,41.8c-0.2,2.6,1.7,4.7,4.3,4.7H119c2.6,0,4.9-2.1,5.1-4.7
				l3.8-41.8C128.2,368.8,126.2,366.7,123.6,366.7z"/>
		</g>
		<g>
			<path class="st5" d="M188.7,360.4l-2.1-2.9c-0.8-1-1.9-1.7-3.2-1.7H169c-1.2,0-2.4,0.6-3,1.7l-1.7,2.9c-0.6,1-1.8,1.7-3,1.7h-8.6
				c-2.1,0-3.6,1.7-3.5,3.8l2.8,48.3c0.1,2.1,1.9,3.8,3.9,3.8h68.3c2.1,0,3.6-1.7,3.5-3.8l-2.8-48.3c-0.1-2.1-1.9-3.8-3.9-3.8h-29.1
				C190.7,362.1,189.5,361.5,188.7,360.4z"/>
			<path class="st7" d="M227.9,366.7h-62.6c-2.6,0-4.9,2.1-5.1,4.7l-3.8,41.8c-0.2,2.6,1.7,4.7,4.3,4.7h62.6c2.6,0,4.9-2.1,5.1-4.7
				l3.8-41.8C232.4,368.8,230.5,366.7,227.9,366.7z"/>
		</g>
		<g>
			<path class="st5" d="M293,360.4l-2.1-2.9c-0.8-1-1.9-1.7-3.2-1.7h-14.5c-1.2,0-2.4,0.6-3,1.7l-1.7,2.9c-0.6,1-1.8,1.7-3,1.7H257
				c-2.1,0-3.6,1.7-3.5,3.8l2.8,48.3c0.1,2.1,1.9,3.8,3.9,3.8h68.3c2.1,0,3.6-1.7,3.5-3.8l-2.8-48.3c-0.1-2.1-1.9-3.8-3.9-3.8h-29.1
				C295,362.1,293.8,361.5,293,360.4z"/>
			<path class="st7" d="M332.1,366.7h-62.6c-2.6,0-4.9,2.1-5.1,4.7l-3.8,41.8c-0.2,2.6,1.7,4.7,4.3,4.7h62.6c2.6,0,4.9-2.1,5.1-4.7
				l3.8-41.8C336.7,368.8,334.7,366.7,332.1,366.7z"/>
		</g>
		<g>
			<path class="st5" d="M84.5,448.7l-2.1-2.9c-0.8-1-1.9-1.7-3.2-1.7H64.8c-1.2,0-2.4,0.6-3,1.7l-1.7,2.9c-0.6,1-1.8,1.7-3,1.7h-8.6
				c-2.1,0-3.6,1.7-3.5,3.8l2.8,48.3c0.1,2.1,1.9,3.8,3.9,3.8H120c2.1,0,3.6-1.7,3.5-3.8l-2.8-48.3c-0.1-2.1-1.9-3.8-3.9-3.8H87.7
				C86.4,450.4,85.2,449.8,84.5,448.7z"/>
			<path class="st7" d="M123.6,455H61c-2.6,0-4.9,2.1-5.1,4.7l-3.8,41.8c-0.2,2.6,1.7,4.7,4.3,4.7H119c2.6,0,4.9-2.1,5.1-4.7
				l3.8-41.8C128.2,457.1,126.2,455,123.6,455z"/>
		</g>
		<g>
			<path class="st5" d="M188.7,448.7l-2.1-2.9c-0.8-1-1.9-1.7-3.2-1.7H169c-1.2,0-2.4,0.6-3,1.7l-1.7,2.9c-0.6,1-1.8,1.7-3,1.7h-8.6
				c-2.1,0-3.6,1.7-3.5,3.8l2.8,48.3c0.1,2.1,1.9,3.8,3.9,3.8h68.3c2.1,0,3.6-1.7,3.5-3.8l-2.8-48.3c-0.1-2.1-1.9-3.8-3.9-3.8h-29.1
				C190.7,450.4,189.5,449.8,188.7,448.7z"/>
			<path class="st7" d="M227.9,455h-62.6c-2.6,0-4.9,2.1-5.1,4.7l-3.8,41.8c-0.2,2.6,1.7,4.7,4.3,4.7h62.6c2.6,0,4.9-2.1,5.1-4.7
				l3.8-41.8C232.4,457.1,230.5,455,227.9,455z"/>
		</g>
		<g>
			<path class="st5" d="M293,448.7l-2.1-2.9c-0.8-1-1.9-1.7-3.2-1.7h-14.5c-1.2,0-2.4,0.6-3,1.7l-1.7,2.9c-0.6,1-1.8,1.7-3,1.7H257
				c-2.1,0-3.6,1.7-3.5,3.8l2.8,48.3c0.1,2.1,1.9,3.8,3.9,3.8h68.3c2.1,0,3.6-1.7,3.5-3.8l-2.8-48.3c-0.1-2.1-1.9-3.8-3.9-3.8h-29.1
				C295,450.4,293.8,449.8,293,448.7z"/>
			<path class="st7" d="M332.1,455h-62.6c-2.6,0-4.9,2.1-5.1,4.7l-3.8,41.8c-0.2,2.6,1.7,4.7,4.3,4.7h62.6c2.6,0,4.9-2.1,5.1-4.7
				l3.8-41.8C336.7,457.1,334.7,455,332.1,455z"/>
		</g>
		<g>
			<path class="st7" d="M620.4,498.4H510.6c-1.5,0-2.7,1.2-2.7,2.7v28.5c0,1.5,1.2,2.7,2.7,2.7h109.9c1.5,0,2.7-1.2,2.7-2.7v-28.5
				C623.1,499.6,621.9,498.4,620.4,498.4z"/>
			<path class="st4" d="M611.7,515.3c0,3.9-3.2,7.1-7.1,7.1c-3.9,0-7.1-3.2-7.1-7.1c0-3.9,3.2-7.1,7.1-7.1
				C608.6,508.2,611.7,511.4,611.7,515.3z"/>
			<path class="st7" d="M608.2,515.3c0,2-1.6,3.6-3.6,3.6s-3.6-1.6-3.6-3.6s1.6-3.6,3.6-3.6S608.2,513.3,608.2,515.3z"/>
			<rect x="581.3" y="511.3" class="st4" width="8.1" height="8.1"/>
		</g>
		<g>
			<path class="st7" d="M620.4,463.1H510.6c-1.5,0-2.7,1.2-2.7,2.7v28.5c0,1.5,1.2,2.7,2.7,2.7h109.9c1.5,0,2.7-1.2,2.7-2.7v-28.5
				C623.1,464.3,621.9,463.1,620.4,463.1z"/>
			<path class="st4" d="M611.7,480c0,3.9-3.2,7.1-7.1,7.1c-3.9,0-7.1-3.2-7.1-7.1s3.2-7.1,7.1-7.1
				C608.6,472.9,611.7,476.1,611.7,480z"/>
			<path class="st7" d="M608.2,480c0,2-1.6,3.6-3.6,3.6S601,482,601,480s1.6-3.6,3.6-3.6S608.2,478,608.2,480z"/>
			<rect x="581.3" y="476" class="st4" width="8.1" height="8.1"/>
		</g>
		<g>
			<path class="st7" d="M620.4,427.8H510.6c-1.5,0-2.7,1.2-2.7,2.7V459c0,1.5,1.2,2.7,2.7,2.7h109.9c1.5,0,2.7-1.2,2.7-2.7v-28.5
				C623.1,429,621.9,427.8,620.4,427.8z"/>
			<path class="st4" d="M611.7,444.7c0,3.9-3.2,7.1-7.1,7.1c-3.9,0-7.1-3.2-7.1-7.1s3.2-7.1,7.1-7.1
				C608.6,437.6,611.7,440.8,611.7,444.7z"/>
			<path class="st7" d="M608.2,444.7c0,2-1.6,3.6-3.6,3.6s-3.6-1.6-3.6-3.6s1.6-3.6,3.6-3.6S608.2,442.7,608.2,444.7z"/>
			<rect x="581.3" y="440.7" class="st4" width="8.1" height="8.1"/>
		</g>
		<g>
			<path class="st7" d="M620.4,392.5H510.6c-1.5,0-2.7,1.2-2.7,2.7v28.5c0,1.5,1.2,2.7,2.7,2.7h109.9c1.5,0,2.7-1.2,2.7-2.7v-28.5
				C623.1,393.7,621.9,392.5,620.4,392.5z"/>
			<path class="st4" d="M611.7,409.4c0,3.9-3.2,7.1-7.1,7.1c-3.9,0-7.1-3.2-7.1-7.1s3.2-7.1,7.1-7.1
				C608.6,402.3,611.7,405.5,611.7,409.4z"/>
			<path class="st7" d="M608.2,409.4c0,2-1.6,3.6-3.6,3.6s-3.6-1.6-3.6-3.6s1.6-3.6,3.6-3.6S608.2,407.4,608.2,409.4z"/>
			<rect x="581.3" y="405.4" class="st4" width="8.1" height="8.1"/>
		</g>
		<g>
			<path class="st7" d="M620.4,357.2H510.6c-1.5,0-2.7,1.2-2.7,2.7v28.5c0,1.5,1.2,2.7,2.7,2.7h109.9c1.5,0,2.7-1.2,2.7-2.7v-28.5
				C623.1,358.4,621.9,357.2,620.4,357.2z"/>
			<path class="st4" d="M611.7,374.1c0,3.9-3.2,7.1-7.1,7.1c-3.9,0-7.1-3.2-7.1-7.1s3.2-7.1,7.1-7.1
				C608.6,367,611.7,370.2,611.7,374.1z"/>
			<path class="st7" d="M608.2,374.1c0,2-1.6,3.6-3.6,3.6s-3.6-1.6-3.6-3.6s1.6-3.6,3.6-3.6S608.2,372.1,608.2,374.1z"/>
			<rect x="581.3" y="370.1" class="st4" width="8.1" height="8.1"/>
		</g>
		<g>
			<path class="st7" d="M620.4,321.9H510.6c-1.5,0-2.7,1.2-2.7,2.7v28.5c0,1.5,1.2,2.7,2.7,2.7h109.9c1.5,0,2.7-1.2,2.7-2.7v-28.5
				C623.1,323.1,621.9,321.9,620.4,321.9z"/>
			<path class="st4" d="M611.7,338.8c0,3.9-3.2,7.1-7.1,7.1c-3.9,0-7.1-3.2-7.1-7.1s3.2-7.1,7.1-7.1
				C608.6,331.7,611.7,334.9,611.7,338.8z"/>
			<path class="st7" d="M608.2,338.8c0,2-1.6,3.6-3.6,3.6s-3.6-1.6-3.6-3.6s1.6-3.6,3.6-3.6S608.2,336.8,608.2,338.8z"/>
			<rect x="581.3" y="334.8" class="st4" width="8.1" height="8.1"/>
		</g>
	</g>
	<ellipse id="_x3C_Path_x3E__1_" class="st4" cx="325" cy="582.3" rx="285.2" ry="16.7"/>
	<g>
		<g>
			<path class="st8" d="M109.6,495.5c-2.3-3.8-6.1-0.5-6.1-0.5c0.5-7.2-6.1-12.2-6.1-12.2s7.7,0,8.8-7.4c1.1-7.4-2.7-3.9-6.2-4
				s-7.2,10.3-2.6,16.1c4.7,5.8,3.4,15.7-7.3,25.2c-2.6,2.3-4.4,5.4-5.6,8.8c0.8-8.8,1.3-21.1-1.3-29.3c-4.4-14,4-17.8,6.4-24.8
				s-6.4-12.9-6.4-12.9s8.3-3.8,4.2-8.1c-4-4.3-12.4-3.7-12.4,1.9s5.6,7.8,5.6,7.8s6.5,6.7,6.5,10.2s-6.5,11-6.5,11s3-6.4-3-6.7
				c-5.9-0.3-7.8,7.5-5.4,11s6.5,0.5,6.5,0.5s0.5,7.5,1.8,12.1c0.6,2,0.3,9.9-0.2,18.1c-1.2-3-2.9-5.7-5.2-7.8
				c-10.8-9.5-12-19.4-7.3-25.2c4.7-5.8,1-16.1-2.6-16.1c-3.5,0-7.3-3.4-6.2,4s8.8,7.4,8.8,7.4s-6.6,4.9-6.1,12.2
				c0,0-3.8-3.3-6.1,0.5c-4.1,6.7,5.4,10.9,7,7.6c0,0,20.1,14.2,15.2,34.7l1.1,1.7c-0.1,1.7-0.2,2.6-0.2,2.6l1.6-0.7l1.8,2.6
				c-0.1,5.1,0.5,8.9,0.5,8.9l4.8-7.1c-4.8-20.4,15.2-34.7,15.2-34.7C104.2,506.4,113.7,502.2,109.6,495.5z"/>
			<path class="st9" d="M109.6,495.5c-2.3-3.8-6.1-0.5-6.1-0.5c0.5-7.2-6.1-12.2-6.1-12.2s7.7,0,8.8-7.4c1.1-7.4-2.7-3.9-6.2-4
				s-7.2,10.3-2.6,16.1c4.7,5.8,3.4,15.7-7.3,25.2c-2.6,2.3-4.4,5.4-5.6,8.8c0.8-8.8,1.3-21.1-1.3-29.3c-4.4-14,4-17.8,6.4-24.8
				s-6.4-12.9-6.4-12.9s8.3-3.8,4.2-8.1c-4-4.3-12.4-3.7-12.4,1.9s5.6,7.8,5.6,7.8s6.5,6.7,6.5,10.2s-6.5,11-6.5,11s3-6.4-3-6.7
				c-5.9-0.3-7.8,7.5-5.4,11s6.5,0.5,6.5,0.5s0.5,7.5,1.8,12.1c0.6,2,0.3,9.9-0.2,18.1c-1.2-3-2.9-5.7-5.2-7.8
				c-10.8-9.5-12-19.4-7.3-25.2c4.7-5.8,1-16.1-2.6-16.1c-3.5,0-7.3-3.4-6.2,4s8.8,7.4,8.8,7.4s-6.6,4.9-6.1,12.2
				c0,0-3.8-3.3-6.1,0.5c-4.1,6.7,5.4,10.9,7,7.6c0,0,20.1,14.2,15.2,34.7l1.1,1.7c-0.1,1.7-0.2,2.6-0.2,2.6l1.6-0.7l1.8,2.6
				c-0.1,5.1,0.5,8.9,0.5,8.9l4.8-7.1c-4.8-20.4,15.2-34.7,15.2-34.7C104.2,506.4,113.7,502.2,109.6,495.5z"/>
		</g>
		<g class="st10">
			<path class="st11" d="M109.6,495.5c-2.3-3.8-6.1-0.5-6.1-0.5c0.5-7.2-6.1-12.2-6.1-12.2s7.7,0,8.8-7.4c1.1-7.4-2.7-3.9-6.2-4
				s-7.2,10.3-2.6,16.1c4.7,5.8,3.4,15.7-7.3,25.2c-2.6,2.3-4.4,5.4-5.6,8.8c0.8-8.8,1.3-21.1-1.3-29.3c-4.4-14,4-17.8,6.4-24.8
				s-6.4-12.9-6.4-12.9s8.3-3.8,4.2-8.1c-4-4.3-12.4-3.7-12.4,1.9s5.6,7.8,5.6,7.8s6.5,6.7,6.5,10.2s-6.5,11-6.5,11s3-6.4-3-6.7
				c-5.9-0.3-7.8,7.5-5.4,11s6.5,0.5,6.5,0.5s0.5,7.5,1.8,12.1c0.6,2,0.3,9.9-0.2,18.1c-1.2-3-2.9-5.7-5.2-7.8
				c-10.8-9.5-12-19.4-7.3-25.2c4.7-5.8,1-16.1-2.6-16.1c-3.5,0-7.3-3.4-6.2,4s8.8,7.4,8.8,7.4s-6.6,4.9-6.1,12.2
				c0,0-3.8-3.3-6.1,0.5c-4.1,6.7,5.4,10.9,7,7.6c0,0,20.1,14.2,15.2,34.7l1.1,1.7c-0.1,1.7-0.2,2.6-0.2,2.6l1.6-0.7l1.8,2.6
				c-0.1,5.1,0.5,8.9,0.5,8.9l4.8-7.1c-4.8-20.4,15.2-34.7,15.2-34.7C104.2,506.4,113.7,502.2,109.6,495.5z"/>
			<path class="st12" d="M109.6,495.5c-2.3-3.8-6.1-0.5-6.1-0.5c0.5-7.2-6.1-12.2-6.1-12.2s7.7,0,8.8-7.4c1.1-7.4-2.7-3.9-6.2-4
				s-7.2,10.3-2.6,16.1c4.7,5.8,3.4,15.7-7.3,25.2c-2.6,2.3-4.4,5.4-5.6,8.8c0.8-8.8,1.3-21.1-1.3-29.3c-4.4-14,4-17.8,6.4-24.8
				s-6.4-12.9-6.4-12.9s8.3-3.8,4.2-8.1c-4-4.3-12.4-3.7-12.4,1.9s5.6,7.8,5.6,7.8s6.5,6.7,6.5,10.2s-6.5,11-6.5,11s3-6.4-3-6.7
				c-5.9-0.3-7.8,7.5-5.4,11s6.5,0.5,6.5,0.5s0.5,7.5,1.8,12.1c0.6,2,0.3,9.9-0.2,18.1c-1.2-3-2.9-5.7-5.2-7.8
				c-10.8-9.5-12-19.4-7.3-25.2c4.7-5.8,1-16.1-2.6-16.1c-3.5,0-7.3-3.4-6.2,4s8.8,7.4,8.8,7.4s-6.6,4.9-6.1,12.2
				c0,0-3.8-3.3-6.1,0.5c-4.1,6.7,5.4,10.9,7,7.6c0,0,20.1,14.2,15.2,34.7l1.1,1.7c-0.1,1.7-0.2,2.6-0.2,2.6l1.6-0.7l1.8,2.6
				c-0.1,5.1,0.5,8.9,0.5,8.9l4.8-7.1c-4.8-20.4,15.2-34.7,15.2-34.7C104.2,506.4,113.7,502.2,109.6,495.5z"/>
		</g>
		<polygon class="st8" points="105.7,582.7 59.7,582.7 54.8,532.4 110.6,532.4 		"/>
		<polygon class="st13" points="105.7,582.7 59.7,582.7 54.8,532.4 110.6,532.4 		"/>
		<rect x="52.3" y="526.8" class="st8" width="60.8" height="11.1"/>
		<rect x="52.3" y="526.8" class="st14" width="60.8" height="11.1"/>
	</g>
	<g>
		<path class="st8" d="M527.8,525.3l-2.1-2.9c-0.8-1-1.9-1.7-3.2-1.7H508c-1.2,0-2.4,0.6-3,1.7l-1.7,2.9c-0.6,1-1.8,1.7-3,1.7h-8.6
			c-2.1,0-3.6,1.7-3.5,3.8l2.8,48.3c0.1,2.1,1.9,3.8,3.9,3.8h68.3c2.1,0,3.6-1.7,3.5-3.8l-2.8-48.3c-0.1-2.1-1.9-3.8-3.9-3.8h-29
			C529.7,526.9,528.5,526.3,527.8,525.3z"/>
		<path class="st13" d="M527.8,525.3l-2.1-2.9c-0.8-1-1.9-1.7-3.2-1.7H508c-1.2,0-2.4,0.6-3,1.7l-1.7,2.9c-0.6,1-1.8,1.7-3,1.7h-8.6
			c-2.1,0-3.6,1.7-3.5,3.8l2.8,48.3c0.1,2.1,1.9,3.8,3.9,3.8h68.3c2.1,0,3.6-1.7,3.5-3.8l-2.8-48.3c-0.1-2.1-1.9-3.8-3.9-3.8h-29
			C529.7,526.9,528.5,526.3,527.8,525.3z"/>
		<path class="st8" d="M566.9,531.5h-62.6c-2.6,0-4.9,2.1-5.1,4.7l-3.8,41.8c-0.2,2.6,1.7,4.7,4.3,4.7h62.6c2.6,0,4.9-2.1,5.1-4.7
			l3.8-41.8C571.4,533.6,569.5,531.5,566.9,531.5z"/>
		<path class="st15" d="M566.9,531.5h-62.6c-2.6,0-4.9,2.1-5.1,4.7l-3.8,41.8c-0.2,2.6,1.7,4.7,4.3,4.7h62.6c2.6,0,4.9-2.1,5.1-4.7
			l3.8-41.8C571.4,533.6,569.5,531.5,566.9,531.5z"/>
	</g>
	<g>
		<rect x="295.8" y="509.4" class="st16" width="89.4" height="62.4"/>
		<g>
			<path class="st8" d="M386.9,561.8H319c-0.9,0-1.6,0.7-1.6,1.6V581c0,0.9,0.7,1.6,1.6,1.6h67.9c0.9,0,1.6-0.7,1.6-1.6v-17.6
				C388.5,562.5,387.8,561.8,386.9,561.8z"/>
			<path class="st17" d="M386.9,561.8H319c-0.9,0-1.6,0.7-1.6,1.6V581c0,0.9,0.7,1.6,1.6,1.6h67.9c0.9,0,1.6-0.7,1.6-1.6v-17.6
				C388.5,562.5,387.8,561.8,386.9,561.8z"/>
			<path class="st8" d="M362.6,561.8h-67.9c-0.9,0-1.6,0.7-1.6,1.6V581c0,0.9,0.7,1.6,1.6,1.6h67.9c0.9,0,1.6-0.7,1.6-1.6v-17.6
				C364.3,562.5,363.5,561.8,362.6,561.8z"/>
			<path class="st18" d="M357.3,572.2c0,2.4-2,4.4-4.4,4.4s-4.4-2-4.4-4.4s2-4.4,4.4-4.4S357.3,569.8,357.3,572.2z"/>
			<circle class="st8" cx="352.9" cy="572.2" r="2.2"/>
			<rect x="338.5" y="569.7" class="st18" width="5" height="5"/>
		</g>
		<g>
			<path class="st8" d="M386.9,540H319c-0.9,0-1.6,0.7-1.6,1.6v17.6c0,0.9,0.7,1.6,1.6,1.6h67.9c0.9,0,1.6-0.7,1.6-1.6v-17.6
				C388.5,540.7,387.8,540,386.9,540z"/>
			<path class="st17" d="M386.9,540H319c-0.9,0-1.6,0.7-1.6,1.6v17.6c0,0.9,0.7,1.6,1.6,1.6h67.9c0.9,0,1.6-0.7,1.6-1.6v-17.6
				C388.5,540.7,387.8,540,386.9,540z"/>
			<path class="st8" d="M362.6,540h-67.9c-0.9,0-1.6,0.7-1.6,1.6v17.6c0,0.9,0.7,1.6,1.6,1.6h67.9c0.9,0,1.6-0.7,1.6-1.6v-17.6
				C364.3,540.7,363.5,540,362.6,540z"/>
			<path class="st18" d="M357.3,550.4c0,2.4-2,4.4-4.4,4.4s-4.4-2-4.4-4.4s2-4.4,4.4-4.4S357.3,548,357.3,550.4z"/>
			<path class="st8" d="M355.1,550.4c0,1.2-1,2.2-2.2,2.2s-2.2-1-2.2-2.2s1-2.2,2.2-2.2S355.1,549.2,355.1,550.4z"/>
			<rect x="338.5" y="547.9" class="st18" width="5" height="5"/>
		</g>
		<g>
			<path class="st8" d="M386.9,518.1H319c-0.9,0-1.6,0.7-1.6,1.6v17.6c0,0.9,0.7,1.6,1.6,1.6h67.9c0.9,0,1.6-0.7,1.6-1.6v-17.6
				C388.5,518.9,387.8,518.1,386.9,518.1z"/>
			<path class="st17" d="M386.9,518.1H319c-0.9,0-1.6,0.7-1.6,1.6v17.6c0,0.9,0.7,1.6,1.6,1.6h67.9c0.9,0,1.6-0.7,1.6-1.6v-17.6
				C388.5,518.9,387.8,518.1,386.9,518.1z"/>
			<path class="st8" d="M362.6,518.1h-67.9c-0.9,0-1.6,0.7-1.6,1.6v17.6c0,0.9,0.7,1.6,1.6,1.6h67.9c0.9,0,1.6-0.7,1.6-1.6v-17.6
				C364.3,518.9,363.5,518.1,362.6,518.1z"/>
			<path class="st18" d="M357.3,528.6c0,2.4-2,4.4-4.4,4.4s-4.4-2-4.4-4.4s2-4.4,4.4-4.4S357.3,526.2,357.3,528.6z"/>
			<path class="st8" d="M355.1,528.6c0,1.2-1,2.2-2.2,2.2s-2.2-1-2.2-2.2s1-2.2,2.2-2.2C354.1,526.4,355.1,527.4,355.1,528.6z"/>
			<rect x="338.5" y="526.1" class="st18" width="5" height="5"/>
		</g>
		<g>
			<path class="st8" d="M386.9,496.3H319c-0.9,0-1.6,0.7-1.6,1.6v17.6c0,0.9,0.7,1.6,1.6,1.6h67.9c0.9,0,1.6-0.7,1.6-1.6V498
				C388.5,497.1,387.8,496.3,386.9,496.3z"/>
			<path class="st17" d="M386.9,496.3H319c-0.9,0-1.6,0.7-1.6,1.6v17.6c0,0.9,0.7,1.6,1.6,1.6h67.9c0.9,0,1.6-0.7,1.6-1.6V498
				C388.5,497.1,387.8,496.3,386.9,496.3z"/>
			<path class="st8" d="M362.6,496.3h-67.9c-0.9,0-1.6,0.7-1.6,1.6v17.6c0,0.9,0.7,1.6,1.6,1.6h67.9c0.9,0,1.6-0.7,1.6-1.6V498
				C364.3,497.1,363.5,496.3,362.6,496.3z"/>
			<path class="st18" d="M357.3,506.8c0,2.4-2,4.4-4.4,4.4s-4.4-2-4.4-4.4s2-4.4,4.4-4.4S357.3,504.3,357.3,506.8z"/>
			<path class="st8" d="M355.1,506.8c0,1.2-1,2.2-2.2,2.2s-2.2-1-2.2-2.2s1-2.2,2.2-2.2C354.1,504.5,355.1,505.5,355.1,506.8z"/>
			<rect x="338.5" y="504.3" class="st18" width="5" height="5"/>
		</g>
	</g>
	<g>
		<rect x="375.8" y="542.8" class="st16" width="89.4" height="29.1"/>
		<g>
			<path class="st8" d="M466.9,561.8H399c-0.9,0-1.6,0.7-1.6,1.6V581c0,0.9,0.7,1.6,1.6,1.6h67.9c0.9,0,1.6-0.7,1.6-1.6v-17.6
				C468.6,562.5,467.8,561.8,466.9,561.8z"/>
			<path class="st17" d="M466.9,561.8H399c-0.9,0-1.6,0.7-1.6,1.6V581c0,0.9,0.7,1.6,1.6,1.6h67.9c0.9,0,1.6-0.7,1.6-1.6v-17.6
				C468.6,562.5,467.8,561.8,466.9,561.8z"/>
			<path class="st8" d="M442.7,561.8h-67.9c-0.9,0-1.6,0.7-1.6,1.6V581c0,0.9,0.7,1.6,1.6,1.6h67.9c0.9,0,1.6-0.7,1.6-1.6v-17.6
				C444.3,562.5,443.6,561.8,442.7,561.8z"/>
			<path class="st18" d="M437.3,572.2c0,2.4-2,4.4-4.4,4.4s-4.4-2-4.4-4.4s2-4.4,4.4-4.4C435.3,567.9,437.3,569.8,437.3,572.2z"/>
			<path class="st8" d="M435.1,572.2c0,1.2-1,2.2-2.2,2.2s-2.2-1-2.2-2.2s1-2.2,2.2-2.2S435.1,571,435.1,572.2z"/>
			<rect x="418.5" y="569.7" class="st18" width="5" height="5"/>
		</g>
		<g>
			<path class="st8" d="M466.9,540H399c-0.9,0-1.6,0.7-1.6,1.6v17.6c0,0.9,0.7,1.6,1.6,1.6h67.9c0.9,0,1.6-0.7,1.6-1.6v-17.6
				C468.6,540.7,467.8,540,466.9,540z"/>
			<path class="st17" d="M466.9,540H399c-0.9,0-1.6,0.7-1.6,1.6v17.6c0,0.9,0.7,1.6,1.6,1.6h67.9c0.9,0,1.6-0.7,1.6-1.6v-17.6
				C468.6,540.7,467.8,540,466.9,540z"/>
			<path class="st8" d="M442.7,540h-67.9c-0.9,0-1.6,0.7-1.6,1.6v17.6c0,0.9,0.7,1.6,1.6,1.6h67.9c0.9,0,1.6-0.7,1.6-1.6v-17.6
				C444.3,540.7,443.6,540,442.7,540z"/>
			<path class="st18" d="M437.3,550.4c0,2.4-2,4.4-4.4,4.4s-4.4-2-4.4-4.4s2-4.4,4.4-4.4S437.3,548,437.3,550.4z"/>
			<path class="st8" d="M435.1,550.4c0,1.2-1,2.2-2.2,2.2s-2.2-1-2.2-2.2s1-2.2,2.2-2.2S435.1,549.2,435.1,550.4z"/>
			<rect x="418.5" y="547.9" class="st18" width="5" height="5"/>
		</g>
	</g>
	<g>
		<polygon class="st19" points="206.4,557.1 197.1,558.8 193.3,546.1 189.8,534.5 200.5,530.8 203.6,544.7 		"/>
		<polygon class="st17" points="203.7,545 193.3,546.4 189.8,534.6 200.5,530.8 		"/>
		<polygon class="st19" points="144.4,561.4 135,561.4 133.5,548.1 132.1,536 143.3,534.2 143.9,548.6 		"/>
		<polygon class="st17" points="143.9,548.7 133.5,548.2 132.1,536.1 143.3,534.2 		"/>
		<path class="st16" d="M157.2,580.1c-1.5-1.2-3.2-2.1-5-2.7l0,0c0,0-5.5-5.4-8.1-21.8l-7.2-1.9c-2.5-0.6-5.1,0.4-6.5,2.5
			c-0.2,0.3-0.4,0.6-0.5,0.9c-0.4,1.8-0.6,3.5-0.8,5.3c-0.7,5.5-0.1,17.9-0.1,17.9h1.3l0.5-11.3c0.2-3.8,3.1,0.7,4,4.8
			c0.8,4.1,2.6,8.5,11,8.7C155.6,582.8,159.7,582.5,157.2,580.1z"/>
		<path class="st16" d="M219.7,579c-1.5-1.2-3.2-2.1-5-2.7l0,0c0,0-5.5-5.4-8.1-21.8l-7.2-1.9c-2.5-0.6-5.1,0.4-6.5,2.5
			c-0.2,0.3-0.4,0.6-0.5,0.9c-0.4,1.8-0.6,3.5-0.8,5.3c-0.7,5.5-0.1,17.9-0.1,17.9h1.3l0.5-11.3c0.2-3.8,3.1,0.7,4,4.8
			c0.8,4.1,2.6,8.5,11,8.7C218.1,581.7,222.2,581.4,219.7,579z"/>
		<g>
			<g>
				<path class="st8" d="M204.6,537.7l-15.2,2.7c-15.5-38.4-26.4-70.4-34.2-97c-4.2-14.3-7.6-27.1-10.1-38.4l0.5,41.7v94h-15
					c-37.7-179.4-11-220.3-11-220.3l45.1-7.5c1.7,6.7,3,17.7,3.8,25.3l2,15l17.6,91L204.6,537.7z"/>
			</g>
			<g class="st17">
				<path d="M204.6,537.7l-15.2,2.7c-15.5-38.4-26.4-70.4-34.2-97c-4.2-14.3-7.6-27.1-10.1-38.4l0.5,41.7v94h-15
					c-37.7-179.4-11-220.3-11-220.3l45.1-7.5c1.7,6.7,3,17.7,3.8,25.3l2,15l17.6,91L204.6,537.7z"/>
			</g>
		</g>
		<path class="st20" d="M218,268.7l15.2-15c0,0,0.5-4,2-5.1s11.9-4.9,13.2-4.1c1.3,0.8,3.1,9.3,1.3,10.8c-1.8,1.5-11.3,3.5-12.2,3.4
			L221,278.2L218,268.7z"/>
		<g>
			<path class="st16" d="M163.5,241.3c6.6,3.5,29.8,36,33.3,37.7c3.4,1.6,29.7-19.6,29.7-19.6l4.4,7.5c0,0-21.5,30.4-33.7,28.9
				s-35.4-27.2-35.4-27.2L163.5,241.3z"/>
			<path class="st21" d="M163.5,241.3c6.6,3.5,29.8,36,33.3,37.7c3.4,1.6,29.7-19.6,29.7-19.6l4.4,7.5c0,0-21.5,30.4-33.7,28.9
				s-35.4-27.2-35.4-27.2L163.5,241.3z"/>
		</g>
		<polygon class="st8" points="225,260.1 226.8,258.4 231.6,266.5 229.9,269.8 		"/>
		<path class="st17" d="M171.1,278.1c-5.4-5.2-9.4-9.5-9.4-9.5l0.4-6.5l2-6.3C164.2,255.8,173.4,264.3,171.1,278.1z"/>
		<path class="st17" d="M155.2,443.4c-4.2-14.3-7.4-27.1-9.9-38.4c0,0,0.3-22,2.9-40C148.2,365,154.8,416.7,155.2,443.4z"/>
		<g>
			<path class="st16" d="M165.7,310.2c1.8-32.4,1-50.2,0.2-59.1c-0.9-9.5-2.4-9.8-2.4-9.8s-10.3-1-19.2-0.9
				c-6.9,0.2-13.8,1-20.6,2.2c-6.5,1.1-12.8,2.6-19.1,4.6c1,3,2,5.8,2.9,8.5c1.2,3.5,2.2,6.8,3.2,9.8c1.8,5.7,3.1,10.6,4.2,15
				c3.4,13.6,4.2,22.3,4.9,33.8c0,0-11.3,29.6-13.5,51.3l37.5,4l5.1-21.7l5.1,22.4l21-7.4L165.7,310.2z"/>
			<path class="st21" d="M165.7,310.2c1.8-32.4,1-50.2,0.2-59.1c-0.9-9.5-2.4-9.8-2.4-9.8s-10.3-1-19.2-0.9
				c-6.9,0.2-13.8,1-20.6,2.2c-6.5,1.1-12.8,2.6-19.1,4.6c1,3,2,5.8,2.9,8.5c1.2,3.5,2.2,6.8,3.2,9.8c1.8,5.7,3.1,10.6,4.2,15
				c3.4,13.6,4.2,22.3,4.9,33.8c0,0-11.3,29.6-13.5,51.3l37.5,4l5.1-21.7l5.1,22.4l21-7.4L165.7,310.2z"/>
		</g>
		<path class="st17" d="M116.7,288.3c-0.5-2.5-1.1-5.1-1.8-7.9c-0.5-1.8-1-3.7-1.5-5.7c1.4-5,2.9-1.1,2.9-1.1
			S117.7,279.7,116.7,288.3z"/>
		<polygon class="st8" points="129.2,251.6 147.8,284.9 152.2,249.1 143.7,259.7 		"/>
		<g>
			<path class="st8" d="M128.7,239.7c-8.3,2-10.8,8.6-9.9,14.7l6.1-2c0,0,11.2,3.9,19.5,10.7c0,0,4.6-8.5,9-11.2l6.3,0.7
				C159.5,252.6,149.8,234.7,128.7,239.7z"/>
			<path class="st21" d="M128.7,239.7c-8.3,2-10.8,8.6-9.9,14.7l6.1-2c0,0,11.2,3.9,19.5,10.7c0,0,4.6-8.5,9-11.2l6.3,0.7
				C159.5,252.6,149.8,234.7,128.7,239.7z"/>
		</g>
		<path class="st20" d="M143.8,242.3c-0.4-0.2-0.9-0.4-1.4-0.6c-1.1-0.8-2.3-2.9-2.3-7.8c0-1.6,0.2-3.5,0.5-5.7l-13.6-2.5
			c0,0,4.6,9.2,0.8,16c-1.3,0.6-2.1,1.4-2,2.5c1,7.9,18,15.5,18,15.5S152,246.9,143.8,242.3z"/>
		<path class="st17" d="M140.6,228.2c-0.4,2.3-0.5,4.1-0.5,5.7c-9.2,0-13.1-8.3-13.1-8.3L140.6,228.2z"/>
		<g>
			<path class="st16" d="M134.5,183.2c0,0,16-2,18.9,10.8s-7,20-7,20L134.5,183.2z"/>
			<path class="st20" d="M133.1,190.1c11.9-0.6,16,5.5,17.6,17.7c1.9,15.2-0.9,26.2-15.9,23.8C114.4,228.2,113.4,191.2,133.1,190.1z
				"/>
			<path class="st22" d="M142.9,207.5c0,0,1.8,3,3.7,4.7c0,0-0.9,1.7-3.1,1.5L142.9,207.5z"/>
			<g>
				<path class="st16" d="M135.6,207c0.1,1-0.4,1.8-1,1.9c-0.6,0.1-1.2-0.7-1.3-1.7s0.4-1.8,1-1.9C135,205.2,135.6,206,135.6,207z"
					/>
				<path class="st16" d="M134.1,205.4l2.1-1C136.1,204.4,135.2,206.2,134.1,205.4z"/>
			</g>
			<g>
				<path class="st16" d="M147.7,205.8c0.1,1-0.4,1.8-1,1.9c-0.6,0.1-1.2-0.7-1.3-1.7s0.4-1.8,1-1.9
					C147,204.1,147.6,204.8,147.7,205.8z"/>
				<path class="st16" d="M146.1,204.2l2.1-1C148.2,203.2,147.3,205.1,146.1,204.2z"/>
			</g>
			<path class="st23" d="M135.1,198.8c0,0-3.4-0.3-5,2.1"/>
			<path class="st23" d="M143.7,197.8c0,0,2.1-0.9,4.8,0.7"/>
			<path class="st16" d="M121.2,210.8c0,0,5-10,3.8-17.5c0,0,23-10.9,25.4,12.9c0,0,1.1-21.3-19.3-20.7s-18.7,30.5-7.7,38.8
				C123.5,224.3,118.1,217.1,121.2,210.8z"/>
			<path class="st16" d="M136.6,182.3c0,0,9.7-2.4,12.5,0.2s-16.9,20.8-27.2,22.6c0,0-3.5,11.4-0.7,16.7c0,0-11.6-4-12.1-21.7
				C108.4,182.5,127,175.9,136.6,182.3z"/>
			<path class="st20" d="M123.3,213.2c-0.2-1.9-2.3-5-5.9-4.4c-3.7,0.6-5,8.2,4.2,9.6C123,218.5,123.7,217.2,123.3,213.2z"/>
			<path class="st16" d="M118.2,189.3c0,0-4-10.3-14.9-9.6s-12.5,17.6-6.8,30.1s1.8,16.5,1.8,16.5s6.1-0.7,6.1-11.9
				c0,0,0.6,3.7,0.4,7.2c0,0,4-5.7,0.2-16.5s8.5-5.9,8.5-5.9L118.2,189.3z"/>
			<path class="st23" d="M148.1,183.4c0,0-5.1,16.5-18.9,21.5"/>
			<path class="st23" d="M134.4,218c0,0,2.8,2.9,6.8,2.8"/>
			<path class="st24" d="M141.7,208.6c0,1.6-1.2,2.8-2.6,2.8c-1.4,0-2.6-1.3-2.6-2.8c0-1.6,1.2-2.8,2.6-2.8S141.7,207,141.7,208.6z"
				/>
			<path class="st24" d="M151,208.2c0,1.6-1.2,2.8-2.6,2.8c-1.4,0-2.6-1.3-2.6-2.8s1.2-2.8,2.6-2.8C149.8,205.3,151,206.6,151,208.2
				z"/>
			<path class="st24" d="M141.7,208.6c0,0,1.4-2.9,4-0.5"/>
			<path class="st24" d="M136.5,208.6c0,0-14.7-0.5-16.5-0.4"/>
		</g>
		<g>
			<path class="st8" d="M121.6,277.3l-0.7,37.6c0,0.9,0.7,1.6,1.6,1.5l24.7-2c0.8-0.1,1.4-0.7,1.4-1.5l1.2-37.2
				c0-0.9-0.7-1.6-1.6-1.6l-25.2,1.6C122.3,275.9,121.7,276.5,121.6,277.3z"/>
			<path class="st14" d="M121.6,277.3l-0.7,37.6c0,0.9,0.7,1.6,1.6,1.5l24.7-2c0.8-0.1,1.4-0.7,1.4-1.5l1.2-37.2
				c0-0.9-0.7-1.6-1.6-1.6l-25.2,1.6C122.3,275.9,121.7,276.5,121.6,277.3z"/>
			<g>
				<path class="st8" d="M122.4,278.2l-0.7,37.6c0,0.9,0.7,1.6,1.6,1.5l24.7-2c0.8-0.1,1.4-0.7,1.4-1.5l1.2-37.2
					c0-0.9-0.7-1.6-1.6-1.6l-25.2,1.6C123,276.7,122.4,277.4,122.4,278.2z"/>
				<path class="st15" d="M122.4,278.2l-0.7,37.6c0,0.9,0.7,1.6,1.6,1.5l24.7-2c0.8-0.1,1.4-0.7,1.4-1.5l1.2-37.2
					c0-0.9-0.7-1.6-1.6-1.6l-25.2,1.6C123,276.7,122.4,277.4,122.4,278.2z"/>
			</g>
			<path class="st17" d="M139.4,296.1c0,2-1.6,3.7-3.7,3.7c-2,0-3.7-1.6-3.7-3.7c0-2,1.6-3.7,3.7-3.7h0.1c0.3,1.7,1.7,3,3.5,3.1
				C139.4,295.7,139.4,295.9,139.4,296.1z"/>
		</g>
		<path class="st20" d="M100.2,307.8l18.1-11.4c0,0,1.4-3.8,3.1-4.6c1.7-0.8,12.7-2.2,13.8-1.1s1,9.7-1.1,10.8
			c-2.1,1.1-11.8,1-12.7,0.6L101,317.7L100.2,307.8z"/>
		<g>
			<path class="st16" d="M104.6,247.2c0,0,11.8,17.2,10.1,31.9L99,305l10.5-5.4l4.8,9c0,0-12.1,18.7-27.6,14.3
				C71.3,318.5,104.6,247.2,104.6,247.2z"/>
			<path class="st21" d="M104.6,247.2c0,0,11.8,17.2,10.1,31.9L99,305l10.5-5.4l4.8,9c0,0-12.1,18.7-27.6,14.3
				C71.3,318.5,104.6,247.2,104.6,247.2z"/>
		</g>
		<polygon class="st8" points="108.4,299.1 114.4,310.3 115.8,307.1 111,298 		"/>
	</g>
	<g>
		<path class="st8" d="M245.6,253.5c-3.7,0-6.8-3-6.8-6.8c0-3.7,3-6.8,6.8-6.8s6.8,3,6.8,6.8C252.4,250.5,249.4,253.5,245.6,253.5z"
			/>
		<g>
			<g>
				<path class="st8" d="M248.7,283.4h-0.1c-6.4,0-12.6-1.9-18.1-5.1l3.7-6.5c4.4,2.5,9.4,4.1,14.4,4.1L248.7,283.4z M266.8,278
					l-3.7-6.3c4.4-2.6,8-6.2,10.5-10.6l6.4,3.7C276.8,270.2,272.3,274.8,266.8,278z M217.2,264.8c-3.2-5.5-4.9-11.7-4.9-18.1h7.4
					c0,5.1,1.3,10,3.9,14.4L217.2,264.8z M277.4,246.6c0-5.1-1.4-10-3.9-14.4l6.4-3.7c3.2,5.5,4.9,11.7,4.9,18.1L277.4,246.6z
					 M223.5,232.3l-6.4-3.7c3.2-5.5,7.7-10.1,13.2-13.3l3.7,6.4C229.7,224.3,226.1,227.9,223.5,232.3z M262.9,221.7
					c-4.4-2.5-9.3-4.1-14.4-4.1l-0.1-7.6h0.1c6.3,0,12.6,2,18,5.1L262.9,221.7z"/>
			</g>
			<g class="st25">
				<path class="st11" d="M248.7,283.4h-0.1c-6.4,0-12.6-1.9-18.1-5.1l3.7-6.5c4.4,2.5,9.4,4.1,14.4,4.1L248.7,283.4z M266.8,278
					l-3.7-6.3c4.4-2.6,8-6.2,10.5-10.6l6.4,3.7C276.8,270.2,272.3,274.8,266.8,278z M217.2,264.8c-3.2-5.5-4.9-11.7-4.9-18.1h7.4
					c0,5.1,1.3,10,3.9,14.4L217.2,264.8z M277.4,246.6c0-5.1-1.4-10-3.9-14.4l6.4-3.7c3.2,5.5,4.9,11.7,4.9,18.1L277.4,246.6z
					 M223.5,232.3l-6.4-3.7c3.2-5.5,7.7-10.1,13.2-13.3l3.7,6.4C229.7,224.3,226.1,227.9,223.5,232.3z M262.9,221.7
					c-4.4-2.5-9.3-4.1-14.4-4.1l-0.1-7.6h0.1c6.3,0,12.6,2,18,5.1L262.9,221.7z"/>
			</g>
		</g>
	</g>
	<g>
		<g>
			<path class="st8" d="M257.8,255.8c-5,0-9.1-4.1-9.1-9.1s4.1-9.1,9.1-9.1c5,0,9.1,4.1,9.1,9.1S262.8,255.8,257.8,255.8z"/>
			<path class="st13" d="M257.8,255.8c-5,0-9.1-4.1-9.1-9.1s4.1-9.1,9.1-9.1c5,0,9.1,4.1,9.1,9.1S262.8,255.8,257.8,255.8z"/>
		</g>
		<g>
			<g>
				
					<ellipse transform="matrix(0.2298 -0.9732 0.9732 0.2298 -40.8239 441.9605)" class="st26" cx="258.8" cy="246.8" rx="14.9" ry="14.9"/>
			</g>
			<g>
				<rect x="272.1" y="245.2" class="st8" width="247.1" height="2.9"/>
			</g>
			<g>
				<path class="st8" d="M260.3,233.4h-2.9v-17.6c0-0.4,0.2-0.8,0.4-1l90-89.7c0.3-0.3,0.6-0.4,1-0.4h82.1v2.9h-81.5l-89.1,88.9
					V233.4z"/>
			</g>
			<g>
				<path class="st8" d="M473.5,382H363.2c-0.4,0-0.8-0.2-1-0.4L257.8,277.1c-0.3-0.3-0.4-0.6-0.4-1v-14.7h2.9v14.1L363.8,379h109.7
					V382z"/>
			</g>
			<g>
				<path class="st8" d="M400,287.9h-59.1c-0.4,0-0.8-0.2-1-0.4L300.2,248l2.1-2.1l39.3,39H400V287.9z"/>
			</g>
			<g>
				<path class="st8" d="M359.1,247.8l-2.1-2.1l39.6-39.8c0.3-0.3,0.7-0.4,1-0.4h59.7v2.9h-59.1L359.1,247.8z"/>
			</g>
			<g>
				<path class="st8" d="M583.8,173.1H350.3c-0.4,0-0.8-0.2-1-0.4L325.9,149l2.1-2.1l23,23.2h232.9v3H583.8z"/>
			</g>
			<g>
				<path class="st8" d="M375.6,127.1l-2.1-2.1l38.2-38.2c0.3-0.3,0.6-0.4,1-0.4h122.6v2.9h-122L375.6,127.1z"/>
			</g>
			<g>
				<path class="st8" d="M399.5,454.1l-59.3-59.3c-0.3-0.3-0.4-0.6-0.4-1v-35.3h2.9v34.7l58.9,58.9L399.5,454.1z"/>
			</g>
			<g>
				<path class="st8" d="M386.1,381.1L384,379l39-39.2c0.3-0.3,0.7-0.4,1-0.4h148v2.9H424.7L386.1,381.1z"/>
			</g>
			<g>
				<path class="st8" d="M523.5,423.2h-65.9c-0.4,0-0.8-0.2-1-0.4l-41.4-41.4l2.1-2.1l41,41h65.3v2.9H523.5z"/>
			</g>
			<g>
				<circle class="st8" cx="535.3" cy="87.8" r="6.7"/>
			</g>
			<g>
				<path class="st8" d="M444.1,141.6c-8.6,0-15.6-7-15.6-15.6s7-15.6,15.6-15.6s15.6,7,15.6,15.6S452.7,141.6,444.1,141.6z
					 M444.1,113.5c-7,0-12.6,5.7-12.6,12.6c0,7,5.7,12.6,12.6,12.6s12.6-5.7,12.6-12.6C456.8,119.1,451.1,113.5,444.1,113.5z"/>
			</g>
			<g>
				<circle class="st8" cx="444.1" cy="126.1" r="6.7"/>
			</g>
			<g>
				<path class="st8" d="M590.6,171.9c0,3.7-3,6.7-6.7,6.7s-6.7-3-6.7-6.7s3-6.7,6.7-6.7S590.6,168.2,590.6,171.9z"/>
			</g>
			<g>
				<circle class="st8" cx="457.4" cy="207" r="6.7"/>
			</g>
			<g>
				<path class="st8" d="M532.4,262.2c-8.6,0-15.6-7-15.6-15.6s7-15.6,15.6-15.6s15.6,7,15.6,15.6
					C547.9,255.3,541,262.2,532.4,262.2z M532.4,234.1c-7,0-12.6,5.7-12.6,12.6c0,7,5.7,12.6,12.6,12.6s12.6-5.7,12.6-12.6
					C545,239.7,539.3,234.1,532.4,234.1z"/>
			</g>
			<g>
				<circle class="st8" cx="532.4" cy="246.7" r="6.7"/>
			</g>
			<g>
				<circle class="st8" cx="400" cy="286.4" r="6.7"/>
			</g>
			<g>
				<circle class="st8" cx="572.1" cy="340.8" r="6.7"/>
			</g>
			<g>
				<path class="st8" d="M486.8,395.8c-8.6,0-15.6-7-15.6-15.6s7-15.6,15.6-15.6s15.6,7,15.6,15.6
					C502.3,388.8,495.4,395.8,486.8,395.8z M486.8,367.6c-7,0-12.6,5.7-12.6,12.6c0,7,5.7,12.6,12.6,12.6s12.6-5.7,12.6-12.6
					C499.4,373.3,493.7,367.6,486.8,367.6z"/>
			</g>
			<g>
				<path class="st8" d="M493.5,380.3c0,3.7-3,6.7-6.7,6.7s-6.7-3-6.7-6.7s3-6.7,6.7-6.7S493.5,376.5,493.5,380.3z"/>
			</g>
			<g>
				<circle class="st8" cx="523.5" cy="421.7" r="6.7"/>
			</g>
			<g>
				<path class="st8" d="M407.2,453.1c0,3.7-3,6.7-6.7,6.7s-6.7-3-6.7-6.7s3-6.7,6.7-6.7S407.2,449.3,407.2,453.1z"/>
			</g>
		</g>
		<g>
			<g>
				<path class="st8" d="M578.3,107.7h-26c-0.8,0-1.5-0.7-1.5-1.5V71.3c0-0.8,0.7-1.5,1.5-1.5h26c0.8,0,1.5,0.7,1.5,1.5v34.9
					C579.8,107,579.2,107.7,578.3,107.7z"/>
				<path class="st14" d="M578.3,107.7h-26c-0.8,0-1.5-0.7-1.5-1.5V71.3c0-0.8,0.7-1.5,1.5-1.5h26c0.8,0,1.5,0.7,1.5,1.5v34.9
					C579.8,107,579.2,107.7,578.3,107.7z"/>
			</g>
			<g>
				<rect x="555.2" y="75.2" class="st8" width="20.3" height="2"/>
				<rect x="555.2" y="78.8" class="st8" width="20.3" height="2"/>
				<rect x="555.2" y="82.4" class="st8" width="20.3" height="2"/>
				<rect x="555.2" y="85.9" class="st8" width="20.3" height="2"/>
				<rect x="555.2" y="89.5" class="st8" width="20.3" height="2"/>
				<rect x="555.2" y="93.1" class="st8" width="20.3" height="2"/>
				<rect x="555.2" y="96.7" class="st8" width="20.3" height="2"/>
				<rect x="555.2" y="100.3" class="st8" width="13.2" height="2"/>
			</g>
		</g>
		<g>
			<g>
				<path class="st8" d="M441.7,308.5h-26c-0.8,0-1.5-0.7-1.5-1.5v-34.9c0-0.8,0.7-1.5,1.5-1.5h26c0.8,0,1.5,0.7,1.5,1.5V307
					C443.2,307.8,442.5,308.5,441.7,308.5z"/>
				<path class="st14" d="M441.7,308.5h-26c-0.8,0-1.5-0.7-1.5-1.5v-34.9c0-0.8,0.7-1.5,1.5-1.5h26c0.8,0,1.5,0.7,1.5,1.5V307
					C443.2,307.8,442.5,308.5,441.7,308.5z"/>
			</g>
			<g>
				<rect x="418.5" y="276" class="st8" width="20.3" height="2"/>
				<rect x="418.5" y="279.6" class="st8" width="20.3" height="2"/>
				<rect x="418.5" y="283.2" class="st8" width="20.3" height="2"/>
				<rect x="418.5" y="286.7" class="st8" width="20.3" height="2"/>
				<rect x="418.5" y="290.3" class="st8" width="20.3" height="2"/>
				<rect x="418.5" y="293.9" class="st8" width="20.3" height="2"/>
				<rect x="418.5" y="297.5" class="st8" width="20.3" height="2"/>
				<rect x="418.5" y="301.1" class="st8" width="13.2" height="2"/>
			</g>
		</g>
		<g>
			<g>
				<path class="st8" d="M611.3,349.3h-26c-0.8,0-1.5-0.7-1.5-1.5v-34.9c0-0.8,0.7-1.5,1.5-1.5h26c0.8,0,1.5,0.7,1.5,1.5v34.9
					C612.8,348.6,612.2,349.3,611.3,349.3z"/>
				<path class="st14" d="M611.3,349.3h-26c-0.8,0-1.5-0.7-1.5-1.5v-34.9c0-0.8,0.7-1.5,1.5-1.5h26c0.8,0,1.5,0.7,1.5,1.5v34.9
					C612.8,348.6,612.2,349.3,611.3,349.3z"/>
			</g>
			<g>
				<rect x="588.2" y="316.8" class="st8" width="20.3" height="2"/>
				<rect x="588.2" y="320.3" class="st8" width="20.3" height="2"/>
				<rect x="588.2" y="323.9" class="st8" width="20.3" height="2"/>
				<rect x="588.2" y="327.5" class="st8" width="20.3" height="2"/>
				<rect x="588.2" y="331.1" class="st8" width="20.3" height="2"/>
				<rect x="588.2" y="334.7" class="st8" width="20.3" height="2"/>
				<rect x="588.2" y="338.3" class="st8" width="20.3" height="2"/>
				<rect x="588.2" y="341.8" class="st8" width="13.2" height="2"/>
			</g>
		</g>
		<g>
			<g>
				<path class="st8" d="M622.8,180.3h-26c-0.8,0-1.5-0.7-1.5-1.5v-34.9c0-0.8,0.7-1.5,1.5-1.5h26c0.8,0,1.5,0.7,1.5,1.5v34.9
					C624.3,179.6,623.7,180.3,622.8,180.3z"/>
				<path class="st14" d="M622.8,180.3h-26c-0.8,0-1.5-0.7-1.5-1.5v-34.9c0-0.8,0.7-1.5,1.5-1.5h26c0.8,0,1.5,0.7,1.5,1.5v34.9
					C624.3,179.6,623.7,180.3,622.8,180.3z"/>
			</g>
			<g>
				<rect x="599.7" y="147.8" class="st8" width="20.3" height="2"/>
				<rect x="599.7" y="151.4" class="st8" width="20.3" height="2"/>
				<rect x="599.7" y="155" class="st8" width="20.3" height="2"/>
				<rect x="599.7" y="158.6" class="st8" width="20.3" height="2"/>
				<rect x="599.7" y="162.1" class="st8" width="20.3" height="2"/>
				<rect x="599.7" y="165.7" class="st8" width="20.3" height="2"/>
				<rect x="599.7" y="169.3" class="st8" width="20.3" height="2"/>
				<rect x="599.7" y="172.9" class="st8" width="13.2" height="2"/>
			</g>
		</g>
		<g>
			<g>
				<path class="st8" d="M442.2,483.4h-26c-0.8,0-1.5-0.7-1.5-1.5V447c0-0.8,0.7-1.5,1.5-1.5h26c0.8,0,1.5,0.7,1.5,1.5v34.9
					C443.7,482.7,443.1,483.4,442.2,483.4z"/>
				<path class="st14" d="M442.2,483.4h-26c-0.8,0-1.5-0.7-1.5-1.5V447c0-0.8,0.7-1.5,1.5-1.5h26c0.8,0,1.5,0.7,1.5,1.5v34.9
					C443.7,482.7,443.1,483.4,442.2,483.4z"/>
			</g>
			<g>
				<rect x="419.1" y="450.9" class="st8" width="20.3" height="2"/>
				<rect x="419.1" y="454.5" class="st8" width="20.3" height="2"/>
				<rect x="419.1" y="458.1" class="st8" width="20.3" height="2"/>
				<rect x="419.1" y="461.7" class="st8" width="20.3" height="2"/>
				<rect x="419.1" y="465.2" class="st8" width="20.3" height="2"/>
				<rect x="419.1" y="468.8" class="st8" width="20.3" height="2"/>
				<rect x="419.1" y="472.4" class="st8" width="20.3" height="2"/>
				<rect x="419.1" y="476" class="st8" width="13.2" height="2"/>
			</g>
		</g>
		<g>
			<path class="st8" d="M620.5,279.7h-64.6c-0.8,0-1.5-0.7-1.5-1.5v-64.6c0-0.8,0.7-1.5,1.5-1.5h64.6c0.8,0,1.5,0.7,1.5,1.5v64.6
				C622,279,621.3,279.7,620.5,279.7z"/>
			<circle class="st13" cx="588.2" cy="245.9" r="22.8"/>
			<path class="st15" d="M588.2,245.9H611c0,12.5-10.3,22.8-22.8,22.8s-22.8-10.3-22.8-22.8s10.3-22.8,22.8-22.8
				c4,0,7.9,1.1,11.4,3.1L588.2,245.9z"/>
			<circle class="st8" cx="588.2" cy="245.9" r="17.6"/>
			<circle class="st27" cx="588.2" cy="245.9" r="17.6"/>
			<text transform="matrix(1 0 0 1 580.4746 249.3125)" class="st11 st2 st28">80%</text>
		</g>
		<g>
			<path class="st8" d="M557.5,406.2h-49.1c-0.6,0-1.2-0.5-1.2-1.2v-49.1c0-0.6,0.5-1.2,1.2-1.2h49.1c0.6,0,1.2,0.5,1.2,1.2V405
				C558.6,405.7,558.1,406.2,557.5,406.2z"/>
			<g>
				<g>
					<rect x="542.7" y="397.6" class="st13" width="6.6" height="3.4"/>
					<rect x="542.7" y="364" class="st11" width="6.6" height="3.4"/>
					<rect x="542.7" y="369.6" class="st11" width="6.6" height="3.4"/>
					<rect x="542.7" y="375.2" class="st29" width="6.6" height="3.4"/>
					<rect x="542.7" y="380.8" class="st13" width="6.6" height="3.4"/>
					<rect x="542.7" y="386.4" class="st13" width="6.6" height="3.4"/>
					<rect x="542.7" y="392" class="st13" width="6.6" height="3.4"/>
				</g>
				<g>
					<rect x="533.7" y="397.6" class="st13" width="6.6" height="3.4"/>
					<rect x="533.7" y="380.8" class="st11" width="6.6" height="3.4"/>
					<rect x="533.7" y="386.4" class="st29" width="6.6" height="3.4"/>
					<rect x="533.7" y="392" class="st13" width="6.6" height="3.4"/>
				</g>
				<g>
					<rect x="524.6" y="397.6" class="st13" width="6.6" height="3.4"/>
					<rect x="524.6" y="375.2" class="st11" width="6.6" height="3.4"/>
					<rect x="524.6" y="380.8" class="st29" width="6.6" height="3.4"/>
					<rect x="524.6" y="386.4" class="st13" width="6.6" height="3.4"/>
					<rect x="524.6" y="392" class="st13" width="6.6" height="3.4"/>
				</g>
				<g>
					<rect x="515.6" y="397.6" class="st13" width="6.6" height="3.4"/>
					<rect x="515.6" y="386.4" class="st11" width="6.6" height="3.4"/>
					<rect x="515.6" y="392" class="st29" width="6.6" height="3.4"/>
				</g>
			</g>
		</g>
		<g>
			<path class="st8" d="M518.1,158.6H469c-0.6,0-1.2-0.5-1.2-1.2v-49.1c0-0.6,0.5-1.2,1.2-1.2h49.1c0.6,0,1.2,0.5,1.2,1.2v49.1
				C519.3,158,518.7,158.6,518.1,158.6z"/>
			<g>
				<g>
					<path class="st30" d="M497.2,127.2V124l-1.7-0.2c-0.2-1.1-0.7-2.1-1.2-3l1.1-1.3l-2.3-2.3l-1.3,1.1c-0.9-0.6-1.9-1-3-1.2
						l-0.2-1.7h-3.2l-0.2,1.7c-1.1,0.2-2.1,0.7-3,1.2l-1.3-1.1l-2.3,2.3l1.1,1.3c-0.6,0.9-1,1.9-1.2,3L477,124v3.2l1.7,0.2
						c0.2,1.1,0.7,2.1,1.2,3l-1.1,1.3l2.3,2.3l1.3-1.1c0.9,0.6,1.9,1,3,1.2l0.2,1.7h3.2l0.2-1.7c1.1-0.2,2.1-0.7,3-1.2l1.3,1.1
						l2.3-2.3l-1.1-1.3c0.6-0.9,1-1.9,1.2-3L497.2,127.2z M487.1,130c-2.4,0-4.4-2-4.4-4.4s2-4.4,4.4-4.4s4.4,2,4.4,4.4
						S489.5,130,487.1,130z"/>
					<path class="st14" d="M510.3,136.3v-2.5l-1.3-0.1c-0.2-0.8-0.5-1.6-1-2.3l0.8-1l-1.8-1.8l-1,0.8c-0.7-0.5-1.5-0.8-2.3-1
						l-0.1-1.3h-2.5l-0.1,1.3c-0.8,0.2-1.6,0.5-2.3,1l-1-0.8l-1.8,1.8l0.8,1c-0.5,0.7-0.8,1.5-1,2.3l-1.3,0.1v2.5l1.3,0.1
						c0.2,0.8,0.5,1.6,1,2.3l-0.8,1l1.8,1.8l1-0.8c0.7,0.5,1.5,0.8,2.3,1l0.1,1.3h2.5l0.1-1.3c0.8-0.2,1.6-0.5,2.3-1l1,0.8l1.8-1.8
						l-0.8-1c0.5-0.7,0.8-1.5,1-2.3L510.3,136.3z M502.3,138.5c-1.9,0-3.4-1.5-3.4-3.4s1.5-3.4,3.4-3.4s3.4,1.5,3.4,3.4
						C505.8,136.9,504.2,138.5,502.3,138.5z"/>
					<path class="st31" d="M497.2,143.5v-2.1l-1.1-0.1c-0.1-0.7-0.4-1.4-0.8-2l0.7-0.8l-1.5-1.5l-0.8,0.7c-0.6-0.4-1.2-0.7-2-0.8
						l-0.1-1.1h-2.1l-0.1,1.1c-0.7,0.1-1.4,0.4-2,0.8l-0.8-0.7l-1.5,1.5l0.7,0.8c-0.4,0.6-0.7,1.2-0.8,2l-1.1,0.1v2.1l1.1,0.1
						c0.1,0.7,0.4,1.4,0.8,2l-0.7,0.8l1.5,1.5l0.8-0.7c0.6,0.4,1.2,0.7,2,0.8l0.1,1.1h2.1l0.1-1.1c0.7-0.1,1.4-0.4,2-0.8l0.8,0.7
						l1.5-1.5l-0.7-0.8c0.4-0.6,0.7-1.2,0.8-2L497.2,143.5z M490.6,145.3c-1.6,0-2.9-1.3-2.9-2.9c0-1.6,1.3-2.9,2.9-2.9
						s2.9,1.3,2.9,2.9C493.4,144,492.1,145.3,490.6,145.3z"/>
				</g>
			</g>
		</g>
		<g>
			<g>
				<rect x="469" y="191.9" class="st8" width="45.2" height="29.4"/>
				<rect x="469" y="191.9" class="st14" width="45.2" height="29.4"/>
			</g>
			<rect x="470.7" y="197.4" class="st8" width="41.9" height="22.4"/>
			<g>
				<rect x="474.1" y="200.8" class="st11" width="31" height="1"/>
				<rect x="474.1" y="203.7" class="st11" width="14.9" height="1"/>
				<rect x="474.1" y="206.7" class="st11" width="18.7" height="1"/>
				<rect x="474.1" y="209.6" class="st11" width="6.6" height="1"/>
				<rect x="474.1" y="212.6" class="st11" width="4.3" height="1"/>
			</g>
		</g>
		<g>
			<g>
				<rect x="541.1" y="416.2" class="st8" width="45.2" height="29.4"/>
				<rect x="541.1" y="416.2" class="st14" width="45.2" height="29.4"/>
			</g>
			<rect x="542.8" y="421.7" class="st8" width="41.9" height="22.4"/>
			<g>
				<rect x="546.2" y="425" class="st11" width="31" height="1"/>
				<rect x="546.2" y="428" class="st11" width="14.9" height="1"/>
				<rect x="546.2" y="431" class="st11" width="18.7" height="1"/>
				<rect x="546.2" y="433.9" class="st11" width="6.6" height="1"/>
				<rect x="546.2" y="436.9" class="st11" width="4.3" height="1"/>
			</g>
		</g>
		<g>
			<g>
				<rect x="272.1" y="245.2" class="st32" width="247" height="2.9"/>
			</g>
			<g>
				<path class="st32" d="M260.3,233.4h-2.9v-17.6c0-0.4,0.2-0.8,0.4-1l90-89.7c0.3-0.3,0.6-0.4,1-0.4h82.1v2.9h-81.5l-89.1,88.9
					V233.4z"/>
			</g>
			<g>
				<path class="st32" d="M473.5,382H363.2c-0.4,0-0.8-0.2-1-0.4L257.8,277.1c-0.3-0.3-0.4-0.6-0.4-1v-14.7h2.9v14.1L363.8,379
					h109.7V382z"/>
			</g>
			<g>
				<path class="st32" d="M400,287.9h-59.1c-0.4,0-0.8-0.2-1-0.4L300.2,248l2.1-2.1l39.3,39H400V287.9z"/>
			</g>
			<g>
				<path class="st32" d="M359.1,247.8l-2.1-2.1l39.6-39.8c0.3-0.3,0.7-0.4,1-0.4h59.7v2.9h-59.1L359.1,247.8z"/>
			</g>
			<g>
				<path class="st32" d="M583.8,173.1H350.3c-0.4,0-0.8-0.2-1-0.4L325.9,149l2.1-2.1l23,23.2h232.9v3H583.8z"/>
			</g>
			<g>
				<path class="st32" d="M375.6,127.1l-2.1-2.1l38.2-38.2c0.3-0.3,0.6-0.4,1-0.4h122.6v2.9h-122L375.6,127.1z"/>
			</g>
			<g>
				<path class="st32" d="M399.5,454.1l-59.3-59.3c-0.3-0.3-0.4-0.6-0.4-1v-35.3h2.9v34.7l58.9,58.9L399.5,454.1z"/>
			</g>
			<g>
				<path class="st32" d="M386.1,381.1L384,379l39-39.2c0.3-0.3,0.7-0.4,1-0.4h148v2.9H424.7L386.1,381.1z"/>
			</g>
			<g>
				<path class="st32" d="M523.5,423.2h-65.9c-0.4,0-0.8-0.2-1-0.4l-41.4-41.4l2.1-2.1l41,41h65.3v2.9H523.5z"/>
			</g>
			<g>
				<circle class="st32" cx="535.3" cy="87.8" r="6.7"/>
			</g>
			<g>
				<path class="st32" d="M444.1,141.6c-8.6,0-15.6-7-15.6-15.6s7-15.6,15.6-15.6s15.6,7,15.6,15.6S452.7,141.6,444.1,141.6z
					 M444.1,113.5c-7,0-12.6,5.7-12.6,12.6c0,7,5.7,12.6,12.6,12.6s12.6-5.7,12.6-12.6C456.8,119.1,451.1,113.5,444.1,113.5z"/>
			</g>
			<g>
				<path class="st32" d="M590.6,171.9c0,3.7-3,6.7-6.7,6.7s-6.7-3-6.7-6.7s3-6.7,6.7-6.7S590.6,168.2,590.6,171.9z"/>
			</g>
			<g>
				<circle class="st32" cx="457.4" cy="207" r="6.7"/>
			</g>
			<g>
				<path class="st32" d="M532.4,262.2c-8.6,0-15.6-7-15.6-15.6s7-15.6,15.6-15.6s15.6,7,15.6,15.6
					C547.9,255.3,541,262.2,532.4,262.2z M532.4,234.1c-7,0-12.6,5.7-12.6,12.6c0,7,5.7,12.6,12.6,12.6s12.6-5.7,12.6-12.6
					C545,239.7,539.3,234.1,532.4,234.1z"/>
			</g>
			<g>
				<circle class="st32" cx="400" cy="286.4" r="6.7"/>
			</g>
			<g>
				<circle class="st32" cx="572.1" cy="340.8" r="6.7"/>
			</g>
			<g>
				<path class="st32" d="M486.8,395.8c-8.6,0-15.6-7-15.6-15.6s7-15.6,15.6-15.6s15.6,7,15.6,15.6
					C502.3,388.8,495.4,395.8,486.8,395.8z M486.8,367.6c-7,0-12.6,5.7-12.6,12.6c0,7,5.7,12.6,12.6,12.6s12.6-5.7,12.6-12.6
					C499.4,373.3,493.7,367.6,486.8,367.6z"/>
			</g>
			<g>
				<circle class="st32" cx="523.5" cy="421.7" r="6.7"/>
			</g>
			<g>
				<path class="st32" d="M407.2,453.1c0,3.7-3,6.7-6.7,6.7s-6.7-3-6.7-6.7s3-6.7,6.7-6.7S407.2,449.3,407.2,453.1z"/>
			</g>
			<g>
				<g>
					<path class="st32" d="M258.8,263.8c-9.4,0-17.1-7.7-17.1-17.1s7.7-17.1,17.1-17.1c9.4,0,17.1,7.7,17.1,17.1
						C275.9,256.1,268.3,263.8,258.8,263.8z M258.8,234c-7,0-12.7,5.7-12.7,12.7s5.7,12.7,12.7,12.7s12.7-5.7,12.7-12.7
						S265.8,234,258.8,234z"/>
				</g>
			</g>
		</g>
	</g>
</g>
</svg>
