<?xml version="1.0" encoding="utf-8"?>
<!-- Generator: Adobe Illustrator 22.0.0, SVG Export Plug-In . SVG Version: 6.00 Build 0)  -->
<svg version="1.1" id="Layer_1" xmlns="http://www.w3.org/2000/svg" xmlns:xlink="http://www.w3.org/1999/xlink" x="0px" y="0px"
	 viewBox="0 0 650 650" style="enable-background:new 0 0 650 650;" xml:space="preserve">
<style type="text/css">
	.st0{opacity:0.13;fill:url(#SVGID_1_);enable-background:new    ;}
	.st1{fill:#D1E3FF;}
	.st2{fill:#D8E3E7;}
	.st3{fill:#EEF9FF;}
	.st4{fill:#F5FCFF;}
	.st5{fill:#FFFFFF;}
	.st6{fill:#EBF3FF;}
	.st7{fill:#F3F8FF;}
	.st8{opacity:0.3;fill:#132C33;enable-background:new    ;}
	.st9{opacity:0.2;fill:#318FFF;enable-background:new    ;}
	.st10{fill:#132C33;}
	.st11{fill:#126E82;}
	.st12{fill:#9FC6FF;}
	.st13{opacity:0.31;fill:#132C33;enable-background:new    ;}
	.st14{opacity:0.13;fill:#D4E8FF;enable-background:new    ;}
	.st15{opacity:0.4;fill:#D4E8FF;enable-background:new    ;}
	.st16{fill:#275A69;}
	.st17{fill:#FF8B7B;}
	.st18{fill:#0053CC;}
	.st19{fill:#0F264C;}
	.st20{fill:#FF5652;}
	.st21{fill:#EA7063;}
	.st22{fill:#77B3FC;}
	.st23{fill:#FF5744;}
</style>
<title>Artboard 9 copy 32</title>
<g>
	
		<radialGradient id="SVGID_1_" cx="325" cy="327" r="316.2" gradientTransform="matrix(1 0 0 -1 0 652)" gradientUnits="userSpaceOnUse">
		<stop  offset="0" style="stop-color:#252525"/>
		<stop  offset="0.8587" style="stop-color:#252525;stop-opacity:0.1413"/>
		<stop  offset="1" style="stop-color:#252525;stop-opacity:0"/>
	</radialGradient>
	<circle class="st0" cx="325" cy="325" r="316.2"/>
	<g>
		<g>
			<g>
				<g>
					<g>
						<rect x="4.1" y="506.2" class="st1" width="641.9" height="0.3"/>
						<rect x="487.2" y="516" class="st1" width="21.6" height="0.3"/>
						<rect x="522.7" y="515.8" class="st1" width="57.2" height="0.3"/>
						<rect x="344.6" y="518" class="st1" width="71.2" height="0.3"/>
						<rect x="310.6" y="518" class="st1" width="26.6" height="0.3"/>
						<rect x="186.9" y="515.5" class="st1" width="11.7" height="0.3"/>
						<rect x="205.8" y="515.5" class="st1" width="19.3" height="0.3"/>
						<rect x="89.9" y="521.3" class="st1" width="85.4" height="0.3"/>
						<path class="st1" d="M308.3,448.9H60.4c-4,0-7.3-3.3-7.3-7.3V93.2c0-4,3.3-7.3,7.3-7.3h247.9c4,0,7.3,3.3,7.3,7.3v348.5
							C315.7,445.7,312.4,448.9,308.3,448.9z M60.4,86.1c-3.9,0-7,3.1-7,7v348.5c0,3.9,3.1,7,7,7h247.9c3.9,0,7-3.1,7-7V93.2
							c0-3.9-3.1-7-7-7L60.4,86.1L60.4,86.1z"/>
						<path class="st1" d="M586,448.9H338.1c-4,0-7.3-3.3-7.3-7.3V93.2c0-4,3.3-7.3,7.3-7.3H586c4,0,7.3,3.3,7.3,7.3v348.5
							C593.3,445.7,590,448.9,586,448.9z M338.1,86.1c-3.9,0-7,3.1-7,7v348.5c0,3.9,3.1,7,7,7H586c3.9,0,7-3.1,7-7V93.2
							c0-3.9-3.1-7-7-7L338.1,86.1L338.1,86.1z"/>
					</g>
				</g>
			</g>
			<g>
				<g>
					<rect x="351.2" y="349.8" class="st2" width="60.8" height="156.4"/>
					<polygon class="st3" points="400.5,506.2 412,506.2 412,473.3 388.4,473.3 					"/>
					<rect x="124" y="349.8" class="st2" width="60.8" height="156.4"/>
					<rect x="174.7" y="349.8" class="st3" width="237.3" height="136.3"/>
					<rect x="297.2" y="359.7" class="st2" width="105.8" height="85.3"/>
					<rect x="183.7" y="359.7" class="st2" width="105.8" height="85.3"/>
					<rect x="297.3" y="467.1" class="st2" width="105.8" height="6.3"/>
					<rect x="183.7" y="467" class="st2" width="105.8" height="6.3"/>
					<rect x="297.2" y="454.9" class="st2" width="105.8" height="6.3"/>
					<rect x="183.7" y="454.9" class="st2" width="105.8" height="6.3"/>
					<path class="st3" d="M247.1,368.8h-20.9c-9.1,0-17.8-3.7-24-10.3l0,0h69l0,0C264.8,365.1,256.2,368.8,247.1,368.8z"/>
					<path class="st3" d="M361.7,368.8h-20.9c-9.1,0-17.8-3.7-24-10.3l0,0h69l0,0C379.5,365.1,370.8,368.8,361.7,368.8z"/>
					<polygon class="st3" points="186.3,506.2 174.7,506.2 174.7,473.3 198.4,473.3 					"/>
				</g>
				<g>
					<g>
						<rect x="91.8" y="110.3" class="st2" width="318.9" height="182.2"/>
						<path class="st2" d="M428.4,104.6H81.1c-0.9,0-1.6,0.7-1.6,1.6l0,0c0,0.9,0.7,1.6,1.6,1.6h347.2c0.9,0,1.6-0.7,1.6-1.6l0,0
							C430,105.4,429.3,104.6,428.4,104.6z"/>
						<rect x="95.1" y="110.3" class="st2" width="322.6" height="182.2"/>
						<rect x="91.8" y="292.4" class="st2" width="318.9" height="13"/>
						<rect x="106.7" y="292.4" class="st2" width="322.6" height="13"/>
						<rect x="104.8" y="120.1" class="st4" width="303.1" height="162.6"/>
						<polygon class="st5" points="254.8,282.7 312.2,120 339.3,120 281.9,282.7 						"/>
						<polygon class="st5" points="287.7,282.7 345.1,120 355.7,120 298.3,282.7 						"/>
						<rect x="406.7" y="120.1" class="st2" width="1.2" height="162.6"/>
					</g>
					<g>
						<rect x="88.1" y="101.7" class="st6" width="16.8" height="156.9"/>
						<rect x="98.4" y="101.7" class="st2" width="13.1" height="156.9"/>
						<rect x="105" y="101.7" class="st6" width="16.8" height="156.9"/>
						<rect x="115.2" y="101.7" class="st2" width="13.1" height="156.9"/>
						<rect x="121.8" y="101.7" class="st6" width="16.8" height="156.9"/>
					</g>
					<g>
						<rect x="392" y="101.7" class="st6" width="9.7" height="156.9"/>
						<rect x="397.9" y="101.7" class="st2" width="7.6" height="156.9"/>
						<rect x="401.7" y="101.7" class="st6" width="9.7" height="156.9"/>
						<rect x="407.6" y="101.7" class="st2" width="7.6" height="156.9"/>
						<rect x="411.4" y="101.7" class="st6" width="9.7" height="156.9"/>
					</g>
				</g>
				<g>
					<rect x="487.7" y="169.8" class="st2" width="21.5" height="58.7"/>
					<g>
						<g>
							<polygon class="st7" points="479.6,238.3 474.6,251.9 479.6,251.9 510,238.3 							"/>
							<polygon class="st2" points="474.6,238.3 474.6,251.9 505.1,238.3 							"/>
						</g>
						<g>
							<polygon class="st7" points="531.7,238.3 526.7,251.9 531.7,251.9 562.1,238.3 							"/>
							<polygon class="st2" points="526.7,238.3 526.7,251.9 557.2,238.3 							"/>
						</g>
						<g>
							<rect x="452.3" y="228.6" class="st2" width="33.1" height="10.3"/>
							<rect x="485.4" y="228.6" class="st7" width="94.5" height="10.3"/>
						</g>
					</g>
					<g>
						<polygon class="st2" points="545.1,228.5 492.7,228.5 486.3,157.4 538.6,157.4 						"/>
						<polygon class="st3" points="547.8,228.5 495.4,228.5 489,157.4 541.3,157.4 						"/>
						<polygon class="st5" points="502.6,220.6 497.6,165.2 534.2,165.2 539.2,220.6 						"/>
					</g>
				</g>
				<g>
					<path class="st2" d="M206.1,326.9c0,0-22.6-38.9,8.7-69.9c0,0,8.2,5.3,8,12.5c-0.1,7.2-8.8,9-6.9,15c1.9,6,10,11.8,4.7,16.8
						c-5.3,4.9,0.9,9.3,0.5,15.4S206.1,326.9,206.1,326.9z"/>
					<path class="st2" d="M207.8,330.5c0,0,9.2-44.1-30.3-63.6c0,0-6.1,7.6-3.7,14.4c2.4,6.8,11.1,5.8,11.3,12
						c0.1,6.3-5.8,14.4,0.9,17.4c6.6,3,2.1,9.1,4.4,14.8C192.6,331.1,207.8,330.5,207.8,330.5z"/>
					<path class="st3" d="M173.3,320.7c0,0,0.8,29,29.5,29c28.8,0,29.5-29,29.5-29H173.3z"/>
				</g>
				<g>
					<path class="st6" d="M512.9,506.2h2.9l8.4-41.3l1.5-7.2l9.1-45h35l19,93.5h2.9L572.4,411c-0.1-0.7-0.7-1.1-1.4-1.1h-37.4
						c-0.7,0-1.3,0.5-1.4,1.1l-8,39.5l-1.5,7.2L512.9,506.2z"/>
					<path class="st6" d="M456.6,506.2h2.9l19-93.5h35l9.1,45l1.5,7.2l8.4,41.3h2.9l-9.8-48.5l-1.5-7.2l-8-39.5
						c-0.1-0.7-0.7-1.1-1.4-1.1h-37.4c-0.7,0-1.3,0.5-1.4,1.1L456.6,506.2z"/>
					<path class="st2" d="M543,411.3h-64.4c-12.3,0-22.3-9.8-22.6-22.1l-2.4-97.8c-0.2-9.2,7.2-16.8,16.4-16.8h40.4
						c8.4,0,15.4,6.3,16.3,14.6L543,411.3z"/>
					<path class="st2" d="M572.9,398.9h-65v12.3h69.3c1.4,0,2.5-1.1,2.5-2.5v-3.1C579.7,402,576.7,398.9,572.9,398.9z"/>
				</g>
			</g>
		</g>
		<g>
			<ellipse class="st8" cx="325" cy="549.6" rx="248.9" ry="14.5"/>
			<g>
				<g>
					<path class="st9" d="M243.5,180C243.5,179.9,243.6,179.9,243.5,180C243.6,179.9,243.5,179.9,243.5,180c0-2.5-0.2-4.8-0.6-7.2
						c-1.9-11.8-8.3-22.1-18-29.1c-7.6-5.5-16.6-8.4-25.8-8.5c-0.1,0-0.2,0-0.3,0l0,0l0,0c-2.4,0-4.8,0.2-7.1,0.6
						c-11.8,1.9-22.1,8.3-29.1,18c-0.7,0.9-1.3,1.9-1.9,2.9c0,0.1-0.1,0.1-0.1,0.2c-4.2,7-6.5,14.9-6.5,23.1c0,0,0,0,0,0.1l0,0
						c0,2.4,0.2,4.8,0.6,7.1c1.9,11.8,8.3,22.1,18,29.1c7.7,5.6,16.8,8.5,26.1,8.5c2.4,0,4.8-0.2,7.2-0.6c11.8-1.9,22.1-8.3,29.1-18
						c0.7-0.9,1.3-1.9,1.9-2.9c0-0.1,0.1-0.1,0.1-0.2C241.3,196,243.6,188.1,243.5,180z M155.9,179c0.2-7.3,2.2-14.4,5.9-20.8h14
						c-2,6.3-3.2,13.4-3.3,20.8H155.9z M177.8,158.2h20V179h-23.3C174.5,171.5,175.7,164.3,177.8,158.2z M199.7,156.2V137
						c2.6,0.2,5.3,1.1,7.8,2.9c4.8,3.3,8.7,9,11.5,16.3H199.7z M219.7,158.2c1.5,4.5,2.6,9.5,3.1,14.8c0.2,2,0.3,4,0.3,6h-23.3
						v-20.8H219.7z M195,137.6c0.9-0.3,1.9-0.4,2.8-0.5v19.1h-19.3C182.1,146.6,188,139.5,195,137.6z M197.8,180.9v20.8h-19.9
						c-1.5-4.5-2.6-9.5-3.1-14.8c-0.2-2-0.3-4-0.3-6H197.8z M197.8,203.6v19.2c-2.6-0.2-5.3-1.1-7.8-2.9c-4.8-3.3-8.7-9-11.5-16.3
						H197.8z M202.5,222.3c-0.9,0.3-1.9,0.4-2.8,0.5v-19.1H219C215.4,213.2,209.6,220.3,202.5,222.3z M199.7,201.7v-20.8H223
						c-0.1,7.5-1.3,14.6-3.4,20.8H199.7z M225,180.9h16.6c-0.2,7.3-2.2,14.4-5.9,20.8h-14C223.7,195.4,224.9,188.3,225,180.9z
						 M241.6,179H225c0-2-0.1-4.1-0.3-6.1c-0.5-5.2-1.5-10.2-2.9-14.6h14c2.7,4.5,4.5,9.6,5.4,14.9C241.4,175,241.6,177,241.6,179z
						 M223.8,145.1c4.3,3.1,7.9,6.8,10.7,11.1h-13.4c-2.9-8-7.2-14.2-12.5-17.9c-0.1-0.1-0.3-0.2-0.4-0.3
						C213.7,139.3,219,141.7,223.8,145.1z M189.3,138.1c-5.4,3.5-9.8,10-12.8,18.1H163c0.3-0.5,0.6-0.9,0.9-1.4
						C170.2,146.3,179.1,140.4,189.3,138.1z M155.9,180.9h16.6c0,2,0.1,4.1,0.3,6.1c0.5,5.2,1.5,10.2,2.9,14.6h-14
						c-2.7-4.5-4.5-9.6-5.4-14.9C156.1,184.8,155.9,182.8,155.9,180.9z M163,203.6h13.4c2.9,8,7.2,14.2,12.5,17.9
						c0.1,0.1,0.3,0.2,0.4,0.3c-5.6-1.3-10.9-3.6-15.7-7.1C169.4,211.6,165.8,207.8,163,203.6z M208.2,221.7
						c5.4-3.5,9.8-10,12.8-18.1h13.5c-0.3,0.5-0.6,0.9-0.9,1.4C227.3,213.6,218.4,219.4,208.2,221.7z"/>
					<g>
						<rect x="132.3" y="201.3" class="st2" width="403.6" height="97.8"/>
						<rect x="123.2" y="210.4" class="st10" width="403.6" height="97.8"/>
						<rect x="114.1" y="219.5" class="st11" width="403.6" height="97.8"/>
						<rect x="133.4" y="238.8" class="st5" width="365.1" height="59.3"/>
						<rect x="437" y="238.7" class="st2" width="2.1" height="59.3"/>
						<rect x="142.4" y="246.9" class="st2" width="2.1" height="42.9"/>
						<g>
							<path class="st2" d="M466.8,275.8c-2.4,0-4.9-0.9-6.7-2.8c-3.7-3.7-3.7-9.7,0-13.4c3.7-3.7,9.7-3.7,13.4,0l0,0
								c3.7,3.7,3.7,9.7,0,13.4C471.6,274.9,469.2,275.8,466.8,275.8z M466.8,259.4c-1.8,0-3.5,0.7-4.9,2c-2.7,2.7-2.7,7.1,0,9.8
								c2.7,2.7,7.1,2.7,9.8,0c2.7-2.7,2.7-7.1,0-9.8l0,0C470.3,260.1,468.5,259.4,466.8,259.4z"/>
							<path class="st2" d="M479,279.9c-0.3,0-0.7-0.1-0.9-0.4l-6.5-6.5c-0.5-0.5-0.5-1.3,0-1.8s1.3-0.5,1.8,0l6.5,6.5
								c0.5,0.5,0.5,1.3,0,1.8C479.7,279.8,479.4,279.9,479,279.9z"/>
						</g>
					</g>
					<g>
						<rect x="339.3" y="142.2" class="st12" width="40.4" height="1"/>
						<rect x="339.3" y="146.4" class="st12" width="40.4" height="1"/>
						<rect x="339.3" y="150.7" class="st12" width="40.4" height="1"/>
						<rect x="339.3" y="154.9" class="st12" width="40.4" height="1"/>
						<rect x="339.3" y="159.2" class="st12" width="40.4" height="1"/>
						<rect x="339.3" y="163.5" class="st12" width="26.3" height="1"/>
					</g>
					<g>
						<rect x="93.7" y="325.7" class="st12" width="43" height="0.6"/>
						<rect x="93.7" y="328.5" class="st12" width="43" height="0.6"/>
						<rect x="93.7" y="331.2" class="st12" width="43" height="0.6"/>
						<rect x="93.7" y="333.9" class="st12" width="43" height="0.6"/>
						<rect x="93.7" y="336.6" class="st12" width="43" height="0.6"/>
						<rect x="93.7" y="339.4" class="st12" width="27" height="0.6"/>
					</g>
					<g>
						<path class="st11" d="M278.1,148.5L278.1,148.5c-4.5,0-8.1,3.6-8.1,8.1v26.8c0,4.5,3.6,8.1,8.1,8.1l0,0c4.5,0,8.1-3.6,8.1-8.1
							v-26.8C286.2,152.1,282.6,148.5,278.1,148.5z"/>
						<path class="st10" d="M298.4,132.5L298.4,132.5c-4.5,0-8.1,3.6-8.1,8.1v42.7c0,4.5,3.6,8.1,8.1,8.1l0,0c4.5,0,8.1-3.6,8.1-8.1
							v-42.7C306.5,136.2,302.9,132.5,298.4,132.5z"/>
						<path class="st2" d="M318.7,164.4L318.7,164.4c-4.5,0-8.1,3.6-8.1,8.1v10.8c0,4.5,3.6,8.1,8.1,8.1l0,0c4.5,0,8.1-3.6,8.1-8.1
							v-10.8C326.9,168.1,323.2,164.4,318.7,164.4z"/>
					</g>
					<g>
						<g>
							<polyline class="st10" points="490.1,347.9 522.9,347.9 466.9,289.9 466.9,289.9 490.1,347.9 							"/>
						</g>
						<polygon class="st13" points="458.6,317.3 466.9,289.9 471.6,317.3 						"/>
						<polygon class="st11" points="466.9,289.9 466.9,371.1 472.7,365.3 490.1,347.9 						"/>
					</g>
					<g>
						<g>
							<path class="st10" d="M524.9,115.6H453c-7.5,0-13.8,6.2-13.8,13.8v37.1c0,7.5,6.2,13.8,13.8,13.8h52.7l-0.4,13l13.3-13h6.2
								c7.5,0,13.8-6.2,13.8-13.8v-37.1C538.7,121.8,532.5,115.6,524.9,115.6z M451.4,131.4c0-2.1,1.7-3.8,3.8-3.8h16.5
								c2.1,0,3.8,1.7,3.8,3.8s-1.7,3.8-3.8,3.8h-16.5C453.1,135.2,451.4,133.4,451.4,131.4z M520.8,167.3h-28.6
								c-2.1,0-3.8-1.7-3.8-3.8s1.7-3.8,3.8-3.8h28.6c2.1,0,3.8,1.7,3.8,3.8S522.9,167.3,520.8,167.3z M520.8,151.2h-61.7
								c-2.1,0-3.8-1.7-3.8-3.8s1.7-3.8,3.8-3.8h61.7c2.1,0,3.8,1.7,3.8,3.8C524.6,149.6,522.9,151.2,520.8,151.2z M520.8,135.2
								h-36.5c-2.1,0-3.8-1.7-3.8-3.8s1.7-3.8,3.8-3.8h36.5c2.1,0,3.8,1.7,3.8,3.8C524.6,133.4,522.9,135.2,520.8,135.2z"/>
						</g>
					</g>
				</g>
				<g>
					<g>
						<path class="st2" d="M412.5,233.2c-3.1-8.5-7.8-16.2-13.8-22.8H296.6c-6,6.6-10.7,14.3-13.8,22.8l14.1,70.3
							c11.9,12.9,28.6,21.3,47.5,22.2c21.2,1,40.6-7.7,53.9-22.2c10.6-11.5,17.4-26.7,18.2-43.6C417,250.6,415.5,241.5,412.5,233.2z
							"/>
						<path class="st5" d="M416.5,260c-0.8,16.9-7.6,32-18.2,43.6H296.9c-12-13.1-19.1-30.7-18.2-49.9c0.3-7.2,1.7-14,4.1-20.4
							h129.7C415.5,241.5,417,250.6,416.5,260z"/>
						<path class="st14" d="M416.5,260c-0.8,16.9-7.6,32-18.2,43.6c-13.3,14.5-32.7,23.1-53.9,22.2c-18.9-0.9-35.7-9.3-47.5-22.2
							c-12-13.1-19.1-30.7-18.2-49.9c0.3-7.2,1.7-14,4.1-20.4c3.1-8.5,7.8-16.3,13.8-22.8c13.3-14.6,32.9-23.5,54.2-22.5
							c19.1,0.9,36,9.4,47.9,22.5c6,6.6,10.7,14.3,13.8,22.8C415.5,241.5,417,250.6,416.5,260z"/>
						<path class="st15" d="M386.5,199.8l-99.2,90.5c-0.5-0.9-1-1.8-1.5-2.8c-3-6-5.1-12.5-6.2-19.2l0,0l85.7-78.1
							C373,192.2,380.1,195.5,386.5,199.8z"/>
						<path class="st15" d="M413.1,234.9l-93.3,85c-9.8-4.3-18.3-10.8-25-18.8l101.8-92.9C404,215.7,409.7,224.8,413.1,234.9z"/>
						<path class="st16" d="M416.5,217c-22-38-70.6-51.1-108.7-29.1c-38,22-51.1,70.6-29.1,108.7c22,38,70.6,51.1,108.7,29.1
							C425.5,303.7,438.5,255.1,416.5,217z M293.3,288.2c-17.3-30-7.1-68.4,23-85.7c30-17.3,68.4-7.1,85.7,23
							c17.3,30,7.1,68.4-23,85.7C349,328.5,310.6,318.2,293.3,288.2z"/>
						<g>
							<path class="st17" d="M164.6,338.7l9.8,2.3l-8.1,6.1c0,0-5.8-2.7-6.1-6.8L164.6,338.7z"/>
							<polygon class="st17" points="179.7,347.5 172.6,352.2 166.3,347 174.4,340.9 							"/>
						</g>
						<path class="st16" d="M290.9,298.7c-10.5,7.7-21.2,15-31.9,22.2c-10.8,7.1-21.7,14.1-32.6,21c-11,6.8-22,13.5-33.1,20.1
							c-5.5,3.3-11.1,6.5-16.7,9.8c-2.8,1.7-5.7,3.1-8.9,3.9c-1.6,0.4-3.3,0.7-5.1,0.9c-1.8,0.1-3.7,0.1-5.8-0.3
							c-5.7-1.1-9.4-6.7-8.3-12.4c0.1-0.4,0.2-0.9,0.4-1.3c0.7-2,1.6-3.6,2.6-5.1s2.1-2.8,3.3-4c2.4-2.4,5-4.2,7.9-5.7
							c5.6-3.2,11.2-6.4,16.8-9.6c11.2-6.4,22.6-12.5,34-18.7c11.4-6.1,22.9-12,34.5-17.8c11.6-5.8,23.2-11.4,35.2-16.6
							c4-1.8,8.7,0.1,10.5,4.1C295,292.6,293.9,296.6,290.9,298.7z"/>
					</g>
					<g>
						<path class="st17" d="M178.9,277.8c-0.6,1-1.4,2.3-2.1,3.5c-0.7,1.2-1.4,2.4-2,3.7c-1.3,2.5-2.6,4.9-3.8,7.5
							c-1.2,2.5-2.3,5.1-3.4,7.7c-0.5,1.3-1,2.6-1.5,3.9l-0.7,2c-0.1,0.4-0.2,0.5-0.3,0.8c-0.1,0.2-0.1,0.5-0.2,0.8
							c-0.5,2.3-0.7,5-0.8,7.7c-0.1,2.8,0,5.6,0.1,8.4s0.3,5.7,0.6,8.5c0.2,2.9,0.5,5.7,0.8,8.6l-5,1c-0.9-2.9-1.5-5.7-2.2-8.6
							c-0.6-2.9-1.2-5.8-1.7-8.7c-0.5-2.9-0.8-5.9-1.1-9c-0.2-3.1-0.3-6.2,0.2-9.6c0.1-0.4,0.1-0.9,0.3-1.3c0.1-0.4,0.2-1,0.3-1.3
							l0.6-2.2c0.4-1.5,0.9-2.9,1.4-4.3c1-2.9,2.1-5.7,3.3-8.4c1.2-2.8,2.5-5.5,3.9-8.2c0.7-1.3,1.4-2.7,2.2-4s1.5-2.6,2.5-4
							L178.9,277.8z"/>
						<path class="st18" d="M173.4,542.9c-0.9,0-1.9-0.2-2.6-0.4c-0.1,0-0.2-0.1-0.2-0.2c0-0.1,0-0.2,0.1-0.2
							c0.3-0.2,3.4-2.2,4.5-1.7c0.2,0.1,0.4,0.3,0.5,0.7c0.1,0.5-0.1,1-0.4,1.3C174.9,542.8,174.1,542.9,173.4,542.9z M171.4,542.2
							c1.7,0.3,3.1,0.3,3.6-0.2c0.2-0.2,0.3-0.5,0.2-0.8c0-0.2-0.1-0.3-0.2-0.3C174.4,540.6,172.6,541.5,171.4,542.2z"/>
						<path class="st18" d="M170.8,542.6h-0.1c-0.1,0-0.1-0.1-0.1-0.2c0-0.1,0-3,1.1-4c0.3-0.3,0.6-0.4,1-0.3
							c0.6,0.1,0.8,0.4,0.8,0.7c0.2,1.1-1.6,3.3-2.5,3.8C170.9,542.6,170.8,542.6,170.8,542.6z M172.5,538.5c-0.2,0-0.4,0.1-0.5,0.2
							c-0.6,0.6-0.9,2.2-0.9,3.1c1-0.8,2.1-2.4,1.9-3.1c0-0.1-0.1-0.2-0.4-0.3C172.6,538.5,172.5,538.5,172.5,538.5z"/>
						<path class="st18" d="M218.8,542.9c-1.1,0-2.3-0.2-3.1-0.4c-0.1,0-0.2-0.1-0.2-0.2c0-0.1,0-0.2,0.1-0.2
							c0.4-0.2,4.4-2.3,5.7-1.6c0.2,0.1,0.4,0.3,0.4,0.6c0,0.5-0.1,0.9-0.4,1.2C220.8,542.8,219.8,542.9,218.8,542.9z M216.5,542.2
							c2.2,0.4,3.9,0.3,4.5-0.3c0.2-0.2,0.3-0.4,0.3-0.8c0-0.1-0.1-0.2-0.2-0.3C220.4,540.6,218.1,541.4,216.5,542.2z"/>
						<path class="st18" d="M215.7,542.6h-0.1c-0.1,0-0.1-0.1-0.1-0.2c0-0.1,0.2-2.8,1.5-3.9c0.4-0.3,0.8-0.5,1.3-0.4
							c0.7,0.1,0.8,0.4,0.9,0.7C219.4,539.8,217,542,215.7,542.6C215.8,542.6,215.8,542.6,215.7,542.6z M218.1,538.5
							c-0.3,0-0.6,0.1-0.8,0.3c-0.8,0.7-1.2,2.3-1.3,3.1c1.2-0.7,2.8-2.4,2.7-3.1C218.7,538.7,218.7,538.6,218.1,538.5
							C218.2,538.5,218.2,538.5,218.1,538.5z"/>
						<path class="st17" d="M194,239.3c0.8,6,2.6,18.1-1.8,21.8c0,0,1.2,6.1,12.2,6.8c12.1,0.8,6.2-5.6,6.2-5.6
							c-6.5-2-6-6.9-4.6-11.4L194,239.3z"/>
						<path class="st19" d="M216.5,227.1c-0.1,0-0.2,0-0.2-0.1c-0.2-0.1-0.3-0.4-0.2-0.6c1.2-2.3,3.4-2.5,3.5-2.5
							c0.3,0,0.5,0.2,0.5,0.4c0,0.3-0.2,0.5-0.4,0.5l0,0c-0.1,0-1.8,0.2-2.8,2C216.8,227,216.7,227.1,216.5,227.1z"/>
						<path class="st20" d="M219.9,232.4c0,0,1.7,3.3,3.3,4.9c-1,1.1-2.8,0.8-2.8,0.8L219.9,232.4z"/>
						<path class="st19" d="M219.1,231.1c0.1,0.8,0.6,1.4,1.1,1.4s0.9-0.7,0.8-1.5c-0.1-0.8-0.6-1.4-1.1-1.4
							C219.4,229.6,219,230.3,219.1,231.1z"/>
						<path class="st19" d="M219.7,229.6l1.9-0.7C221.5,228.8,220.7,230.4,219.7,229.6z"/>
						<polygon class="st17" points="204.8,542.3 214.7,542.3 215.4,519.2 205.4,519.2 						"/>
						<polygon class="st17" points="159.3,542.3 169.3,542.3 172.6,519.2 162.6,519.2 						"/>
						<path class="st19" d="M170,541.2h-11.2c-0.4,0-0.7,0.3-0.8,0.7l-1.3,8.9c-0.1,0.9,0.7,1.8,1.6,1.8c3.9-0.1,5.8-0.3,10.7-0.3
							c3,0,7.5,0.3,11.7,0.3c4.1,0,4.4-4.1,2.7-4.5c-7.8-1.7-9.1-4-11.7-6.2C171.2,541.4,170.6,541.2,170,541.2z"/>
						<path class="st19" d="M215.1,541.2h-11.2c-0.4,0-0.7,0.3-0.8,0.7l-1.3,8.9c-0.1,0.9,0.7,1.8,1.6,1.8c3.9-0.1,5.8-0.3,10.7-0.3
							c3,0,9.3,0.3,13.5,0.3c4.1,0,4.4-4.1,2.7-4.5c-7.8-1.7-10.9-4-13.6-6.2C216.3,541.4,215.7,541.2,215.1,541.2z"/>
						<g>
							<polygon class="st21" points="215.4,519.2 215.1,531.1 205.1,531.1 205.4,519.2 							"/>
							<polygon class="st21" points="162.6,519.2 172.6,519.2 170.9,531.1 160.9,531.1 							"/>
						</g>
						<path class="st2" d="M183.1,279.4c-2.6,4.3-6.6,8.2-6.6,8.2l-1.1-0.8l-12.7-8.5c0,0,6.9-15.3,12.1-16.1
							c5-0.8,8.6,4.3,10.3,9.8C185.8,274.1,184.7,276.8,183.1,279.4z"/>
						<path class="st22" d="M183.1,279.4c-2.6,4.3-6.6,8.2-6.6,8.2l-1.1-0.8c0.6-4.6,2.4-9.2,4.4-10.7
							C181.1,276.3,182.2,277.7,183.1,279.4z"/>
						<path class="st2" d="M226.4,287.1L226.4,287.1c-0.6,3.9-1.4,8.4-2.4,13.8c-1.3,6.9-3.1,15.1-5.4,25
							c-16.1-1.1-32.7-2.1-40.5-2.6c1.7-16.4,2.4-26.6-3.3-61c0,0,8.6-1.3,17.4-1.1c6.8,0.1,12.4,0.3,18.4,1.2
							c7.9,1.2,16.7,3.6,16.7,3.6S229.6,266.9,226.4,287.1z"/>
						<path class="st22" d="M226.4,287.1L226.4,287.1c-0.6,3.9-1.4,8.4-2.4,13.8c-1.7-3.4-4.1-9.9-5.5-14.7h7.5L226.4,287.1z"/>
						<path class="st17" d="M191.8,230.8c1.5,9.8,2,14,7.4,18.6c8.2,6.9,19.9,2.9,21.3-7.2c1.3-9.1-1.4-23.6-11.5-26.6
							C199.3,212.7,190.3,221,191.8,230.8z"/>
						<path class="st23" d="M207.9,325.1c0,0-0.6,17.8-2.2,40.3c-1.3,18.9-3.2,41-5.9,58.6c0,0.2-0.1,0.3-0.1,0.5
							c-4.9,31.2-26.4,104.2-26.4,104.2h-13.6c0,0,11.2-70.5,13.7-101.4c6.3-78.1-9.4-87,4.8-104.2L207.9,325.1z"/>
						<path class="st8" d="M205.7,365.5c-1.3,18.9-3.2,41-5.9,58.6c-4.6-22.9-12.2-56.4-2-78.3C200.2,352,203.1,359.1,205.7,365.5z"
							/>
						<path class="st23" d="M218.6,325.8c0,0,11.5,68.5,10.9,99c-0.7,31.7-12.3,104-12.3,104h-13.5c0,0,2.1-70.4,0.9-101.6
							c-1.3-33.9-15.7-103.3-15.7-103.3L218.6,325.8z"/>
						<polygon class="st19" points="201.4,529.4 219.5,529.4 220.9,523.4 200.7,523.5 						"/>
						<polygon class="st19" points="157.7,529.4 175.8,529.4 177.2,523.4 157.8,523.5 						"/>
						<path class="st19" d="M177.7,320.8l-2.1,3.5c-0.2,0.3,0.2,0.6,0.6,0.6l42.5,2.8c0.4,0,0.7-0.1,0.7-0.4l0.6-3.6
							c0-0.2-0.3-0.5-0.7-0.5l-41-2.7C178,320.5,177.8,320.6,177.7,320.8z"/>
						<path class="st18" d="M182.9,325.7l-1.1-0.1c-0.2,0-0.4-0.1-0.4-0.3l0.8-4.7c0-0.1,0.2-0.2,0.4-0.2l1.1,0.1
							c0.2,0,0.4,0.1,0.4,0.3l-0.8,4.7C183.3,325.7,183.1,325.8,182.9,325.7z"/>
						<path class="st18" d="M209.5,327.5l-1.1-0.1c-0.2,0-0.4-0.1-0.4-0.3l0.8-4.7c0-0.1,0.2-0.2,0.4-0.2l1.1,0.1
							c0.2,0,0.4,0.1,0.4,0.3l-0.8,4.7C209.9,327.4,209.7,327.5,209.5,327.5z"/>
						<path class="st17" d="M229.6,276.3c1.5,5.1,3,10.3,4.4,15.5l4.3,15.5l0.5,1.9l0.1,0.5l0.1,0.2v0.1c0.1,0.2,0.1,0.3,0.2,0.5
							c0.3,0.7,0.7,1.4,1.3,2.2c1.3,1.5,3.2,2.9,5.3,4.1c4.2,2.4,9.2,4.2,14.1,5.7l-0.7,5c-5.7-0.3-11.2-1.4-16.8-3.6
							c-2.7-1.2-5.5-2.6-8.1-5c-1.3-1.2-2.5-2.6-3.3-4.4c-0.2-0.4-0.4-0.9-0.6-1.4l-0.1-0.3l-0.1-0.2l-0.2-0.5l-0.7-1.9
							c-1.8-5.1-3.5-10.3-5-15.5c-1.6-5.2-3.1-10.4-4.5-15.6L229.6,276.3z"/>
						<path class="st2" d="M227.3,266c5.1,1.7,10.5,18.5,10.5,18.5l-18.5,8c0,0-7.7-18.8-4.3-23.2C218.6,264.8,221.4,264,227.3,266z
							"/>
						<path class="st19" d="M217.4,215.1c-3.3-4-28.6-6.9-29.9,4.1c-9,6.3-0.5,22.5,0.8,26.7c-6.2,1.7-26.2,8.6-11.6,21.8
							c14.5,13.3,36.6,11,40.8-2.7c3-9.6-6.5-25.7-6.3-31.3C211.4,228,223,222,217.4,215.1z"/>
						<path class="st19" d="M190.1,247.9c-0.1,0-0.2,0-0.2-0.1c-2.3-2.8-10.4-17.7-7.6-24.7c0.9-2.2,2.7-3.5,5.4-3.8
							c0.2,0,0.3,0.1,0.4,0.3c0,0.2-0.1,0.3-0.3,0.4c-2.5,0.3-4.1,1.5-4.9,3.4c-2.7,6.8,5.2,21.3,7.5,24.1c0.1,0.1,0.1,0.3,0,0.5
							C190.2,247.9,190.1,247.9,190.1,247.9z"/>
						<path class="st17" d="M209.2,233.1c0.2,1.9,1.3,3.7,2.5,4.9c1.8,1.7,3.5,0.5,3.7-1.7c0.2-2-0.6-5.3-2.8-6.2
							C210.6,229.2,209,230.8,209.2,233.1z"/>
					</g>
					<path class="st17" d="M253.6,321.1l7.3-2.5l-1.1,8.8c0,0-2.9,1.3-6.6-1.9l-3.6-2.3l2.8-1.5
						C252.8,321.4,253.2,321.3,253.6,321.1z"/>
					<polygon class="st17" points="266,318.6 263.8,326.3 259.8,327.4 260.9,318.7 					"/>
				</g>
			</g>
		</g>
	</g>
</g>
</svg>
