<?xml version="1.0" encoding="utf-8"?>
<!-- Generator: Adobe Illustrator 22.0.0, SVG Export Plug-In . SVG Version: 6.00 Build 0)  -->
<svg version="1.1" id="Layer_1" xmlns="http://www.w3.org/2000/svg" xmlns:xlink="http://www.w3.org/1999/xlink" x="0px" y="0px"
	 viewBox="0 0 200 200" style="enable-background:new 0 0 200 200;" xml:space="preserve">
<style type="text/css">
	.st0{fill:#132C33;}
</style>
<title>paypal-seeklogo.com</title>
<path class="st0" d="M100.1,13.9c3.8,5.9,7.7,11.9,11.5,17.8c2.4,3.8,5.8,4.4,7.5,4.4c1.1,0,2.3-0.2,3.5-0.7c3-1.1,6.1-2.2,9.2-3.3
	L126.6,65l-0.2,1.4l-0.7,4.2l3.4,2.5l0.4,0.3l4.6,3.4l4.2-3.8l14.8-13.5l0.5,6.1l0.7,8l7.8-1.8l20.1-4.7l-0.7,2l-6.6,20.7l-1.9,5.8
	l5.5,2.6l7.3,3.5l-0.9,0.7c-12.5,9.7-25.4,19.8-38.1,29.6c-3.6,2.8-4.9,6.6-3.7,11c0.8,3.1,1.6,6.3,2.4,9.5l-19.3-3.1l-19.3-3.1
	l-5.7-0.9V145l-1.1,0.2l-1.2-0.2v0.4l-5.7,0.9l-38.6,6.3c0.5-1.9,0.9-3.8,1.4-5.7c0.1-0.5,0.2-0.9,0.3-1.4c0.2-0.8,0.3-1.5,0.5-1.9
	c1-2.5,1.8-7.4-3.5-11.5c-12.5-9.6-25.1-19.5-37.4-29l-1.6-1.2l7.3-3.5l5.5-2.6L25.2,90l-7.3-22.7l1.5,0.3L38,71.9l7.8,1.8l0.7-8
	l0.5-6.1l1.3,1.2l13.5,12.3l3.4,3.1l4.2-1.9l0.4-0.2l4.8-2.2l-0.8-5.2l-3.4-21.2l-2.1-13.2c3,1.1,6.1,2.1,9.1,3.3
	c1.2,0.5,2.4,0.7,3.6,0.7c1.8,0,5.1-0.6,7.5-4.4C92.4,25.8,96.3,19.8,100.1,13.9 M100.1,1.2c-0.4,0.6-0.7,0.9-0.9,1.3
	C93.7,11,88.2,19.4,82.8,28c-0.5,0.8-1,1.2-1.7,1.2c-0.3,0-0.7-0.1-1.1-0.3c-4.6-1.7-9.2-3.3-13.8-4.9c-2-0.7-4.1-1.4-6.5-2.2
	c2.5,15.5,4.9,30.7,7.3,45.9c-0.1,0.1-0.3,0.1-0.4,0.2C58.3,60.3,50,52.8,41.4,45c-0.6,6.9-1.1,13.4-1.7,20.1
	c-10.7-2.5-21.2-5-32.1-7.5c3.8,11.7,7.4,23,11.1,34.4c-5.8,2.8-11.5,5.5-17.4,8.3c0.7,0.6,1.2,1,1.7,1.4
	c15.3,11.9,30.7,23.9,46,35.8c1.3,1,1.9,1.9,1.3,3.5c-0.5,1.3-0.7,2.7-1.1,4.1c-1.3,5.2-2.6,10.4-3.9,16c16.4-2.7,32.6-5.3,49-8
	c0,15.3,0,30.5,0,45.7c3.9,0,7.7,0,11.6,0c0-15.2,0-30.4,0-45.7c16.4,2.7,32.5,5.3,48.9,7.9c-0.2-0.9-0.3-1.5-0.4-2.1
	c-1.5-5.9-2.9-11.9-4.5-17.8c-0.5-1.7-0.2-2.6,1.2-3.7c15.4-11.9,30.7-23.8,46-35.8c0.5-0.4,1-0.9,1.7-1.5
	c-5.9-2.8-11.6-5.5-17.4-8.3c3.7-11.4,7.3-22.8,11-34.4c-10.9,2.5-21.4,5-32,7.5c-0.6-6.8-1.1-13.3-1.7-20.1
	c-8.6,7.8-16.9,15.4-25.2,22.9c-0.1-0.1-0.2-0.2-0.4-0.3c2.4-15.2,4.8-30.4,7.3-45.8c-7.1,2.5-13.7,4.8-20.2,7.1
	c-0.4,0.2-0.8,0.2-1.1,0.2c-0.7,0-1.1-0.4-1.7-1.2c-5.3-8.4-10.7-16.7-16.1-25C101,2.5,100.6,1.9,100.1,1.2L100.1,1.2z"/>
</svg>
