<?xml version="1.0" encoding="utf-8"?>
<!-- Generator: Adobe Illustrator 22.0.0, SVG Export Plug-In . SVG Version: 6.00 Build 0)  -->
<svg version="1.1" id="Layer_1" xmlns="http://www.w3.org/2000/svg" xmlns:xlink="http://www.w3.org/1999/xlink" x="0px" y="0px"
	 viewBox="0 0 200 200" style="enable-background:new 0 0 200 200;" xml:space="preserve">
<style type="text/css">
	.st0{fill:#132C33;}
</style>
<title>paypal-seeklogo.com</title>
<g>
	<g>
		<path class="st0" d="M2.2,177.2c0.6-0.6,1.3-0.8,2.2-0.8c63.7,0,127.5,0,191.2,0c1.6,0,2.3,0.5,2.3,2.2c-0.1,2.7-0.1,5.3,0,8
			c0,1.5-0.6,2.1-2.1,2c-0.3,0-0.6,0-1,0c-63.3,0-126.6,0-189.8,0c-1,0-2,0.1-2.8-0.8C2.2,184.3,2.2,180.7,2.2,177.2z M15.2,179.4
			c-1.8,0-3.6,0-5.3,0c-4.8,0-4.8,0-4.6,4.9c0,0.9,0.2,1.2,1.1,1.2c1.8-0.1,3.6-0.1,5.3,0c0.9,0,1.3-0.1,1.2-1.1
			c-0.1-1.1,0.4-1.9,1.6-1.9c1.1,0,1.6,0.8,1.4,1.8c-0.1,1.1,0.4,1.2,1.3,1.2c6.3,0,12.6,0,18.9,0c0.8,0,1.3-0.1,1.2-1.1
			c-0.1-1.1,0.4-1.9,1.6-1.9c1.1,0,1.6,0.8,1.5,1.8c-0.1,1.1,0.4,1.2,1.3,1.2c6.2,0,12.5,0,18.7,0c1,0,1.6-0.1,1.4-1.3
			c-0.1-1,0.5-1.8,1.5-1.8c1.1,0,1.6,0.8,1.5,1.8c-0.1,1.1,0.4,1.2,1.3,1.2c6.3,0,12.6,0,18.9,0c0.8,0,1.4,0,1.2-1.1
			c-0.1-1.1,0.3-2,1.5-2s1.6,0.9,1.5,2c-0.1,0.9,0.3,1,1.1,1c6.4,0,12.9,0,19.3,0c0.8,0,1.1-0.2,1.1-1.1c-0.1-1.1,0.3-2,1.5-2
			s1.6,0.9,1.5,2c-0.1,0.8,0.2,1.1,1.1,1.1c6.4,0,12.9,0,19.3,0c0.8,0,1.2-0.2,1.1-1c-0.1-1.1,0.3-2,1.5-2s1.6,0.9,1.5,2
			c-0.1,0.8,0.2,1.1,1,1.1c6.4,0,12.9,0,19.3,0c0.8,0,1.2-0.1,1.1-1c-0.1-1.1,0.3-2,1.5-2s1.7,0.9,1.5,1.9c-0.1,1.1,0.4,1.1,1.2,1.1
			c6.4,0,12.7,0,19.1,0c0.7,0,1.2-0.1,1.1-1c-0.1-1.1,0.3-2,1.5-2s1.7,0.8,1.6,1.9c-0.1,1,0.4,1.2,1.2,1.1c0.6-0.1,1.1,0,1.7,0
			c4.9,0,4.8,0,4.8-4.8c0-1.2-0.4-1.3-1.4-1.3c-5.7,0-11.5,0-17.2,0c-0.9,0-1.4,0.1-1.3,1.2c0.1,1-0.4,1.8-1.5,1.8s-1.7-0.7-1.6-1.7
			c0.1-1.2-0.4-1.3-1.4-1.3c-6.2,0-12.4,0-18.5,0c-1,0-1.7,0-1.5,1.4c0.1,0.9-0.5,1.6-1.4,1.7c-1.1,0-1.7-0.7-1.6-1.7
			c0.1-1.2-0.4-1.3-1.4-1.3c-6.2,0-12.5,0-18.7,0c-0.8,0-1.5,0-1.3,1.2c0.1,1-0.4,1.8-1.4,1.9c-1.2,0-1.7-0.8-1.6-1.9
			c0.1-1-0.3-1.1-1.2-1.1c-6.4,0-12.7,0-19.1,0c-0.9,0-1.3,0.2-1.2,1.2c0.1,1-0.4,1.8-1.4,1.9c-1.2,0-1.7-0.8-1.6-1.9
			c0.1-1-0.3-1.1-1.2-1.1c-6.4,0-12.7,0-19.1,0c-0.9,0-1.3,0.2-1.2,1.1c0.1,1.1-0.4,1.9-1.6,1.9c-1.1,0-1.5-0.8-1.4-1.9
			c0.1-0.9-0.2-1.2-1.2-1.2c-6.4,0-12.7,0-19.1,0c-0.9,0-1.3,0.1-1.2,1.1c0.1,1.1-0.4,1.9-1.6,1.9c-1.1,0-1.5-0.8-1.4-1.9
			c0.1-0.9-0.2-1.2-1.1-1.2c-6.4,0-12.7,0-19.1,0c-0.9,0-1.3,0.1-1.2,1.1c0.1,1.1-0.4,1.9-1.6,1.9c-1.1,0-1.6-0.8-1.4-1.9
			c0.1-1.1-0.5-1.2-1.3-1.2C20.9,179.5,18.1,179.4,15.2,179.4z"/>
	</g>
	<g>
		<path class="st0" d="M2.2,97.7c2-1.3,2.8-1,3,1.4C5.3,99.6,5.3,100,6,100c0.8,0,0.8-0.5,0.7-1c-0.1-1.1,0.3-2,1.5-2
			c1.3,0,1.7,1,1.6,2.1c0,0.6,0.1,0.9,0.8,0.9c0.8,0,0.8-0.5,0.7-1c0-1.2,0.3-2.1,1.7-2c1.3,0.1,1.4,1.2,1.4,2.3
			c0,23.9,0,47.8,0,71.8c0,1.2-0.2,2.3-1.6,2.3c-1.3,0-1.5-1.1-1.5-2.2c0-7.9,0-15.8,0-23.7c0-1.2-0.2-1.6-1.5-1.6
			c-4.6,0-4.6,0-4.6,4.6c0,6.9,0,13.7,0,20.6c0,0.8,0,1.6-0.9,2.2c-1,0.6-1.5-0.2-2.2-0.6C2.2,147.6,2.2,122.6,2.2,97.7z M5.2,112
			c0,1.6,0,3.2,0,4.8c0,4.7,0,4.7,4.8,4.6c1.1,0,1.4-0.3,1.4-1.4c-0.1-4.1,0-8.1,0-12.2c0-5,0-5-5-4.8c-0.9,0-1.2,0.3-1.2,1.2
			C5.3,106.8,5.2,109.4,5.2,112z M5.2,133.6c0,1.5,0,3.1,0,4.6c0,4.7,0,4.7,4.8,4.6c1.1,0,1.4-0.3,1.4-1.4c-0.1-4.1,0-8.1,0-12.2
			c0-5,0-5-5-4.8c-0.9,0-1.2,0.3-1.2,1.2C5.3,128.2,5.2,130.9,5.2,133.6z"/>
	</g>
	<g>
		<path class="st0" d="M2.2,91.9c1.1-1.5,2.1-3.3,4.2-3.9c0.7-0.2,0.4-0.9,0.4-1.3c0-1.1,0.3-2,1.5-2s1.7,0.8,1.6,1.9
			c-0.1,1,0.3,1.4,1.2,1.8c2,0.9,3,2.6,3.4,4.7c0.2,1.4-0.3,2.2-1.8,2.2c-2.9,0-5.7,0-8.6,0c-0.8,0-1.2-0.5-1.9-0.8
			C2.2,93.7,2.2,92.8,2.2,91.9z M10.6,92.3c-0.3-1.1-1.2-1.4-2.1-1.4c-1.1-0.1-2,0.3-2.7,1.4C7.5,92.3,9,92.3,10.6,92.3z"/>
	</g>
	<g>
		<path class="st0" d="M101.5,21.3c0,2.5,0.1,5,0,7.4c0,1.1,0.3,1.6,1.3,2.2c9.5,4.8,18.2,10.8,25.3,18.7
			c5.1,5.7,9.1,12.1,10.5,19.8c1.5,8.4-0.6,16.3-4.4,23.7c-1,2-2.3,4-3.6,5.8c-0.6,0.8-1.4,1.4-2.4,0.7c-1-0.7-0.7-1.6-0.1-2.5
			c3.4-4.8,5.8-10,7.1-15.7c1.7-7.7,0.5-14.9-3.4-21.7C128,53.2,122.9,48,117,43.4c-4.9-3.8-10.1-7.1-15.6-9.9
			c-0.8-0.4-1.5-0.7-2.5-0.2c-10,5.2-19.1,11.4-26.4,20.1c-5.8,7-9.5,14.8-8.5,24.1c0.7,6.9,3.4,13.1,7.2,18.8
			c0.3,0.4,0.6,0.8,0.8,1.3c0.5,0.8,0.2,1.5-0.5,2s-1.4,0.4-1.9-0.2c-0.7-0.8-1.3-1.6-1.8-2.5c-4.9-7.7-7.8-16-7-25.2
			c0.6-7.1,3.7-13.3,8-18.9c7.1-9.2,16.3-15.9,26.5-21.1c2.3-1.2,3.2-2.4,3-5c-0.2-4.4,0-8.8-0.1-13.2c0-1.1,0.1-2.2,1.5-2.2
			c1.5-0.1,1.6,1.1,1.6,2.3C101.5,16.2,101.5,18.7,101.5,21.3z"/>
	</g>
	<g>
		<path class="st0" d="M69.4,138.2c0-10.8,0-21.6,0-32.5c0-2.4,0.3-2.7,2.6-2.7c18.7,0,37.3,0,56,0c2.3,0,2.6,0.3,2.6,2.5
			c0,21.8,0,43.5,0,65.3c0,1.1,0,2.4-1.5,2.4c-1.6,0.1-1.6-1.2-1.6-2.5c0-20.9,0-41.9,0-62.8c0-1.6-0.4-1.9-2-1.9
			c-17.1,0.1-34.1,0.1-51.2,0c-1.6,0-2,0.4-2,2c0.1,20.8,0,41.5,0,62.3c0,0.5,0,1,0,1.5c-0.1,1-0.6,1.6-1.6,1.5
			c-0.9,0-1.4-0.6-1.4-1.5c0-0.5,0-1,0-1.5C69.4,159.6,69.4,148.9,69.4,138.2z"/>
	</g>
	<g>
		<path class="st0" d="M38.8,131.3c2.4-1.6,5.9,1.7,6.1,4.6c0.1,2.7,0.1,5.5,0.1,8.2c0,0.9-0.5,1.6-1.3,1.6c-1.5,0-3.2,0.5-4.7-0.6
			c0,2.6,0,5,0,7.5c2.7-0.9,5.7,1.4,6,4.8c0.2,2.7,0.1,5.3,0.1,8c0,1-0.4,1.7-1.4,1.7c-1.6,0-3.2,0.4-4.7-0.6c0,1.7,0,3.3,0,4.9
			c0,1.1-0.4,1.9-1.6,1.9c-1.1,0-1.4-0.8-1.4-1.9c0-5,0-9.9,0-14.9c0-15.8,0-31.6,0-47.4c0-0.4,0-0.9,0-1.3c0-1.1,0.5-1.7,1.6-1.7
			c1,0,1.4,0.7,1.4,1.7c0,2.5,0,5.1,0,7.6c0,1.4,0.1,2.8,0,4.2c-0.1,1.2,0,1.8,1.5,1.8s1.6-0.6,1.5-1.8c-0.1-0.9,0-1.9,0-2.9
			c0-0.9,0.6-1.5,1.4-1.5c1-0.1,1.5,0.6,1.6,1.5c0,0.2,0,0.4,0,0.6c0,1.3-0.4,3,0.2,3.7c0.9,0.9,2.6,0.3,4,0.3c4.9,0,9.8,0,14.7,0
			c1.1,0,2.4,0,2.4,1.5c0,1.6-1.3,1.6-2.5,1.6c-3.6,0-7.3,0.1-10.9-0.1c-1.7-0.1-1.9,0.5-1.9,2c0.1,14.6,0,29.3,0,43.9
			c0,0.6,0,1.2,0,1.7c-0.1,0.8-0.6,1.3-1.4,1.3c-0.9,0-1.4-0.5-1.6-1.4c-0.1-0.5,0-1,0-1.5c0-14.7,0-29.4,0-44.1c0-1.6-0.4-2-2-1.9
			c-2,0.1-3.9,0.1-5.9,0c-1.1-0.1-1.4,0.4-1.3,1.4C38.9,127.6,38.8,129.4,38.8,131.3z M38.9,143.1c4,0.5,3-2.3,3-4.5
			c0-0.3,0-0.6,0-0.9c0-2.6-0.5-3.3-3-4.2C38.9,136.7,38.9,140,38.9,143.1z M38.9,164.5c4,0.4,2.9-2.5,3-4.6c0-0.2,0-0.4,0-0.6
			c0.3-2.3-0.6-3.9-3-4.5C38.9,158.1,38.9,161.3,38.9,164.5z"/>
	</g>
	<g>
		<path class="st0" d="M161.1,166.5c-1.5,1.1-3.2,0.7-4.7,0.6c-1,0-1.4-0.7-1.4-1.7c0-2.7-0.1-5.4,0.1-8c0.1-1.9,1.1-3.4,2.6-4.4
			c1-0.7,2.1-1.1,3.4-0.2c0-2.6,0-5,0-7.6c-1.5,1-3,0.6-4.5,0.6c-1.1,0-1.6-0.7-1.5-1.8c0-2.6-0.1-5.2,0-7.8
			c0.1-1.9,1.1-3.5,2.7-4.6c1-0.7,2.1-1.1,3.4-0.2c0-2.1-0.1-3.9,0-5.7c0.1-1.1-0.4-1.3-1.3-1.2c-2.1,0.1-4.2,0.1-6.3,0
			c-1.4-0.1-1.6,0.4-1.6,1.7c0,14.8,0,29.5,0,44.3c0,0.5,0,1,0,1.5c-0.1,0.9-0.7,1.4-1.5,1.4c-0.9,0-1.4-0.6-1.5-1.5
			c0-0.5,0-1,0-1.5c0-14.6,0-29.2,0.1-43.7c0-1.9-0.5-2.3-2.3-2.2c-3.5,0.1-7,0-10.5,0c-1.2,0-2.5,0-2.5-1.6c0-1.5,1.3-1.5,2.4-1.5
			c5.8,0,11.6,0,17.4,0c1.2,0,1.7-0.2,1.6-1.5c-0.1-1-0.1-2,0-3.1c0.1-1,0.6-1.6,1.6-1.5c0.9,0,1.4,0.6,1.4,1.5c0,1,0.1,1.9,0,2.9
			c-0.2,1.4,0.3,1.8,1.7,1.8c1.1-0.1,1.4-0.3,1.4-1.4c-0.1-3.8,0-7.6,0-11.5c0-1.1,0-2.4,1.5-2.4c1.6-0.1,1.6,1.3,1.6,2.5
			c0,20.8,0,41.5,0,62.3c0,1.1,0,2.4-1.5,2.4c-1.6,0-1.6-1.3-1.6-2.5C161.1,169.4,161.1,168,161.1,166.5z M161.1,133.3
			c-2.1,0.8-3.3,1.9-3,4.1c0.1,0.6,0,1.3,0,1.9c0,1.7-0.6,3.9,2.4,3.7c0.2,0,0.4,0.2,0.7,0.3C161.1,140,161.1,136.7,161.1,133.3z
			 M161.1,154.8c-2.4,0.7-3.3,2.2-3,4.6c0.1,0.6,0,1.3,0,1.9c0,1.5-0.5,3.4,2.2,3.1c0.2,0,0.5,0.3,0.8,0.5
			C161.1,161.4,161.1,158.1,161.1,154.8z"/>
	</g>
	<g>
		<path class="st0" d="M185.6,135.1c0-11.7,0-23.4,0-35.1c0-0.4,0-0.8,0-1.1c0-1,0.4-1.8,1.5-1.9s1.5,0.7,1.6,1.7
			c0,0.5-0.4,1.3,0.8,1.3s0.7-0.8,0.7-1.4c0.1-1,0.5-1.6,1.5-1.7c1.1,0,1.5,0.7,1.6,1.7c0,0.5-0.4,1.3,0.8,1.3s0.7-0.8,0.7-1.4
			c0.1-1.1,0.6-1.7,1.7-1.7c1,0.1,1.4,0.8,1.4,1.7c0,0.4,0,0.9,0,1.3c0,23.4,0,46.8,0,70.3c0,1.2,0.4,2.9-1.4,3
			c-2,0.1-1.6-1.7-1.6-3c0-7.6-0.1-15.1,0-22.7c0-1.5-0.4-1.8-1.8-1.7c-4.4,0.1-4.4,0-4.4,4.5c0,6.9,0,13.7,0,20.6
			c0,1.1,0,2.4-1.5,2.4c-1.6,0-1.6-1.3-1.6-2.5C185.6,158.9,185.6,147,185.6,135.1z M194.7,112.4c0-1.6,0-3.2,0-4.8
			c0-4.7,0-4.7-4.8-4.6c-1.1,0-1.4,0.3-1.4,1.4c0.1,4.1,0,8.1,0,12.2c0,5,0,5,5,4.8c0.9,0,1.2-0.3,1.2-1.2
			C194.7,117.6,194.7,115,194.7,112.4z M194.7,133.8c0-1.6,0-3.2,0-4.8c0-4.7,0-4.7-4.8-4.6c-1.1,0-1.4,0.3-1.4,1.4
			c0.1,4.1,0,8.1,0,12.2c0,5,0,5,5,4.8c0.9,0,1.2-0.3,1.2-1.2C194.7,139,194.7,136.4,194.7,133.8z"/>
	</g>
	<g>
		<path class="st0" d="M20.5,147.2c0-7.6,0-15.3,0-22.9c0-0.9-0.2-1.8,0.6-2.5c0.2-0.2,0.2-0.3,0.1-0.6c-0.8-2.5-0.6-3.7,1.3-5
			c0.8-0.5,1.2-1,1.1-2c-0.1-1.1,0.4-1.9,1.6-1.9c1.1,0,1.5,0.8,1.5,1.8c-0.1,0.9,0.2,1.4,1,2c2,1.3,2.3,2.7,1.4,5
			c-0.1,0.2-0.2,0.4-0.1,0.5c1.5,1.6,0.7,3.5,0.7,5.3c0.1,14.5,0,28.9,0,43.4c0,0.4,0,0.9,0,1.3c0,1-0.5,1.8-1.6,1.7
			c-1.1,0-1.5-0.8-1.5-1.8c0-2.9,0-5.9,0-8.8c0-3.1-0.1-6.1,0-9.2c0-1.2-0.2-1.7-1.5-1.6c-1.2,0-1.6,0.2-1.6,1.6
			c0.1,5.9,0,11.8,0,17.8c0,1-0.2,1.8-1.2,2.1c-0.7,0.2-1.2-0.2-1.6-0.8s-0.2-1.2-0.2-1.9C20.5,162.8,20.5,155,20.5,147.2z
			 M26.6,131.9c0-1.1-0.1-2.3,0-3.4c0.1-1.4-0.9-1-1.5-0.9c-0.6,0-1.6-0.5-1.6,0.9c0.1,2.4,0,4.8,0,7.3c0,0.7,0.2,1,1,1
			c1.4,0.1,2.5,0,2.1-1.9C26.5,133.8,26.6,132.8,26.6,131.9z M26.6,144.4c0-1.1-0.1-2.3,0-3.4c0.1-1.2-0.5-1.4-1.4-1.3
			c-0.8,0.1-1.8-0.3-1.7,1.2c0.1,2.2,0.1,4.3,0,6.5c-0.1,1.2,0.2,1.5,1.4,1.5c1.3,0,1.8-0.3,1.7-1.7
			C26.5,146.3,26.6,145.4,26.6,144.4z M25.3,124.3c0.3-0.1,1.2,0.6,1.3-0.4c0.1-1.5,1.1-2.9,0-4.4c-0.4-0.6-0.7-1.2-1.5-1.2
			s-1.2,0.5-1.5,1.3c-0.5,1.2-0.4,2.2-0.1,3.5C23.7,124.2,23.9,124.6,25.3,124.3z"/>
	</g>
	<g>
		<path class="st0" d="M170.3,147.3c0-7.6,0-15.3,0-22.9c0-0.9-0.3-1.9,0.6-2.7c0.2-0.2,0.2-0.3,0.1-0.6c-0.9-2.4-0.6-3.7,1.5-5.1
			c0.8-0.5,0.9-1.1,0.8-1.9c0-1.1,0.4-1.9,1.6-1.9c1.1,0,1.5,0.9,1.4,1.9c-0.1,0.9,0.2,1.4,1,2c1.9,1.3,2.3,2.6,1.4,5
			c-0.2,0.4,0,0.6,0.2,0.8c0.6,0.6,0.5,1.3,0.5,2c0,15.7,0,31.3,0,47c0,0.3,0,0.6,0,1c-0.1,1-0.6,1.6-1.6,1.5
			c-0.9,0-1.4-0.6-1.4-1.5c0-0.5,0-1,0-1.5c0-5.6,0-11.2,0-16.8c0-1.2-0.3-1.6-1.6-1.6c-1.2,0-1.6,0.3-1.6,1.6
			c0.1,5.8,0,11.6,0,17.4c0,1.1,0,2.4-1.5,2.4c-1.6,0.1-1.6-1.2-1.6-2.5C170.3,163,170.3,155.2,170.3,147.3z M176.4,131.9
			c0-1.1-0.1-2.3,0-3.4c0.1-1.3-0.8-1.1-1.5-1c-0.6,0.1-1.6-0.5-1.6,0.9c0,2.5,0,5,0,7.4c0,0.4,0,0.7,0.5,0.8
			c1.7,0.5,2.5-0.1,2.6-1.9C176.4,133.8,176.4,132.9,176.4,131.9z M173.4,144.1c0,1.2,0.1,2.4,0,3.6c-0.2,1.4,0.8,1.1,1.6,1.1
			s1.6,0.3,1.6-1.1c-0.1-2.3-0.1-4.6,0-6.9c0-0.9-0.3-1.2-1.2-1.2c-1.3,0-2.2,0.1-1.9,1.8C173.5,142.3,173.4,143.2,173.4,144.1z
			 M175,124.4c0.3-0.2,1.3,0.6,1.3-0.5c0.1-1.4,1.1-2.7,0.1-4.2c-0.4-0.7-0.7-1.4-1.6-1.3c-0.8,0-1.2,0.6-1.5,1.3
			c-0.5,1.2-0.3,2.2-0.1,3.5C173.5,124.3,173.8,124.6,175,124.4z"/>
	</g>
	<g>
		<path class="st0" d="M81.6,158.4c0.2-3.6-0.4-8.2,0.3-12.7c1.3-8.8,7.2-14.3,16.1-15.1c8.4-0.8,16.2,4.1,19.1,11.9
			c0.8,2.1,1.2,4.3,1.2,6.5c0,7.3,0,14.6,0,22c0,1.2-0.1,2.3-1.5,2.4c-1.5,0-1.5-1.2-1.5-2.3c0-7.1,0-14.3,0-21.4
			c0-11.2-9.8-18.4-20.5-15.2c-6.1,1.8-9.9,6.9-10,13.7c-0.1,7.4,0,14.8,0,22.1c0,0.4,0,0.9,0,1.3c0,1-0.5,1.8-1.6,1.7
			c-1.1,0-1.5-0.8-1.5-1.8C81.7,167.4,81.6,163.3,81.6,158.4z"/>
	</g>
	<g>
		<path class="st0" d="M100,90.8c-8.3,0-16.6,0-24.8,0c-0.5,0-1,0.1-1.5-0.1c-0.7-0.2-1.2-0.7-1.1-1.5c0.1-0.9,0.6-1.4,1.5-1.4
			s1.5-0.2,2-1c0.4-0.7,1.5-0.9,1.9-0.2c0.8,1.4,1.9,1.2,3.1,1.1c1.6-0.1,3.4,0.6,4.5-1.3c0.3-0.4,1.1-0.4,1.4,0
			c1.1,1.9,2.9,1.2,4.5,1.3c1.1,0.1,2.3,0.3,3.1-1.1c0.3-0.7,1.5-0.6,1.8,0c0.7,1.5,1.9,1.2,3.1,1.1c1.5-0.1,3.2,0.7,4.4-1.2
			c0.4-0.6,1.5-0.5,1.8,0.2c0.9,1.7,2.4,0.9,3.7,1c1.2,0,2.6,0.7,3.5-1c0.3-0.6,1.3-0.8,1.7-0.2c1.2,1.9,3,1.2,4.5,1.3
			c1.1,0.1,2.4,0.3,3.1-1.1c0.2-0.5,1-0.6,1.4-0.3c0.9,1,2,1.5,3.3,1.7c0.5,0.1,0.9,0.7,0.8,1.4c-0.1,0.7-0.5,1.2-1.1,1.4
			c-0.5,0.1-1.1,0.1-1.7,0.1C116.4,90.8,108.2,90.8,100,90.8z"/>
	</g>
	<g>
		<path class="st0" d="M100,84.7c-9.2,0-18.5,0-27.7,0c-0.6,0-1.2,0.1-1.7-0.1c-0.7-0.2-1.1-0.6-1.2-1.3c0-0.8,0.4-1.4,1.1-1.5
			c0.5-0.1,1.1-0.1,1.7-0.1c18.5,0,36.9,0,55.4,0c0.5,0,1,0,1.5,0c0.8,0.1,1.3,0.6,1.3,1.4c0.1,0.9-0.5,1.4-1.3,1.6
			c-0.5,0.1-1,0-1.5,0C118.4,84.7,109.2,84.7,100,84.7z"/>
	</g>
	<g>
		<path class="st0" d="M140.4,112.3c-3.7-0.1-3.7-0.1-3.7,3.3c0,0.4,0,0.9,0,1.3c-0.1,0.9-0.7,1.4-1.5,1.4c-0.9,0-1.5-0.5-1.5-1.4
			c0-2.5-0.2-5,0.1-7.4c0.3-2.8,2-4.8,4.7-5.8c1-0.4,1.5-0.7,1.3-1.9c-0.1-1,0.5-1.8,1.5-1.8c1.1,0,1.6,0.8,1.5,1.8
			c-0.1,1.2,0.5,1.4,1.4,1.8c3,1.3,4.6,3.7,4.8,7c0.1,1.9,0,3.8,0,5.7c0,1.1-0.4,2-1.5,2c-1.2,0-1.6-0.9-1.5-2c0-0.3,0-0.5,0-0.8
			c0-3.4,0-3.4-3.6-3.3c0.9,1.5,0.6,3.1,0.5,4.7c0,0.8-0.6,1.3-1.4,1.3c-0.8,0-1.5-0.4-1.5-1.2C139.8,115.5,139.3,113.8,140.4,112.3
			z M145.6,109.1c-1.1-2.1-2.6-3.2-4.7-3c-1.8,0.2-3.1,1.1-3.8,3C139.9,109.1,142.6,109.1,145.6,109.1z"/>
	</g>
	<g>
		<path class="st0" d="M59.6,112.3c1,1.5,0.6,3.1,0.6,4.7c0,0.8-0.7,1.4-1.6,1.3c-0.8,0-1.4-0.5-1.4-1.3c0-1.5-0.5-3.2,0.6-4.6
			c-0.1-0.1-0.2-0.1-0.3-0.1c-3.3-0.1-3.3-0.1-3.4,3.3c0,0.4,0,0.9,0,1.3c-0.1,0.9-0.6,1.4-1.5,1.4s-1.5-0.5-1.5-1.4
			c0-2.5-0.2-5.1,0.1-7.6c0.3-2.7,2-4.6,4.6-5.6c0.9-0.4,1.5-0.7,1.4-1.8c-0.1-1,0.4-1.8,1.5-1.8s1.6,0.7,1.5,1.8
			c-0.1,1.1,0.4,1.5,1.3,1.9c3.1,1.3,4.7,3.7,4.8,7.1c0,1.9,0,3.8,0,5.7c0,1-0.4,1.8-1.5,1.8s-1.6-0.7-1.6-1.7c0-0.3,0-0.6,0-1
			C63.3,112.1,63.3,112.1,59.6,112.3z M62.9,109.1c-1.7-3.5-5.6-4.1-7.8-1.3c-0.3,0.3-0.7,0.7-0.5,1.1c0.1,0.2,0.7,0.2,1,0.2
			C58,109.1,60.4,109.1,62.9,109.1z"/>
	</g>
	<g>
		<path class="st0" d="M100,124.4c5.3,0,10.7,0,16,0c1.6,0,2.4,0.5,2.3,2.2c-0.1,1.7,0,3.3,0,5c0,1.1-0.2,2.2-1.5,2.2
			s-1.6-0.9-1.6-2.1c0-1.3,0.5-3.1-0.2-3.9c-0.9-0.9-2.8-0.3-4.2-0.3c-8.2,0-16.4,0-24.6,0c-1.2,0-1.6,0.3-1.6,1.6
			c0.1,1.9,0,3.8,0,5.7c0,1-0.4,1.8-1.5,1.9c-1.2,0-1.6-0.8-1.6-1.9c0-2.7,0.1-5.5,0-8.2c0-1.6,0.7-2.1,2.2-2.1
			C89.2,124.5,94.6,124.4,100,124.4z"/>
	</g>
	<g>
		<path class="st0" d="M139.8,167.2c-1.4,0-2.8,0-4.2,0c-1.3,0-2-0.5-2-1.9c0-2.5-0.1-5.1,0-7.6c0.1-3.2,2.8-5.7,6-5.7
			s6,2.5,6.2,5.8c0.1,2.5,0,5.1,0,7.6c0,1.4-0.7,1.9-2,1.9C142.5,167.2,141.1,167.2,139.8,167.2z M142.8,160.7c0-0.6,0-1.3,0-1.9
			c0-2.4-1.1-3.8-3-3.8s-3.1,1.4-3.1,3.7c0,0.9,0,1.8,0,2.7c0,2.8,0,2.8,2.7,2.8C142.8,164.2,142.8,164.2,142.8,160.7z"/>
	</g>
	<g>
		<path class="st0" d="M60.3,167.2c-1.4,0-2.8,0-4.2,0c-1.2,0-1.9-0.5-1.9-1.8c0-2.6-0.1-5.2,0-7.8c0.1-3.2,2.9-5.7,6.1-5.7
			c3.2,0,5.9,2.5,6.1,5.6c0.1,2.6,0,5.2,0,7.8c0,1.3-0.7,1.8-1.9,1.8C63,167.2,61.6,167.2,60.3,167.2z M57.2,160.5
			c0,3.7,0,3.7,3.7,3.7c0.5,0,1,0,1.5,0c0.7,0.1,0.9-0.2,0.9-0.9c0-1.8,0.1-3.7-0.1-5.5c-0.1-1.7-1.5-2.8-3-2.8
			c-1.6,0-2.9,1.2-3,2.8C57.1,158.7,57.2,159.6,57.2,160.5z"/>
	</g>
	<g>
		<path class="st0" d="M60.3,145.8c-1.4,0-2.8,0-4.2,0c-1.2,0-1.9-0.5-1.9-1.8c0-2.6-0.1-5.2,0-7.8c0.1-3.2,2.9-5.7,6.1-5.7
			c3.2,0,5.9,2.5,6.1,5.6c0.1,2.6,0,5.2,0,7.8c0,1.3-0.7,1.8-1.9,1.8C63.1,145.8,61.7,145.8,60.3,145.8z M57.2,139.2
			c0,3.6,0,3.6,3.6,3.6c0.5,0,1,0,1.5,0c0.7,0.1,1-0.1,1-0.9c-0.1-1.8,0-3.5,0-5.3c-0.1-1.8-1.5-3-3.1-2.9c-1.6,0-2.8,1.2-3,2.9
			C57.1,137.4,57.2,138.3,57.2,139.2z"/>
	</g>
	<g>
		<path class="st0" d="M139.6,145.8c-1.3,0-2.7,0-4,0s-2-0.6-2-1.9c0-2.5-0.1-5.1,0-7.6c0.1-3.2,2.8-5.7,6-5.7s6,2.5,6.2,5.8
			c0.1,2.5,0,5.1,0,7.6c0,1.4-0.7,1.9-2,1.9C142.4,145.8,141,145.8,139.6,145.8z M136.7,139.2c0,3.6,0,3.6,3.6,3.6
			c0.6,0,1.1,0,1.7,0c0.6,0,0.8-0.2,0.8-0.8c0-1.9,0.1-3.8-0.1-5.7c-0.1-1.6-1.3-2.6-2.9-2.7c-1.6-0.1-2.9,1.1-3.1,2.7
			C136.6,137.3,136.7,138.2,136.7,139.2z"/>
	</g>
	<g>
		<path class="st0" d="M191.6,95.4c-1.4,0-2.8,0-4.2,0s-2-0.8-1.8-2.1c0.3-2.1,1.3-3.8,3.3-4.8c0.9-0.4,1.5-0.8,1.3-1.9
			c-0.1-1.1,0.4-1.9,1.6-1.9c1.1,0,1.5,0.9,1.4,1.9s0.3,1.4,1.2,1.8c2,1,3.2,2.7,3.4,4.9c0.1,1.3-0.4,2.1-1.8,2.1
			C194.5,95.4,193,95.4,191.6,95.4z M189.3,92.2c1.7,0,3.2,0,4.8,0C192.4,90.3,191,90.3,189.3,92.2z"/>
	</g>
	<g>
		<path class="st0" d="M99.8,158.1c-3.3,0-6.6,0-9.9,0c-1.1,0-2-0.2-2.1-1.4c-0.1-1.3,0.9-1.6,2.1-1.6c6.7,0,13.5,0,20.2,0
			c1.2,0,2.1,0.3,2.1,1.6c-0.1,1.2-1,1.5-2.1,1.4C106.7,158,103.2,158.1,99.8,158.1z"/>
	</g>
	<g>
		<path class="st0" d="M100.1,38.8c2.3,0,4.6,0,6.9,0c1.1,0,2.1,0.2,2.1,1.6c0,1.2-0.9,1.5-2,1.5c-4.8,0-9.5,0-14.3,0
			c-1.1,0-2-0.4-1.9-1.6c0-1.2,0.9-1.5,2-1.5C95.3,38.8,97.7,38.8,100.1,38.8z"/>
	</g>
	<g>
		<path class="st0" d="M101.5,165.6c0,1,0,1.9,0,2.9s-0.5,1.8-1.6,1.7c-1,0-1.5-0.7-1.5-1.6c0-2,0-3.9,0-5.9c0-1,0.6-1.6,1.6-1.6
			s1.5,0.7,1.5,1.6C101.5,163.7,101.5,164.7,101.5,165.6z"/>
	</g>
	<g>
		<path class="st0" d="M101.5,147.3c0,1,0,2,0,3.1c-0.1,1-0.6,1.6-1.6,1.5c-0.9,0-1.4-0.6-1.4-1.5c0-2,0-4.1,0-6.1
			c0-1,0.6-1.5,1.6-1.5c0.9,0,1.4,0.6,1.4,1.5C101.5,145.3,101.5,146.3,101.5,147.3z"/>
	</g>
</g>
</svg>
