<?xml version="1.0" encoding="utf-8"?>
<!-- Generator: Adobe Illustrator 22.0.0, SVG Export Plug-In . SVG Version: 6.00 Build 0)  -->
<svg version="1.1" id="Layer_1" xmlns="http://www.w3.org/2000/svg" xmlns:xlink="http://www.w3.org/1999/xlink" x="0px" y="0px"
	 viewBox="0 0 83 30" style="enable-background:new 0 0 83 30;" xml:space="preserve">
<style type="text/css">
	.st0{fill:#6F7176;}
	.st1{fill:#221F20;}
	.st2{fill:#EF3B13;}
</style>
<title>paypal-seeklogo.com</title>
<g>
	<path class="st0" d="M2.9,9.9V7h2.2V2.5h4.2V7H12v3H9.3v8.5c0,0.7,0.1,1.1,0.3,1.2c0.2,0.2,0.7,0.2,1.5,0.2c0.1,0,0.3,0,0.4,0
		c0.1,0,0.3,0,0.4,0V23l-2,0.1c-2,0.1-3.3-0.3-4.1-1c-0.5-0.5-0.7-1.2-0.7-2.2V9.9H2.9z"/>
	<path class="st1" d="M31.3,17.5c0,0.7-0.1,1.3-0.3,1.8c-0.2,0.5-0.4,1-0.7,1.4c-0.3,0.4-0.6,0.7-1,1c-0.4,0.3-0.7,0.5-1.1,0.7
		c-0.4,0.2-0.8,0.3-1.2,0.4c-0.4,0.1-0.8,0.1-1.2,0.1H15.5V19h10.4c0.5,0,0.9-0.1,1.2-0.4c0.3-0.3,0.4-0.6,0.4-1.2
		c0-1-0.6-1.5-1.5-1.5H20c-0.8,0-1.6-0.1-2.2-0.4c-0.6-0.3-1.1-0.7-1.4-1.1s-0.6-0.9-0.8-1.4c-0.2-0.5-0.2-1-0.2-1.4
		c0-0.9,0.2-1.6,0.5-2.2c0.3-0.6,0.7-1.1,1.2-1.4c0.5-0.4,1-0.6,1.5-0.8C19,7,19.5,6.9,20,6.9h9.4v3.8H20c-0.2,0-0.4,0-0.5,0.1
		c-0.1,0-0.2,0.1-0.3,0.2c-0.1,0.1-0.1,0.2-0.1,0.2c0,0.1,0,0.2,0,0.2c0,0.2,0,0.3,0.1,0.4c0,0.1,0.1,0.2,0.2,0.2
		c0.1,0,0.2,0.1,0.3,0.1c0.1,0,0.2,0,0.3,0h5.9c1,0,1.8,0.2,2.5,0.5c0.7,0.4,1.2,0.8,1.7,1.3c0.4,0.5,0.7,1.1,0.9,1.7
		C31.2,16.4,31.3,17,31.3,17.5z"/>
	<rect x="34" y="0.2" class="st2" width="3.8" height="3.5"/>
	<rect x="34" y="6.9" class="st1" width="3.8" height="15.9"/>
	<path class="st1" d="M58.9,24.4c0,0.7-0.1,1.3-0.3,1.8c-0.2,0.5-0.4,1-0.7,1.4c-0.3,0.4-0.6,0.7-1,1c-0.4,0.3-0.7,0.5-1.1,0.7
		c-0.4,0.2-0.8,0.3-1.2,0.4c-0.4,0.1-0.8,0.1-1.2,0.1h-6.9V26h6.9c0.5,0,0.9-0.1,1.2-0.4c0.3-0.3,0.4-0.6,0.4-1.2V12.3
		c0-0.5-0.1-0.9-0.4-1.1c-0.3-0.3-0.6-0.4-1.2-0.4h-6.9c-0.5,0-0.8,0.1-1.1,0.4c-0.3,0.3-0.4,0.7-0.4,1.1v5.2c0,0.5,0.1,0.9,0.4,1.2
		c0.3,0.3,0.7,0.4,1.2,0.4h6.9v3.8h-6.9c-0.4,0-0.7,0-1.2-0.1c-0.4-0.1-0.8-0.2-1.2-0.4c-0.4-0.2-0.8-0.4-1.1-0.7
		c-0.4-0.3-0.7-0.6-1-1c-0.3-0.4-0.5-0.9-0.7-1.4c-0.2-0.5-0.3-1.1-0.3-1.8v-5.2c0-0.4,0-0.7,0.1-1.2c0.1-0.4,0.2-0.8,0.4-1.2
		c0.2-0.4,0.4-0.8,0.7-1.1c0.3-0.4,0.6-0.7,1-1c0.4-0.3,0.9-0.5,1.4-0.7c0.5-0.2,1.1-0.3,1.8-0.3h6.9c0.4,0,0.7,0,1.2,0.1
		c0.4,0.1,0.8,0.2,1.2,0.4c0.4,0.2,0.8,0.4,1.1,0.7c0.4,0.3,0.7,0.6,1,1c0.3,0.4,0.5,0.9,0.7,1.4c0.2,0.5,0.3,1.1,0.3,1.8V24.4z"/>
	<path class="st1" d="M80.1,22.9h-3.8V14c0-0.5-0.1-1-0.3-1.3c-0.2-0.4-0.4-0.7-0.7-1c-0.3-0.3-0.6-0.5-1-0.7
		c-0.4-0.2-0.8-0.2-1.3-0.2h-6.7v12.1h-3.8v-14c0-0.3,0-0.5,0.1-0.7c0.1-0.2,0.2-0.4,0.4-0.6c0.2-0.2,0.4-0.3,0.6-0.4
		c0.2-0.1,0.5-0.1,0.8-0.1H73c0.5,0,1,0.1,1.5,0.2c0.5,0.1,1.1,0.3,1.6,0.5c0.5,0.2,1,0.5,1.5,0.9c0.5,0.4,0.9,0.8,1.3,1.3
		c0.4,0.5,0.7,1.1,0.9,1.8c0.2,0.7,0.3,1.5,0.3,2.3V22.9z"/>
</g>
</svg>
