<?xml version="1.0" encoding="utf-8"?>
<!-- Generator: Adobe Illustrator 22.0.0, SVG Export Plug-In . SVG Version: 6.00 Build 0)  -->
<svg version="1.1" id="Layer_1" xmlns="http://www.w3.org/2000/svg" xmlns:xlink="http://www.w3.org/1999/xlink" x="0px" y="0px"
	 viewBox="0 0 462 262.7" style="enable-background:new 0 0 462 262.7;" xml:space="preserve">
<style type="text/css">
	.st0{fill:#FAFAFA;}
	.st1{opacity:0.75;}
	.st2{fill:#7C7C7C;}
	.st3{fill:#EDEDED;}
	.st4{fill:#37474F;}
	.st5{enable-background:new    ;}
	.st6{fill:#FF0000;}
	.st7{fill:#FFB600;}
	.st8{fill:#E2E2E2;}
	.st9{fill:#FF5744;}
</style>
<title>Artboard 9 copy 32</title>
<g>
	<path class="st0" d="M452.7,262.7H9.3c-5.1,0-9.3-4.2-9.3-9.3V28.3h462v225.1C462,258.5,457.8,262.7,452.7,262.7z"/>
</g>
<g>
	<g>
		<g class="st1">
			<g>
				<path class="st2" d="M436.9,101.8c0,2.2-1.9,4.3-2.2,6.5c-0.3,2.2,0.8,4.7,0.3,6.8c-0.7,2.1-3.1,3.6-3.9,5.5
					c-1,2.1-0.4,4.7-1.7,6.7c-1.2,1.8-3.9,2.6-5.4,4.3c-1.4,1.7-1.8,4.4-3.5,6c-1.7,1.4-4.4,1.4-6.4,2.6c-1.8,1.2-2.9,3.7-5,4.7
					c-1.9,1-4.7,0.1-6.8,0.7c-2.1,0.6-3.9,2.8-6.1,3.1s-4.4-1.2-6.7-1.2c-2.2,0-4.6,1.5-6.7,1.2c-2.2-0.3-4-2.5-6.1-3.1
					c-2.1-0.7-4.9,0.3-6.8-0.7c-2.1-1-3.2-3.5-5-4.7c-1.8-1.2-4.7-1.1-6.4-2.6c-1.7-1.4-2.1-4.2-3.5-6c-1.4-1.7-4.2-2.4-5.4-4.3
					c-1.2-1.8-0.7-4.6-1.7-6.7c-1-1.9-3.3-3.5-3.9-5.5s0.6-4.6,0.3-6.8c-0.3-2.2-2.2-4.3-2.2-6.5c0-2.2,1.9-4.3,2.2-6.5
					c0.3-2.2-0.8-4.7-0.3-6.8c0.7-2.1,3.1-3.6,3.9-5.5c1-2.1,0.4-4.7,1.7-6.7c1.2-1.8,3.9-2.6,5.4-4.3c1.4-1.7,1.8-4.4,3.5-6
					c1.7-1.4,4.4-1.4,6.4-2.6c1.8-1.2,2.9-3.7,5-4.7c1.9-1,4.7-0.1,6.8-0.7s3.9-2.8,6.1-3.1c2.2-0.3,4.4,1.2,6.7,1.2
					c2.2,0,4.6-1.5,6.7-1.2c2.2,0.3,4,2.5,6.1,3.1c2.1,0.7,4.9-0.3,6.8,0.7c2.1,1,3.2,3.5,5,4.7c1.8,1.2,4.7,1.1,6.4,2.6
					c1.7,1.4,2.1,4.2,3.5,6c1.4,1.7,4.2,2.4,5.4,4.3c1.2,1.8,0.7,4.6,1.7,6.7c1,1.9,3.3,3.5,3.9,5.5c0.6,2.1-0.6,4.6-0.3,6.8
					C435,97.5,436.9,99.6,436.9,101.8z"/>
			</g>
		</g>
		<g>
			<g>
				<path class="st3" d="M433,98c0,2.2-1.9,4.3-2.2,6.5c-0.3,2.2,0.8,4.7,0.3,6.8c-0.7,2.1-3.1,3.6-3.9,5.5c-1,2.1-0.4,4.7-1.7,6.7
					c-1.2,1.8-3.9,2.6-5.4,4.3c-1.4,1.7-1.8,4.4-3.5,6c-1.7,1.4-4.4,1.4-6.4,2.6c-1.8,1.2-2.9,3.7-5,4.7c-1.9,1-4.7,0.1-6.8,0.7
					c-2.1,0.6-3.9,2.8-6.1,3.1c-2.2,0.3-4.4-1.2-6.7-1.2c-2.2,0-4.6,1.5-6.7,1.2c-2.2-0.3-4-2.5-6.1-3.1c-2.1-0.7-4.9,0.3-6.8-0.7
					c-2.1-1-3.2-3.5-5-4.7c-1.8-1.2-4.7-1.1-6.4-2.6c-1.7-1.4-2.1-4.2-3.5-6c-1.4-1.7-4.2-2.4-5.4-4.3c-1.2-1.8-0.7-4.6-1.7-6.7
					c-1-1.9-3.3-3.5-3.9-5.5s0.6-4.6,0.3-6.8c-0.3-2.2-2.2-4.3-2.2-6.5s1.9-4.3,2.2-6.5c0.3-2.2-0.8-4.7-0.3-6.8
					c0.7-2.1,3.1-3.6,3.9-5.5c1-2.1,0.4-4.7,1.7-6.7c1.2-1.8,3.9-2.6,5.4-4.3c1.4-1.7,1.8-4.4,3.5-6c1.7-1.4,4.4-1.4,6.4-2.6
					c1.8-1.2,2.9-3.7,5-4.7c1.9-1,4.7-0.1,6.8-0.7s3.9-2.8,6.1-3.1c2.2-0.3,4.4,1.2,6.7,1.2c2.2,0,4.6-1.5,6.7-1.2
					c2.2,0.3,4,2.5,6.1,3.1c2.1,0.7,4.9-0.3,6.8,0.7c2.1,1,3.2,3.5,5,4.7c1.8,1.2,4.7,1.1,6.4,2.6c1.7,1.4,2.1,4.2,3.5,6
					c1.4,1.7,4.2,2.4,5.4,4.3c1.2,1.8,0.7,4.6,1.7,6.7c1,1.9,3.3,3.5,3.9,5.5c0.6,2.1-0.6,4.6-0.3,6.8C431.1,93.7,433,95.7,433,98z"
					/>
			</g>
		</g>
	</g>
	<g>
		<path class="st4" d="M385.7,138.2c-22.2,0-40.2-18-40.2-40.2s18-40.2,40.2-40.2c22.2,0,40.2,18,40.2,40.2S407.9,138.2,385.7,138.2
			z M385.7,58.6c-21.8,0-39.4,17.6-39.4,39.4s17.6,39.4,39.4,39.4s39.4-17.6,39.4-39.4S407.5,58.6,385.7,58.6z"/>
	</g>
	<g>
		<g class="st5">
			<path class="st6" d="M369.5,93.8V83.4h2.2V92h4.4v1.8H369.5z"/>
			<path class="st6" d="M387,88.5c0,1.1-0.3,2.1-0.7,2.9c-0.4,0.8-1,1.4-1.8,1.8c-0.7,0.4-1.5,0.7-2.5,0.7c-1,0-1.8-0.3-2.5-0.7
				c-0.7-0.4-1.4-1-1.8-1.8s-0.7-1.8-0.7-2.9c0-1.1,0.3-2.1,0.7-2.9c0.4-0.8,1-1.4,1.8-1.8c0.7-0.4,1.5-0.7,2.5-0.7s1.8,0.3,2.5,0.7
				c0.7,0.4,1.4,1,1.8,1.8C386.7,86.4,387,87.4,387,88.5z M384.6,88.5c0-0.7-0.1-1.4-0.3-1.8c-0.3-0.6-0.6-0.8-1-1.1
				c-0.4-0.3-0.8-0.4-1.4-0.4s-1,0.1-1.4,0.4c-0.4,0.3-0.7,0.7-1,1.1c-0.3,0.6-0.3,1.1-0.3,1.8s0.1,1.4,0.3,1.8
				c0.3,0.6,0.6,0.8,1,1.1c0.4,0.3,0.8,0.4,1.4,0.4s1-0.1,1.4-0.4c0.4-0.3,0.7-0.7,1-1.1C384.6,89.9,384.6,89.2,384.6,88.5z"/>
			<path class="st6" d="M390.4,93.8l-3.1-10.4h2.4l1.7,7.2h0.1l1.9-7.2h2.1l1.9,7.2h0.1l1.7-7.2h2.4l-3.1,10.4h-2.2l-1.9-6.8h-0.1
				l-1.9,6.8H390.4z"/>
		</g>
		<g class="st5">
			<path class="st6" d="M369.3,103.8c0-0.4-0.1-0.7-0.4-0.8c-0.3-0.1-0.7-0.3-1.1-0.3c-0.3,0-0.6,0-0.8,0.1
				c-0.3,0.1-0.4,0.3-0.6,0.4c-0.1,0.1-0.1,0.3-0.1,0.6c0,0.1,0,0.3,0.1,0.4c0.1,0.1,0.1,0.3,0.3,0.3c0.1,0.1,0.3,0.1,0.4,0.3
				c0.1,0,0.4,0.1,0.6,0.1l0.8,0.1c0.4,0.1,0.8,0.3,1.1,0.4s0.7,0.3,0.8,0.6c0.3,0.3,0.4,0.6,0.6,0.8c0.1,0.3,0.3,0.7,0.3,1.1
				c0,0.6-0.1,1.1-0.4,1.5c-0.3,0.4-0.7,0.7-1.2,1c-0.6,0.3-1.2,0.4-1.9,0.4s-1.4-0.1-1.9-0.4c-0.6-0.3-1-0.6-1.2-1
				c-0.3-0.4-0.4-1-0.6-1.7h1.9c0,0.3,0.1,0.6,0.3,0.8c0.1,0.3,0.4,0.4,0.7,0.4c0.3,0,0.6,0.1,1,0.1c0.3,0,0.7,0,0.8-0.1
				c0.3-0.1,0.4-0.3,0.6-0.4c0.1-0.1,0.1-0.4,0.1-0.6c0-0.3,0-0.4-0.1-0.6c-0.1-0.1-0.3-0.3-0.6-0.4c-0.3-0.1-0.6-0.1-0.8-0.3
				l-1-0.3c-0.8-0.1-1.4-0.6-1.9-1c-0.6-0.4-0.7-1-0.7-1.7c0-0.6,0.1-1.1,0.4-1.5c0.3-0.4,0.7-0.7,1.2-1c0.6-0.3,1.1-0.4,1.8-0.4
				s1.2,0.1,1.8,0.4c0.6,0.3,1,0.6,1.2,1c0.3,0.4,0.4,1,0.4,1.5h-1.8L369.3,103.8L369.3,103.8z"/>
			<path class="st6" d="M381,104.5h-2.1c0-0.3-0.1-0.6-0.3-0.7c-0.1-0.1-0.3-0.4-0.4-0.6s-0.4-0.3-0.6-0.3c-0.3-0.1-0.4-0.1-0.7-0.1
				c-0.6,0-1,0.1-1.2,0.4c-0.4,0.3-0.7,0.6-0.8,1.1s-0.3,1-0.3,1.7s0.1,1.2,0.3,1.7s0.4,0.8,0.8,1s0.8,0.4,1.2,0.4
				c0.3,0,0.6,0,0.7-0.1c0.3-0.1,0.4-0.1,0.6-0.3c0.1-0.1,0.3-0.3,0.4-0.6c0.1-0.1,0.1-0.4,0.3-0.7h2.1c0,0.4-0.1,0.8-0.4,1.2
				c-0.1,0.4-0.4,0.7-0.8,1.1c-0.4,0.3-0.7,0.6-1.2,0.7c-0.4,0.1-1,0.3-1.7,0.3c-0.8,0-1.5-0.1-2.2-0.6c-0.7-0.4-1.2-1-1.5-1.7
				c-0.4-0.7-0.6-1.5-0.6-2.6c0-1,0.1-1.9,0.6-2.6c0.4-0.7,1-1.2,1.5-1.7c0.7-0.4,1.4-0.6,2.2-0.6c0.6,0,1.1,0.1,1.5,0.3
				c0.4,0.1,0.8,0.4,1.2,0.7c0.4,0.3,0.7,0.7,0.8,1.1C380.7,103.4,380.9,103.9,381,104.5z"/>
			<path class="st6" d="M391,105.9c0,1-0.1,1.9-0.6,2.6c-0.4,0.7-1,1.2-1.5,1.7c-0.6,0.4-1.4,0.6-2.2,0.6c-0.8,0-1.5-0.1-2.2-0.6
				c-0.7-0.4-1.2-1-1.5-1.7c-0.4-0.7-0.6-1.5-0.6-2.6c0-1,0.1-1.9,0.6-2.6c0.4-0.7,1-1.2,1.5-1.7c0.7-0.4,1.4-0.6,2.2-0.6
				c0.8,0,1.5,0.1,2.2,0.6c0.7,0.4,1.2,1,1.5,1.7C390.8,103.9,391,104.8,391,105.9z M389,105.9c0-0.7-0.1-1.2-0.3-1.7
				s-0.4-0.8-0.8-1c-0.4-0.3-0.8-0.4-1.2-0.4c-0.4,0-0.8,0.1-1.2,0.4c-0.4,0.3-0.7,0.6-0.8,1c-0.1,0.4-0.3,1-0.3,1.7
				s0.1,1.2,0.3,1.7c0.1,0.4,0.4,0.8,0.8,1c0.4,0.3,0.8,0.4,1.2,0.4c0.4,0,0.8-0.1,1.2-0.4c0.4-0.3,0.7-0.6,0.8-1
				S389,106.4,389,105.9z"/>
			<path class="st6" d="M392.5,110.6v-9.4h3.7c0.7,0,1.4,0.1,1.8,0.4c0.6,0.3,0.8,0.6,1.1,1.1c0.3,0.4,0.4,1,0.4,1.7
				s-0.1,1.1-0.4,1.7c-0.3,0.4-0.7,0.8-1.1,1c-0.6,0.3-1.1,0.4-1.8,0.4h-2.5v-1.8h2.2c0.4,0,0.7,0,1-0.1c0.3-0.1,0.4-0.3,0.6-0.4
				c0.1-0.3,0.1-0.4,0.1-0.8c0-0.3,0-0.6-0.1-0.8c-0.1-0.3-0.3-0.4-0.6-0.6c-0.3-0.1-0.6-0.1-1-0.1h-1.4v7.8L392.5,110.6
				L392.5,110.6z M397.6,106.3l2.4,4.3h-2.2l-2.2-4.3H397.6z"/>
			<path class="st6" d="M401,110.6v-9.4h6.4v1.7H403v2.2h4v1.7h-4v2.2h4.4v1.7L401,110.6L401,110.6z"/>
		</g>
	</g>
</g>
<g>
	<path class="st4" d="M462,28.3H0v-19C0,4.1,4.1,0,9.3,0h443.8c4.9,0,8.9,4,8.9,8.9L462,28.3L462,28.3z"/>
</g>
<g>
	<g>
		<polygon class="st7" points="342.8,180 345.5,185.3 351.3,186.2 347,190.4 348.1,196.3 342.8,193.5 337.5,196.3 338.5,190.4 
			334.3,186.2 340.1,185.3 		"/>
	</g>
	<g>
		<polygon class="st8" points="362.4,180 365,185.3 370.9,186.2 366.6,190.4 367.7,196.3 362.4,193.5 357.1,196.3 358.1,190.4 
			353.8,186.2 359.7,185.3 		"/>
	</g>
	<g>
		<polygon class="st8" points="382,180 384.6,185.3 390.5,186.2 386.3,190.4 387.2,196.3 382,193.5 376.6,196.3 377.7,190.4 
			373.4,186.2 379.3,185.3 		"/>
	</g>
	<g>
		<polygon class="st8" points="401.5,180 404.2,185.3 410,186.2 405.8,190.4 406.8,196.3 401.5,193.5 396.2,196.3 397.2,190.4 
			392.9,186.2 398.8,185.3 		"/>
	</g>
	<g>
		<polygon class="st8" points="421.1,180 423.7,185.3 429.7,186.2 425.4,190.4 426.4,196.3 421.1,193.5 415.8,196.3 416.8,190.4 
			412.5,186.2 418.5,185.3 		"/>
	</g>
	<g>
		<polygon class="st7" points="362.4,180 359.7,185.3 353.8,186.2 358.1,190.4 357.1,196.3 362.4,193.5 		"/>
	</g>
</g>
<g>
	<path class="st8" d="M428.5,236.4h-395c-2.8,0-5-2.2-5-5V208c0-2.8,2.2-5,5-5h395c2.8,0,5,2.2,5,5v23.4
		C433.5,234.1,431.2,236.4,428.5,236.4z"/>
</g>
<g>
	<path class="st4" d="M126,236.4H33.5c-2.8,0-5-2.2-5-5V208c0-2.8,2.2-5,5-5H126V236.4z"/>
</g>
<g class="st5">
	<path d="M40,195.9v-12h4.3c0.9,0,1.6,0.1,2.3,0.5c0.6,0.4,1,0.8,1.4,1.3s0.5,1.3,0.5,1.9c0,0.8-0.1,1.4-0.5,1.9
		c-0.4,0.5-0.8,1-1.4,1.3c-0.6,0.3-1.4,0.5-2.3,0.5H41v-1.5h3c0.6,0,1-0.1,1.4-0.3c0.4-0.1,0.6-0.4,0.8-0.8c0.1-0.4,0.3-0.8,0.3-1.1
		c0-0.5-0.1-0.9-0.3-1.1c-0.1-0.4-0.5-0.6-0.8-0.8c-0.4-0.1-0.9-0.3-1.4-0.3h-2.3v10.4H40V195.9z M46,190.4l2.9,5.4h-2l-2.9-5.4H46z
		"/>
	<path d="M54.3,196.1c-0.9,0-1.6-0.3-2.3-0.6c-0.6-0.4-1.1-0.9-1.5-1.6c-0.4-0.6-0.5-1.5-0.5-2.4s0.1-1.8,0.5-2.4
		c0.4-0.6,0.9-1.3,1.4-1.6c0.6-0.4,1.4-0.6,2.2-0.6c0.5,0,1,0.1,1.5,0.3c0.5,0.1,0.9,0.4,1.3,0.8c0.4,0.4,0.6,0.9,0.9,1.4
		c0.3,0.6,0.4,1.3,0.4,2v0.6H51v-1.3h5.4c0-0.5-0.1-0.9-0.3-1.3c-0.1-0.4-0.5-0.6-0.8-0.9s-0.8-0.3-1.1-0.3c-0.5,0-0.9,0.1-1.3,0.4
		s-0.6,0.5-0.9,0.9c-0.3,0.4-0.3,0.8-0.3,1.3v1c0,0.6,0.1,1.1,0.4,1.5s0.5,0.8,0.9,1s0.9,0.4,1.4,0.4c0.4,0,0.6,0,0.9-0.1
		s0.5-0.3,0.8-0.4c0.3-0.3,0.4-0.4,0.5-0.8l1.6,0.3c-0.1,0.5-0.4,0.9-0.8,1.3c-0.4,0.4-0.8,0.6-1.3,0.9
		C55.8,196,54.9,196.1,54.3,196.1z"/>
	<path d="M66.8,189.2l-1.6,0.3c-0.1-0.3-0.1-0.4-0.3-0.6c-0.1-0.1-0.4-0.4-0.6-0.5c-0.3-0.1-0.5-0.1-0.9-0.1c-0.5,0-0.9,0.1-1.3,0.4
		c-0.4,0.3-0.5,0.5-0.5,0.9c0,0.3,0.1,0.5,0.4,0.8c0.3,0.1,0.6,0.4,1,0.5l1.4,0.4c0.9,0.3,1.4,0.5,1.9,0.9c0.4,0.4,0.6,0.9,0.6,1.5
		c0,0.5-0.1,1-0.5,1.4c-0.3,0.4-0.8,0.8-1.3,1s-1.1,0.4-1.9,0.4c-1,0-1.8-0.3-2.4-0.6c-0.6-0.4-1-1-1.1-1.9l1.6-0.3
		c0.1,0.4,0.4,0.8,0.6,1c0.4,0.3,0.8,0.4,1.3,0.4c0.6,0,1-0.1,1.4-0.4c0.4-0.3,0.5-0.5,0.5-0.9c0-0.3-0.1-0.5-0.3-0.8
		c-0.3-0.3-0.5-0.4-1-0.4l-1.5-0.4c-0.9-0.3-1.5-0.5-1.9-0.9s-0.6-0.9-0.6-1.6c0-0.5,0.1-1,0.5-1.4c0.3-0.4,0.8-0.8,1.3-0.9
		c0.5-0.3,1.1-0.4,1.8-0.4c1,0,1.8,0.3,2.3,0.6C66.2,187.9,66.6,188.4,66.8,189.2z"/>
	<path d="M74.6,192.2v-5.3h1.8v9h-1.8v-1.5h-0.1c-0.3,0.5-0.5,0.9-1,1.1c-0.5,0.4-1,0.5-1.6,0.5s-1.1-0.1-1.5-0.4
		c-0.4-0.3-0.8-0.6-1-1.1c-0.3-0.5-0.4-1.1-0.4-1.9v-5.7h1.8v5.4c0,0.6,0.1,1.1,0.5,1.5c0.4,0.4,0.8,0.5,1.3,0.5
		c0.4,0,0.6-0.1,1-0.3c0.4-0.1,0.6-0.4,0.8-0.8C74.4,193.1,74.6,192.7,74.6,192.2z"/>
	<path d="M80.4,184v12h-1.8v-12H80.4z"/>
	<path d="M87,186.9v1.4H82v-1.4H87z M83.4,184.7h1.8v8.5c0,0.4,0,0.6,0.1,0.8s0.3,0.3,0.4,0.4c0.1,0.1,0.4,0.1,0.5,0.1s0.3,0,0.4,0
		c0.1,0,0.1,0,0.3,0l0.3,1.4c-0.1,0-0.3,0.1-0.4,0.1s-0.4,0-0.8,0.1c-0.5,0-0.9-0.1-1.3-0.3s-0.8-0.4-1-0.8
		c-0.3-0.4-0.4-0.8-0.4-1.4v-9L83.4,184.7L83.4,184.7z"/>
</g>
<g class="st5">
	<path class="st4" d="M221.4,223.4c-0.6,0-1.2-0.1-1.7-0.3s-0.9-0.5-1.2-0.9s-0.4-0.8-0.5-1.4h1.4c0,0.3,0.1,0.5,0.3,0.7
		s0.4,0.4,0.7,0.5s0.6,0.2,0.9,0.2c0.4,0,0.7-0.1,1-0.2c0.3-0.1,0.5-0.3,0.7-0.5s0.2-0.5,0.2-0.8s-0.1-0.6-0.2-0.8
		c-0.2-0.2-0.4-0.4-0.7-0.6s-0.7-0.2-1.1-0.2h-0.8v-1.2h0.8c0.4,0,0.7-0.1,0.9-0.2c0.3-0.1,0.5-0.3,0.6-0.5s0.2-0.5,0.2-0.8
		s-0.1-0.5-0.2-0.8s-0.3-0.4-0.6-0.5c-0.2-0.1-0.5-0.2-0.8-0.2s-0.6,0.1-0.9,0.2s-0.5,0.3-0.6,0.5c-0.2,0.2-0.3,0.5-0.3,0.7h-1.4
		c0-0.5,0.2-1,0.5-1.3c0.3-0.4,0.7-0.7,1.1-0.9c0.5-0.2,1-0.3,1.6-0.3s1.1,0.1,1.6,0.4c0.4,0.2,0.8,0.5,1,0.9s0.4,0.8,0.4,1.3
		s-0.1,1-0.4,1.3c-0.3,0.4-0.7,0.6-1.2,0.7v0.1c0.6,0.1,1.1,0.3,1.5,0.7c0.3,0.4,0.5,0.9,0.5,1.5c0,0.5-0.1,1-0.4,1.4
		c-0.3,0.4-0.7,0.7-1.2,1S222.1,223.4,221.4,223.4z"/>
	<path class="st4" d="M229.8,223.4c-0.7,0-1.4-0.2-1.9-0.6c-0.5-0.4-0.9-0.9-1.2-1.7s-0.4-1.6-0.4-2.6s0.1-1.9,0.4-2.6
		s0.7-1.3,1.2-1.7s1.1-0.6,1.9-0.6c0.7,0,1.3,0.2,1.9,0.6c0.5,0.4,0.9,0.9,1.2,1.7c0.3,0.7,0.4,1.6,0.4,2.6s-0.1,1.9-0.4,2.6
		c-0.3,0.7-0.7,1.3-1.2,1.7C231.1,223.2,230.5,223.4,229.8,223.4z M229.8,222.2c0.6,0,1.1-0.3,1.5-0.9s0.5-1.5,0.5-2.7
		c0-0.8-0.1-1.4-0.2-2s-0.4-1-0.7-1.2c-0.3-0.3-0.7-0.4-1.1-0.4c-0.6,0-1.1,0.3-1.5,0.9s-0.5,1.5-0.5,2.7c0,0.8,0.1,1.5,0.2,2
		c0.2,0.5,0.4,1,0.7,1.2S229.4,222.2,229.8,222.2z"/>
	<path class="st4" d="M235.1,216v-0.5c0-0.4,0.1-0.7,0.2-1s0.4-0.5,0.7-0.7s0.6-0.3,1-0.3s0.8,0.1,1.1,0.3s0.5,0.4,0.6,0.7
		s0.2,0.6,0.2,1v0.5c0,0.4-0.1,0.7-0.2,1c-0.1,0.3-0.4,0.5-0.6,0.7c-0.3,0.2-0.6,0.3-1,0.3s-0.8-0.1-1.1-0.3s-0.5-0.4-0.6-0.7
		S235.1,216.4,235.1,216z M235.5,223.2l6.5-9.5h1.1l-6.5,9.5H235.5z M236.2,215.5v0.5c0,0.3,0.1,0.5,0.2,0.7
		c0.1,0.2,0.3,0.3,0.7,0.3c0.3,0,0.5-0.1,0.6-0.3s0.2-0.5,0.2-0.7v-0.5c0-0.3-0.1-0.5-0.2-0.7c-0.1-0.2-0.3-0.3-0.7-0.3
		c-0.3,0-0.5,0.1-0.7,0.3C236.2,215,236.2,215.3,236.2,215.5z M239.8,221.5V221c0-0.4,0.1-0.7,0.2-1s0.4-0.5,0.7-0.7s0.6-0.3,1-0.3
		s0.8,0.1,1.1,0.3s0.5,0.4,0.6,0.7s0.2,0.6,0.2,1v0.5c0,0.4-0.1,0.7-0.2,1s-0.4,0.5-0.6,0.7c-0.3,0.2-0.6,0.3-1,0.3
		s-0.8-0.1-1.1-0.3s-0.5-0.4-0.6-0.7C239.9,222.1,239.8,221.8,239.8,221.5z M240.9,221v0.5c0,0.3,0.1,0.5,0.2,0.7
		c0.1,0.2,0.3,0.3,0.7,0.3c0.3,0,0.5-0.1,0.7-0.3c0.1-0.2,0.2-0.5,0.2-0.7V221c0-0.3-0.1-0.5-0.2-0.7c-0.1-0.2-0.3-0.3-0.7-0.3
		c-0.3,0-0.5,0.1-0.7,0.3C241,220.5,240.9,220.7,240.9,221z"/>
</g>
<g>
	<g class="st5">
		<path class="st4" d="M35.9,75.3c0-0.5-0.3-0.9-0.7-1.2s-0.9-0.4-1.6-0.4c-0.5,0-0.9,0.1-1.2,0.3c-0.3,0.1-0.7,0.4-0.8,0.5
			s-0.4,0.4-0.4,0.7c0,0.3,0,0.5,0.1,0.7c0.1,0.1,0.3,0.4,0.5,0.5c0.3,0.1,0.4,0.3,0.7,0.4c0.3,0.1,0.5,0.1,0.8,0.3l1.2,0.3
			c0.5,0.1,0.9,0.3,1.4,0.4c0.4,0.1,0.8,0.4,1.2,0.7c0.4,0.3,0.7,0.7,0.8,1.1c0.1,0.4,0.3,0.9,0.3,1.5c0,0.8-0.1,1.4-0.5,2
			c-0.4,0.7-0.9,0.9-1.6,1.4c-0.7,0.3-1.6,0.5-2.6,0.5s-1.9-0.1-2.6-0.4c-0.7-0.3-1.4-0.8-1.8-1.4c-0.4-0.5-0.7-1.4-0.7-2.2h2.3
			c0,0.4,0.1,0.8,0.4,1.1c0.3,0.3,0.5,0.5,0.9,0.7c0.4,0.1,0.8,0.3,1.4,0.3s0.9-0.1,1.4-0.3s0.7-0.4,0.9-0.7
			c0.3-0.3,0.3-0.5,0.3-0.9c0-0.3-0.1-0.7-0.3-0.8c-0.1-0.3-0.4-0.4-0.8-0.5s-0.8-0.3-1.2-0.4l-1.5-0.4c-1.1-0.3-1.9-0.7-2.4-1.2
			c-0.7-0.5-0.9-1.4-0.9-2.2s0.3-1.4,0.7-2s0.9-0.9,1.6-1.4c0.7-0.3,1.5-0.4,2.4-0.4c0.9,0,1.8,0.1,2.4,0.4c0.7,0.3,1.2,0.8,1.6,1.4
			c0.4,0.5,0.5,1.2,0.5,1.9L35.9,75.3L35.9,75.3z"/>
		<path class="st4" d="M44.6,84.7c-0.9,0-1.8-0.3-2.4-0.7c-0.7-0.4-1.2-0.9-1.6-1.8c-0.4-0.7-0.5-1.6-0.5-2.6c0-0.9,0.1-1.9,0.5-2.6
			c0.4-0.8,0.9-1.4,1.6-1.8c0.7-0.4,1.5-0.7,2.4-0.7c0.8,0,1.5,0.1,2,0.4c0.5,0.3,1.1,0.7,1.5,1.2c0.4,0.5,0.5,1.1,0.7,1.8h-2.2
			c-0.1-0.4-0.3-0.8-0.7-1.2c-0.4-0.4-0.8-0.4-1.4-0.4c-0.4,0-0.8,0.1-1.2,0.4c-0.4,0.3-0.7,0.5-0.8,1.1c-0.1,0.5-0.3,1.1-0.3,1.6
			c0,0.7,0.1,1.2,0.3,1.6c0.1,0.4,0.4,0.8,0.8,1.1c0.4,0.3,0.8,0.4,1.2,0.4c0.3,0,0.7,0,0.9-0.1s0.5-0.3,0.7-0.5
			c0.1-0.3,0.3-0.5,0.4-0.9h2.2c0,0.7-0.3,1.2-0.5,1.8c-0.4,0.5-0.8,0.9-1.4,1.2C46.1,84.5,45.4,84.7,44.6,84.7z"/>
		<path class="st4" d="M54.8,84.7c-0.9,0-1.8-0.3-2.4-0.7c-0.7-0.4-1.2-0.9-1.6-1.8c-0.4-0.7-0.5-1.6-0.5-2.6s0.1-1.9,0.5-2.6
			c0.4-0.8,0.9-1.4,1.6-1.8c0.7-0.4,1.5-0.7,2.4-0.7c0.9,0,1.8,0.3,2.4,0.7c0.7,0.4,1.2,0.9,1.6,1.8c0.4,0.8,0.5,1.6,0.5,2.6
			s-0.1,1.9-0.5,2.6c-0.4,0.7-0.9,1.4-1.6,1.8C56.5,84.5,55.7,84.7,54.8,84.7z M54.8,82.8c0.5,0,0.9-0.1,1.2-0.4
			c0.4-0.3,0.5-0.7,0.8-1.1c0.3-0.4,0.3-0.9,0.3-1.6c0-0.5-0.1-1.1-0.3-1.6c-0.1-0.5-0.4-0.8-0.8-1.1c-0.4-0.3-0.8-0.4-1.2-0.4
			c-0.5,0-0.9,0.1-1.4,0.4c-0.4,0.3-0.5,0.7-0.8,1.1c-0.1,0.5-0.3,0.9-0.3,1.6c0,0.5,0.1,1.1,0.3,1.6c0.1,0.5,0.4,0.8,0.8,1.1
			C53.8,82.7,54.2,82.8,54.8,82.8z"/>
		<path class="st4" d="M66,74.8v1.8h-5.5v-1.8H66z M61.8,72.5h2.3v9.1c0,0.3,0,0.5,0.1,0.7c0.1,0.1,0.3,0.3,0.4,0.3
			c0.1,0,0.3,0.1,0.5,0.1c0.1,0,0.3,0,0.4,0s0.3,0,0.3,0l0.4,1.8c-0.1,0-0.3,0.1-0.5,0.1c-0.3,0-0.5,0.1-0.8,0.1
			c-0.5,0-1.1-0.1-1.5-0.3s-0.8-0.5-1.1-0.9c-0.3-0.4-0.4-0.9-0.4-1.5L61.8,72.5L61.8,72.5z"/>
		<path class="st4" d="M72.8,74.8v1.8h-5.5v-1.8H72.8z M68.6,72.5h2.3v9.1c0,0.3,0,0.5,0.1,0.7c0.1,0.1,0.3,0.3,0.4,0.3
			c0.1,0,0.3,0.1,0.5,0.1c0.1,0,0.3,0,0.4,0c0.1,0,0.3,0,0.3,0l0.4,1.8c-0.1,0-0.3,0.1-0.5,0.1s-0.5,0.1-0.8,0.1
			c-0.5,0-1.1-0.1-1.5-0.3c-0.4-0.1-0.8-0.5-1.1-0.9c-0.3-0.4-0.4-0.9-0.4-1.5L68.6,72.5L68.6,72.5z"/>
		<path class="st4" d="M80.7,84.5h-2.4l4.5-12.9h2.8l4.5,12.9h-2.4l-3.4-10.2h-0.1L80.7,84.5z M80.7,79.5h6.8v1.9h-6.8V79.5z"/>
		<path class="st4" d="M94,78.9v5.7h-2.3v-9.7h2.2v1.6H94c0.3-0.5,0.5-0.9,1.1-1.2c0.5-0.3,1.1-0.5,1.8-0.5s1.2,0.1,1.8,0.4
			c0.5,0.3,0.8,0.7,1.1,1.2c0.3,0.5,0.4,1.2,0.4,1.9v6.1h-2.3v-5.8c0-0.7-0.1-1.1-0.5-1.5c-0.4-0.4-0.8-0.5-1.4-0.5
			c-0.4,0-0.8,0.1-1.1,0.3s-0.5,0.4-0.7,0.8C94,78,94,78.4,94,78.9z"/>
		<path class="st4" d="M105.9,84.6c-0.8,0-1.5-0.1-2-0.5c-0.5-0.4-1.1-0.9-1.4-1.6c-0.4-0.7-0.5-1.6-0.5-2.7s0.1-2,0.5-2.7
			c0.4-0.7,0.8-1.4,1.5-1.6c0.5-0.4,1.2-0.5,2-0.5c0.5,0,1.1,0.1,1.4,0.3c0.4,0.1,0.7,0.4,0.8,0.7c0.3,0.3,0.4,0.5,0.5,0.8h0.1v-4.7
			h2.3v12.9H109V83h-0.1c-0.1,0.3-0.3,0.5-0.5,0.7s-0.5,0.5-0.8,0.7C107,84.6,106.6,84.6,105.9,84.6z M106.6,82.8
			c0.5,0,0.9-0.1,1.2-0.4c0.3-0.3,0.5-0.7,0.8-1.1c0.1-0.4,0.3-0.9,0.3-1.6s-0.1-1.2-0.3-1.6c-0.1-0.4-0.4-0.8-0.8-1.1
			c-0.3-0.3-0.8-0.4-1.2-0.4c-0.5,0-0.9,0.1-1.2,0.4c-0.3,0.3-0.5,0.7-0.8,1.1c-0.1,0.4-0.3,0.9-0.3,1.6c0,0.5,0.1,1.1,0.3,1.6
			c0.1,0.4,0.4,0.8,0.8,1.1C105.6,82.7,106.1,82.8,106.6,82.8z"/>
		<path class="st4" d="M117.8,84.7c-0.9,0-1.8-0.1-2.4-0.5c-0.7-0.4-1.2-0.9-1.6-1.8c-0.4-0.7-0.5-1.6-0.5-2.6
			c0-0.9,0.1-1.9,0.5-2.6c0.4-0.8,0.9-1.4,1.6-1.8c0.7-0.4,1.5-0.7,2.4-0.7c0.5,0,1.2,0.1,1.6,0.3c0.5,0.1,0.9,0.5,1.4,0.8
			c0.4,0.4,0.7,0.9,0.9,1.5c0.3,0.7,0.4,1.4,0.4,2.2v0.7h-7.9v-1.5h5.7c0-0.4-0.1-0.8-0.3-1.2c-0.1-0.4-0.4-0.5-0.8-0.8
			c-0.3-0.1-0.7-0.3-1.1-0.3c-0.4,0-0.8,0.1-1.2,0.3c-0.4,0.3-0.7,0.5-0.8,0.8c-0.1,0.4-0.3,0.8-0.3,1.2v1.4c0,0.5,0.1,1.1,0.3,1.5
			c0.1,0.4,0.5,0.7,0.8,0.9c0.4,0.3,0.8,0.3,1.4,0.3c0.3,0,0.7,0,0.9-0.1c0.3-0.1,0.5-0.3,0.7-0.4c0.1-0.1,0.4-0.4,0.4-0.7l2.2,0.3
			c-0.1,0.5-0.4,1.1-0.8,1.5c-0.4,0.4-0.8,0.7-1.5,0.9C119.2,84.6,118.5,84.7,117.8,84.7z"/>
		<path class="st4" d="M123.9,84.5v-9.6h2.2v1.6h0.1c0.1-0.5,0.5-0.9,0.9-1.2c0.4-0.3,0.9-0.4,1.5-0.4c0.1,0,0.3,0,0.4,0
			c0.1,0,0.3,0,0.4,0v2c-0.1,0-0.3,0-0.4-0.1c-0.3,0-0.4,0-0.5,0c-0.4,0-0.8,0.1-1.1,0.3c-0.3,0.1-0.5,0.4-0.8,0.7
			c-0.1,0.3-0.3,0.7-0.3,1.1v5.7C126.4,84.5,123.9,84.5,123.9,84.5z"/>
		<path class="st4" d="M138.5,77.4l-2,0.3c0-0.3-0.1-0.4-0.3-0.5s-0.3-0.3-0.5-0.4c-0.3-0.1-0.5-0.1-0.9-0.1s-0.8,0.1-1.2,0.3
			c-0.3,0.3-0.5,0.4-0.4,0.8c0,0.3,0.1,0.5,0.3,0.7c0.1,0.1,0.5,0.3,1.1,0.4l1.6,0.4c0.9,0.1,1.6,0.5,2,0.9c0.4,0.4,0.7,0.9,0.7,1.6
			c0,0.5-0.1,1.1-0.5,1.6c-0.4,0.4-0.8,0.8-1.5,1.1c-0.7,0.3-1.4,0.4-2.2,0.4c-1.2,0-2.2-0.3-2.8-0.7c-0.7-0.5-1.1-1.2-1.2-2
			l2.2-0.5c0.1,0.4,0.3,0.8,0.7,0.9c0.3,0.3,0.8,0.3,1.2,0.3c0.5,0,0.9-0.1,1.4-0.3s0.5-0.5,0.5-0.8s-0.1-0.5-0.3-0.7
			c-0.3-0.1-0.5-0.3-0.9-0.4l-1.6-0.4c-0.9-0.1-1.6-0.5-2-0.9c-0.4-0.4-0.7-1.1-0.7-1.8c0-0.5,0.1-1.1,0.5-1.5
			c0.3-0.4,0.8-0.8,1.4-0.9c0.5-0.3,1.2-0.4,2-0.4c1.1,0,2,0.3,2.7,0.7C138.3,75.8,138.4,76.6,138.5,77.4z"/>
		<path class="st4" d="M144.8,84.7c-0.9,0-1.8-0.3-2.4-0.7c-0.7-0.4-1.2-0.9-1.6-1.8c-0.4-0.7-0.5-1.6-0.5-2.6s0.1-1.9,0.5-2.6
			c0.4-0.8,0.9-1.4,1.6-1.8c0.7-0.4,1.5-0.7,2.4-0.7s1.8,0.3,2.4,0.7c0.7,0.4,1.2,0.9,1.6,1.8c0.4,0.8,0.5,1.6,0.5,2.6
			s-0.1,1.9-0.5,2.6c-0.4,0.7-0.9,1.4-1.6,1.8C146.5,84.5,145.7,84.7,144.8,84.7z M144.8,82.8c0.5,0,0.9-0.1,1.2-0.4
			c0.4-0.3,0.5-0.7,0.8-1.1c0.1-0.5,0.3-0.9,0.3-1.6c0-0.5-0.1-1.1-0.3-1.6c-0.1-0.5-0.4-0.8-0.8-1.1c-0.4-0.3-0.8-0.4-1.2-0.4
			c-0.5,0-0.9,0.1-1.4,0.4c-0.4,0.3-0.5,0.7-0.8,1.1c-0.3,0.4-0.3,0.9-0.3,1.6c0,0.5,0.1,1.1,0.3,1.6c0.1,0.5,0.4,0.8,0.8,1.1
			C143.8,82.7,144.2,82.8,144.8,82.8z"/>
		<path class="st4" d="M153.6,78.9v5.7h-2.3v-9.7h2.2v1.6h0.1c0.3-0.5,0.5-0.9,1.1-1.2c0.5-0.3,1.1-0.5,1.8-0.5s1.2,0.1,1.8,0.4
			c0.5,0.3,0.8,0.7,1.1,1.2c0.3,0.5,0.4,1.2,0.4,1.9v6.1h-2.3v-5.8c0-0.7-0.1-1.1-0.5-1.5c-0.3-0.4-0.8-0.5-1.4-0.5
			c-0.4,0-0.8,0.1-1.1,0.3s-0.5,0.4-0.7,0.8C153.6,78,153.6,78.4,153.6,78.9z"/>
	</g>
	<g class="st5">
		<path class="st4" d="M36.5,108.1l-2,0.3c0-0.3-0.1-0.4-0.3-0.5c-0.1-0.1-0.3-0.3-0.5-0.4c-0.3-0.1-0.5-0.1-0.9-0.1
			s-0.8,0.1-1.2,0.3c-0.3,0.3-0.5,0.4-0.4,0.8c0,0.3,0.1,0.5,0.3,0.7c0.1,0.1,0.5,0.3,1.1,0.4l1.6,0.4c0.9,0.1,1.6,0.5,2,0.9
			c0.4,0.4,0.7,0.9,0.7,1.6c0,0.5-0.1,1.1-0.5,1.6c-0.4,0.4-0.8,0.8-1.5,1.1s-1.4,0.4-2.2,0.4c-1.2,0-2.2-0.3-2.8-0.7
			c-0.7-0.5-1.1-1.2-1.2-2l2.2-0.3c0.1,0.4,0.3,0.8,0.7,0.9c0.3,0.3,0.8,0.3,1.2,0.3c0.5,0,0.9-0.1,1.4-0.3c0.3-0.3,0.5-0.5,0.5-0.8
			s-0.1-0.5-0.3-0.7c-0.3-0.1-0.5-0.3-0.9-0.4l-1.6-0.4c-0.9-0.1-1.6-0.5-2-0.9s-0.7-1.1-0.7-1.8c0-0.5,0.1-1.1,0.5-1.5
			c0.4-0.4,0.8-0.8,1.4-0.9c0.5-0.3,1.2-0.4,2-0.4c1.1,0,2,0.3,2.7,0.7C36.2,106.8,36.4,107.3,36.5,108.1z"/>
		<path class="st4" d="M42.8,115.3c-0.9,0-1.8-0.3-2.4-0.7c-0.7-0.4-1.2-0.9-1.6-1.8c-0.4-0.7-0.5-1.6-0.5-2.6
			c0-0.9,0.1-1.9,0.5-2.6c0.4-0.8,0.9-1.4,1.6-1.8c0.7-0.4,1.5-0.7,2.4-0.7c0.8,0,1.5,0.1,2,0.4c0.5,0.3,1.1,0.7,1.5,1.2
			c0.4,0.5,0.5,1.1,0.7,1.8h-2.3c-0.1-0.4-0.3-0.8-0.7-1.2c-0.4-0.4-0.8-0.4-1.4-0.4c-0.4,0-0.8,0.1-1.2,0.4
			c-0.4,0.3-0.7,0.5-0.8,1.1c-0.1,0.5-0.3,1.1-0.3,1.6c0,0.7,0.1,1.2,0.3,1.6c0.1,0.4,0.4,0.8,0.8,1.1c0.4,0.3,0.8,0.4,1.2,0.4
			c0.3,0,0.7,0,0.9-0.1c0.3-0.1,0.5-0.3,0.7-0.5c0.1-0.3,0.3-0.5,0.4-0.9h2.2c0,0.7-0.3,1.2-0.5,1.8c-0.4,0.5-0.8,0.9-1.4,1.2
			C44.3,115.2,43.7,115.3,42.8,115.3z"/>
		<path class="st4" d="M53,115.3c-0.9,0-1.8-0.3-2.4-0.7c-0.7-0.4-1.2-0.9-1.6-1.8c-0.4-0.7-0.5-1.6-0.5-2.6s0.1-1.9,0.5-2.6
			c0.4-0.8,0.9-1.4,1.6-1.8c0.7-0.4,1.5-0.7,2.4-0.7c0.9,0,1.8,0.3,2.4,0.7c0.7,0.4,1.2,0.9,1.6,1.8c0.4,0.8,0.5,1.6,0.5,2.6
			s-0.1,1.9-0.5,2.6c-0.4,0.7-0.9,1.4-1.6,1.8C54.8,115,53.9,115.3,53,115.3z M53,113.6c0.5,0,0.9-0.1,1.2-0.4
			c0.4-0.3,0.5-0.7,0.8-1.1c0.3-0.4,0.3-0.9,0.3-1.6c0-0.5-0.1-1.1-0.3-1.6c-0.1-0.5-0.4-0.8-0.8-1.1c-0.4-0.3-0.8-0.4-1.2-0.4
			c-0.5,0-0.9,0.1-1.4,0.4s-0.5,0.7-0.8,1.1c-0.1,0.5-0.3,0.9-0.3,1.6c0,0.5,0.1,1.1,0.3,1.6c0.1,0.5,0.4,0.8,0.8,1.1
			C52.1,113.4,52.5,113.6,53,113.6z"/>
		<path class="st4" d="M64.2,105.6v1.8h-5.5v-1.8H64.2z M60,103.3h2.3v9.1c0,0.3,0,0.5,0.1,0.7c0.1,0.1,0.3,0.3,0.4,0.3
			c0.1,0,0.3,0.1,0.5,0.1c0.1,0,0.3,0,0.4,0s0.3,0,0.3,0l0.4,1.8c-0.1,0-0.3,0.1-0.5,0.1c-0.3,0-0.5,0.1-0.8,0.1
			c-0.5,0-1.1-0.1-1.5-0.3s-0.8-0.5-1.1-0.9c-0.3-0.4-0.4-0.9-0.4-1.5L60,103.3L60,103.3z"/>
		<path class="st4" d="M71,105.6v1.8h-5.5v-1.8H71z M66.8,103.3h2.3v9.1c0,0.3,0,0.5,0.1,0.7c0.1,0.1,0.3,0.3,0.4,0.3
			s0.3,0.1,0.5,0.1c0.1,0,0.3,0,0.4,0c0.1,0,0.3,0,0.3,0l0.4,1.8c-0.1,0-0.3,0.1-0.5,0.1s-0.5,0.1-0.8,0.1c-0.5,0-1.1-0.1-1.5-0.3
			c-0.4-0.1-0.8-0.5-1.1-0.9c-0.3-0.4-0.4-0.9-0.4-1.5L66.8,103.3L66.8,103.3z"/>
		<path class="st4" d="M75.6,115.3c-0.5,0-1.2-0.1-1.6-0.3c-0.5-0.3-0.8-0.5-1.1-0.9c-0.3-0.4-0.4-0.9-0.4-1.6
			c0-0.5,0.1-0.9,0.3-1.4c0.1-0.4,0.4-0.7,0.8-0.8c0.4-0.3,0.7-0.4,1.2-0.5c0.4-0.1,0.9-0.1,1.4-0.3c0.5,0,1.1-0.1,1.4-0.1
			c0.4,0,0.5-0.1,0.8-0.3c0.1-0.1,0.3-0.3,0.3-0.5l0,0c0-0.4-0.1-0.8-0.4-1.1c-0.3-0.3-0.7-0.4-1.2-0.4s-0.9,0.1-1.4,0.4
			c-0.3,0.3-0.5,0.5-0.7,0.8l-2.2-0.3c0.1-0.5,0.4-1.1,0.8-1.5c0.4-0.4,0.8-0.7,1.4-0.9c0.5-0.1,1.2-0.3,1.9-0.3
			c0.4,0,0.9,0,1.4,0.1c0.4,0.1,0.8,0.3,1.2,0.5c0.4,0.3,0.7,0.5,0.9,0.9c0.3,0.4,0.4,0.9,0.4,1.6v6.4h-2.2v-1.4h-0.1
			c-0.1,0.3-0.3,0.5-0.5,0.8s-0.5,0.4-0.9,0.5C76.5,115.3,76.1,115.3,75.6,115.3z M76.1,113.7c0.4,0,0.8-0.1,1.2-0.3
			c0.3-0.1,0.5-0.4,0.8-0.7c0.1-0.3,0.3-0.7,0.3-0.9v-1.1c-0.1,0-0.1,0.1-0.4,0.1c-0.1,0-0.4,0.1-0.5,0.1c-0.3,0-0.4,0.1-0.7,0.1
			c-0.3,0-0.4,0-0.5,0.1c-0.3,0-0.7,0.1-0.9,0.3c-0.3,0.1-0.5,0.3-0.7,0.4c-0.1,0.1-0.3,0.4-0.3,0.7c0,0.4,0.1,0.7,0.4,0.9
			C75.3,113.6,75.7,113.7,76.1,113.7z"/>
		<path class="st4" d="M85.2,109.5v5.7h-2.3v-9.6h2.2v1.6h0.1c0.3-0.5,0.5-0.9,1.1-1.2c0.5-0.3,1.1-0.5,1.8-0.5
			c0.7,0,1.2,0.1,1.8,0.4c0.5,0.3,0.8,0.7,1.1,1.2c0.3,0.5,0.4,1.2,0.4,1.9v6.1H89v-5.8c0-0.7-0.1-1.1-0.5-1.5
			c-0.4-0.4-0.8-0.5-1.4-0.5c-0.4,0-0.8,0.1-1.1,0.3s-0.5,0.4-0.7,0.8C85.3,108.7,85.2,109.1,85.2,109.5z"/>
		<path class="st4" d="M97.3,115.3c-0.8,0-1.5-0.1-2-0.5c-0.5-0.4-1.1-0.9-1.4-1.6c-0.4-0.7-0.5-1.6-0.5-2.7c0-1.1,0.1-2,0.5-2.7
			c0.4-0.7,0.8-1.4,1.5-1.6c0.5-0.4,1.2-0.5,2-0.5c0.5,0,1.1,0.1,1.4,0.3c0.4,0.1,0.7,0.4,0.8,0.7c0.3,0.3,0.4,0.5,0.5,0.8h0.1v-4.7
			h2.3v12.9h-2.2V114h-0.1c-0.1,0.3-0.3,0.5-0.5,0.7c-0.3,0.1-0.5,0.5-0.8,0.7C98.2,115.2,97.8,115.3,97.3,115.3z M97.8,113.4
			c0.5,0,0.9-0.1,1.2-0.4c0.3-0.3,0.5-0.7,0.8-1.1c0.1-0.4,0.3-0.9,0.3-1.6s-0.1-1.2-0.3-1.6c-0.1-0.4-0.4-0.8-0.8-1.1
			c-0.3-0.3-0.8-0.4-1.2-0.4c-0.5,0-0.9,0.1-1.2,0.4s-0.5,0.7-0.8,1.1c-0.1,0.4-0.3,0.9-0.3,1.6c0,0.5,0.1,1.1,0.3,1.6
			c0.1,0.4,0.4,0.8,0.8,1.1C97,113.3,97.4,113.4,97.8,113.4z"/>
		<path class="st4" d="M109,115.3c-0.9,0-1.8-0.1-2.4-0.5c-0.7-0.4-1.2-0.9-1.6-1.8c-0.4-0.7-0.5-1.6-0.5-2.6c0-0.9,0.1-1.9,0.5-2.6
			c0.4-0.8,0.9-1.4,1.6-1.8c0.7-0.4,1.5-0.7,2.4-0.7c0.5,0,1.2,0.1,1.6,0.3c0.5,0.1,0.9,0.5,1.4,0.8c0.4,0.4,0.7,0.9,0.9,1.5
			c0.3,0.7,0.4,1.4,0.4,2.2v0.7h-7.9v-1.5h5.7c0-0.4-0.1-0.8-0.3-1.2c-0.1-0.4-0.4-0.5-0.8-0.8c-0.3-0.1-0.7-0.3-1.1-0.3
			c-0.4,0-0.8,0.1-1.2,0.3c-0.4,0.3-0.7,0.5-0.8,0.8c-0.1,0.4-0.3,0.8-0.3,1.2v1.4c0,0.5,0.1,1.1,0.3,1.5c0.1,0.4,0.5,0.7,0.8,0.9
			c0.4,0.3,0.8,0.3,1.4,0.3c0.3,0,0.7,0,0.9-0.1s0.5-0.3,0.7-0.4c0.1-0.1,0.4-0.4,0.4-0.7l2.2,0.3c-0.1,0.5-0.4,1.1-0.8,1.5
			c-0.4,0.4-0.8,0.7-1.5,0.9C110.4,115.2,109.7,115.3,109,115.3z"/>
		<path class="st4" d="M115.1,115.2v-9.6h2.2v1.6h0.1c0.1-0.5,0.5-0.9,0.9-1.2c0.4-0.3,0.9-0.4,1.5-0.4c0.1,0,0.3,0,0.4,0
			c0.1,0,0.3,0,0.4,0v2c-0.1,0-0.3,0-0.4-0.1c-0.3,0-0.4,0-0.5,0c-0.4,0-0.8,0.1-1.1,0.3c-0.3,0.1-0.5,0.4-0.8,0.7
			c-0.1,0.3-0.3,0.7-0.3,1.1v5.7C117.6,115.2,115.1,115.2,115.1,115.2z"/>
		<path class="st4" d="M129.7,108.1l-2,0.3c0-0.3-0.1-0.4-0.3-0.5c-0.1-0.1-0.3-0.3-0.5-0.4c-0.3-0.1-0.5-0.1-0.9-0.1
			c-0.4,0-0.8,0.1-1.2,0.3c-0.3,0.3-0.5,0.4-0.4,0.8c0,0.3,0.1,0.5,0.3,0.7c0.1,0.1,0.5,0.3,1.1,0.4l1.6,0.4c0.9,0.1,1.6,0.5,2,0.9
			c0.4,0.4,0.7,0.9,0.7,1.6c0,0.5-0.1,1.1-0.5,1.6c-0.4,0.4-0.8,0.8-1.5,1.1s-1.4,0.4-2.2,0.4c-1.2,0-2.2-0.3-2.8-0.7
			c-0.7-0.5-1.1-1.2-1.2-2l2.2-0.3c0.1,0.4,0.3,0.8,0.7,0.9c0.3,0.3,0.8,0.3,1.2,0.3c0.5,0,0.9-0.1,1.4-0.3c0.4-0.1,0.5-0.5,0.5-0.8
			s-0.1-0.5-0.3-0.7c-0.3-0.1-0.5-0.3-0.9-0.4l-1.6-0.4c-0.9-0.1-1.6-0.5-2-0.9c-0.4-0.4-0.7-1.1-0.7-1.8c0-0.5,0.1-1.1,0.5-1.5
			c0.4-0.4,0.8-0.8,1.4-0.9c0.5-0.3,1.2-0.4,2-0.4c1.1,0,2,0.3,2.7,0.7C129.5,106.8,129.6,107.3,129.7,108.1z"/>
		<path class="st4" d="M136,115.3c-0.9,0-1.8-0.3-2.4-0.7c-0.7-0.4-1.2-0.9-1.6-1.8s-0.5-1.6-0.5-2.6s0.1-1.9,0.5-2.6
			c0.4-0.8,0.9-1.4,1.6-1.8c0.7-0.4,1.5-0.7,2.4-0.7s1.8,0.3,2.4,0.7c0.7,0.4,1.2,0.9,1.6,1.8c0.4,0.8,0.5,1.6,0.5,2.6
			s-0.1,1.9-0.5,2.6c-0.4,0.7-0.9,1.4-1.6,1.8C137.7,115,136.9,115.3,136,115.3z M136,113.6c0.5,0,0.9-0.1,1.2-0.4
			c0.3-0.3,0.5-0.7,0.8-1.1c0.1-0.5,0.3-0.9,0.3-1.6c0-0.5-0.1-1.1-0.3-1.6c-0.1-0.5-0.4-0.8-0.8-1.1c-0.4-0.3-0.8-0.4-1.2-0.4
			c-0.5,0-0.9,0.1-1.4,0.4s-0.5,0.7-0.8,1.1c-0.1,0.5-0.3,0.9-0.3,1.6c0,0.5,0.1,1.1,0.3,1.6s0.4,0.8,0.8,1.1
			C135,113.4,135.6,113.6,136,113.6z"/>
		<path class="st4" d="M144.8,109.5v5.7h-2.3v-9.6h2.2v1.6h0.1c0.3-0.5,0.5-0.9,1.1-1.2c0.5-0.3,1.1-0.5,1.8-0.5s1.2,0.1,1.8,0.4
			c0.5,0.3,0.8,0.7,1.1,1.2c0.3,0.5,0.4,1.2,0.4,1.9v6.1h-2.3v-5.8c0-0.7-0.1-1.1-0.5-1.5c-0.3-0.4-0.8-0.5-1.4-0.5
			c-0.4,0-0.8,0.1-1.1,0.3s-0.5,0.4-0.7,0.8C144.9,108.7,144.8,109.1,144.8,109.5z"/>
		<path class="st4" d="M161.3,118.7c-1.4,0-2.4-0.1-3.5-0.5c-1.1-0.4-1.9-0.8-2.6-1.6c-0.7-0.7-1.2-1.5-1.6-2.6s-0.5-2.2-0.5-3.4
			c0-1.2,0.1-2.4,0.5-3.4c0.4-0.9,0.9-1.9,1.6-2.6c0.7-0.7,1.6-1.2,2.6-1.6c0.9-0.4,2.2-0.5,3.5-0.5c1.2,0,2.3,0.1,3.2,0.5
			c0.9,0.4,1.8,0.9,2.4,1.5c0.7,0.7,1.1,1.5,1.5,2.3c0.3,0.9,0.5,1.9,0.5,2.8c0,0.7,0,1.4-0.1,2c-0.1,0.7-0.3,1.2-0.5,1.6
			c-0.3,0.5-0.7,0.9-1.1,1.2c-0.4,0.3-0.9,0.4-1.6,0.4c-0.4,0-0.8,0-1.1-0.1c-0.3-0.1-0.5-0.3-0.8-0.4c-0.1-0.3-0.3-0.5-0.4-0.8
			h-0.1c-0.1,0.3-0.3,0.5-0.5,0.7c-0.3,0.3-0.5,0.4-0.9,0.5c-0.4,0.1-0.8,0.1-1.4,0.1s-0.9-0.1-1.4-0.4c-0.4-0.3-0.8-0.5-1.1-0.9
			c-0.3-0.4-0.5-0.8-0.7-1.4c-0.1-0.5-0.3-1.2-0.3-1.9s0.1-1.2,0.3-1.8c0.1-0.5,0.4-0.9,0.8-1.4c0.3-0.4,0.7-0.7,1.1-0.8
			c0.4-0.3,0.8-0.4,1.2-0.4c0.4,0,0.8,0,1.2,0c0.4,0.1,0.7,0.1,0.9,0.4c0.3,0.1,0.4,0.3,0.5,0.5h0.1v-0.7h1.8v6
			c0,0.3,0.1,0.5,0.3,0.8c0.1,0.3,0.4,0.3,0.7,0.3c0.3,0,0.5-0.1,0.8-0.4c0.3-0.3,0.4-0.7,0.4-1.2s0.1-1.2,0.1-2.2
			c0-0.7-0.1-1.4-0.3-1.9c-0.1-0.5-0.4-1.1-0.8-1.5c-0.4-0.4-0.8-0.8-1.2-1.1c-0.4-0.3-1.1-0.5-1.6-0.7c-0.5-0.1-1.2-0.3-1.9-0.3
			c-1.1,0-1.9,0.1-2.7,0.4c-0.8,0.3-1.5,0.8-1.9,1.4c-0.5,0.5-0.9,1.2-1.2,2c-0.3,0.8-0.4,1.6-0.4,2.6c0,0.9,0.1,1.9,0.4,2.7
			s0.7,1.5,1.2,2c0.5,0.5,1.2,0.9,2,1.2c0.8,0.3,1.8,0.4,2.7,0.4c0.5,0,0.9,0,1.4-0.1c0.4-0.1,0.8-0.1,1.2-0.3
			c0.4-0.1,0.7-0.1,0.8-0.3l0.5,1.6c-0.3,0.1-0.5,0.3-1.1,0.4c-0.4,0.1-0.9,0.3-1.5,0.3C162.4,118.7,161.8,118.7,161.3,118.7z
			 M160.9,113.3c0.5,0,0.9-0.1,1.2-0.3c0.3-0.3,0.5-0.5,0.7-0.9c0.1-0.4,0.3-0.9,0.1-1.5c0-0.5-0.1-1.1-0.3-1.4
			c-0.1-0.3-0.4-0.7-0.7-0.8c-0.3-0.1-0.7-0.3-1.2-0.3c-0.4,0-0.8,0.1-1.2,0.3c-0.3,0.3-0.5,0.5-0.8,0.8c-0.3,0.3-0.3,0.8-0.3,1.2
			c0,0.4,0.1,0.9,0.3,1.4c0.1,0.4,0.4,0.8,0.7,1.1C159.9,113.2,160.3,113.3,160.9,113.3z"/>
		<path class="st4" d="M175.8,105.6v1.8h-5.7v-1.8H175.8z M171.4,115.2v-10.6c0-0.7,0.1-1.2,0.4-1.6c0.3-0.4,0.7-0.8,1.1-0.9
			c0.4-0.3,0.9-0.3,1.5-0.3c0.4,0,0.7,0,1.1,0.1c0.3,0,0.5,0.1,0.7,0.1l-0.4,1.8c-0.1,0-0.3,0-0.4-0.1c-0.1,0-0.3,0-0.5,0
			c-0.4,0-0.7,0.1-0.9,0.3c-0.1,0.1-0.3,0.5-0.3,0.8V115L171.4,115.2L171.4,115.2z"/>
		<path class="st4" d="M177.5,115.2v-9.6h2.2v1.6h0.1c0.1-0.5,0.5-0.9,0.9-1.2c0.4-0.3,0.9-0.4,1.5-0.4c0.1,0,0.3,0,0.4,0
			s0.3,0,0.4,0v2c-0.1,0-0.3,0-0.4-0.1c-0.3,0-0.4,0-0.5,0c-0.4,0-0.8,0.1-1.1,0.3c-0.3,0.1-0.5,0.4-0.8,0.7
			c-0.1,0.3-0.3,0.7-0.3,1.1v5.7C180,115.2,177.5,115.2,177.5,115.2z"/>
		<path class="st4" d="M187,115.3c-0.5,0-1.2-0.1-1.6-0.3c-0.5-0.3-0.8-0.5-1.1-0.9c-0.3-0.4-0.4-0.9-0.4-1.6c0-0.5,0.1-0.9,0.3-1.4
			c0.1-0.4,0.4-0.7,0.8-0.8c0.4-0.3,0.7-0.4,1.2-0.5c0.4-0.1,0.9-0.1,1.4-0.3c0.5,0,1.1-0.1,1.4-0.1c0.4,0,0.5-0.1,0.8-0.3
			c0.1-0.1,0.3-0.3,0.3-0.5l0,0c0-0.4-0.1-0.8-0.4-1.1c-0.3-0.3-0.7-0.4-1.2-0.4s-0.9,0.1-1.4,0.4c-0.3,0.3-0.5,0.5-0.7,0.8
			l-2.2-0.3c0.1-0.5,0.4-1.1,0.8-1.5c0.4-0.4,0.8-0.7,1.4-0.9c0.5-0.3,1.2-0.3,1.9-0.3c0.4,0,0.9,0,1.4,0.1c0.4,0.1,0.8,0.3,1.2,0.5
			c0.4,0.3,0.7,0.5,0.9,0.9c0.3,0.4,0.4,0.9,0.4,1.6v6.4H190v-1.4h-0.1c-0.1,0.3-0.3,0.5-0.5,0.8c-0.3,0.3-0.5,0.4-0.9,0.5
			C187.9,115.3,187.5,115.3,187,115.3z M187.7,113.7c0.4,0,0.8-0.1,1.2-0.3c0.3-0.1,0.5-0.4,0.8-0.7c0.1-0.3,0.3-0.7,0.3-0.9v-1.1
			c-0.1,0-0.1,0.1-0.4,0.1c-0.1,0-0.4,0.1-0.5,0.1c-0.3,0-0.4,0.1-0.7,0.1c-0.3,0-0.4,0-0.5,0.1c-0.3,0-0.7,0.1-0.9,0.3
			c-0.3,0.1-0.5,0.3-0.7,0.4c-0.1,0.1-0.3,0.4-0.3,0.7c0,0.4,0.1,0.7,0.4,0.9S187.1,113.7,187.7,113.7z"/>
		<path class="st4" d="M200.5,111.1v-5.5h2.3v9.6h-2.2v-1.8h-0.1c-0.3,0.5-0.5,0.9-1.1,1.4c-0.5,0.4-1.1,0.5-1.8,0.5
			s-1.2-0.1-1.6-0.4c-0.5-0.3-0.8-0.7-1.1-1.2c-0.3-0.5-0.4-1.2-0.4-1.9v-6.1h2.3v5.8c0,0.7,0.1,1.1,0.5,1.5
			c0.4,0.4,0.8,0.5,1.4,0.5c0.3,0,0.7-0.1,0.9-0.3c0.3-0.1,0.5-0.4,0.8-0.7C200.4,112.1,200.5,111.7,200.5,111.1z"/>
		<path class="st4" d="M208.6,115.3c-0.8,0-1.5-0.1-2-0.5c-0.5-0.4-1.1-0.9-1.4-1.6c-0.4-0.7-0.5-1.6-0.5-2.7c0-1.1,0.1-2,0.5-2.7
			c0.4-0.7,0.8-1.4,1.5-1.6c0.7-0.3,1.2-0.5,2-0.5c0.5,0,1.1,0.1,1.4,0.3c0.4,0.1,0.7,0.4,0.8,0.7c0.1,0.3,0.4,0.5,0.5,0.8h0.1v-4.7
			h2.3v12.9h-2.2V114h-0.1c-0.1,0.3-0.3,0.5-0.5,0.7c-0.3,0.1-0.5,0.5-0.8,0.7C209.6,115.2,209.2,115.3,208.6,115.3z M209.3,113.4
			c0.5,0,0.9-0.1,1.2-0.4c0.3-0.3,0.5-0.7,0.8-1.1c0.3-0.4,0.3-0.9,0.3-1.6s-0.1-1.2-0.3-1.6c-0.1-0.4-0.4-0.8-0.8-1.1
			c-0.3-0.3-0.8-0.4-1.2-0.4c-0.5,0-0.9,0.1-1.2,0.4c-0.3,0.3-0.5,0.7-0.8,1.1c-0.1,0.4-0.3,0.9-0.3,1.6c0,0.5,0.1,1.1,0.3,1.6
			c0.1,0.4,0.4,0.8,0.8,1.1C208.4,113.3,208.8,113.4,209.3,113.4z"/>
		<path class="st4" d="M216.2,115.2v-9.6h2.2v1.6h0.1c0.1-0.5,0.5-0.9,0.9-1.4c0.4-0.3,1.1-0.4,1.6-0.4c0.7,0,1.2,0.1,1.6,0.4
			c0.4,0.3,0.8,0.7,0.9,1.2h0.1c0.3-0.5,0.5-0.9,1.1-1.2c0.5-0.3,1.1-0.5,1.8-0.5c0.9,0,1.6,0.3,2.2,0.8s0.8,1.4,0.8,2.4v6.5h-2.2
			V109c0-0.5-0.1-1.1-0.5-1.4c-0.3-0.3-0.7-0.4-1.2-0.4s-0.9,0.1-1.2,0.5c-0.3,0.4-0.4,0.8-0.4,1.4v6h-2.2v-6.2
			c0-0.5-0.1-0.9-0.4-1.2c-0.3-0.3-0.8-0.3-1.4-0.3c-0.3,0-0.7,0.1-0.9,0.3s-0.5,0.4-0.7,0.7c-0.1,0.3-0.3,0.7-0.3,1.1v5.8
			C218.3,115.2,216.2,115.2,216.2,115.2z"/>
		<path class="st4" d="M234.8,115.3c-0.5,0-1.2-0.1-1.6-0.3c-0.5-0.3-0.8-0.5-1.1-0.9c-0.3-0.4-0.4-0.9-0.4-1.6
			c0-0.5,0.1-0.9,0.3-1.4c0.1-0.4,0.4-0.7,0.8-0.8c0.4-0.3,0.7-0.4,1.2-0.5c0.4-0.1,0.9-0.1,1.4-0.3c0.5,0,1.1-0.1,1.4-0.1
			c0.4,0,0.5-0.1,0.8-0.3c0.1-0.1,0.3-0.3,0.3-0.5l0,0c0-0.4-0.1-0.8-0.4-1.1c-0.3-0.3-0.7-0.4-1.2-0.4c-0.5,0-0.9,0.1-1.4,0.4
			c-0.3,0.3-0.5,0.5-0.7,0.8l-2.2-0.3c0.1-0.5,0.4-1.1,0.8-1.5c0.4-0.4,0.8-0.7,1.4-0.9c0.5-0.3,1.2-0.3,1.9-0.3
			c0.4,0,0.9,0,1.4,0.1c0.4,0.1,0.8,0.3,1.2,0.5c0.4,0.3,0.7,0.5,0.9,0.9c0.3,0.4,0.4,0.9,0.4,1.6v6.4h-2.2v-1.4h-0.1
			c-0.1,0.3-0.3,0.5-0.5,0.8c-0.3,0.3-0.5,0.4-0.9,0.5C235.7,115.3,235.2,115.3,234.8,115.3z M235.3,113.7c0.4,0,0.8-0.1,1.2-0.3
			c0.3-0.1,0.5-0.4,0.8-0.7c0.1-0.3,0.3-0.7,0.3-0.9v-1.1c-0.1,0-0.1,0.1-0.4,0.1c-0.1,0-0.4,0.1-0.5,0.1c-0.3,0-0.4,0.1-0.7,0.1
			c-0.3,0-0.4,0-0.5,0.1c-0.3,0-0.7,0.1-0.9,0.3c-0.3,0.1-0.5,0.3-0.7,0.4c-0.1,0.1-0.3,0.4-0.3,0.7c0,0.4,0.1,0.7,0.4,0.9
			S234.9,113.7,235.3,113.7z"/>
		<path class="st4" d="M243.2,104.2c-0.4,0-0.7-0.1-0.9-0.4c-0.3-0.3-0.4-0.5-0.4-0.8c0-0.4,0.1-0.7,0.4-0.8
			c0.3-0.3,0.5-0.4,0.9-0.4s0.7,0.1,0.9,0.4c0.3,0.3,0.4,0.5,0.4,0.8s-0.1,0.7-0.4,0.8C243.8,104.1,243.6,104.2,243.2,104.2z
			 M242.1,115.2v-9.6h2.3v9.6H242.1z"/>
		<path class="st4" d="M249,102.3v12.9h-2.3v-12.9H249z"/>
		<path class="st4" d="M252.6,115.3c-0.4,0-0.7-0.1-0.9-0.4c-0.3-0.3-0.4-0.5-0.4-0.9c0-0.4,0.1-0.7,0.4-0.9
			c0.3-0.3,0.5-0.4,0.9-0.4c0.4,0,0.7,0.1,0.9,0.4c0.3,0.3,0.4,0.5,0.4,0.9c0,0.3-0.1,0.5-0.1,0.7c-0.1,0.3-0.3,0.4-0.5,0.5
			C253.2,115.2,252.9,115.3,252.6,115.3z"/>
		<path class="st4" d="M260.5,115.3c-0.9,0-1.8-0.3-2.4-0.7c-0.7-0.4-1.2-0.9-1.6-1.8c-0.4-0.7-0.5-1.6-0.5-2.6
			c0-0.9,0.1-1.9,0.5-2.6c0.4-0.7,0.9-1.4,1.6-1.8c0.7-0.4,1.5-0.7,2.4-0.7c0.8,0,1.5,0.1,2,0.4s1.1,0.7,1.5,1.2
			c0.4,0.5,0.5,1.1,0.7,1.8h-2.2c-0.1-0.4-0.3-0.8-0.7-1.2c-0.3-0.3-0.8-0.4-1.4-0.4c-0.4,0-0.8,0.1-1.2,0.4
			c-0.4,0.3-0.7,0.5-0.8,1.1c-0.1,0.4-0.3,1.1-0.3,1.6c0,0.7,0.1,1.2,0.3,1.6c0.1,0.4,0.4,0.8,0.8,1.1c0.4,0.3,0.8,0.4,1.2,0.4
			c0.3,0,0.7,0,0.9-0.1c0.3-0.1,0.5-0.3,0.7-0.5s0.3-0.5,0.4-0.9h2.2c0,0.7-0.3,1.2-0.5,1.8c-0.4,0.5-0.8,0.9-1.4,1.2
			C262.1,115.2,261.3,115.3,260.5,115.3z"/>
		<path class="st4" d="M270.8,115.3c-0.9,0-1.8-0.3-2.4-0.7c-0.7-0.4-1.2-0.9-1.6-1.8s-0.5-1.6-0.5-2.6s0.1-1.9,0.5-2.6
			c0.4-0.8,0.9-1.4,1.6-1.8c0.7-0.4,1.5-0.7,2.4-0.7s1.8,0.3,2.4,0.7c0.7,0.4,1.2,0.9,1.6,1.8c0.4,0.8,0.5,1.6,0.5,2.6
			s-0.1,1.9-0.5,2.6c-0.4,0.7-0.9,1.4-1.6,1.8C272.5,115,271.6,115.3,270.8,115.3z M270.8,113.6c0.5,0,0.9-0.1,1.2-0.4
			c0.3-0.3,0.5-0.7,0.8-1.1c0.1-0.5,0.3-0.9,0.3-1.6c0-0.5-0.1-1.1-0.3-1.6c-0.1-0.5-0.4-0.8-0.8-1.1c-0.4-0.3-0.8-0.4-1.2-0.4
			c-0.5,0-0.9,0.1-1.4,0.4c-0.4,0.3-0.5,0.7-0.8,1.1c-0.1,0.5-0.3,0.9-0.3,1.6c0,0.5,0.1,1.1,0.3,1.6c0.1,0.5,0.4,0.8,0.8,1.1
			C269.8,113.4,270.2,113.6,270.8,113.6z"/>
		<path class="st4" d="M277.3,115.2v-9.6h2.2v1.6h0.1c0.1-0.5,0.5-0.9,0.9-1.4c0.4-0.3,1.1-0.4,1.6-0.4c0.7,0,1.2,0.1,1.6,0.4
			c0.4,0.3,0.8,0.7,0.9,1.2h0.1c0.3-0.5,0.5-0.9,1.1-1.2c0.5-0.3,1.1-0.5,1.8-0.5c0.9,0,1.6,0.3,2.2,0.8c0.5,0.5,0.8,1.4,0.8,2.4
			v6.5h-2.3V109c0-0.5-0.1-1.1-0.5-1.4c-0.3-0.3-0.7-0.4-1.2-0.4c-0.5,0-0.9,0.1-1.2,0.5c-0.3,0.4-0.4,0.8-0.4,1.4v6h-2.2v-6.2
			c0-0.5-0.1-0.9-0.4-1.2c-0.3-0.3-0.7-0.4-1.2-0.4c-0.3,0-0.7,0.1-0.9,0.3c-0.3,0.1-0.5,0.4-0.7,0.7s-0.3,0.7-0.3,1.1v5.8
			L277.3,115.2L277.3,115.2z"/>
	</g>
	<g class="st5">
		<path class="st4" d="M37.2,132.2h2.3v8.4c0,0.9-0.3,1.8-0.7,2.4c-0.4,0.7-1.1,1.2-1.8,1.6c-0.8,0.4-1.6,0.5-2.7,0.5
			c-1.1,0-1.9-0.1-2.7-0.5c-0.8-0.4-1.4-0.9-1.8-1.6c-0.4-0.7-0.7-1.5-0.7-2.4v-8.4h2.3v8.1c0,0.5,0.1,0.9,0.4,1.5
			c0.3,0.4,0.5,0.7,0.9,0.9s0.9,0.4,1.5,0.4c0.5,0,1.1-0.1,1.5-0.4c0.4-0.3,0.8-0.5,0.9-0.9c0.1-0.4,0.4-0.9,0.4-1.5V132.2z"/>
		<path class="st4" d="M49.5,137.9l-2,0.3c0-0.3-0.1-0.4-0.3-0.5c-0.1-0.1-0.3-0.3-0.5-0.4c-0.3-0.1-0.5-0.1-0.9-0.1
			s-0.8,0.1-1.2,0.3c-0.3,0.3-0.5,0.4-0.4,0.8c0,0.3,0.1,0.5,0.3,0.7c0.1,0.1,0.5,0.3,1.1,0.4l1.6,0.4c0.9,0.1,1.6,0.5,2,0.9
			c0.4,0.4,0.7,0.9,0.7,1.6c0,0.5-0.1,1.1-0.5,1.6c-0.4,0.4-0.8,0.8-1.5,1.1c-0.7,0.3-1.4,0.4-2.2,0.4c-1.2,0-2.2-0.3-2.8-0.7
			c-0.7-0.5-1.1-1.2-1.2-2l2.2-0.3c0.1,0.4,0.3,0.8,0.7,0.9c0.3,0.3,0.8,0.3,1.2,0.3c0.5,0,0.9-0.1,1.4-0.3c0.3-0.3,0.5-0.5,0.5-0.8
			s-0.1-0.5-0.3-0.7c-0.3-0.1-0.5-0.3-0.9-0.4l-1.6-0.4c-0.9-0.1-1.6-0.5-2-0.9s-0.7-1.1-0.7-1.8c0-0.5,0.1-1.1,0.5-1.5
			c0.4-0.4,0.8-0.8,1.4-0.9c0.5-0.3,1.2-0.4,2-0.4c1.1,0,2,0.3,2.7,0.7C49.2,136.6,49.3,137.1,49.5,137.9z"/>
		<path class="st4" d="M55.7,145.2c-0.9,0-1.8-0.1-2.4-0.5c-0.7-0.4-1.2-0.9-1.6-1.8c-0.4-0.7-0.5-1.6-0.5-2.6s0.1-1.9,0.5-2.6
			c0.4-0.8,0.9-1.4,1.6-1.8s1.5-0.7,2.4-0.7c0.5,0,1.2,0.1,1.6,0.3c0.5,0.1,0.9,0.5,1.4,0.8c0.4,0.4,0.7,0.9,0.9,1.5
			c0.3,0.7,0.4,1.4,0.4,2.2v0.7h-7.9v-1.5h5.7c0-0.4-0.1-0.8-0.3-1.2c-0.1-0.4-0.4-0.5-0.8-0.8c-0.3-0.1-0.7-0.3-1.1-0.3
			s-0.8,0.1-1.2,0.3c-0.4,0.3-0.7,0.5-0.8,0.8c-0.1,0.4-0.3,0.8-0.3,1.2v1.4c0,0.5,0.1,1.1,0.3,1.5c0.1,0.4,0.5,0.7,0.8,0.9
			c0.4,0.3,0.8,0.3,1.4,0.3c0.3,0,0.7,0,0.9-0.1s0.5-0.3,0.7-0.4c0.1-0.1,0.4-0.4,0.4-0.7l2.2,0.3c-0.1,0.5-0.4,1.1-0.8,1.5
			c-0.4,0.4-0.8,0.7-1.5,0.9C57.1,145.1,56.5,145.2,55.7,145.2z"/>
		<path class="st4" d="M61.9,145v-9.6h2.2v1.6h0.1c0.1-0.5,0.5-0.9,0.9-1.2c0.4-0.3,0.9-0.4,1.5-0.4c0.1,0,0.3,0,0.4,0
			c0.1,0,0.3,0,0.4,0v2c-0.1,0-0.3,0-0.4-0.1c-0.3,0-0.4,0-0.5,0c-0.4,0-0.8,0.1-1.1,0.3s-0.5,0.4-0.8,0.7c-0.1,0.3-0.3,0.7-0.3,1.1
			v5.7C64.4,145,61.9,145,61.9,145z"/>
		<path class="st4" d="M75.7,132.2v12.9h-2.3v-12.9H75.7z"/>
		<path class="st4" d="M82.5,145h-4.3v-12.9h4.5c1.2,0,2.3,0.3,3.2,0.8s1.6,1.2,2.2,2.2c0.5,0.9,0.7,2,0.7,3.4s-0.3,2.4-0.7,3.4
			c-0.4,0.9-1.2,1.8-2.2,2.2C84.9,144.8,83.9,145,82.5,145z M80.6,143.1h1.9c0.9,0,1.6-0.1,2.2-0.5c0.5-0.3,1.1-0.8,1.4-1.5
			s0.4-1.5,0.4-2.4c0-0.9-0.1-1.8-0.4-2.4s-0.7-1.1-1.4-1.5c-0.5-0.3-1.4-0.5-2.2-0.5h-2v8.9C80.5,143.1,80.6,143.1,80.6,143.1z"/>
		<path class="st4" d="M96.6,138.3c-0.4,0-0.7-0.1-0.9-0.4c-0.3-0.3-0.4-0.5-0.4-0.9s0.1-0.7,0.4-0.9c0.3-0.3,0.5-0.4,0.9-0.4
			c0.4,0,0.7,0.1,0.9,0.4s0.4,0.5,0.4,0.9c0,0.3-0.1,0.5-0.1,0.7s-0.3,0.4-0.5,0.5S96.9,138.3,96.6,138.3z M96.6,145.1
			c-0.4,0-0.7-0.1-0.9-0.4c-0.3-0.3-0.4-0.5-0.4-0.9c0-0.4,0.1-0.7,0.4-0.9c0.3-0.3,0.5-0.4,0.9-0.4c0.4,0,0.7,0.1,0.9,0.4
			c0.3,0.3,0.4,0.5,0.4,0.9c0,0.3-0.1,0.5-0.1,0.7c-0.1,0.3-0.3,0.4-0.5,0.5C97.1,145.1,96.9,145.1,96.6,145.1z"/>
	</g>
	<g class="st5">
		<path class="st9" d="M104.3,134.1v-1.9h10.2v1.9h-3.9V145h-2.3v-10.8H104.3z"/>
		<path class="st9" d="M123.4,135.8c0-0.5-0.3-0.9-0.7-1.2c-0.4-0.3-0.9-0.4-1.6-0.4c-0.5,0-0.9,0.1-1.2,0.3s-0.7,0.4-0.8,0.5
			c-0.1,0.1-0.3,0.5-0.3,0.8s0,0.5,0.1,0.7s0.3,0.4,0.5,0.5s0.4,0.3,0.7,0.4c0.3,0.1,0.5,0.1,0.8,0.3l1.2,0.3
			c0.5,0.1,0.9,0.3,1.4,0.4c0.4,0.1,0.8,0.4,1.2,0.7c0.4,0.3,0.7,0.7,0.8,1.1c0.1,0.4,0.3,0.9,0.3,1.5c0,0.8-0.1,1.4-0.5,2
			s-0.9,0.9-1.6,1.4c-0.7,0.3-1.6,0.5-2.6,0.5c-0.9,0-1.9-0.1-2.6-0.4s-1.4-0.8-1.8-1.4c-0.4-0.5-0.7-1.4-0.7-2.2h2.3
			c0,0.4,0.1,0.8,0.4,1.1c0.3,0.3,0.5,0.5,0.9,0.7s0.8,0.3,1.4,0.3c0.5,0,0.9-0.1,1.4-0.3c0.4-0.1,0.7-0.4,0.9-0.7
			c0.3-0.3,0.3-0.5,0.3-0.9c0-0.3-0.1-0.7-0.3-0.8c-0.1-0.3-0.4-0.4-0.8-0.5c-0.4-0.1-0.8-0.3-1.2-0.4l-1.5-0.4
			c-1.1-0.3-1.9-0.7-2.4-1.2c-0.7-0.5-0.9-1.4-0.9-2.2s0.3-1.4,0.7-2c0.4-0.7,0.9-0.9,1.6-1.4c0.7-0.3,1.5-0.4,2.4-0.4
			s1.8,0.1,2.4,0.4c0.7,0.3,1.2,0.8,1.6,1.4c0.4,0.5,0.5,1.2,0.5,1.9h-2.4V135.8z"/>
		<path class="st9" d="M132.3,145.2c-0.9,0-1.8-0.1-2.4-0.4c-0.7-0.3-1.2-0.7-1.6-1.4c-0.4-0.5-0.7-1.2-0.7-1.9h2.3
			c0,0.4,0.1,0.7,0.4,0.9s0.5,0.4,0.8,0.5c0.4,0.1,0.7,0.3,1.2,0.3c0.4,0,0.8-0.1,1.2-0.3s0.7-0.4,0.8-0.7s0.3-0.7,0.3-0.9
			c0-0.4-0.1-0.7-0.3-1.1c-0.3-0.3-0.5-0.5-0.9-0.7s-0.8-0.3-1.4-0.3H131v-1.8h1.1c0.4,0,0.8-0.1,1.2-0.3c0.3-0.1,0.5-0.4,0.8-0.7
			c0.1-0.3,0.3-0.5,0.3-0.9c0-0.4-0.1-0.7-0.3-0.9c-0.1-0.3-0.4-0.5-0.7-0.7s-0.7-0.3-1.1-0.3c-0.4,0-0.8,0.1-1.1,0.3
			s-0.5,0.4-0.8,0.5c-0.3,0.3-0.3,0.5-0.3,0.9H128c0-0.7,0.3-1.4,0.7-1.9s0.9-0.9,1.6-1.2c0.7-0.3,1.4-0.4,2.3-0.4
			c0.8,0,1.6,0.1,2.2,0.5c0.7,0.3,1.1,0.8,1.5,1.2c0.4,0.5,0.5,1.1,0.5,1.8c0,0.7-0.3,1.4-0.7,1.8c-0.4,0.5-0.9,0.8-1.6,0.9v0.1
			c0.9,0.1,1.6,0.4,2,0.9c0.5,0.5,0.7,1.2,0.7,2c0,0.7-0.1,1.4-0.5,1.9c-0.4,0.5-0.9,0.9-1.6,1.4
			C134.1,145.1,133.3,145.2,132.3,145.2z"/>
		<path class="st9" d="M143.7,145.2c-0.8,0-1.6-0.1-2.3-0.4c-0.7-0.3-1.2-0.8-1.6-1.4s-0.5-1.2-0.7-1.9h2.3c0,0.5,0.3,0.9,0.7,1.2
			c0.4,0.3,0.9,0.5,1.5,0.5c0.4,0,0.8-0.1,1.2-0.3c0.4-0.3,0.7-0.5,0.8-0.8c0.3-0.4,0.3-0.8,0.3-1.2c0-0.5-0.1-0.9-0.3-1.4
			c-0.3-0.4-0.5-0.7-0.8-0.9c-0.4-0.3-0.8-0.3-1.2-0.3c-0.4,0-0.8,0-1.1,0.3c-0.4,0.1-0.7,0.3-0.9,0.5l-2-0.4l0.7-6.6h7.4v1.9h-5.5
			l-0.4,3.4h0.1c0.3-0.3,0.5-0.5,0.9-0.7c0.4-0.1,0.9-0.3,1.5-0.3c0.8,0,1.5,0.1,2,0.5s1.1,0.8,1.5,1.5s0.5,1.4,0.5,2.2
			s-0.1,1.6-0.5,2.3c-0.4,0.7-0.9,1.2-1.6,1.6C145.3,145,144.6,145.2,143.7,145.2z"/>
		<path class="st9" d="M150.3,145v-1.6l4.5-4.3c0.4-0.4,0.8-0.8,1.1-1.1c0.3-0.3,0.5-0.7,0.7-0.9c0.1-0.3,0.3-0.7,0.3-0.9
			c0-0.4-0.1-0.8-0.3-1.1c-0.1-0.3-0.4-0.5-0.8-0.7c-0.3-0.1-0.7-0.3-1.1-0.3s-0.8,0.1-1.1,0.3c-0.3,0.1-0.5,0.4-0.7,0.7
			c-0.1,0.3-0.3,0.7-0.3,1.1h-2.3c0-0.8,0.1-1.5,0.5-2.2c0.4-0.5,0.9-1.1,1.5-1.4c0.5-0.3,1.4-0.5,2.3-0.5c0.8,0,1.6,0.1,2.3,0.5
			c0.7,0.3,1.2,0.8,1.5,1.4c0.4,0.5,0.5,1.2,0.5,1.9c0,0.5-0.1,0.9-0.3,1.4c-0.1,0.4-0.5,0.9-0.9,1.5c-0.4,0.5-1.1,1.2-1.9,2
			l-2.2,2.3v0.1h5.5v1.9C159.2,145,150.3,145,150.3,145z"/>
		<path class="st9" d="M160.7,142.7v-1.9l5.4-8.5h1.5v2.6h-0.9l-3.7,5.8v0.1h7.6v1.9H160.7z M166.8,145v-3v-0.8v-9.1h2.2V145
			C169,145,166.8,145,166.8,145z"/>
	</g>
</g>
</svg>
