<?xml version="1.0" encoding="utf-8"?>
<!-- Generator: Adobe Illustrator 22.0.0, SVG Export Plug-In . SVG Version: 6.00 Build 0)  -->
<svg version="1.1" id="Layer_1" xmlns="http://www.w3.org/2000/svg" xmlns:xlink="http://www.w3.org/1999/xlink" x="0px" y="0px"
	 viewBox="0 0 462 262.7" style="enable-background:new 0 0 462 262.7;" xml:space="preserve">
<style type="text/css">
	.st0{fill:#FAFAFA;}
	.st1{fill:#37474F;}
	.st2{fill:#FFB600;}
	.st3{fill:#E2E2E2;}
	.st4{enable-background:new    ;}
	.st5{opacity:0.75;}
	.st6{fill:#7C7C7C;}
	.st7{fill:#EDEDED;}
	.st8{fill:#FF5744;}
</style>
<title>Artboard 9 copy 32</title>
<g>
	<g>
		<path class="st0" d="M452.7,262.7H9.3c-5.1,0-9.3-4.2-9.3-9.3V28.3h462v225.1C462,258.5,457.8,262.7,452.7,262.7z"/>
	</g>
</g>
<g>
	<g>
		<path class="st1" d="M462,28.3H0v-19C0,4.1,4.1,0,9.3,0h443.8c4.9,0,8.9,4,8.9,8.9L462,28.3L462,28.3z"/>
	</g>
</g>
<g>
	<g>
		<g>
			<polygon class="st2" points="342.8,180 345.5,185.3 351.3,186.2 347,190.4 348.1,196.3 342.8,193.5 337.5,196.3 338.5,190.4 
				334.3,186.2 340.1,185.3 			"/>
		</g>
	</g>
	<g>
		<g>
			<polygon class="st2" points="362.4,180 365,185.3 370.9,186.2 366.6,190.4 367.7,196.3 362.4,193.5 357.1,196.3 358.1,190.4 
				353.8,186.2 359.7,185.3 			"/>
		</g>
	</g>
	<g>
		<g>
			<polygon class="st3" points="382,180 384.6,185.3 390.5,186.2 386.3,190.4 387.2,196.3 382,193.5 376.6,196.3 377.7,190.4 
				373.4,186.2 379.3,185.3 			"/>
		</g>
	</g>
	<g>
		<g>
			<polygon class="st3" points="401.5,180 404.2,185.3 410,186.2 405.8,190.4 406.8,196.3 401.5,193.5 396.2,196.3 397.2,190.4 
				392.9,186.2 398.8,185.3 			"/>
		</g>
	</g>
	<g>
		<g>
			<polygon class="st3" points="421.1,180 423.7,185.3 429.7,186.2 425.4,190.4 426.4,196.3 421.1,193.5 415.8,196.3 416.8,190.4 
				412.5,186.2 418.5,185.3 			"/>
		</g>
	</g>
	<g>
		<g>
			<polygon class="st2" points="382,180 379.3,185.3 373.4,186.2 377.7,190.4 376.7,196.3 382,193.5 			"/>
		</g>
	</g>
</g>
<g>
	<g>
		<path class="st3" d="M428.5,236.4h-395c-2.8,0-5-2.2-5-5V208c0-2.8,2.2-5,5-5h395c2.8,0,5,2.2,5,5v23.4
			C433.5,234.1,431.2,236.4,428.5,236.4z"/>
	</g>
</g>
<g>
	<g>
		<path class="st1" d="M248.9,236.4H33.5c-2.8,0-5-2.2-5-5V208c0-2.8,2.2-5,5-5h215.4V236.4z"/>
	</g>
</g>
<g class="st4">
	<g>
		<path d="M40,195.9v-12h4.3c0.9,0,1.6,0.1,2.3,0.5c0.6,0.4,1,0.8,1.4,1.3s0.5,1.3,0.5,1.9c0,0.8-0.1,1.4-0.5,1.9s-0.8,1-1.4,1.3
			c-0.6,0.3-1.4,0.5-2.3,0.5H41v-1.5h3c0.6,0,1-0.1,1.4-0.3c0.4-0.1,0.6-0.4,0.8-0.8c0.1-0.4,0.3-0.8,0.3-1.1c0-0.5-0.1-0.9-0.3-1.1
			c-0.1-0.4-0.5-0.6-0.8-0.8c-0.4-0.1-0.9-0.3-1.4-0.3h-2.3v10.4H40V195.9z M46,190.4l2.9,5.4h-2l-2.9-5.4H46z"/>
	</g>
	<g>
		<path d="M54.3,196.1c-0.9,0-1.6-0.3-2.3-0.6c-0.6-0.4-1.1-0.9-1.5-1.6c-0.4-0.6-0.5-1.5-0.5-2.4s0.1-1.8,0.5-2.4
			c0.4-0.6,0.9-1.3,1.4-1.6c0.6-0.4,1.4-0.6,2.2-0.6c0.5,0,1,0.1,1.5,0.3c0.5,0.1,0.9,0.4,1.3,0.8c0.4,0.4,0.6,0.9,0.9,1.4
			c0.3,0.6,0.4,1.3,0.4,2v0.6H51v-1.3h5.4c0-0.5-0.1-0.9-0.3-1.3c-0.1-0.4-0.5-0.6-0.8-0.9s-0.8-0.3-1.1-0.3c-0.5,0-0.9,0.1-1.3,0.4
			s-0.6,0.5-0.9,0.9c-0.3,0.4-0.3,0.8-0.3,1.3v1c0,0.6,0.1,1.1,0.4,1.5s0.5,0.8,0.9,1s0.9,0.4,1.4,0.4c0.4,0,0.6,0,0.9-0.1
			s0.5-0.3,0.8-0.4c0.3-0.3,0.4-0.4,0.5-0.8l1.6,0.3c-0.1,0.5-0.4,0.9-0.8,1.3c-0.4,0.4-0.8,0.6-1.3,0.9
			C55.8,196,54.9,196.1,54.3,196.1z"/>
	</g>
	<g>
		<path d="M66.8,189.2l-1.6,0.3c-0.1-0.3-0.1-0.4-0.3-0.6c-0.1-0.1-0.4-0.4-0.6-0.5c-0.3-0.1-0.5-0.1-0.9-0.1
			c-0.5,0-0.9,0.1-1.3,0.4c-0.4,0.3-0.5,0.5-0.5,0.9c0,0.3,0.1,0.5,0.4,0.8c0.3,0.1,0.6,0.4,1,0.5l1.4,0.4c0.9,0.3,1.4,0.5,1.9,0.9
			c0.4,0.4,0.6,0.9,0.6,1.5c0,0.5-0.1,1-0.5,1.4c-0.3,0.4-0.8,0.8-1.3,1s-1.1,0.4-1.9,0.4c-1,0-1.8-0.3-2.4-0.6
			c-0.6-0.4-1-1-1.1-1.9l1.6-0.3c0.1,0.4,0.4,0.8,0.6,1c0.4,0.3,0.8,0.4,1.3,0.4c0.6,0,1-0.1,1.4-0.4c0.4-0.3,0.5-0.5,0.5-0.9
			c0-0.3-0.1-0.5-0.3-0.8c-0.3-0.3-0.5-0.4-1-0.4l-1.5-0.4c-0.9-0.3-1.5-0.5-1.9-0.9s-0.6-0.9-0.6-1.6c0-0.5,0.1-1,0.5-1.4
			c0.3-0.4,0.8-0.8,1.3-0.9c0.5-0.3,1.1-0.4,1.8-0.4c1,0,1.8,0.3,2.3,0.6C66.2,187.9,66.6,188.4,66.8,189.2z"/>
	</g>
	<g>
		<path d="M74.6,192.2v-5.3h1.8v9h-1.8v-1.5h-0.1c-0.3,0.5-0.5,0.9-1,1.1c-0.5,0.4-1,0.5-1.6,0.5s-1.1-0.1-1.5-0.4
			c-0.4-0.3-0.8-0.6-1-1.1c-0.3-0.5-0.4-1.1-0.4-1.9v-5.7h1.8v5.4c0,0.6,0.1,1.1,0.5,1.5s0.8,0.5,1.3,0.5c0.4,0,0.6-0.1,1-0.3
			c0.4-0.1,0.6-0.4,0.8-0.8C74.4,193.1,74.6,192.7,74.6,192.2z"/>
	</g>
	<g>
		<path d="M80.4,184v12h-1.8v-12H80.4z"/>
	</g>
	<g>
		<path d="M87,186.9v1.4h-5v-1.4H87z M83.4,184.7h1.8v8.5c0,0.4,0,0.6,0.1,0.8s0.3,0.3,0.4,0.4c0.1,0.1,0.4,0.1,0.5,0.1s0.3,0,0.4,0
			s0.1,0,0.3,0l0.3,1.4c-0.1,0-0.3,0.1-0.4,0.1s-0.4,0-0.8,0.1c-0.5,0-0.9-0.1-1.3-0.3s-0.8-0.4-1-0.8c-0.3-0.4-0.4-0.8-0.4-1.4
			L83.4,184.7L83.4,184.7L83.4,184.7z"/>
	</g>
</g>
<g>
	<g>
		<g class="st5">
			<g>
				<g>
					<path class="st6" d="M436.9,101.8c0,2.2-1.9,4.3-2.2,6.5c-0.3,2.2,0.8,4.7,0.3,6.8c-0.7,2.1-3.1,3.6-3.9,5.5
						c-1,2.1-0.4,4.7-1.7,6.7c-1.2,1.8-3.9,2.6-5.4,4.3c-1.4,1.7-1.8,4.4-3.5,6c-1.7,1.4-4.4,1.4-6.4,2.6c-1.8,1.2-2.9,3.7-5,4.7
						c-1.9,1-4.7,0.1-6.8,0.7c-2.1,0.6-3.9,2.8-6.1,3.1s-4.4-1.2-6.7-1.2c-2.2,0-4.6,1.5-6.7,1.2c-2.2-0.3-4-2.5-6.1-3.1
						c-2.1-0.7-4.9,0.3-6.8-0.7c-2.1-1-3.2-3.5-5-4.7s-4.7-1.1-6.4-2.6c-1.7-1.4-2.1-4.2-3.5-6c-1.4-1.7-4.2-2.4-5.4-4.3
						c-1.2-1.8-0.7-4.6-1.7-6.7c-1-1.9-3.3-3.5-3.9-5.5s0.6-4.6,0.3-6.8c-0.3-2.2-2.2-4.3-2.2-6.5s1.9-4.3,2.2-6.5
						c0.3-2.2-0.8-4.7-0.3-6.8c0.7-2.1,3.1-3.6,3.9-5.5c1-2.1,0.4-4.7,1.7-6.7c1.2-1.8,3.9-2.6,5.4-4.3c1.4-1.7,1.8-4.4,3.5-6
						c1.7-1.4,4.4-1.4,6.4-2.6c1.8-1.2,2.9-3.7,5-4.7c1.9-1,4.7-0.1,6.8-0.7s3.9-2.8,6.1-3.1s4.4,1.2,6.7,1.2c2.2,0,4.6-1.5,6.7-1.2
						c2.2,0.3,4,2.5,6.1,3.1c2.1,0.7,4.9-0.3,6.8,0.7c2.1,1,3.2,3.5,5,4.7c1.8,1.2,4.7,1.1,6.4,2.6c1.7,1.4,2.1,4.2,3.5,6
						c1.4,1.7,4.2,2.4,5.4,4.3c1.2,1.8,0.7,4.6,1.7,6.7c1,1.9,3.3,3.5,3.9,5.5c0.6,2.1-0.6,4.6-0.3,6.8
						C435,97.5,436.9,99.6,436.9,101.8z"/>
				</g>
			</g>
		</g>
		<g>
			<g>
				<g>
					<path class="st7" d="M433,98c0,2.2-1.9,4.3-2.2,6.5c-0.3,2.2,0.8,4.7,0.3,6.8c-0.7,2.1-3.1,3.6-3.9,5.5c-1,2.1-0.4,4.7-1.7,6.7
						c-1.2,1.8-3.9,2.6-5.4,4.3c-1.4,1.7-1.8,4.4-3.5,6c-1.7,1.4-4.4,1.4-6.4,2.6c-1.8,1.2-2.9,3.7-5,4.7c-1.9,1-4.7,0.1-6.8,0.7
						c-2.1,0.6-3.9,2.8-6.1,3.1s-4.4-1.2-6.7-1.2c-2.2,0-4.6,1.5-6.7,1.2c-2.2-0.3-4-2.5-6.1-3.1c-2.1-0.7-4.9,0.3-6.8-0.7
						c-2.1-1-3.2-3.5-5-4.7s-4.7-1.1-6.4-2.6c-1.7-1.4-2.1-4.2-3.5-6c-1.4-1.7-4.2-2.4-5.4-4.3c-1.2-1.8-0.7-4.6-1.7-6.7
						c-1-1.9-3.3-3.5-3.9-5.5s0.6-4.6,0.3-6.8c-0.3-2.2-2.2-4.3-2.2-6.5s1.9-4.3,2.2-6.5c0.3-2.2-0.8-4.7-0.3-6.8
						c0.7-2.1,3.1-3.6,3.9-5.5c1-2.1,0.4-4.7,1.7-6.7c1.2-1.8,3.9-2.6,5.4-4.3c1.4-1.7,1.8-4.4,3.5-6c1.7-1.4,4.4-1.4,6.4-2.6
						c1.8-1.2,2.9-3.7,5-4.7c1.9-1,4.7-0.1,6.8-0.7s3.9-2.8,6.1-3.1s4.4,1.2,6.7,1.2c2.2,0,4.6-1.5,6.7-1.2c2.2,0.3,4,2.5,6.1,3.1
						c2.1,0.7,4.9-0.3,6.8,0.7c2.1,1,3.2,3.5,5,4.7s4.7,1.1,6.4,2.6c1.7,1.4,2.1,4.2,3.5,6c1.4,1.7,4.2,2.4,5.4,4.3
						c1.2,1.8,0.7,4.6,1.7,6.7c1,1.9,3.3,3.5,3.9,5.5c0.6,2.1-0.6,4.6-0.3,6.8C431.1,93.7,433,95.7,433,98z"/>
				</g>
			</g>
		</g>
	</g>
	<g>
		<g>
			<path class="st1" d="M385.7,138.2c-22.2,0-40.2-18-40.2-40.2s18-40.2,40.2-40.2s40.2,18,40.2,40.2S407.9,138.2,385.7,138.2z
				 M385.7,58.6c-21.8,0-39.4,17.6-39.4,39.4s17.6,39.4,39.4,39.4s39.4-17.6,39.4-39.4S407.5,58.6,385.7,58.6z"/>
		</g>
	</g>
	<g>
		<g class="st4">
			<path class="st2" d="M356.1,83.2h2.8l2.9,7.1h0.1l2.9-7.1h2.8v10.6h-2.2v-6.9h-0.1l-2.7,6.9h-1.5l-2.7-6.9h-0.1v6.9h-2.2V83.2z"
				/>
			<path class="st2" d="M369.5,93.8V83.2h7.2V85h-4.9v2.5h4.5v1.9h-4.5v2.5h4.9v1.9H369.5z"/>
			<path class="st2" d="M382.2,93.8h-3.8V83.2h3.8c1.1,0,2,0.2,2.8,0.6c0.8,0.4,1.4,1,1.8,1.8c0.4,0.8,0.6,1.7,0.6,2.8
				c0,1.1-0.2,2.1-0.6,2.9c-0.4,0.8-1,1.4-1.8,1.8C384.2,93.6,383.3,93.8,382.2,93.8z M380.7,91.9h1.4c0.7,0,1.2-0.1,1.7-0.4
				c0.5-0.2,0.8-0.6,1-1.1c0.2-0.5,0.3-1.1,0.3-1.9c0-0.8-0.1-1.4-0.3-1.9c-0.2-0.5-0.6-0.9-1-1.1c-0.5-0.2-1-0.4-1.7-0.4h-1.4V91.9
				z"/>
			<path class="st2" d="M391.3,83.2v10.6H389V83.2H391.3z"/>
			<path class="st2" d="M399.7,83.2h2.2v6.9c0,0.8-0.2,1.5-0.6,2s-0.9,1-1.5,1.4s-1.4,0.5-2.3,0.5c-0.9,0-1.7-0.2-2.3-0.5
				s-1.2-0.8-1.5-1.4s-0.5-1.3-0.5-2v-6.9h2.2v6.7c0,0.4,0.1,0.8,0.3,1.1c0.2,0.3,0.4,0.6,0.8,0.7c0.3,0.2,0.7,0.3,1.1,0.3
				c0.4,0,0.8-0.1,1.1-0.3c0.3-0.2,0.6-0.4,0.8-0.7c0.2-0.3,0.3-0.7,0.3-1.1V83.2z"/>
			<path class="st2" d="M403.8,83.2h2.8l2.9,7.1h0.1l2.9-7.1h2.8v10.6h-2.2v-6.9H413l-2.7,6.9h-1.5l-2.7-6.9H406v6.9h-2.2V83.2z"/>
		</g>
		<g class="st4">
			<path class="st2" d="M369,104c0-0.4-0.2-0.7-0.5-0.9c-0.3-0.2-0.7-0.3-1.2-0.3c-0.3,0-0.6,0-0.8,0.1c-0.2,0.1-0.4,0.2-0.5,0.4
				s-0.2,0.3-0.2,0.6c0,0.2,0,0.3,0.1,0.4c0.1,0.1,0.2,0.2,0.3,0.3c0.1,0.1,0.3,0.2,0.5,0.2c0.2,0.1,0.4,0.1,0.6,0.2l0.9,0.2
				c0.4,0.1,0.8,0.2,1.1,0.4s0.7,0.3,0.9,0.6c0.3,0.2,0.5,0.5,0.6,0.8c0.1,0.3,0.2,0.7,0.2,1.1c0,0.6-0.2,1.1-0.4,1.5
				s-0.7,0.8-1.3,1c-0.6,0.2-1.2,0.4-2,0.4c-0.8,0-1.4-0.1-2-0.4c-0.6-0.2-1-0.6-1.3-1.1c-0.3-0.5-0.5-1-0.5-1.7h2
				c0,0.3,0.1,0.6,0.3,0.8s0.4,0.4,0.7,0.5s0.6,0.2,0.9,0.2c0.3,0,0.6,0,0.9-0.1s0.5-0.2,0.6-0.4c0.1-0.2,0.2-0.4,0.2-0.6
				c0-0.2-0.1-0.4-0.2-0.5c-0.1-0.1-0.3-0.3-0.6-0.4s-0.5-0.2-0.9-0.3l-1-0.3c-0.8-0.2-1.4-0.5-1.9-0.9c-0.5-0.4-0.7-1-0.7-1.7
				c0-0.6,0.2-1.1,0.5-1.5c0.3-0.4,0.7-0.8,1.3-1c0.5-0.2,1.2-0.4,1.9-0.4c0.7,0,1.3,0.1,1.9,0.4c0.5,0.2,0.9,0.6,1.2,1
				c0.3,0.4,0.4,0.9,0.5,1.5H369z"/>
			<path class="st2" d="M380.8,104.6h-2c0-0.3-0.1-0.5-0.2-0.7s-0.3-0.4-0.4-0.5c-0.2-0.1-0.4-0.3-0.6-0.3c-0.2-0.1-0.5-0.1-0.8-0.1
				c-0.5,0-0.9,0.1-1.3,0.4s-0.7,0.6-0.9,1.1c-0.2,0.5-0.3,1-0.3,1.7c0,0.7,0.1,1.3,0.3,1.7c0.2,0.5,0.5,0.8,0.9,1
				c0.4,0.2,0.8,0.4,1.3,0.4c0.3,0,0.5,0,0.8-0.1c0.2-0.1,0.4-0.2,0.6-0.3c0.2-0.1,0.3-0.3,0.5-0.5c0.1-0.2,0.2-0.4,0.2-0.7l2,0
				c-0.1,0.4-0.2,0.9-0.4,1.3s-0.5,0.8-0.8,1.1c-0.4,0.3-0.8,0.6-1.3,0.8c-0.5,0.2-1,0.3-1.6,0.3c-0.9,0-1.6-0.2-2.3-0.6
				c-0.7-0.4-1.2-0.9-1.6-1.7c-0.4-0.7-0.6-1.6-0.6-2.7c0-1,0.2-1.9,0.6-2.7c0.4-0.7,0.9-1.3,1.6-1.7c0.7-0.4,1.4-0.6,2.3-0.6
				c0.6,0,1.1,0.1,1.5,0.2c0.5,0.2,0.9,0.4,1.3,0.7s0.7,0.7,0.9,1.1C380.6,103.6,380.8,104.1,380.8,104.6z"/>
			<path class="st2" d="M391.1,106.1c0,1-0.2,1.9-0.6,2.7c-0.4,0.7-0.9,1.3-1.6,1.7c-0.7,0.4-1.4,0.6-2.3,0.6
				c-0.8,0-1.6-0.2-2.3-0.6c-0.7-0.4-1.2-0.9-1.6-1.7c-0.4-0.7-0.6-1.6-0.6-2.7c0-1,0.2-1.9,0.6-2.7c0.4-0.7,0.9-1.3,1.6-1.7
				c0.7-0.4,1.4-0.6,2.3-0.6c0.8,0,1.6,0.2,2.3,0.6c0.7,0.4,1.2,0.9,1.6,1.7S391.1,105,391.1,106.1z M389,106.1
				c0-0.7-0.1-1.2-0.3-1.7c-0.2-0.5-0.5-0.8-0.8-1.1c-0.4-0.2-0.8-0.4-1.3-0.4s-0.9,0.1-1.3,0.4c-0.4,0.2-0.6,0.6-0.8,1.1
				c-0.2,0.5-0.3,1-0.3,1.7s0.1,1.2,0.3,1.7c0.2,0.5,0.5,0.8,0.8,1.1c0.4,0.2,0.8,0.4,1.3,0.4s0.9-0.1,1.3-0.4
				c0.4-0.2,0.6-0.6,0.8-1.1C388.9,107.3,389,106.7,389,106.1z"/>
			<path class="st2" d="M392.6,110.8v-9.6h3.8c0.7,0,1.3,0.1,1.9,0.4s0.9,0.6,1.2,1.1c0.3,0.5,0.4,1,0.4,1.6c0,0.6-0.1,1.2-0.4,1.6
				c-0.3,0.5-0.7,0.8-1.2,1c-0.5,0.2-1.1,0.4-1.9,0.4h-2.5v-1.6h2.2c0.4,0,0.7-0.1,1-0.2c0.3-0.1,0.4-0.3,0.6-0.5s0.2-0.5,0.2-0.8
				c0-0.3-0.1-0.6-0.2-0.8c-0.1-0.2-0.3-0.4-0.6-0.5c-0.3-0.1-0.6-0.2-1-0.2h-1.4v7.9H392.6z M397.7,106.5l2.4,4.3h-2.2l-2.3-4.3
				H397.7z"/>
			<path class="st2" d="M401.2,110.8v-9.6h6.4v1.7h-4.4v2.3h4.1v1.7h-4.1v2.3h4.4v1.7H401.2z"/>
		</g>
	</g>
</g>
<g>
	<g>
		<path class="st0" d="M221.5,223.4c-0.6,0-1.1-0.1-1.6-0.3s-0.8-0.5-1.1-0.9s-0.4-0.8-0.4-1.3h1.4c0,0.4,0.2,0.7,0.5,1
			s0.7,0.4,1.2,0.4c0.4,0,0.7-0.1,1-0.3s0.5-0.4,0.7-0.7s0.2-0.6,0.2-1s-0.1-0.7-0.2-1s-0.4-0.5-0.7-0.7s-0.6-0.3-1-0.3
			c-0.3,0-0.6,0-0.9,0.1c-0.3,0.1-0.5,0.2-0.7,0.4l-1.3-0.2l0.5-4.8h5.2v1.2h-4l-0.3,2.6h0.1c0.2-0.2,0.4-0.3,0.7-0.4
			c0.3-0.1,0.6-0.2,1-0.2c0.6,0,1.1,0.1,1.5,0.4c0.5,0.3,0.8,0.6,1.1,1.1s0.4,1,0.4,1.6s-0.1,1.2-0.4,1.6c-0.3,0.5-0.7,0.9-1.2,1.1
			C222.7,223.2,222.1,223.4,221.5,223.4z"/>
	</g>
	<g>
		<path class="st0" d="M229.7,223.4c-0.7,0-1.4-0.2-1.9-0.6c-0.5-0.4-0.9-0.9-1.2-1.7c-0.3-0.7-0.4-1.6-0.4-2.6s0.1-1.9,0.4-2.6
			s0.7-1.3,1.2-1.7s1.1-0.6,1.9-0.6c0.7,0,1.3,0.2,1.9,0.6c0.5,0.4,0.9,0.9,1.2,1.7c0.3,0.7,0.4,1.6,0.4,2.6s-0.1,1.9-0.4,2.6
			c-0.3,0.7-0.7,1.3-1.2,1.7C231.1,223.2,230.5,223.4,229.7,223.4z M229.7,222.2c0.6,0,1.1-0.3,1.5-0.9c0.4-0.6,0.5-1.5,0.5-2.7
			c0-0.8-0.1-1.4-0.2-2s-0.4-1-0.7-1.2c-0.3-0.3-0.7-0.4-1.1-0.4c-0.6,0-1.1,0.3-1.5,0.9c-0.4,0.6-0.5,1.5-0.5,2.7
			c0,0.8,0.1,1.5,0.2,2c0.2,0.5,0.4,1,0.7,1.2S229.3,222.2,229.7,222.2z"/>
	</g>
	<g>
		<path class="st0" d="M235,216v-0.5c0-0.4,0.1-0.7,0.2-1s0.4-0.5,0.7-0.7s0.6-0.3,1-0.3s0.8,0.1,1.1,0.3s0.5,0.4,0.6,0.7
			s0.2,0.6,0.2,1v0.5c0,0.4-0.1,0.7-0.2,1c-0.1,0.3-0.4,0.5-0.6,0.7c-0.3,0.2-0.6,0.3-1,0.3s-0.8-0.1-1.1-0.3s-0.5-0.4-0.6-0.7
			C235.1,216.7,235,216.4,235,216z M235.4,223.2l6.5-9.5h1.1l-6.5,9.5H235.4z M236.1,215.5v0.5c0,0.3,0.1,0.5,0.2,0.7
			c0.1,0.2,0.3,0.3,0.7,0.3c0.3,0,0.5-0.1,0.6-0.3s0.2-0.5,0.2-0.7v-0.5c0-0.3-0.1-0.5-0.2-0.7c-0.1-0.2-0.3-0.3-0.7-0.3
			c-0.3,0-0.5,0.1-0.7,0.3C236.2,215,236.1,215.3,236.1,215.5z M239.8,221.5V221c0-0.4,0.1-0.7,0.2-1s0.4-0.5,0.7-0.7s0.6-0.3,1-0.3
			s0.8,0.1,1.1,0.3s0.5,0.4,0.6,0.7s0.2,0.6,0.2,1v0.5c0,0.4-0.1,0.7-0.2,1s-0.4,0.5-0.6,0.7c-0.3,0.2-0.6,0.3-1,0.3
			s-0.8-0.1-1.1-0.3s-0.5-0.4-0.6-0.7S239.8,221.8,239.8,221.5z M240.8,221v0.5c0,0.3,0.1,0.5,0.2,0.7c0.1,0.2,0.3,0.3,0.7,0.3
			c0.3,0,0.5-0.1,0.7-0.3c0.1-0.2,0.2-0.5,0.2-0.7V221c0-0.3-0.1-0.5-0.2-0.7c-0.1-0.2-0.3-0.3-0.7-0.3c-0.3,0-0.5,0.1-0.7,0.3
			C240.9,220.5,240.8,220.7,240.8,221z"/>
	</g>
</g>
<g>
	<g class="st4">
		<path class="st1" d="M29.7,73.2h2.8l3.7,9.1h0.1l3.7-9.1h2.8v12.5h-2.2v-8.6h-0.1l-3.5,8.6h-1.6L32,77.1h-0.1v8.6h-2.2V73.2z"/>
		<path class="st1" d="M46.3,75c-0.4,0-0.7-0.1-0.9-0.4s-0.4-0.5-0.4-0.8c0-0.3,0.1-0.6,0.4-0.9c0.3-0.2,0.6-0.4,0.9-0.4
			s0.7,0.1,0.9,0.4c0.3,0.2,0.4,0.5,0.4,0.9c0,0.3-0.1,0.6-0.4,0.8S46.7,75,46.3,75z M45.2,85.7v-9.4h2.2v9.4H45.2z"/>
		<path class="st1" d="M53.8,85.9c-0.9,0-1.7-0.2-2.4-0.6s-1.2-1-1.5-1.7S49.3,82,49.3,81c0-1,0.2-1.8,0.5-2.5
			c0.4-0.7,0.9-1.3,1.6-1.7s1.5-0.6,2.4-0.6c0.8,0,1.4,0.1,2,0.4c0.6,0.3,1.1,0.7,1.4,1.2c0.4,0.5,0.5,1.1,0.6,1.8h-2.1
			c-0.1-0.5-0.3-0.8-0.6-1.1c-0.3-0.3-0.7-0.5-1.3-0.5c-0.5,0-0.8,0.1-1.2,0.4c-0.3,0.2-0.6,0.6-0.8,1c-0.2,0.5-0.3,1-0.3,1.6
			c0,0.6,0.1,1.2,0.3,1.6c0.2,0.5,0.5,0.8,0.8,1.1c0.3,0.2,0.7,0.4,1.2,0.4c0.3,0,0.6-0.1,0.9-0.2s0.5-0.3,0.7-0.5
			c0.2-0.2,0.3-0.5,0.4-0.9h2.1c-0.1,0.7-0.2,1.3-0.6,1.8c-0.3,0.5-0.8,0.9-1.4,1.2C55.3,85.7,54.6,85.9,53.8,85.9z"/>
		<path class="st1" d="M61.8,80.2v5.5h-2.2V73.2h2.2v4.7h0.1c0.2-0.5,0.6-0.9,1-1.3c0.5-0.3,1.1-0.5,1.8-0.5c0.7,0,1.2,0.1,1.7,0.4
			c0.5,0.3,0.9,0.7,1.1,1.2s0.4,1.2,0.4,1.9v6h-2.2v-5.6c0-0.6-0.2-1.1-0.5-1.5s-0.8-0.5-1.4-0.5c-0.4,0-0.7,0.1-1,0.3
			c-0.3,0.2-0.5,0.4-0.7,0.7C61.9,79.4,61.8,79.7,61.8,80.2z"/>
		<path class="st1" d="M72.9,85.9c-0.6,0-1.1-0.1-1.6-0.3c-0.5-0.2-0.8-0.5-1.1-1s-0.4-0.9-0.4-1.6c0-0.5,0.1-1,0.3-1.3
			c0.2-0.3,0.5-0.6,0.8-0.8s0.7-0.4,1.1-0.5c0.4-0.1,0.9-0.2,1.3-0.2c0.5-0.1,1-0.1,1.3-0.2c0.3,0,0.6-0.1,0.7-0.2s0.2-0.3,0.2-0.5
			v0c0-0.5-0.1-0.8-0.4-1.1c-0.3-0.3-0.7-0.4-1.2-0.4c-0.5,0-1,0.1-1.3,0.4c-0.3,0.2-0.5,0.5-0.6,0.8L70,78.8c0.2-0.6,0.4-1,0.8-1.4
			c0.4-0.4,0.8-0.7,1.4-0.9s1.1-0.3,1.8-0.3c0.5,0,0.9,0.1,1.3,0.2c0.4,0.1,0.9,0.3,1.2,0.5c0.4,0.2,0.7,0.6,0.9,1
			c0.2,0.4,0.3,0.9,0.3,1.6v6.3h-2.1v-1.3h-0.1c-0.1,0.3-0.3,0.5-0.6,0.7c-0.2,0.2-0.5,0.4-0.9,0.5C73.8,85.8,73.4,85.9,72.9,85.9z
			 M73.5,84.3c0.4,0,0.8-0.1,1.2-0.3c0.3-0.2,0.6-0.4,0.8-0.7c0.2-0.3,0.3-0.6,0.3-1v-1.1c-0.1,0.1-0.2,0.1-0.4,0.2
			c-0.2,0-0.3,0.1-0.6,0.1c-0.2,0-0.4,0.1-0.6,0.1c-0.2,0-0.4,0.1-0.5,0.1c-0.3,0-0.6,0.1-0.9,0.2c-0.3,0.1-0.5,0.2-0.6,0.4
			c-0.2,0.2-0.2,0.4-0.2,0.7c0,0.4,0.1,0.7,0.4,0.9C72.6,84.2,73,84.3,73.5,84.3z"/>
		<path class="st1" d="M84.2,85.9c-0.9,0-1.8-0.2-2.4-0.6c-0.7-0.4-1.2-1-1.6-1.7c-0.4-0.7-0.5-1.6-0.5-2.6c0-1,0.2-1.8,0.6-2.5
			s0.9-1.3,1.5-1.7s1.4-0.6,2.3-0.6c0.6,0,1.1,0.1,1.6,0.3c0.5,0.2,1,0.5,1.4,0.9c0.4,0.4,0.7,0.9,0.9,1.5s0.3,1.3,0.3,2.1v0.7h-7.7
			v-1.5h5.6c0-0.4-0.1-0.8-0.3-1.1c-0.2-0.3-0.4-0.6-0.7-0.8c-0.3-0.2-0.7-0.3-1.1-0.3c-0.5,0-0.8,0.1-1.2,0.3
			c-0.3,0.2-0.6,0.5-0.8,0.9s-0.3,0.7-0.3,1.2v1.3c0,0.5,0.1,1,0.3,1.4c0.2,0.4,0.5,0.7,0.8,0.9c0.4,0.2,0.8,0.3,1.3,0.3
			c0.3,0,0.6,0,0.9-0.1s0.5-0.2,0.7-0.4c0.2-0.2,0.3-0.4,0.4-0.7l2.1,0.2c-0.1,0.5-0.4,1-0.7,1.4c-0.4,0.4-0.8,0.7-1.4,0.9
			C85.6,85.8,84.9,85.9,84.2,85.9z"/>
		<path class="st1" d="M92.5,73.2v12.5h-2.2V73.2H92.5z"/>
		<path class="st1" d="M109.4,73.2v12.5h-2l-5.9-8.5h-0.1v8.5h-2.3V73.2h2l5.9,8.5h0.1v-8.5H109.4z"/>
		<path class="st1" d="M115.8,85.9c-0.9,0-1.7-0.2-2.4-0.6c-0.7-0.4-1.2-1-1.6-1.7s-0.6-1.6-0.6-2.5c0-1,0.2-1.8,0.6-2.5
			s0.9-1.3,1.6-1.7s1.5-0.6,2.4-0.6c0.9,0,1.7,0.2,2.4,0.6s1.2,1,1.6,1.7s0.6,1.6,0.6,2.5c0,1-0.2,1.8-0.6,2.5s-0.9,1.3-1.6,1.7
			C117.6,85.7,116.8,85.9,115.8,85.9z M115.9,84.1c0.5,0,0.9-0.1,1.2-0.4c0.3-0.3,0.6-0.6,0.7-1.1c0.2-0.5,0.2-1,0.2-1.6
			c0-0.6-0.1-1.1-0.2-1.6c-0.2-0.5-0.4-0.8-0.7-1.1c-0.3-0.3-0.7-0.4-1.2-0.4c-0.5,0-0.9,0.1-1.3,0.4c-0.3,0.3-0.6,0.6-0.8,1.1
			c-0.2,0.5-0.2,1-0.2,1.6c0,0.6,0.1,1.1,0.2,1.6c0.2,0.5,0.4,0.8,0.8,1.1C114.9,84,115.3,84.1,115.9,84.1z"/>
		<path class="st1" d="M122.2,85.7v-9.4h2.1v1.6h0.1c0.2-0.5,0.5-1,0.9-1.3s0.9-0.4,1.4-0.4c0.1,0,0.3,0,0.4,0c0.2,0,0.3,0,0.4,0v2
			c-0.1,0-0.2-0.1-0.4-0.1c-0.2,0-0.4,0-0.6,0c-0.4,0-0.8,0.1-1.1,0.3c-0.3,0.2-0.6,0.4-0.8,0.7c-0.2,0.3-0.3,0.7-0.3,1.1v5.5H122.2
			z"/>
		<path class="st1" d="M131.1,85.7l-2.7-9.4h2.3l1.6,6.6h0.1l1.7-6.6h2.2l1.7,6.6h0.1l1.6-6.6h2.3l-2.7,9.4h-2.3l-1.8-6.3h-0.1
			l-1.8,6.3H131.1z"/>
		<path class="st1" d="M146.3,85.9c-0.6,0-1.1-0.1-1.6-0.3c-0.5-0.2-0.8-0.5-1.1-1s-0.4-0.9-0.4-1.6c0-0.5,0.1-1,0.3-1.3
			c0.2-0.3,0.5-0.6,0.8-0.8s0.7-0.4,1.1-0.5c0.4-0.1,0.9-0.2,1.3-0.2c0.5-0.1,1-0.1,1.3-0.2c0.3,0,0.6-0.1,0.7-0.2s0.2-0.3,0.2-0.5
			v0c0-0.5-0.1-0.8-0.4-1.1c-0.3-0.3-0.7-0.4-1.2-0.4c-0.5,0-1,0.1-1.3,0.4c-0.3,0.2-0.5,0.5-0.6,0.8l-2.1-0.3
			c0.2-0.6,0.4-1,0.8-1.4c0.4-0.4,0.8-0.7,1.4-0.9s1.1-0.3,1.8-0.3c0.5,0,0.9,0.1,1.3,0.2c0.4,0.1,0.9,0.3,1.2,0.5
			c0.4,0.2,0.7,0.6,0.9,1c0.2,0.4,0.3,0.9,0.3,1.6v6.3h-2.1v-1.3H149c-0.1,0.3-0.3,0.5-0.6,0.7c-0.2,0.2-0.5,0.4-0.9,0.5
			C147.2,85.8,146.8,85.9,146.3,85.9z M146.9,84.3c0.4,0,0.8-0.1,1.2-0.3c0.3-0.2,0.6-0.4,0.8-0.7c0.2-0.3,0.3-0.6,0.3-1v-1.1
			c-0.1,0.1-0.2,0.1-0.4,0.2c-0.2,0-0.3,0.1-0.6,0.1c-0.2,0-0.4,0.1-0.6,0.1c-0.2,0-0.4,0.1-0.5,0.1c-0.3,0-0.6,0.1-0.9,0.2
			c-0.3,0.1-0.5,0.2-0.6,0.4c-0.2,0.2-0.2,0.4-0.2,0.7c0,0.4,0.1,0.7,0.4,0.9C146,84.2,146.4,84.3,146.9,84.3z"/>
		<path class="st1" d="M154.5,89.2c-0.3,0-0.6,0-0.8-0.1c-0.3,0-0.5-0.1-0.6-0.2l0.5-1.7c0.5,0.1,0.9,0.2,1.2,0.1
			c0.3-0.1,0.6-0.4,0.8-0.9l0.2-0.5l-3.4-9.6h2.3l2.2,7.1h0.1l2.2-7.1l2.4,0l-3.8,10.5c-0.2,0.5-0.4,0.9-0.7,1.3s-0.6,0.6-1.1,0.8
			C155.6,89.1,155.1,89.2,154.5,89.2z"/>
	</g>
	<g class="st4">
		<path class="st1" d="M29.6,115.7v-9.4h2.1v1.6h0.1c0.2-0.5,0.5-1,1-1.3c0.5-0.3,1-0.5,1.6-0.5c0.6,0,1.2,0.2,1.6,0.5
			c0.4,0.3,0.7,0.7,0.9,1.3h0.1c0.2-0.5,0.6-0.9,1.1-1.2s1.1-0.5,1.8-0.5c0.9,0,1.6,0.3,2.1,0.8c0.5,0.5,0.8,1.3,0.8,2.4v6.3h-2.2
			v-6c0-0.6-0.2-1-0.5-1.3c-0.3-0.3-0.7-0.4-1.1-0.4c-0.5,0-0.9,0.2-1.2,0.5c-0.3,0.3-0.4,0.8-0.4,1.3v5.9h-2.2v-6
			c0-0.5-0.1-0.9-0.4-1.2S34,108,33.6,108c-0.3,0-0.6,0.1-0.9,0.2s-0.5,0.4-0.6,0.7s-0.2,0.6-0.2,1v5.7H29.6z"/>
		<path class="st1" d="M46.2,105c-0.4,0-0.7-0.1-0.9-0.4s-0.4-0.5-0.4-0.8c0-0.3,0.1-0.6,0.4-0.9c0.3-0.2,0.6-0.4,0.9-0.4
			s0.7,0.1,0.9,0.4c0.3,0.2,0.4,0.5,0.4,0.9c0,0.3-0.1,0.6-0.4,0.8S46.5,105,46.2,105z M45.1,115.7v-9.4h2.2v9.4H45.1z"/>
		<path class="st1" d="M53.7,115.9c-0.9,0-1.7-0.2-2.4-0.6s-1.2-1-1.5-1.7s-0.5-1.6-0.5-2.5c0-1,0.2-1.8,0.5-2.5
			c0.4-0.7,0.9-1.3,1.6-1.7s1.5-0.6,2.4-0.6c0.8,0,1.4,0.1,2,0.4c0.6,0.3,1.1,0.7,1.4,1.2c0.4,0.5,0.5,1.1,0.6,1.8h-2.1
			c-0.1-0.5-0.3-0.8-0.6-1.1c-0.3-0.3-0.7-0.5-1.3-0.5c-0.5,0-0.8,0.1-1.2,0.4c-0.3,0.2-0.6,0.6-0.8,1c-0.2,0.5-0.3,1-0.3,1.6
			c0,0.6,0.1,1.2,0.3,1.6c0.2,0.5,0.5,0.8,0.8,1.1c0.3,0.2,0.7,0.4,1.2,0.4c0.3,0,0.6-0.1,0.9-0.2s0.5-0.3,0.7-0.5
			c0.2-0.2,0.3-0.5,0.4-0.9h2.1c-0.1,0.7-0.2,1.3-0.6,1.8c-0.3,0.5-0.8,0.9-1.4,1.2C55.1,115.7,54.4,115.9,53.7,115.9z"/>
		<path class="st1" d="M61.7,110.2v5.5h-2.2v-12.5h2.2v4.7h0.1c0.2-0.5,0.6-0.9,1-1.3c0.5-0.3,1.1-0.5,1.8-0.5
			c0.7,0,1.2,0.1,1.7,0.4c0.5,0.3,0.9,0.7,1.1,1.2s0.4,1.2,0.4,1.9v6h-2.2v-5.6c0-0.6-0.2-1.1-0.5-1.5s-0.8-0.5-1.4-0.5
			c-0.4,0-0.7,0.1-1,0.3c-0.3,0.2-0.5,0.4-0.7,0.7C61.8,109.3,61.7,109.7,61.7,110.2z"/>
		<path class="st1" d="M72.7,115.9c-0.6,0-1.1-0.1-1.6-0.3c-0.5-0.2-0.8-0.5-1.1-1s-0.4-0.9-0.4-1.6c0-0.5,0.1-1,0.3-1.3
			c0.2-0.3,0.5-0.6,0.8-0.8s0.7-0.4,1.1-0.5c0.4-0.1,0.9-0.2,1.3-0.2c0.5-0.1,1-0.1,1.3-0.2c0.3,0,0.6-0.1,0.7-0.2s0.2-0.3,0.2-0.5
			v0c0-0.5-0.1-0.8-0.4-1.1c-0.3-0.3-0.7-0.4-1.2-0.4c-0.5,0-1,0.1-1.3,0.4c-0.3,0.2-0.5,0.5-0.6,0.8l-2.1-0.3
			c0.2-0.6,0.4-1,0.8-1.4c0.4-0.4,0.8-0.7,1.4-0.9s1.1-0.3,1.8-0.3c0.5,0,0.9,0.1,1.3,0.2c0.4,0.1,0.9,0.3,1.2,0.5
			c0.4,0.2,0.7,0.6,0.9,1c0.2,0.4,0.3,0.9,0.3,1.6v6.3h-2.1v-1.3h-0.1c-0.1,0.3-0.3,0.5-0.6,0.7c-0.2,0.2-0.5,0.4-0.9,0.5
			C73.6,115.8,73.2,115.9,72.7,115.9z M73.3,114.2c0.4,0,0.8-0.1,1.2-0.3c0.3-0.2,0.6-0.4,0.8-0.7c0.2-0.3,0.3-0.6,0.3-1v-1.1
			c-0.1,0.1-0.2,0.1-0.4,0.2c-0.2,0-0.3,0.1-0.6,0.1c-0.2,0-0.4,0.1-0.6,0.1c-0.2,0-0.4,0.1-0.5,0.1c-0.3,0-0.6,0.1-0.9,0.2
			c-0.3,0.1-0.5,0.2-0.6,0.4c-0.2,0.2-0.2,0.4-0.2,0.7c0,0.4,0.1,0.7,0.4,0.9C72.5,114.1,72.8,114.2,73.3,114.2z"/>
		<path class="st1" d="M84.1,115.9c-0.9,0-1.8-0.2-2.4-0.6c-0.7-0.4-1.2-1-1.6-1.7c-0.4-0.7-0.5-1.6-0.5-2.6c0-1,0.2-1.8,0.6-2.5
			s0.9-1.3,1.5-1.7s1.4-0.6,2.3-0.6c0.6,0,1.1,0.1,1.6,0.3c0.5,0.2,1,0.5,1.4,0.9c0.4,0.4,0.7,0.9,0.9,1.5s0.3,1.3,0.3,2.1v0.7h-7.7
			v-1.5h5.6c0-0.4-0.1-0.8-0.3-1.1c-0.2-0.3-0.4-0.6-0.7-0.8c-0.3-0.2-0.7-0.3-1.1-0.3c-0.5,0-0.8,0.1-1.2,0.3
			c-0.3,0.2-0.6,0.5-0.8,0.9s-0.3,0.7-0.3,1.2v1.3c0,0.5,0.1,1,0.3,1.4c0.2,0.4,0.5,0.7,0.8,0.9c0.4,0.2,0.8,0.3,1.3,0.3
			c0.3,0,0.6,0,0.9-0.1s0.5-0.2,0.7-0.4c0.2-0.2,0.3-0.4,0.4-0.7l2.1,0.2c-0.1,0.5-0.4,1-0.7,1.4c-0.4,0.4-0.8,0.7-1.4,0.9
			C85.4,115.8,84.8,115.9,84.1,115.9z"/>
		<path class="st1" d="M92.3,103.2v12.5h-2.2v-12.5H92.3z"/>
		<path class="st1" d="M96.8,110.2v5.5h-2.2v-9.4h2.1v1.6h0.1c0.2-0.5,0.6-0.9,1-1.3c0.5-0.3,1.1-0.5,1.8-0.5c0.6,0,1.2,0.1,1.7,0.4
			c0.5,0.3,0.9,0.7,1.1,1.2c0.3,0.5,0.4,1.2,0.4,1.9v6h-2.2v-5.6c0-0.6-0.2-1.1-0.5-1.5s-0.8-0.5-1.3-0.5c-0.4,0-0.7,0.1-1,0.3
			c-0.3,0.2-0.5,0.4-0.7,0.7S96.8,109.7,96.8,110.2z"/>
		<path class="st1" d="M109.2,115.9c-0.9,0-1.7-0.2-2.4-0.6c-0.7-0.4-1.2-1-1.6-1.7s-0.6-1.6-0.6-2.5c0-1,0.2-1.8,0.6-2.5
			s0.9-1.3,1.6-1.7s1.5-0.6,2.4-0.6c0.9,0,1.7,0.2,2.4,0.6s1.2,1,1.6,1.7s0.6,1.6,0.6,2.5c0,1-0.2,1.8-0.6,2.5s-0.9,1.3-1.6,1.7
			C110.9,115.7,110.1,115.9,109.2,115.9z M109.2,114.1c0.5,0,0.9-0.1,1.2-0.4c0.3-0.3,0.6-0.6,0.7-1.1c0.2-0.5,0.2-1,0.2-1.6
			c0-0.6-0.1-1.1-0.2-1.6c-0.2-0.5-0.4-0.8-0.7-1.1c-0.3-0.3-0.7-0.4-1.2-0.4c-0.5,0-0.9,0.1-1.3,0.4c-0.3,0.3-0.6,0.6-0.8,1.1
			c-0.2,0.5-0.2,1-0.2,1.6c0,0.6,0.1,1.1,0.2,1.6c0.2,0.5,0.4,0.8,0.8,1.1C108.3,114,108.7,114.1,109.2,114.1z"/>
		<path class="st1" d="M115.5,115.7v-9.4h2.1v1.6h0.1c0.2-0.5,0.5-1,0.9-1.3s0.9-0.4,1.4-0.4c0.1,0,0.3,0,0.4,0c0.2,0,0.3,0,0.4,0v2
			c-0.1,0-0.2-0.1-0.4-0.1c-0.2,0-0.4,0-0.6,0c-0.4,0-0.8,0.1-1.1,0.3c-0.3,0.2-0.6,0.4-0.8,0.7c-0.2,0.3-0.3,0.7-0.3,1.1v5.5H115.5
			z"/>
		<path class="st1" d="M124.4,115.7l-2.7-9.4h2.3l1.6,6.6h0.1l1.7-6.6h2.2l1.7,6.6h0.1l1.6-6.6h2.3l-2.7,9.4h-2.3l-1.8-6.3h-0.1
			l-1.8,6.3H124.4z"/>
		<path class="st1" d="M139.6,115.9c-0.6,0-1.1-0.1-1.6-0.3c-0.5-0.2-0.8-0.5-1.1-1s-0.4-0.9-0.4-1.6c0-0.5,0.1-1,0.3-1.3
			c0.2-0.3,0.5-0.6,0.8-0.8s0.7-0.4,1.1-0.5c0.4-0.1,0.9-0.2,1.3-0.2c0.5-0.1,1-0.1,1.3-0.2c0.3,0,0.6-0.1,0.7-0.2s0.2-0.3,0.2-0.5
			v0c0-0.5-0.1-0.8-0.4-1.1c-0.3-0.3-0.7-0.4-1.2-0.4c-0.5,0-1,0.1-1.3,0.4c-0.3,0.2-0.5,0.5-0.6,0.8l-2.1-0.3
			c0.2-0.6,0.4-1,0.8-1.4c0.4-0.4,0.8-0.7,1.4-0.9s1.1-0.3,1.8-0.3c0.5,0,0.9,0.1,1.3,0.2c0.4,0.1,0.9,0.3,1.2,0.5
			c0.4,0.2,0.7,0.6,0.9,1c0.2,0.4,0.3,0.9,0.3,1.6v6.3h-2.1v-1.3h-0.1c-0.1,0.3-0.3,0.5-0.6,0.7c-0.2,0.2-0.5,0.4-0.9,0.5
			C140.5,115.8,140.1,115.9,139.6,115.9z M140.2,114.2c0.4,0,0.8-0.1,1.2-0.3c0.3-0.2,0.6-0.4,0.8-0.7c0.2-0.3,0.3-0.6,0.3-1v-1.1
			c-0.1,0.1-0.2,0.1-0.4,0.2c-0.2,0-0.3,0.1-0.6,0.1c-0.2,0-0.4,0.1-0.6,0.1c-0.2,0-0.4,0.1-0.5,0.1c-0.3,0-0.6,0.1-0.9,0.2
			c-0.3,0.1-0.5,0.2-0.6,0.4c-0.2,0.2-0.2,0.4-0.2,0.7c0,0.4,0.1,0.7,0.4,0.9C139.3,114.1,139.7,114.2,140.2,114.2z"/>
		<path class="st1" d="M147.8,119.2c-0.3,0-0.6,0-0.8-0.1c-0.3,0-0.5-0.1-0.6-0.2l0.5-1.7c0.5,0.1,0.9,0.2,1.2,0.1
			c0.3-0.1,0.6-0.4,0.8-0.9l0.2-0.5l-3.4-9.6h2.3l2.2,7.1h0.1l2.2-7.1l2.4,0l-3.8,10.5c-0.2,0.5-0.4,0.9-0.7,1.3s-0.6,0.6-1.1,0.8
			C148.9,119.1,148.4,119.2,147.8,119.2z"/>
		<path class="st1" d="M164.2,119.2c-1.3,0-2.4-0.2-3.4-0.5c-1-0.3-1.8-0.9-2.5-1.5s-1.2-1.5-1.6-2.5c-0.4-1-0.5-2.1-0.5-3.3
			c0-1.2,0.2-2.3,0.5-3.3c0.4-1,0.9-1.8,1.6-2.5c0.7-0.7,1.5-1.2,2.5-1.6c1-0.4,2.1-0.6,3.4-0.6c1.2,0,2.3,0.2,3.2,0.5
			c0.9,0.4,1.7,0.9,2.3,1.5c0.6,0.6,1.1,1.4,1.4,2.3c0.3,0.9,0.5,1.8,0.5,2.8c0,0.7-0.1,1.4-0.2,2c-0.1,0.6-0.3,1.2-0.5,1.7
			c-0.3,0.5-0.6,0.9-1,1.1c-0.4,0.3-1,0.4-1.6,0.5c-0.4,0-0.8,0-1.1-0.1c-0.3-0.1-0.6-0.3-0.7-0.5c-0.2-0.2-0.3-0.5-0.4-0.8H166
			c-0.1,0.2-0.3,0.5-0.5,0.7c-0.3,0.2-0.6,0.4-1,0.5c-0.4,0.1-0.8,0.2-1.3,0.1c-0.5,0-1-0.1-1.4-0.3c-0.4-0.2-0.8-0.5-1.1-0.9
			c-0.3-0.4-0.6-0.8-0.7-1.4s-0.3-1.1-0.3-1.8c0-0.7,0.1-1.2,0.3-1.7s0.4-0.9,0.8-1.3c0.3-0.4,0.7-0.6,1.1-0.8
			c0.4-0.2,0.8-0.3,1.2-0.4c0.4-0.1,0.9-0.1,1.2,0c0.4,0.1,0.7,0.2,1,0.3c0.3,0.2,0.4,0.3,0.5,0.5h0.1v-0.7h1.7v5.8
			c0,0.3,0.1,0.6,0.2,0.7c0.1,0.2,0.3,0.3,0.6,0.3c0.3,0,0.6-0.1,0.8-0.4c0.2-0.3,0.3-0.7,0.4-1.2c0.1-0.5,0.1-1.2,0.1-2.1
			c0-0.7-0.1-1.3-0.3-1.9c-0.2-0.6-0.4-1.1-0.8-1.5c-0.3-0.4-0.7-0.8-1.2-1.1s-1-0.5-1.6-0.7s-1.2-0.2-1.8-0.2c-1,0-1.9,0.2-2.6,0.5
			c-0.8,0.3-1.4,0.7-1.9,1.3c-0.5,0.6-0.9,1.2-1.2,2c-0.3,0.8-0.4,1.6-0.4,2.5c0,1,0.1,1.9,0.4,2.6s0.7,1.4,1.2,1.9
			c0.5,0.5,1.2,0.9,2,1.2c0.8,0.3,1.7,0.4,2.7,0.4c0.5,0,0.9,0,1.4-0.1s0.8-0.2,1.2-0.3c0.4-0.1,0.6-0.2,0.8-0.3l0.5,1.6
			c-0.3,0.1-0.6,0.3-1,0.4c-0.4,0.1-0.9,0.2-1.4,0.3C165.3,119.1,164.8,119.2,164.2,119.2z M163.8,113.9c0.5,0,0.9-0.1,1.2-0.3
			c0.3-0.2,0.5-0.5,0.7-0.9s0.2-0.9,0.2-1.5c0-0.6-0.1-1-0.2-1.4c-0.1-0.4-0.4-0.6-0.7-0.8c-0.3-0.2-0.7-0.3-1.2-0.3
			c-0.5,0-0.8,0.1-1.2,0.3c-0.3,0.2-0.6,0.5-0.7,0.9c-0.2,0.4-0.3,0.8-0.3,1.2c0,0.5,0.1,0.9,0.2,1.3c0.1,0.4,0.4,0.7,0.7,1
			C162.8,113.8,163.3,113.9,163.8,113.9z"/>
		<path class="st1" d="M178.3,106.3v1.7h-5.5v-1.7H178.3z M174.1,115.7v-10.3c0-0.6,0.1-1.2,0.4-1.6c0.3-0.4,0.6-0.7,1.1-0.9
			c0.4-0.2,0.9-0.3,1.5-0.3c0.4,0,0.7,0,1,0.1c0.3,0.1,0.5,0.1,0.7,0.2l-0.4,1.7c-0.1,0-0.2-0.1-0.4-0.1c-0.1,0-0.3,0-0.5,0
			c-0.4,0-0.7,0.1-0.9,0.3s-0.3,0.5-0.3,0.8v10.1H174.1z"/>
		<path class="st1" d="M180,115.7v-9.4h2.1v1.6h0.1c0.2-0.5,0.5-1,0.9-1.3s0.9-0.4,1.4-0.4c0.1,0,0.3,0,0.4,0c0.2,0,0.3,0,0.4,0v2
			c-0.1,0-0.2-0.1-0.4-0.1c-0.2,0-0.4,0-0.6,0c-0.4,0-0.8,0.1-1.1,0.3c-0.3,0.2-0.6,0.4-0.8,0.7c-0.2,0.3-0.3,0.7-0.3,1.1v5.5H180z"
			/>
		<path class="st1" d="M189.4,115.9c-0.6,0-1.1-0.1-1.6-0.3c-0.5-0.2-0.8-0.5-1.1-1s-0.4-0.9-0.4-1.6c0-0.5,0.1-1,0.3-1.3
			c0.2-0.3,0.5-0.6,0.8-0.8s0.7-0.4,1.1-0.5c0.4-0.1,0.9-0.2,1.3-0.2c0.5-0.1,1-0.1,1.3-0.2c0.3,0,0.6-0.1,0.7-0.2s0.2-0.3,0.2-0.5
			v0c0-0.5-0.1-0.8-0.4-1.1c-0.3-0.3-0.7-0.4-1.2-0.4c-0.5,0-1,0.1-1.3,0.4c-0.3,0.2-0.5,0.5-0.6,0.8l-2.1-0.3
			c0.2-0.6,0.4-1,0.8-1.4c0.4-0.4,0.8-0.7,1.4-0.9s1.1-0.3,1.8-0.3c0.5,0,0.9,0.1,1.3,0.2c0.4,0.1,0.9,0.3,1.2,0.5
			c0.4,0.2,0.7,0.6,0.9,1c0.2,0.4,0.3,0.9,0.3,1.6v6.3h-2.1v-1.3h-0.1c-0.1,0.3-0.3,0.5-0.6,0.7c-0.2,0.2-0.5,0.4-0.9,0.5
			C190.3,115.8,189.9,115.9,189.4,115.9z M190,114.2c0.4,0,0.8-0.1,1.2-0.3c0.3-0.2,0.6-0.4,0.8-0.7c0.2-0.3,0.3-0.6,0.3-1v-1.1
			c-0.1,0.1-0.2,0.1-0.4,0.2c-0.2,0-0.3,0.1-0.6,0.1c-0.2,0-0.4,0.1-0.6,0.1c-0.2,0-0.4,0.1-0.5,0.1c-0.3,0-0.6,0.1-0.9,0.2
			c-0.3,0.1-0.5,0.2-0.6,0.4c-0.2,0.2-0.2,0.4-0.2,0.7c0,0.4,0.1,0.7,0.4,0.9C189.1,114.1,189.5,114.2,190,114.2z"/>
		<path class="st1" d="M202.5,111.7v-5.4h2.2v9.4h-2.1V114h-0.1c-0.2,0.5-0.6,1-1,1.3c-0.5,0.3-1.1,0.5-1.8,0.5
			c-0.6,0-1.2-0.1-1.6-0.4c-0.5-0.3-0.8-0.7-1.1-1.2s-0.4-1.2-0.4-1.9v-6h2.2v5.6c0,0.6,0.2,1.1,0.5,1.4c0.3,0.3,0.8,0.5,1.3,0.5
			c0.3,0,0.6-0.1,0.9-0.2c0.3-0.2,0.6-0.4,0.8-0.7C202.4,112.6,202.5,112.2,202.5,111.7z"/>
		<path class="st1" d="M210.5,115.8c-0.7,0-1.4-0.2-2-0.6c-0.6-0.4-1-0.9-1.4-1.6c-0.3-0.7-0.5-1.6-0.5-2.6c0-1,0.2-1.9,0.5-2.6
			c0.3-0.7,0.8-1.3,1.4-1.6c0.6-0.4,1.2-0.6,2-0.6c0.5,0,1,0.1,1.4,0.3c0.4,0.2,0.6,0.4,0.8,0.7c0.2,0.3,0.4,0.5,0.5,0.7h0.1v-4.7
			h2.2v12.5h-2.2v-1.5h-0.1c-0.1,0.2-0.3,0.5-0.5,0.7c-0.2,0.3-0.5,0.5-0.9,0.7C211.5,115.8,211,115.8,210.5,115.8z M211.1,114
			c0.5,0,0.9-0.1,1.2-0.4c0.3-0.3,0.6-0.6,0.8-1.1c0.2-0.5,0.3-1,0.3-1.6c0-0.6-0.1-1.1-0.3-1.6c-0.2-0.4-0.4-0.8-0.7-1
			c-0.3-0.2-0.7-0.4-1.2-0.4c-0.5,0-0.9,0.1-1.2,0.4c-0.3,0.3-0.6,0.6-0.7,1.1s-0.3,1-0.3,1.6c0,0.6,0.1,1.1,0.3,1.6
			s0.4,0.8,0.8,1.1S210.6,114,211.1,114z"/>
		<path class="st1" d="M217.9,115.7v-9.4h2.1v1.6h0.1c0.2-0.5,0.5-1,1-1.3c0.5-0.3,1-0.5,1.6-0.5c0.6,0,1.2,0.2,1.6,0.5
			c0.4,0.3,0.7,0.7,0.9,1.3h0.1c0.2-0.5,0.6-0.9,1.1-1.2s1.1-0.5,1.8-0.5c0.9,0,1.6,0.3,2.1,0.8c0.5,0.5,0.8,1.3,0.8,2.4v6.3h-2.2
			v-6c0-0.6-0.2-1-0.5-1.3c-0.3-0.3-0.7-0.4-1.1-0.4c-0.5,0-0.9,0.2-1.2,0.5c-0.3,0.3-0.4,0.8-0.4,1.3v5.9h-2.2v-6
			c0-0.5-0.1-0.9-0.4-1.2s-0.7-0.4-1.1-0.4c-0.3,0-0.6,0.1-0.9,0.2s-0.5,0.4-0.6,0.7s-0.2,0.6-0.2,1v5.7H217.9z"/>
		<path class="st1" d="M236,115.9c-0.6,0-1.1-0.1-1.6-0.3c-0.5-0.2-0.8-0.5-1.1-1c-0.3-0.4-0.4-0.9-0.4-1.6c0-0.5,0.1-1,0.3-1.3
			c0.2-0.3,0.5-0.6,0.8-0.8s0.7-0.4,1.1-0.5c0.4-0.1,0.9-0.2,1.3-0.2c0.5-0.1,1-0.1,1.3-0.2c0.3,0,0.6-0.1,0.7-0.2
			c0.2-0.1,0.2-0.3,0.2-0.5v0c0-0.5-0.1-0.8-0.4-1.1c-0.3-0.3-0.7-0.4-1.2-0.4c-0.5,0-1,0.1-1.3,0.4c-0.3,0.2-0.5,0.5-0.6,0.8
			l-2.1-0.3c0.2-0.6,0.4-1,0.8-1.4c0.4-0.4,0.8-0.7,1.4-0.9c0.5-0.2,1.1-0.3,1.8-0.3c0.5,0,0.9,0.1,1.3,0.2c0.4,0.1,0.9,0.3,1.2,0.5
			c0.4,0.2,0.7,0.6,0.9,1c0.2,0.4,0.3,0.9,0.3,1.6v6.3h-2.1v-1.3h-0.1c-0.1,0.3-0.3,0.5-0.6,0.7c-0.2,0.2-0.5,0.4-0.9,0.5
			C236.9,115.8,236.5,115.9,236,115.9z M236.6,114.2c0.4,0,0.8-0.1,1.2-0.3c0.3-0.2,0.6-0.4,0.8-0.7c0.2-0.3,0.3-0.6,0.3-1v-1.1
			c-0.1,0.1-0.2,0.1-0.4,0.2s-0.3,0.1-0.6,0.1c-0.2,0-0.4,0.1-0.6,0.1c-0.2,0-0.4,0.1-0.5,0.1c-0.3,0-0.6,0.1-0.9,0.2
			s-0.5,0.2-0.6,0.4c-0.2,0.2-0.2,0.4-0.2,0.7c0,0.4,0.1,0.7,0.4,0.9C235.7,114.1,236.1,114.2,236.6,114.2z"/>
		<path class="st1" d="M244.3,105c-0.4,0-0.7-0.1-0.9-0.4c-0.3-0.2-0.4-0.5-0.4-0.8c0-0.3,0.1-0.6,0.4-0.9c0.3-0.2,0.6-0.4,0.9-0.4
			c0.4,0,0.7,0.1,0.9,0.4c0.3,0.2,0.4,0.5,0.4,0.9c0,0.3-0.1,0.6-0.4,0.8C245,104.9,244.7,105,244.3,105z M243.2,115.7v-9.4h2.2v9.4
			H243.2z"/>
		<path class="st1" d="M249.9,103.2v12.5h-2.2v-12.5H249.9z"/>
		<path class="st1" d="M253.5,115.8c-0.4,0-0.7-0.1-1-0.4c-0.3-0.3-0.4-0.6-0.4-1c0-0.4,0.1-0.7,0.4-0.9c0.3-0.3,0.6-0.4,1-0.4
			c0.4,0,0.7,0.1,0.9,0.4c0.3,0.3,0.4,0.6,0.4,0.9c0,0.2-0.1,0.5-0.2,0.7c-0.1,0.2-0.3,0.4-0.5,0.5S253.8,115.8,253.5,115.8z"/>
		<path class="st1" d="M261.2,115.9c-0.9,0-1.7-0.2-2.4-0.6s-1.2-1-1.5-1.7s-0.5-1.6-0.5-2.5c0-1,0.2-1.8,0.5-2.5
			c0.4-0.7,0.9-1.3,1.6-1.7s1.5-0.6,2.4-0.6c0.8,0,1.4,0.1,2,0.4c0.6,0.3,1.1,0.7,1.4,1.2c0.3,0.5,0.5,1.1,0.6,1.8h-2.1
			c-0.1-0.5-0.3-0.8-0.6-1.1c-0.3-0.3-0.7-0.5-1.3-0.5c-0.5,0-0.8,0.1-1.2,0.4s-0.6,0.6-0.8,1s-0.3,1-0.3,1.6c0,0.6,0.1,1.2,0.3,1.6
			s0.5,0.8,0.8,1.1c0.3,0.2,0.7,0.4,1.2,0.4c0.3,0,0.6-0.1,0.9-0.2s0.5-0.3,0.7-0.5c0.2-0.2,0.3-0.5,0.4-0.9h2.1
			c-0.1,0.7-0.2,1.3-0.6,1.8s-0.8,0.9-1.4,1.2C262.7,115.7,262,115.9,261.2,115.9z"/>
		<path class="st1" d="M271.2,115.9c-0.9,0-1.7-0.2-2.4-0.6c-0.7-0.4-1.2-1-1.6-1.7c-0.4-0.7-0.6-1.6-0.6-2.5c0-1,0.2-1.8,0.6-2.5
			c0.4-0.7,0.9-1.3,1.6-1.7s1.5-0.6,2.4-0.6c0.9,0,1.7,0.2,2.4,0.6s1.2,1,1.6,1.7c0.4,0.7,0.6,1.6,0.6,2.5c0,1-0.2,1.8-0.6,2.5
			c-0.4,0.7-0.9,1.3-1.6,1.7C272.9,115.7,272.1,115.9,271.2,115.9z M271.2,114.1c0.5,0,0.9-0.1,1.2-0.4c0.3-0.3,0.6-0.6,0.7-1.1
			c0.2-0.5,0.2-1,0.2-1.6c0-0.6-0.1-1.1-0.2-1.6c-0.2-0.5-0.4-0.8-0.7-1.1c-0.3-0.3-0.7-0.4-1.2-0.4c-0.5,0-0.9,0.1-1.3,0.4
			c-0.3,0.3-0.6,0.6-0.8,1.1c-0.2,0.5-0.2,1-0.2,1.6c0,0.6,0.1,1.1,0.2,1.6c0.2,0.5,0.4,0.8,0.8,1.1
			C270.3,114,270.7,114.1,271.2,114.1z"/>
		<path class="st1" d="M277.5,115.7v-9.4h2.1v1.6h0.1c0.2-0.5,0.5-1,1-1.3c0.5-0.3,1-0.5,1.6-0.5c0.6,0,1.2,0.2,1.6,0.5
			c0.4,0.3,0.7,0.7,0.9,1.3h0.1c0.2-0.5,0.6-0.9,1.1-1.2c0.5-0.3,1.1-0.5,1.8-0.5c0.9,0,1.6,0.3,2.1,0.8s0.8,1.3,0.8,2.4v6.3h-2.2
			v-6c0-0.6-0.2-1-0.5-1.3c-0.3-0.3-0.7-0.4-1.1-0.4c-0.5,0-0.9,0.2-1.2,0.5c-0.3,0.3-0.4,0.8-0.4,1.3v5.9h-2.2v-6
			c0-0.5-0.1-0.9-0.4-1.2s-0.7-0.4-1.1-0.4c-0.3,0-0.6,0.1-0.9,0.2s-0.5,0.4-0.6,0.7c-0.2,0.3-0.2,0.6-0.2,1v5.7H277.5z"/>
	</g>
	<g class="st4">
		<path class="st1" d="M37.6,132.4h2.3v8.2c0,0.9-0.2,1.7-0.6,2.4s-1,1.2-1.8,1.6s-1.7,0.6-2.7,0.6c-1,0-1.9-0.2-2.7-0.6
			c-0.8-0.4-1.4-0.9-1.8-1.6s-0.6-1.5-0.6-2.4v-8.2H32v8c0,0.5,0.1,1,0.3,1.4c0.2,0.4,0.6,0.7,1,1c0.4,0.2,0.9,0.3,1.5,0.3
			c0.6,0,1.1-0.1,1.5-0.3c0.4-0.2,0.7-0.5,1-1c0.2-0.4,0.3-0.9,0.3-1.4V132.4z"/>
		<path class="st1" d="M49.7,138l-2,0.2c-0.1-0.2-0.2-0.4-0.3-0.6c-0.1-0.2-0.3-0.3-0.6-0.4c-0.2-0.1-0.5-0.2-0.9-0.2
			c-0.5,0-0.8,0.1-1.2,0.3c-0.3,0.2-0.5,0.5-0.5,0.8c0,0.3,0.1,0.5,0.3,0.7s0.5,0.3,1,0.4l1.6,0.3c0.9,0.2,1.5,0.5,2,0.9
			c0.4,0.4,0.7,1,0.7,1.6c0,0.6-0.2,1.1-0.5,1.6s-0.8,0.8-1.4,1.1c-0.6,0.3-1.3,0.4-2.1,0.4c-1.1,0-2.1-0.2-2.8-0.7
			c-0.7-0.5-1.1-1.2-1.3-2l2.2-0.2c0.1,0.4,0.3,0.7,0.6,1c0.3,0.2,0.7,0.3,1.2,0.3c0.5,0,0.9-0.1,1.3-0.3c0.3-0.2,0.5-0.5,0.5-0.8
			c0-0.3-0.1-0.5-0.3-0.7c-0.2-0.2-0.5-0.3-1-0.4l-1.6-0.3c-0.9-0.2-1.6-0.5-2-1c-0.4-0.4-0.6-1-0.6-1.7c0-0.6,0.2-1.1,0.5-1.5
			c0.3-0.4,0.8-0.8,1.3-1c0.6-0.2,1.2-0.4,2-0.4c1.1,0,2,0.2,2.6,0.7C49.1,136.5,49.5,137.2,49.7,138z"/>
		<path class="st1" d="M55.9,145c-0.9,0-1.8-0.2-2.4-0.6c-0.7-0.4-1.2-1-1.6-1.7c-0.4-0.7-0.5-1.6-0.5-2.6c0-1,0.2-1.8,0.6-2.5
			s0.9-1.3,1.5-1.7s1.4-0.6,2.3-0.6c0.6,0,1.1,0.1,1.6,0.3c0.5,0.2,1,0.5,1.4,0.9c0.4,0.4,0.7,0.9,0.9,1.5s0.3,1.3,0.3,2.1v0.7h-7.7
			v-1.5h5.6c0-0.4-0.1-0.8-0.3-1.1c-0.2-0.3-0.4-0.6-0.7-0.8c-0.3-0.2-0.7-0.3-1.1-0.3c-0.5,0-0.8,0.1-1.2,0.3
			c-0.3,0.2-0.6,0.5-0.8,0.9s-0.3,0.7-0.3,1.2v1.3c0,0.5,0.1,1,0.3,1.4c0.2,0.4,0.5,0.7,0.8,0.9c0.4,0.2,0.8,0.3,1.3,0.3
			c0.3,0,0.6,0,0.9-0.1s0.5-0.2,0.7-0.4c0.2-0.2,0.3-0.4,0.4-0.7l2.1,0.2c-0.1,0.5-0.4,1-0.7,1.4c-0.4,0.4-0.8,0.7-1.4,0.9
			C57.2,144.9,56.6,145,55.9,145z"/>
		<path class="st1" d="M61.9,144.9v-9.4H64v1.6h0.1c0.2-0.5,0.5-1,0.9-1.3s0.9-0.4,1.4-0.4c0.1,0,0.3,0,0.4,0c0.2,0,0.3,0,0.4,0v2
			c-0.1,0-0.2-0.1-0.4-0.1c-0.2,0-0.4,0-0.6,0c-0.4,0-0.8,0.1-1.1,0.3c-0.3,0.2-0.6,0.4-0.8,0.7c-0.2,0.3-0.3,0.7-0.3,1.1v5.5H61.9z
			"/>
		<path class="st1" d="M75.3,132.4v12.5h-2.3v-12.5H75.3z"/>
		<path class="st1" d="M82,144.9h-4.2v-12.5h4.3c1.2,0,2.3,0.2,3.2,0.7c0.9,0.5,1.6,1.2,2.1,2.1c0.5,0.9,0.7,2,0.7,3.3
			c0,1.3-0.2,2.4-0.7,3.4c-0.5,0.9-1.2,1.7-2.1,2.2C84.4,144.6,83.3,144.9,82,144.9z M80.1,142.9h1.9c0.9,0,1.6-0.2,2.2-0.5
			c0.6-0.3,1-0.8,1.3-1.4c0.3-0.6,0.4-1.4,0.4-2.4s-0.1-1.8-0.4-2.4c-0.3-0.6-0.7-1.1-1.3-1.4c-0.6-0.3-1.3-0.5-2.1-0.5h-1.9V142.9z
			"/>
		<path class="st1" d="M95.8,138.3c-0.4,0-0.7-0.1-1-0.4s-0.4-0.6-0.4-1c0-0.4,0.1-0.7,0.4-0.9c0.3-0.3,0.6-0.4,1-0.4
			c0.4,0,0.7,0.1,0.9,0.4c0.3,0.3,0.4,0.6,0.4,0.9c0,0.2-0.1,0.5-0.2,0.7c-0.1,0.2-0.3,0.4-0.5,0.5C96.3,138.2,96,138.3,95.8,138.3z
			 M95.8,145c-0.4,0-0.7-0.1-1-0.4c-0.3-0.3-0.4-0.6-0.4-1c0-0.4,0.1-0.7,0.4-0.9c0.3-0.3,0.6-0.4,1-0.4c0.4,0,0.7,0.1,0.9,0.4
			c0.3,0.3,0.4,0.6,0.4,0.9c0,0.2-0.1,0.5-0.2,0.7c-0.1,0.2-0.3,0.4-0.5,0.5C96.3,144.9,96,145,95.8,145z"/>
	</g>
	<g class="st4">
		<path class="st8" d="M103.3,134.3v-1.9h10v1.9h-3.9v10.6h-2.2v-10.6H103.3z"/>
		<path class="st8" d="M122,135.8c-0.1-0.5-0.3-0.9-0.7-1.2c-0.4-0.3-1-0.4-1.6-0.4c-0.5,0-0.9,0.1-1.2,0.2
			c-0.3,0.1-0.6,0.3-0.8,0.6s-0.3,0.5-0.3,0.8c0,0.3,0.1,0.5,0.2,0.7s0.3,0.4,0.5,0.5c0.2,0.1,0.4,0.2,0.7,0.3s0.5,0.2,0.8,0.2
			l1.2,0.3c0.5,0.1,0.9,0.3,1.4,0.4c0.4,0.2,0.8,0.4,1.2,0.7s0.6,0.6,0.8,1c0.2,0.4,0.3,0.9,0.3,1.4c0,0.7-0.2,1.4-0.6,1.9
			s-0.9,1-1.6,1.3s-1.6,0.5-2.6,0.5c-1,0-1.8-0.2-2.5-0.5c-0.7-0.3-1.3-0.7-1.7-1.3c-0.4-0.6-0.6-1.3-0.7-2.1h2.2
			c0,0.4,0.2,0.8,0.4,1.1c0.2,0.3,0.5,0.5,0.9,0.6c0.4,0.1,0.8,0.2,1.3,0.2c0.5,0,0.9-0.1,1.3-0.2s0.7-0.4,0.9-0.6
			c0.2-0.3,0.3-0.6,0.3-0.9c0-0.3-0.1-0.6-0.3-0.8c-0.2-0.2-0.4-0.4-0.8-0.5s-0.7-0.3-1.2-0.4l-1.4-0.4c-1-0.3-1.8-0.7-2.4-1.2
			c-0.6-0.5-0.9-1.3-0.9-2.2c0-0.7,0.2-1.4,0.6-1.9c0.4-0.6,0.9-1,1.6-1.3c0.7-0.3,1.5-0.5,2.4-0.5c0.9,0,1.7,0.2,2.3,0.5
			s1.2,0.7,1.6,1.3c0.4,0.5,0.6,1.2,0.6,1.9H122z"/>
		<path class="st8" d="M130.6,132.1c0.6,0,1.2,0.1,1.8,0.3c0.6,0.2,1.1,0.5,1.5,1c0.5,0.5,0.8,1.1,1.1,1.9c0.3,0.8,0.4,1.7,0.4,2.9
			c0,1.1-0.1,2-0.3,2.9c-0.2,0.8-0.6,1.6-1,2.1c-0.4,0.6-0.9,1-1.5,1.3s-1.3,0.5-2,0.5c-0.8,0-1.5-0.2-2.1-0.5s-1.1-0.7-1.5-1.3
			c-0.4-0.5-0.6-1.2-0.7-1.8h2.2c0.1,0.5,0.3,0.9,0.7,1.2c0.4,0.3,0.8,0.4,1.3,0.4c0.9,0,1.5-0.4,2-1.1c0.5-0.8,0.7-1.8,0.7-3.1
			h-0.1c-0.2,0.4-0.5,0.7-0.8,0.9c-0.3,0.3-0.7,0.5-1.1,0.6c-0.4,0.1-0.8,0.2-1.3,0.2c-0.7,0-1.4-0.2-2-0.5c-0.6-0.4-1-0.8-1.4-1.4
			c-0.3-0.6-0.5-1.3-0.5-2.1c0-0.8,0.2-1.6,0.6-2.2c0.4-0.7,0.9-1.2,1.6-1.5C128.9,132.3,129.7,132.1,130.6,132.1z M130.6,134
			c-0.4,0-0.8,0.1-1.2,0.3s-0.6,0.5-0.8,0.9c-0.2,0.4-0.3,0.8-0.3,1.2c0,0.4,0.1,0.9,0.3,1.2c0.2,0.4,0.5,0.7,0.8,0.9
			c0.3,0.2,0.7,0.3,1.2,0.3c0.3,0,0.6-0.1,0.9-0.2c0.3-0.1,0.5-0.3,0.7-0.5c0.2-0.2,0.4-0.5,0.5-0.8s0.2-0.6,0.2-0.9
			c0-0.4-0.1-0.8-0.3-1.2s-0.5-0.7-0.8-0.9C131.4,134.1,131,134,130.6,134z"/>
		<path class="st8" d="M141.7,145c-0.8,0-1.5-0.2-2.2-0.5c-0.6-0.3-1.2-0.7-1.5-1.3c-0.4-0.5-0.6-1.2-0.6-1.8h2.2
			c0,0.5,0.3,0.9,0.7,1.3c0.4,0.3,0.9,0.5,1.5,0.5c0.4,0,0.8-0.1,1.2-0.3c0.3-0.2,0.6-0.5,0.8-0.8c0.2-0.4,0.3-0.8,0.3-1.2
			c0-0.5-0.1-0.9-0.3-1.3c-0.2-0.4-0.5-0.7-0.8-0.9c-0.4-0.2-0.8-0.3-1.2-0.3c-0.4,0-0.7,0.1-1.1,0.2c-0.4,0.1-0.6,0.3-0.9,0.6
			l-2-0.3l0.7-6.5h7.3v1.9h-5.4l-0.4,3.3h0.1c0.2-0.3,0.6-0.5,1-0.7c0.4-0.2,0.9-0.3,1.4-0.3c0.8,0,1.4,0.2,2,0.5
			c0.6,0.4,1.1,0.8,1.4,1.5c0.3,0.6,0.5,1.3,0.5,2.1c0,0.8-0.2,1.6-0.6,2.2c-0.4,0.6-0.9,1.2-1.6,1.5
			C143.4,144.9,142.6,145,141.7,145z"/>
		<path class="st8" d="M152.7,145c-0.9,0-1.7-0.2-2.4-0.5c-0.7-0.3-1.3-0.7-1.6-1.3s-0.6-1.1-0.6-1.8c0-0.5,0.1-1,0.3-1.4
			c0.2-0.4,0.5-0.8,0.9-1.1c0.4-0.3,0.8-0.5,1.3-0.6v-0.1c-0.6-0.1-1.2-0.5-1.6-1c-0.4-0.5-0.6-1.1-0.6-1.8c0-0.6,0.2-1.2,0.5-1.7
			c0.4-0.5,0.9-0.9,1.5-1.2c0.6-0.3,1.4-0.4,2.2-0.4c0.8,0,1.5,0.1,2.1,0.4s1.1,0.7,1.5,1.2s0.5,1.1,0.5,1.7c0,0.7-0.2,1.3-0.6,1.8
			c-0.4,0.5-0.9,0.8-1.5,1v0.1c0.5,0.1,0.9,0.3,1.3,0.6c0.4,0.3,0.7,0.7,0.9,1.1s0.4,0.9,0.4,1.4c0,0.7-0.2,1.3-0.6,1.8
			c-0.4,0.5-0.9,0.9-1.6,1.3S153.6,145,152.7,145z M152.7,143.3c0.5,0,0.9-0.1,1.2-0.2c0.3-0.2,0.6-0.4,0.8-0.7s0.3-0.6,0.3-1
			c0-0.4-0.1-0.8-0.3-1.1c-0.2-0.3-0.5-0.5-0.8-0.7c-0.3-0.2-0.7-0.3-1.2-0.3c-0.4,0-0.8,0.1-1.2,0.3c-0.4,0.2-0.6,0.4-0.8,0.7
			c-0.2,0.3-0.3,0.7-0.3,1.1c0,0.4,0.1,0.7,0.3,1s0.5,0.5,0.8,0.7S152.2,143.3,152.7,143.3z M152.7,137.6c0.4,0,0.7-0.1,1-0.2
			c0.3-0.2,0.5-0.4,0.7-0.6c0.2-0.3,0.3-0.6,0.3-1c0-0.4-0.1-0.7-0.3-0.9c-0.2-0.3-0.4-0.5-0.7-0.6c-0.3-0.1-0.6-0.2-1-0.2
			c-0.4,0-0.7,0.1-1,0.2s-0.5,0.4-0.7,0.6c-0.2,0.3-0.2,0.6-0.2,0.9c0,0.4,0.1,0.7,0.2,1c0.2,0.3,0.4,0.5,0.7,0.6
			C152,137.5,152.3,137.6,152.7,137.6z"/>
		<path class="st8" d="M159.8,144.9l5.3-10.5v-0.1H159v-1.9h8.5v1.9l-5.3,10.6H159.8z"/>
	</g>
</g>
</svg>
