<?xml version="1.0" encoding="utf-8"?>
<!-- Generator: Adobe Illustrator 22.0.0, SVG Export Plug-In . SVG Version: 6.00 Build 0)  -->
<svg version="1.1" id="Layer_1" xmlns="http://www.w3.org/2000/svg" xmlns:xlink="http://www.w3.org/1999/xlink" x="0px" y="0px"
	 viewBox="0 0 495.2 744.1" style="enable-background:new 0 0 495.2 744.1;" xml:space="preserve">
<style type="text/css">
	.st0{fill:#FFFFFF;}
</style>
<title>Artboard 9 copy 32</title>
<g>
	<path class="st0" d="M480.3,339.9c-19.6-26.5-54.4-38.8-93.8-33.1c0.9-22.7-14.4-43.4-36.8-49c-10.2-2.5-20.8-1.7-30.5,2.4
		c-2.4-15.2-10.6-29.2-22.7-38.8c-13.5-10.7-31-15.2-49.1-12.6c-10.2,1.4-24.2,8.3-31.3,15.3c-9.1,9-15.5,20.5-18.1,32.6
		c-10.4-6.7-21.9-11-34.2-12.8l-0.8,5.5c12.9,1.9,24.9,6.8,35.4,14.3l3.7,2.7l0.7-4.5c1.8-12.5,8-24.5,17.3-33.8
		c6.3-6.2,19.2-12.5,28.2-13.8c16.6-2.3,32.5,1.8,44.8,11.5c12,9.5,19.7,23.6,21.1,38.8l0.4,4.1l3.7-1.9c9.3-4.8,20-6.1,30.1-3.6
		c20.9,5.2,34.7,25.2,32.3,46.5l-0.4,3.7l3.7-0.6c39.2-6.7,72.6,4.4,91.8,30.4c14.4,19.5,17.3,43.5,7.6,62.7
		c-10.7,21.3-34.8,33-67.9,33h-2.8v305.2h5.6V444.5c45.5-0.9,63.4-22.9,70.1-36.1C499.1,387.3,496,361.1,480.3,339.9z"/>
	<path class="st0" d="M311,470.4h21.1l-41.6,72L249,470.5h21.1V439H232v-25.2h25.2L205.9,325l-51.2,88.7h25.2v25.2H73
		c-30.2,0-52.2-10.4-61.9-29.4c-8-15.6-6.3-35.4,4.4-50.4c11.3-15.9,30.1-23.2,51.4-20.1l3.5,0.5l-0.3-3.5
		c-0.9-12.2,0.9-24.3,5.3-35.8c8.5-21.9,26.3-39,48.8-47l1.9-0.7V0h-5.6v248.6c-23.2,8.8-41.4,26.8-50.3,49.6
		c-4.4,11.3-6.3,23-5.9,34.9c-22.1-2.2-41.4,6-53.4,22.8C-1,372.6-2.9,394.6,6.1,412.1c6.2,12.1,23.2,32.5,66.9,32.5h112.5v-36.4
		h-21.1l41.5-71.9l41.5,71.9h-21.1v36.4h38.2v20.3h-25.2l51.2,88.7l51.2-88.7h-25.2v-20.3H377V439h-66.1v31.4H311z"/>
</g>
</svg>
